<svg xmlns="http://www.w3.org/2000/svg" viewBox="0 0 226.72 445"><defs><style>.a{fill:#f7941d;stroke:#be1e2d;stroke-width:11px;}.a,.c{stroke-miterlimit:10;}.b{fill:#fff;}.c{fill:none;stroke:#58595b;stroke-width:28px;}.d{fill:#414042;}.e{fill:#ed1c24;}.f{fill:#1c75bc;}.g{fill:#ef4136;}</style></defs><path class="a" d="M15.44,400.87,65,361.65v26h41.41V371.52h21.13V393a21.13,21.13,0,0,1-21.13,21.13h0v0H65v27.17Z"/><path class="b" d="M37.67,63.73c-2.23,1.42-1.76,3.1-2,4.56-2.76,15.52-3,31.18-3.3,46.77-.66,30.3-.2,60.62-.1,90.93,0,4.57.53,9.14.86,13.71.1,1.31.44,2.66,2.67,2.64a2.76,2.76,0,0,0,2.8-2.19c.23-.77.3-1.56.47-2.34,5.59-26.41,6.06-53.1,7-79.73a282.13,282.13,0,0,0-4.92-63.25C40.48,71.18,40,67.41,37.67,63.73Z"/><path class="b" d="M191.2,62.93c-2.61,3.73-2.85,6.6-3.4,9.37-8.71,43.89-5.45,87.83-1,131.77a130.36,130.36,0,0,0,2.6,14.54c.34,1.55.27,3.89,3.5,3.81,3.41-.09,2.56-2.36,2.8-4,0-.31,0-.63,0-.95.21-45,1.66-90-1.37-135C194,76.35,194.09,70,191.2,62.93Z"/><path class="c" d="M22.54,295.86c.43-8.67-.4-18.49,1.19-28.24.44-2.68-.81-4.45-3.85-5.87-4.95-2.29-9.81-4.73-14.46-7.37-2.3-1.3-4.61-3.29-2.81-5.67,1.92-2.54,4.83-.71,7.19-.14,14.32,3.45,14.42,3.48,14.13-8.18-.82-32.84-1.34-95.69-2.75-128.52a576.82,576.82,0,0,1,1.5-70.06A39.92,39.92,0,0,1,26,29.32c6.6-15.54,23.1-19.79,41.88-21.85a429.27,429.27,0,0,1,99.09.79c22.35,2.71,35.91,12.91,38.19,30,4.12,30.88,2.55,61.84,1.63,92.78-.06,1.89-.26,3.78-.27,5.68-.15,26.22-1.18,82.42-2.45,108.62-.33,6.74-.18,6.82,8.33,4.69,2.75-.69,5.49-1.44,8.28-2.05,1.74-.38,3.76-1,5,.65,1.07,1.39.35,2.73-.63,4-1.87,2.45-4.94,4-8.1,5-10.05,3.24-12.87,8.67-12,16.84,1.69,16.05,2,2.16.3,18.27-.89,8.36-2,16.64-4.82,24.78-3,8.63-9.33,15.07-20.1,18.76q-66.23,22.65-132.46,0c-11-3.75-17.14-10.62-20.13-19.36-4.29-12.5-5-25.26-5.18-38.06C22.49,274.87,22.54,300.92,22.54,295.86Z"/><path class="b" d="M22.54,295.86c.43-8.67-.4-18.49,1.19-28.24.44-2.68-.81-4.45-3.85-5.87-4.95-2.29-9.81-4.73-14.46-7.37-2.3-1.3-4.61-3.29-2.81-5.67,1.92-2.54,4.83-.71,7.19-.14,14.32,3.45,14.42,3.48,14.13-8.18-.82-32.84-1.34-95.69-2.75-128.52a576.82,576.82,0,0,1,1.5-70.06A39.92,39.92,0,0,1,26,29.32c6.6-15.54,23.1-19.79,41.88-21.85a429.27,429.27,0,0,1,99.09.79c22.35,2.71,35.91,12.91,38.19,30,4.12,30.88,2.55,61.84,1.63,92.78-.06,1.89-.26,3.78-.27,5.68-.15,26.22-1.18,82.42-2.45,108.62-.33,6.74-.18,6.82,8.33,4.69,2.75-.69,5.49-1.44,8.28-2.05,1.74-.38,3.76-1,5,.65,1.07,1.39.35,2.73-.63,4-1.87,2.45-4.94,4-8.1,5-10.05,3.24-12.87,8.67-12,16.84,1.69,16.05,2,2.16.3,18.27-.89,8.36-2,16.64-4.82,24.78-3,8.63-9.33,15.07-20.1,18.76q-66.23,22.65-132.46,0c-11-3.75-17.14-10.62-20.13-19.36-4.29-12.5-5-25.26-5.18-38.06C22.49,274.87,22.54,300.92,22.54,295.86Z"/><path class="d" d="M42.47,262.07c-1.43,4.36,3.67,8.56,12.82,11.53a136,136,0,0,0,24.68,6,267.5,267.5,0,0,0,51.89,1.63c15-1,29.27-3.17,42.31-8,8.22-3.06,12.69-6.93,11.63-12.9a134,134,0,0,0-9.49-31.6c-1.1-2.43-2.69-3.1-7.07-2.23a280.08,280.08,0,0,1-109.88.05c-4.1-.81-6.16-.45-7.28,2.12A126.77,126.77,0,0,0,42.47,262.07Z"/><path class="d" d="M37.67,63.73c-2.23,1.42-1.76,3.1-2,4.56-2.76,15.52-3,31.18-3.3,46.77-.66,30.3-.2,90.62-.1,120.93,0,4.57.53,9.14.86,13.71.1,1.31.44,2.66,2.67,2.64a2.76,2.76,0,0,0,2.8-2.19c.23-.77.3-1.56.47-2.34,5.59-26.41,6.06-83.1,7-109.73a282.13,282.13,0,0,0-4.92-63.25C40.48,71.18,40,67.41,37.67,63.73Z"/><path class="d" d="M191.2,62.93c-2.61,3.73-2.85,6.6-3.4,9.37-8.71,43.89-5.45,117.83-1,161.77a130.36,130.36,0,0,0,2.6,14.54c.34,1.55.27,3.89,3.5,3.81,3.41-.09,2.56-2.36,2.8-4,0-.31,0-.63,0-.95.21-45,1.66-120-1.37-165C194,76.35,194.09,70,191.2,62.93Z"/><circle class="e" cx="111.39" cy="315.62" r="27.55"/><path class="b" d="M129.57,321.41q-2.23,0-6.18-.18c-3-.12-5.06-.17-6.23-.17,0,1.19.1,3.42.22,6.66q.14,4.17.13,6.62,0,1.71-6.62,1.71-6.4,0-6.4-1.09c0-1.82,0-4.15.13-7,.09-3.95.14-6.27.17-7q-11.49.34-12.14.35c-.53,0-.79-.45-.79-1.36,0-.29.14-2,.44-5,0-1.75.08-3.55.17-5.39a1.29,1.29,0,0,1,1.19-.66c1.43,0,3.28,0,5.56.13l5.57.18c-.06-2.58-.08-5.33-.08-8.25v-4.78c0-.55.38-.83,1.14-.83q1.62,0,4.8-.09c2.12-.06,3.7-.09,4.76-.09,1.43,0,2.15.25,2.15.75,0,1.46-.06,3.68-.16,6.66s-.15,5.22-.15,6.71q9.38-.17,12.76-.17c.61,0,.92.26.92.79,0,.32-.16,2.12-.48,5.39a32.49,32.49,0,0,1-.27,5.48C130.07,321.2,129.86,321.41,129.57,321.41Z"/><path class="f" d="M85.1,192H69a11,11,0,0,0,0,22H85.1Z"/><path class="f" d="M157.76,192H141.62v22h16.14a11,11,0,0,0,0-22Z"/><rect class="g" x="92.81" y="192.04" width="41.1" height="22.01"/></svg>