<svg xmlns="http://www.w3.org/2000/svg" viewBox="0 0 226.72 369.89"><defs><style>.a{fill:#2e3192;}</style></defs><path class="a" d="M116,105.7a36.59,36.59,0,0,1,13.9,2.8,15.57,15.57,0,0,0,1.79-7.23V15.69a15.69,15.69,0,1,0-31.38,0v85.58a15.45,15.45,0,0,0,1.8,7.23A36.5,36.5,0,0,1,116,105.7Z"/><path class="a" d="M116,318.09c-5.24,0-10.47-.23-15.69-.64V354.2a15.69,15.69,0,1,0,31.38,0V317.45C126.42,317.86,121.19,318.09,116,318.09Z"/><path class="a" d="M25.24,293.83c2,1,4.05,2,6.09,3,.18,2.57.4,5.13.7,7.66a13,13,0,0,0,25.32,2.34,200.58,200.58,0,0,0,116.17.31,13,13,0,0,0,25.85,1.22c.54-3.8.95-7.66,1.22-11.54,2-1,4.07-1.93,6.07-3a5.5,5.5,0,1,0-5-9.79l-.68.33c-.17-30.14-8.45-58.61-23.38-80.24a102.48,102.48,0,0,0-9.83-12.2c-3.2-43.06-25.17-76.39-51.81-76.39s-48.61,33.33-51.81,76.39a102.42,102.42,0,0,0-9.82,12.2c-14.94,21.63-23.22,50.1-23.39,80.24l-.68-.33a5.5,5.5,0,1,0-5,9.79Zm31.68-8.5c0-25.28,6.67-48.87,18.79-66.44,11.11-16.09,25.4-25,40.24-25s29.13,8.87,40.24,25c12.12,17.57,18.8,41.16,18.8,66.44,0,3.31-.13,6.62-.36,9.9a189.42,189.42,0,0,1-117.34,0C57.05,291.94,56.92,288.63,56.92,285.33Z"/><path class="a" d="M116,290.66a30.61,30.61,0,0,1-15.69-4.42v15.1c5.22.43,10.45.66,15.69.66s10.48-.23,15.69-.66v-15.1A30.61,30.61,0,0,1,116,290.66Z"/><ellipse class="a" cx="115.95" cy="242.24" rx="31.99" ry="41.19"/></svg>