<svg xmlns="http://www.w3.org/2000/svg" viewBox="0 0 226.72 445"><defs><style>.a,.c{fill:#f7941d;}.a{stroke:#231f20;stroke-width:11px;}.a,.b{stroke-miterlimit:10;}.b{fill:none;stroke:#58595b;stroke-width:28px;}</style></defs><polygon class="a" points="130.29 394.17 130.29 372.15 97.88 372.15 97.88 394.17 64.58 394.17 114.08 443.68 163.59 394.17 130.29 394.17"/><path class="b" d="M207.9,282.69a8,8,0,0,0-8.32-4.89c-1.6-37.72-8.78-65.76-21.82-85.38a74.56,74.56,0,0,0-43.25-31.33V146.45a21.09,21.09,0,0,0-8-16.57V24.67a13.1,13.1,0,0,0-13.11-13.1h0a13.1,13.1,0,0,0-13.11,13.1V129.88a21.08,21.08,0,0,0-8,16.57v15.12a74.37,74.37,0,0,0-41.57,30.85c-13.09,19.69-20.27,47.85-21.84,85.76a8,8,0,0,0-5.64,14.95q2.66,1.11,5.35,2.13a8.48,8.48,0,0,0,14.78,5.08,235.34,235.34,0,0,0,57,10v33a13.11,13.11,0,0,0,13.11,13.11h0a13.11,13.11,0,0,0,13.11-13.11v-33a235.28,235.28,0,0,0,58.28-10.39,8.5,8.5,0,0,0,15.17-5.26v-.08c1.21-.47,2.43-.95,3.64-1.45A8,8,0,0,0,207.9,282.69Zm-81.43,11.59V260.81a25.73,25.73,0,0,1-7.34,2.75c-1.06,3.06-3.24,5.16-5.77,5.16s-4.91-2.3-5.91-5.59a26.3,26.3,0,0,1-7.2-3.28v34.43a219,219,0,0,1-54.63-10c.7-27.48,4.29-49.33,10.85-66.12l7.6,4.56S66,219,68,216a59,59,0,0,0,16.8,8.82c1.32-16.23,11.62-29.26,24.79-31.73a21.09,21.09,0,0,0,3.75.35h0a21.56,21.56,0,0,0,4.51-.49c13.57,2.06,24.27,15.29,25.63,31.86a57.75,57.75,0,0,0,17.66-9.51l4.46,8.27,7.72-1.54c5.63,16.13,8.75,36.58,9.43,61.79A218.83,218.83,0,0,1,126.47,294.28Zm8.43-65.37c0,12.93-8.07,23.57-18.43,25-.67,2.4-1.46,3.8-2.31,3.8s-1.64-1.4-2.31-3.8c-10.37-1.4-18.43-12-18.43-25,0-13.88,9.29-25.13,20.74-25.13S134.9,215,134.9,228.91Z"/><path class="c" d="M207.9,282.69a8,8,0,0,0-8.32-4.89c-1.6-37.72-8.78-65.76-21.82-85.38a74.56,74.56,0,0,0-43.25-31.33V146.45a21.09,21.09,0,0,0-8-16.57V24.67a13.1,13.1,0,0,0-13.11-13.1h0a13.1,13.1,0,0,0-13.11,13.1V129.88a21.08,21.08,0,0,0-8,16.57v15.12a74.37,74.37,0,0,0-41.57,30.85c-13.09,19.69-20.27,47.85-21.84,85.76a8,8,0,0,0-5.64,14.95q2.66,1.11,5.35,2.13a8.48,8.48,0,0,0,14.78,5.08,235.34,235.34,0,0,0,57,10v33a13.11,13.11,0,0,0,13.11,13.11h0a13.11,13.11,0,0,0,13.11-13.11v-33a235.28,235.28,0,0,0,58.28-10.39,8.5,8.5,0,0,0,15.17-5.26v-.08c1.21-.47,2.43-.95,3.64-1.45A8,8,0,0,0,207.9,282.69Zm-81.43,11.59V260.81a25.73,25.73,0,0,1-7.34,2.75c-1.06,3.06-3.24,5.16-5.77,5.16s-4.91-2.3-5.91-5.59a26.3,26.3,0,0,1-7.2-3.28v34.43a219,219,0,0,1-54.63-10c.7-27.48,4.29-49.33,10.85-66.12l7.6,4.56S66,219,68,216a59,59,0,0,0,16.8,8.82c1.32-16.23,11.62-29.26,24.79-31.73a21.09,21.09,0,0,0,3.75.35h0a21.56,21.56,0,0,0,4.51-.49c13.57,2.06,24.27,15.29,25.63,31.86a57.75,57.75,0,0,0,17.66-9.51l4.46,8.27,7.72-1.54c5.63,16.13,8.75,36.58,9.43,61.79A218.83,218.83,0,0,1,126.47,294.28Zm8.43-65.37c0,12.93-8.07,23.57-18.43,25-.67,2.4-1.46,3.8-2.31,3.8s-1.64-1.4-2.31-3.8c-10.37-1.4-18.43-12-18.43-25,0-13.88,9.29-25.13,20.74-25.13S134.9,215,134.9,228.91Z"/></svg>