<svg xmlns="http://www.w3.org/2000/svg" viewBox="0 0 226.72 445"><defs><style>.a,.c{fill:#f15a29;}.a{stroke:#231f20;stroke-width:11px;}.a,.b{stroke-miterlimit:10;}.b{fill:none;stroke:#58595b;stroke-width:28px;}.d{fill:#fff;}</style></defs><path class="a" d="M15.44,400.87,65,361.65v26h41.41V371.52h21.13V393a21.13,21.13,0,0,1-21.13,21.13h0v0H65v27.17Z"/><path class="b" d="M22.54,265.86c.43-8.67-.4-18.49,1.19-28.24.44-2.68-.81-4.45-3.85-5.87-4.95-2.29-9.81-4.73-14.46-7.37-2.3-1.3-4.61-3.29-2.81-5.67,1.92-2.54,4.83-.71,7.19-.14,14.32,3.45,14.42,3.48,14.13-8.18-.82-32.84-1.34-65.69-2.75-98.52a576.82,576.82,0,0,1,1.5-70.06A39.92,39.92,0,0,1,26,29.32c6.6-15.54,23.1-19.79,41.88-21.85a429.27,429.27,0,0,1,99.09.79c22.35,2.71,35.91,12.91,38.19,30,4.12,30.88,2.55,61.84,1.63,92.78-.06,1.89-.26,3.78-.27,5.68-.15,26.22-1.18,52.42-2.45,78.62-.33,6.74-.18,6.82,8.33,4.69,2.75-.69,5.49-1.44,8.28-2.05,1.74-.38,3.76-1,5,.65,1.07,1.39.35,2.73-.63,4-1.87,2.45-4.94,4-8.1,5-10.05,3.24-12.87,8.67-12,16.84a228.39,228.39,0,0,1,.3,48.27c-.89,8.36-2,16.64-4.82,24.78-3,8.63-9.33,15.07-20.1,18.76q-66.23,22.65-132.46,0c-11-3.75-17.14-10.62-20.13-19.36-4.29-12.5-5-25.26-5.18-38.06C22.49,274.87,22.54,270.92,22.54,265.86Z"/><path class="c" d="M22.54,265.86c.43-8.67-.4-18.49,1.19-28.24.44-2.68-.81-4.45-3.85-5.87-4.95-2.29-9.81-4.73-14.46-7.37-2.3-1.3-4.61-3.29-2.81-5.67,1.92-2.54,4.83-.71,7.19-.14,14.32,3.45,14.42,3.48,14.13-8.18-.82-32.84-1.34-65.69-2.75-98.52a576.82,576.82,0,0,1,1.5-70.06A39.92,39.92,0,0,1,26,29.32c6.6-15.54,23.1-19.79,41.88-21.85a429.27,429.27,0,0,1,99.09.79c22.35,2.71,35.91,12.91,38.19,30,4.12,30.88,2.55,61.84,1.63,92.78-.06,1.89-.26,3.78-.27,5.68-.15,26.22-1.18,52.42-2.45,78.62-.33,6.74-.18,6.82,8.33,4.69,2.75-.69,5.49-1.44,8.28-2.05,1.74-.38,3.76-1,5,.65,1.07,1.39.35,2.73-.63,4-1.87,2.45-4.94,4-8.1,5-10.05,3.24-12.87,8.67-12,16.84a228.39,228.39,0,0,1,.3,48.27c-.89,8.36-2,16.64-4.82,24.78-3,8.63-9.33,15.07-20.1,18.76q-66.23,22.65-132.46,0c-11-3.75-17.14-10.62-20.13-19.36-4.29-12.5-5-25.26-5.18-38.06C22.49,274.87,22.54,270.92,22.54,265.86Z"/><path class="d" d="M42.47,241.65c-1.43,5.53,3.67,10.84,12.82,14.6,7.87,3.24,15.86,6.17,24.68,7.62A211.48,211.48,0,0,0,131.86,266c15-1.23,29.27-4,42.31-10.17,8.22-3.87,12.69-8.77,11.63-16.34a204.47,204.47,0,0,0-9.49-40c-1.1-3.09-2.69-3.93-7.07-2.83a222.53,222.53,0,0,1-109.88.06c-4.1-1-6.16-.56-7.28,2.68A194.33,194.33,0,0,0,42.47,241.65Z"/><path class="d" d="M174.72,102.92c.33-3.1.85-6.2.95-9.3.22-7.42.23-14.84.35-22.26C176.21,60,172.4,56,157.69,53.52c-20.39-3.41-41.1-3.77-61.86-2.62C86.13,51.44,76.39,52,67,54.25,56.15,56.81,51.94,61,52.09,69.47c.19,10.41.74,20.83,1.18,31.24,0,.87-.29,2,2,2.42,6.85-7.79,17.74-10,29.33-11a348.44,348.44,0,0,1,60.17.13C156,93.32,166.29,95.68,174.72,102.92Z"/><path class="d" d="M37.67,63.73c-2.23,1.42-1.76,3.1-2,4.56-2.76,15.52-3,31.18-3.3,46.77-.66,30.3-.2,60.62-.1,90.93,0,4.57.53,9.14.86,13.71.1,1.31.44,2.66,2.67,2.64a2.76,2.76,0,0,0,2.8-2.19c.23-.77.3-1.56.47-2.34,5.59-26.41,6.06-53.1,7-79.73a282.13,282.13,0,0,0-4.92-63.25C40.48,71.18,40,67.41,37.67,63.73Z"/><path class="d" d="M191.2,62.93c-2.61,3.73-2.85,6.6-3.4,9.37-8.71,43.89-5.45,87.83-1,131.77a130.36,130.36,0,0,0,2.6,14.54c.34,1.55.27,3.89,3.5,3.81,3.41-.09,2.56-2.36,2.8-4,0-.31,0-.63,0-.95.21-45,1.66-90-1.37-135C194,76.35,194.09,70,191.2,62.93Z"/></svg>