<svg xmlns="http://www.w3.org/2000/svg" viewBox="0 0 226.72 369.89"><defs><style>.a{fill:#2e3192;}</style></defs><path class="a" d="M40.56,280.09c.34-9.15-.32-19.5,1-29.78.35-2.83-.65-4.69-3.1-6.19-4-2.42-7.88-5-11.6-7.77-1.85-1.38-3.71-3.47-2.26-6,1.54-2.68,3.88-.75,5.77-.15,11.5,3.64,11.58,3.67,11.35-8.63C41,187,40.6,152.32,39.47,117.7c-.81-24.67-.27-49.27,1.2-73.88a52.82,52.82,0,0,1,2.65-13.18C48.62,14.26,61.87,9.78,77,7.6a263.43,263.43,0,0,1,79.58.84c18,2.86,28.85,13.61,30.68,31.6,3.3,32.57,2,65.21,1.3,97.84,0,2-.21,4-.22,6-.11,27.65-.94,55.28-2,82.91-.26,7.11-.15,7.19,6.69,4.95,2.21-.73,4.41-1.52,6.65-2.17,1.4-.4,3-1,4,.69.86,1.46.29,2.88-.5,4.23a13.25,13.25,0,0,1-6.51,5.28c-8.07,3.42-10.33,9.14-9.64,17.76a315.67,315.67,0,0,1,.25,50.9c-.72,8.82-1.63,17.55-3.88,26.13-2.38,9.1-7.49,15.9-16.14,19.79q-53.19,23.88-106.38,0c-8.8-3.95-13.77-11.19-16.17-20.41-3.44-13.18-4-26.63-4.16-40.14C40.53,289.59,40.56,285.42,40.56,280.09Zm16-25.54c-1.15,5.84,3,11.43,10.29,15.4,6.33,3.42,12.74,6.51,19.83,8a130,130,0,0,0,41.67,2.19c12-1.29,23.51-4.25,34-10.72,6.6-4.08,10.2-9.25,9.34-17.23a273.13,273.13,0,0,0-7.62-42.2c-.88-3.25-2.16-4.14-5.68-3a137.65,137.65,0,0,1-88.25.06c-3.29-1.08-4.95-.59-5.84,2.83A260.28,260.28,0,0,0,56.57,254.55ZM162.78,108.26c.26-3.27.69-6.53.76-9.8.18-7.83.19-15.66.29-23.48.15-12-2.91-16.21-14.72-18.81-16.38-3.6-33-4-49.68-2.77-7.8.57-15.62,1.2-23.15,3.54-8.73,2.7-12.11,7.06-12,16,.15,11,.59,22,.94,32.94,0,.92-.23,2.08,1.6,2.56,5.5-8.22,14.25-10.58,23.56-11.57a213.33,213.33,0,0,1,48.32.13C147.75,98.14,156,100.63,162.78,108.26ZM52.71,66.93c-1.79,1.5-1.41,3.27-1.62,4.82-2.21,16.36-2.38,32.87-2.65,49.31-.52,32-.16,63.93-.08,95.89,0,4.82.43,9.64.69,14.46.08,1.38.35,2.81,2.15,2.78,1.36,0,2-1.1,2.24-2.31.19-.81.25-1.64.38-2.46,4.49-27.85,4.87-56,5.66-84.09a388.7,388.7,0,0,0-3.95-66.69C55,74.79,54.61,70.82,52.71,66.93ZM176,66.09c-2.1,3.94-2.29,7-2.73,9.88-7,46.28-4.38,92.62-.79,139,.4,5.13,1.24,10.24,2.09,15.33.27,1.63.22,4.11,2.81,4s2.06-2.49,2.25-4.2c0-.33,0-.67,0-1,.17-47.44,1.34-94.9-1.1-142.32C178.23,80.24,178.34,73.56,176,66.09Z"/></svg>