<svg xmlns="http://www.w3.org/2000/svg" viewBox="0 0 226.72 445"><defs><style>.a{fill:#f7941d;stroke:#be1e2d;stroke-width:11px;}.a,.b{stroke-miterlimit:10;}.b{fill:none;stroke:#58595b;stroke-width:28px;}.c{fill:#f15a29;}.d{fill:#fff;}.e{fill:#58595b;}</style></defs><path class="a" d="M15.44,400.87,65,361.65v26h41.41V371.52h21.13V393a21.13,21.13,0,0,1-21.13,21.13h0v0H65v27.17Z"/><path class="b" d="M22.54,295.86c.18-3.57.14-7.34.15-11.21-.07-1.94-.11-3.88-.14-5.83C22.49,274.87,22.54,300.92,22.54,295.86Z"/><path class="c" d="M22.54,295.86c.18-3.57.14-7.34.15-11.21-.07-1.94-.11-3.88-.14-5.83C22.49,274.87,22.54,300.92,22.54,295.86Z"/><path class="b" d="M220.65,248c-2.79.61-5.53,1.36-8.28,2.05-8.51,2.13-8.66,2.05-8.33-4.69.43-8.83.83-21.08,1.18-34.44H192.77V187.39h13c.39-19.37.66-38.36.73-50.7,0-1.9.21-3.79.27-5.68.92-30.94,2.49-61.9-1.63-92.78-2.28-17.06-15.84-27.26-38.19-30a429.27,429.27,0,0,0-99.09-.79C49.07,9.53,32.57,13.78,26,29.32a39.92,39.92,0,0,0-3.29,12.49,576.77,576.77,0,0,0-1.5,70.06c.81,19,1.33,48,1.78,75.52H34v23.48H23.35c.18,11.1.37,21.26.58,29.52.29,11.66.19,11.63-14.13,8.18-2.36-.57-5.27-2.4-7.19.14-1.8,2.38.51,4.37,2.81,5.67,4.65,2.64,9.51,5.08,14.46,7.37,3,1.42,4.29,3.19,3.85,5.87a105,105,0,0,0-1,17c.35,10.85,1.4,21.63,5,32.23,3,8.74,9.18,15.61,20.13,19.36q66.16,22.59,132.46,0c10.77-3.69,17.14-10.13,20.1-18.76,2.79-8.14,3.93-16.42,4.82-24.78,1.72-16.11,1.39-2.22-.3-18.27-.87-8.17,1.95-13.6,12-16.84,3.16-1,6.23-2.56,8.1-5,1-1.28,1.7-2.62.63-4C224.41,247,222.39,247.57,220.65,248Z"/><path class="c" d="M220.65,248c-2.79.61-5.53,1.36-8.28,2.05-8.51,2.13-8.66,2.05-8.33-4.69.43-8.83.83-21.08,1.18-34.44H192.77V187.39h13c.39-19.37.66-38.36.73-50.7,0-1.9.21-3.79.27-5.68.92-30.94,2.49-61.9-1.63-92.78-2.28-17.06-15.84-27.26-38.19-30a429.27,429.27,0,0,0-99.09-.79C49.07,9.53,32.57,13.78,26,29.32a39.92,39.92,0,0,0-3.29,12.49,576.77,576.77,0,0,0-1.5,70.06c.81,19,1.33,48,1.78,75.52H34v23.48H23.35c.18,11.1.37,21.26.58,29.52.29,11.66.19,11.63-14.13,8.18-2.36-.57-5.27-2.4-7.19.14-1.8,2.38.51,4.37,2.81,5.67,4.65,2.64,9.51,5.08,14.46,7.37,3,1.42,4.29,3.19,3.85,5.87a105,105,0,0,0-1,17c.35,10.85,1.4,21.63,5,32.23,3,8.74,9.18,15.61,20.13,19.36q66.16,22.59,132.46,0c10.77-3.69,17.14-10.13,20.1-18.76,2.79-8.14,3.93-16.42,4.82-24.78,1.72-16.11,1.39-2.22-.3-18.27-.87-8.17,1.95-13.6,12-16.84,3.16-1,6.23-2.56,8.1-5,1-1.28,1.7-2.62.63-4C224.41,247,222.39,247.57,220.65,248Z"/><path class="d" d="M85.1,225.78H69a11,11,0,0,0,0,22H85.1Z"/><path class="d" d="M157.76,225.78H141.62v22h16.14a11,11,0,0,0,0-22Z"/><rect class="d" x="92.81" y="225.78" width="41.1" height="22.01"/><rect class="e" x="43.89" y="197" width="138.94" height="14.61"/><path class="d" d="M42.47,305.59c-1.43,3.4,3.67,6.66,12.82,9A170,170,0,0,0,80,319.24a342.53,342.53,0,0,0,51.89,1.27c15-.75,29.27-2.47,42.31-6.24,8.22-2.38,12.69-5.39,11.63-10a87.78,87.78,0,0,0-9.49-24.57c-1.1-1.89-2.69-2.41-7.07-1.73a358.9,358.9,0,0,1-109.88,0c-4.1-.63-6.16-.34-7.28,1.65A82.77,82.77,0,0,0,42.47,305.59Z"/></svg>