<?xml version="1.0" encoding="utf-8"?>
<!-- Generator: Adobe Illustrator 24.3.0, SVG Export Plug-In . SVG Version: 6.00 Build 0)  -->
<svg version="1.1" id="Layer_1" xmlns="http://www.w3.org/2000/svg" xmlns:xlink="http://www.w3.org/1999/xlink" x="0px" y="0px"
	 viewBox="0 0 497 497" style="enable-background:new 0 0 497 497;" xml:space="preserve">
<style type="text/css">
	.st0{fill:#FFFFFF;stroke:#000000;stroke-miterlimit:10;}
	.st1{fill:#FFFFFF;stroke:#000000;stroke-width:5;stroke-miterlimit:10;}
	.st2{fill:none;stroke:#ED1C24;stroke-miterlimit:10;}
	.st3{fill:none;stroke:#2E3192;stroke-miterlimit:10;}
	.st4{fill:none;stroke:#00A651;stroke-miterlimit:10;}
	.st5{fill:#E6E7E8;stroke:#000000;stroke-miterlimit:10;}
</style>
<path id="t-junction" class="st0" d="M0.5,160v177h131c15.7,0,28.5,12.8,28.5,28.5v131h177v-131c0-15.7,12.8-28.5,28.5-28.5h131V160 H0.5z"/>
<path id="intersection" class="st1" d="M496.5,160h-131c-15.7,0-28.5-12.8-28.5-28.5V0.5H160v131c0,15.7-12.8,28.5-28.5,28.5H0.5 v177h131c15.7,0,28.5,12.8,28.5,28.5v131h177v-131c0-15.7,12.8-28.5,28.5-28.5h131V160z"/>
<path id="path-right-3" class="st2" d="M0.5,301.1h158.1c78.8,0,106.6-59,106.6-139.3V1.4"/>
<path id="path-right-2" class="st3" d="M0.5,301.1h160.8c139.7,0,131.5-107.8,131.5-132V1.4"/>
<path id="path-right-1" class="st4" d="M0,321.1h159.1c78.3,0,163.5-24.2,163.5-157.3V1.4"/>
<path id="path-left-3" class="st2" d="M496.5,194.6H349.9c-46.1,0-84.7-7.5-84.7-32.8V1.4"/>
<path id="path-left-2" class="st3" d="M496.5,194.6H349.9c-37.1,0-57.1-18.6-57.1-33V1.4"/>
<path id="path-left-1" class="st4" d="M496.5,174.3H343.6c-15.1,0-21-7.3-21-12.5V1.4"/>
<path id="path-straight-3" class="st2" d="M265.2,0c0,0,0,107,0,161.8c0,83.3,27.7,174.3,27.7,201.5c0,44.2,0,133.2,0,133.2"/>
<line id="path-straight-2" class="st3" x1="292.8" y1="0" x2="292.8" y2="496.5"/>
<line id="path-straight-1_1_" class="st4" x1="322.6" y1="0" x2="322.6" y2="496.5"/>
<path id="car-2" class="st5" d="M272.1,161.8h-13.8c-2.3,0-4.1-1.8-4.1-4.1v-33.1c0-2.3,1.8-4.1,4.1-4.1h13.8c2.3,0,4.1,1.8,4.1,4.1 v33.1C276.2,159.9,274.3,161.8,272.1,161.8z"/>
<path id="car-1" class="st5" d="M299.7,161.8H286c-2.3,0-4.1-1.8-4.1-4.1v-33.1c0-2.3,1.8-4.1,4.1-4.1h13.8c2.3,0,4.1,1.8,4.1,4.1 v33.1C303.8,159.9,302,161.8,299.7,161.8z"/>
<path id="bike-1" class="st5" d="M323.3,161.8h-1.4c-2.3,0-4.1-1.8-4.1-4.1v-33.1c0-2.3,1.8-4.1,4.1-4.1h1.4c2.3,0,4.1,1.8,4.1,4.1 v33.1C327.4,159.9,325.5,161.8,323.3,161.8z"/>
</svg>
