<svg xmlns="http://www.w3.org/2000/svg" viewBox="0 0 496.5 496.5">
    <path class="a" d="M.5,301.07h99.59c78.78,0,165.11-59,165.11-139.33V1.42"/>
    <path class="b" d="M.5,301.11H102.78c139.75,0,190.07-107.85,190.07-132V1.42"/>
    <path class="c" d="M0,321.11H88c129.39,0,234.56-85.78,234.56-178.13V1.42"/>
    <path class="a" d="M496.5,195.15H349.9c-46.1,0-84.7-7.5-84.7-32.92V1.42"/>
    <path class="b" d="M496.5,194.59H349.9c-37.12,0-57-18.64-57-33V1.42"/>
    <path class="c" d="M496.5,174.26H343.57c-15.14,0-21-7.25-21-12.49V1.42"/>
    <path class="a" d="M265.2,0V161.76c0,83.35,27,174.31,27,201.52V496.5"/>
    <line class="b" x1="292.85" x2="292.85" y2="496.5"/>
    <line class="c" x1="322.6" x2="322.6" y2="496.5"/>
</svg>