<svg xmlns="http://www.w3.org/2000/svg" viewBox="0 0 497 497"><defs><style>.a{fill:#e6e7e8;}</style></defs><polygon class="a" points="151.22 180.27 151.22 176.02 150.69 175.5 151.22 174.97 151.22 170.72 148.57 173.37 139.17 163.98 134.93 163.98 151.22 180.27"/><path class="a" d="M150.66,319.24l.56.56v-4.24l-6.71-6.71,6.71-6.71v-4.25l-8.83,8.84-20.11-20.11,11.83-11.83,17.11,17.11v-4.25l-1-1,1-1v-4.25l-3.15,3.15L128,264.4l11.84-11.83L151.22,264v-4.25l-17.57-17.57,11.83-11.83,5.74,5.74v-4.24L139.33,220l11.83-11.83.06.06v-4.25L145,197.72l6.21-6.21v-4.25l-8.33,8.34-20.11-20.11L134.3,164h-4.25l-9.39,9.39L111.27,164H107l19.79,19.79L115,195.6l-20.1-20.11L106.39,164h-4.24l-9.4,9.39L83.36,164H79.11L98.9,183.77,87.07,195.6,67,175.49,78.48,164H74.24l-9.39,9.39L55.45,164H51.21L71,183.77,59.16,195.6l-20.1-20.11L50.58,164H46.33l-9.39,9.39L27.55,164H23.3l19.79,19.79L31.26,195.6l-20.1-20.11L22.67,164H18.43L9,173.37,3.57,167.9v4.25l11.61,11.62L3.57,195.38v4.68L9.5,206l-5.93,5.94v4.24l8-8,20.11,20.1L19.9,240.05,3.57,223.72V228l.25.26-.25.25v4.25l2.37-2.38L26,250.44,14.21,262.27,3.57,251.62v4.25l16.79,16.8L8.53,284.5l-5-5v4.25L14.68,294.9,3.57,306v5.67L9,317.12l-5.43,5.44v4.24l7.55-7.56L24.9,333h4.25l-1.95-1.95L39,319.24,52.81,333h4.25l-2-1.95,11.83-11.83L80.72,333H85L83,331.07l11.83-11.83L108.62,333h4.25l-2-1.95,11.83-11.83L136.53,333h4.25l-1.95-1.95ZM126.31,294.9l-11.83,11.83-20.1-20.11,11.83-11.83ZM77.83,242.17l11.83-11.83,20.11,20.1L97.94,262.27Zm26.25,30.5L92.25,284.5l-20.1-20.1L84,252.57ZM83.51,220l11.83-11.83,20.11,20.1-11.83,11.83Zm4,8.27L75.71,240.05,55.61,220l11.83-11.83Zm-5.68,22.22L70,262.27l-20.1-20.1,11.83-11.83Zm-5.68,22.23L64.35,284.5,44.24,264.4l11.83-11.83ZM70.5,294.9,58.67,306.73,38.56,286.62l11.83-11.83Zm-4-8.28L78.3,274.79,98.4,294.9,86.57,306.73ZM132,272.67,120.16,284.5l-20.1-20.1,11.83-11.83Zm5.68-22.23-11.83,11.83-20.1-20.1,11.83-11.83Zm5.68-22.22-11.83,11.83L111.42,220l11.83-11.83Zm-14.42-42.33L149,206,137.2,217.82l-20.1-20.1Zm-27.91,0L121.13,206,109.3,217.82l-20.11-20.1Zm-27.9,0L93.22,206,81.39,217.82l-20.1-20.1Zm-27.91,0L65.31,206,53.48,217.82l-20.1-20.1ZM5.47,197.72,17.3,185.89,37.41,206,25.58,217.82ZM27.7,220l11.83-11.83,20.1,20.1L47.8,240.05ZM22,242.17l11.83-11.83L54,250.44,42.12,262.27ZM16.34,264.4l11.83-11.83,20.1,20.1L36.44,284.5Zm-5.68,22.22,11.83-11.83,20.1,20.11L30.76,306.73ZM25.08,329,5,308.85,16.81,297l20.1,20.1ZM53,329l-20.11-20.1L44.71,297l20.11,20.1Zm27.9,0-20.1-20.1L72.62,297l20.1,20.1Zm27.91,0-20.1-20.1L100.53,297l20.1,20.1Zm7.8-20.1L128.43,297l20.11,20.1L136.71,329Z"/></svg>