<svg xmlns="http://www.w3.org/2000/svg" viewBox="0 0 497 497"><defs><style>.a{fill:#e6e7e8;}</style></defs><polygon class="a" points="345.78 316.73 345.78 320.98 346.31 321.5 345.78 322.03 345.78 326.28 348.43 323.63 357.83 333.02 362.07 333.02 345.78 316.73"/><path class="a" d="M346.34,177.76l-.56-.56v4.24l6.71,6.71-6.71,6.71v4.25l8.83-8.84,20.11,20.11-11.83,11.83L345.78,205.1v4.25l1,1-1,1v4.25l3.15-3.15L369,232.6,357.2,244.43,345.78,233v4.25l17.57,17.57-11.83,11.83-5.74-5.74v4.24l11.89,11.89-11.83,11.83-.06-.06v4.25l6.21,6.21-6.21,6.21v4.25l8.33-8.34,20.11,20.11L362.7,333H367l9.39-9.39,9.39,9.39H390l-19.79-19.79L382,301.4l20.1,20.11L390.61,333h4.24l9.4-9.39,9.39,9.39h4.25L398.1,313.23l11.83-11.83L430,321.51,418.52,333h4.24l9.39-9.39,9.4,9.39h4.24L426,313.23l11.83-11.83,20.1,20.11L446.42,333h4.25l9.39-9.39,9.39,9.39h4.25l-19.79-19.79,11.83-11.83,20.1,20.11L474.33,333h4.24l9.4-9.39,5.46,5.47v-4.25l-11.61-11.62,11.61-11.61v-4.68L487.5,291l5.93-5.94v-4.24l-8.05,8.05-20.11-20.1L477.1,257l16.33,16.33V269l-.25-.26.25-.25v-4.25l-2.37,2.38L471,246.56l11.83-11.83,10.64,10.64v-4.24l-16.79-16.8,11.83-11.83,5,5v-4.25L482.32,202.1,493.43,191v-5.67L488,179.88l5.43-5.44V170.2l-7.55,7.56L472.1,164h-4.25l1.95,2L458,177.76,444.19,164h-4.25l1.95,2-11.83,11.83L416.28,164H412l1.94,2-11.83,11.83L388.38,164h-4.25l1.95,2-11.83,11.83L360.47,164h-4.25l1.95,2Zm24.35,24.34,11.83-11.83,20.1,20.11-11.83,11.83Zm48.48,52.73-11.83,11.83-20.11-20.1,11.83-11.83Zm-26.25-30.5,11.83-11.83,20.1,20.1L413,244.43Zm20.57,52.72-11.83,11.83-20.11-20.1L393.38,257Zm-4-8.27L421.29,257l20.1,20.1-11.83,11.83Zm5.68-22.22L427,234.73l20.1,20.1-11.83,11.83Zm5.68-22.23,11.83-11.83,20.11,20.1-11.83,11.83Zm5.68-22.23,11.83-11.83,20.11,20.11-11.83,11.83Zm4,8.28L418.7,222.21,398.6,202.1l11.83-11.83Zm-65.52,14,11.83-11.83,20.1,20.1-11.83,11.83Zm-5.68,22.23,11.83-11.83,20.1,20.1-11.83,11.83Zm-5.68,22.22L365.48,257l20.1,20.1-11.83,11.83Zm14.42,42.33L348,291l11.83-11.83,20.1,20.1Zm27.91,0L375.87,291l11.83-11.83,20.11,20.1Zm27.9,0L403.78,291l11.83-11.83,20.1,20.1Zm27.91,0L431.69,291l11.83-11.83,20.1,20.1Zm39.74-11.83L479.7,311.11,459.59,291l11.83-11.83ZM469.3,277.05l-11.83,11.83-20.1-20.1L449.2,257ZM475,254.83l-11.83,11.83-20.1-20.1,11.83-11.83Zm5.68-22.23-11.83,11.83-20.1-20.1,11.83-11.83Zm5.68-22.22-11.83,11.83-20.1-20.11,11.83-11.83Zm-14.42-42.33,20.1,20.1L480.19,200l-20.1-20.1Zm-27.91,0,20.11,20.1L452.29,200l-20.11-20.1Zm-27.9,0,20.1,20.1L424.38,200l-20.1-20.1Zm-27.91,0,20.1,20.1L396.47,200l-20.1-20.1Zm-7.8,20.1L368.57,200l-20.11-20.1,11.83-11.83Z"/></svg>