<svg xmlns="http://www.w3.org/2000/svg" viewBox="0 0 497 497"><defs><style>.a{fill:#e6e7e8;}</style></defs><polygon class="a" points="316.73 151.22 320.98 151.22 321.5 150.69 322.03 151.22 326.28 151.22 323.63 148.57 333.02 139.17 333.02 134.93 316.73 151.22"/><path class="a" d="M177.76,150.66l-.56.56h4.24l6.71-6.71,6.71,6.71h4.25l-8.84-8.83,20.11-20.11,11.83,11.83L205.1,151.22h4.25l1-1,1,1h4.25l-3.15-3.15L232.6,128l11.83,11.84L233,151.22h4.25l17.57-17.57,11.83,11.83-5.74,5.74h4.24l11.89-11.89,11.83,11.83-.06.06h4.25l6.21-6.21,6.21,6.21h4.25l-8.34-8.33,20.11-20.11L333,134.3v-4.25l-9.39-9.39,9.39-9.39V107l-19.79,19.79L301.4,115l20.11-20.1L333,106.39v-4.24l-9.39-9.4L333,83.36V79.11L313.23,98.9,301.4,87.07,321.51,67,333,78.48V74.24l-9.39-9.39,9.39-9.4V51.21L313.23,71,301.4,59.16l20.11-20.1L333,50.58V46.33l-9.39-9.39L333,27.55V23.3L313.23,43.09,301.4,31.26l20.11-20.1L333,22.67V18.43L323.63,9l5.47-5.46h-4.25L313.23,15.18,301.62,3.57h-4.68L291,9.5l-5.94-5.93h-4.24l8.05,8-20.1,20.11L257,19.9,273.28,3.57H269l-.26.25-.25-.25h-4.25l2.38,2.37L246.56,26,234.73,14.21,245.38,3.57h-4.25l-16.8,16.79L212.5,8.53l5-5h-4.25L202.1,14.68,191,3.57h-5.67L179.88,9l-5.44-5.43H170.2l7.56,7.55L164,24.9v4.25l2-1.95L177.76,39,164,52.81v4.25l2-2,11.83,11.83L164,80.72V85l2-1.94,11.83,11.83L164,108.62v4.25l2-2,11.83,11.83L164,136.53v4.25l2-1.95Zm24.34-24.35-11.83-11.83,20.11-20.1,11.83,11.83Zm52.73-48.48,11.83,11.83-20.1,20.11L234.73,97.94Zm-30.5,26.25L212.5,92.25l20.1-20.1L244.43,84Zm52.72-20.57,11.83,11.83-20.1,20.11L257,103.62Zm-8.27,4L257,75.71l20.1-20.1,11.83,11.83Zm-22.22-5.68L234.73,70l20.1-20.1,11.83,11.83Zm-22.23-5.68L212.5,64.35l20.1-20.11,11.83,11.83ZM202.1,70.5,190.27,58.67l20.11-20.11,11.83,11.83Zm8.28-4L222.21,78.3,202.1,98.4,190.27,86.57Zm14,65.52L212.5,120.16l20.1-20.1,11.83,11.83Zm22.23,5.68-11.83-11.83,20.1-20.1,11.83,11.83Zm22.22,5.68L257,131.52l20.1-20.1,11.83,11.83Zm42.33-14.42L291,149,279.18,137.2l20.1-20.1Zm0-27.91L291,121.13,279.18,109.3l20.1-20.11Zm0-27.9L291,93.22,279.18,81.39l20.1-20.1Zm0-27.91L291,65.31,279.18,53.48l20.1-20.1ZM299.28,5.47,311.11,17.3,291,37.41,279.18,25.58ZM277.05,27.7l11.83,11.83-20.1,20.1L257,47.8ZM254.83,22l11.83,11.83L246.56,54,234.73,42.12ZM232.6,16.34l11.83,11.83-20.1,20.1L212.5,36.44Zm-22.22-5.68,11.83,11.83L202.1,42.59,190.27,30.76ZM168.05,25.08,188.15,5,200,16.81l-20.1,20.1Zm0,27.91,20.1-20.11L200,44.71l-20.1,20.11Zm0,27.9,20.1-20.1L200,72.62l-20.1,20.1Zm0,27.91,20.1-20.1L200,100.53l-20.1,20.1Zm20.1,7.8L200,128.43l-20.1,20.11-11.83-11.83Z"/></svg>