<svg xmlns="http://www.w3.org/2000/svg" viewBox="0 0 497 497"><defs><style>.a{fill:#e6e7e8;}</style></defs><polygon class="a" points="180.27 345.78 176.02 345.78 175.5 346.31 174.97 345.78 170.72 345.78 173.37 348.43 163.98 357.83 163.98 362.07 180.27 345.78"/><path class="a" d="M319.24,346.34l.56-.56h-4.24l-6.71,6.71-6.71-6.71h-4.25l8.84,8.83-20.11,20.11-11.83-11.83,17.11-17.11h-4.25l-1,1-1-1h-4.25l3.15,3.15L264.4,369,252.57,357.2,264,345.78h-4.25l-17.57,17.57-11.83-11.83,5.74-5.74h-4.24L220,357.67l-11.83-11.83.06-.06h-4.25L197.72,352l-6.21-6.21h-4.25l8.34,8.33-20.11,20.11L164,362.7V367l9.39,9.39L164,385.73V390l19.79-19.79L195.6,382l-20.11,20.1L164,390.61v4.24l9.39,9.4L164,413.64v4.25l19.79-19.79,11.83,11.83L175.49,430,164,418.52v4.24l9.39,9.39-9.39,9.4v4.24L183.77,426l11.83,11.83-20.11,20.1L164,446.42v4.25l9.39,9.39L164,469.45v4.25l19.79-19.79,11.83,11.83-20.11,20.1L164,474.33v4.24l9.39,9.4-5.47,5.46h4.25l11.62-11.61,11.61,11.61h4.68L206,487.5l5.94,5.93h4.24l-8-8.05,20.1-20.11,11.83,11.83-16.33,16.33H228l.26-.25.25.25h4.25l-2.38-2.37,20.1-20.1,11.83,11.83-10.65,10.64h4.25l16.8-16.79,11.83,11.83-5,5h4.25l11.12-11.11L306,493.43h5.67l5.44-5.43,5.44,5.43h4.24l-7.56-7.55L333,472.1v-4.25l-1.95,1.95L319.24,458,333,444.19v-4.25l-1.95,1.95-11.83-11.83L333,416.28V412L331.07,414l-11.83-11.83L333,388.38v-4.25l-1.95,1.95-11.83-11.83L333,360.47v-4.25l-1.95,1.95ZM294.9,370.69l11.83,11.83-20.11,20.1-11.83-11.83Zm-52.73,48.48-11.83-11.83,20.1-20.11,11.83,11.83Zm30.5-26.25,11.83,11.83-20.1,20.1L252.57,413ZM220,413.49l-11.83-11.83,20.1-20.11,11.83,11.83Zm8.27-4,11.83,11.83L220,441.39l-11.83-11.83Zm22.22,5.68L262.27,427l-20.1,20.1-11.83-11.83Zm22.23,5.68,11.83,11.83-20.1,20.11-11.83-11.83Zm22.23,5.68,11.83,11.83-20.11,20.11-11.83-11.83Zm-8.28,4L274.79,418.7l20.11-20.1,11.83,11.83ZM272.67,365l11.83,11.83-20.1,20.1-11.83-11.83Zm-22.23-5.68,11.83,11.83-20.1,20.1-11.83-11.83Zm-22.22-5.68,11.83,11.83L220,385.58l-11.83-11.83Zm-42.33,14.42L206,348l11.83,11.83-20.1,20.1Zm0,27.91L206,375.87l11.83,11.83-20.1,20.11Zm0,27.9,20.1-20.1,11.83,11.83-20.1,20.1Zm0,27.91,20.1-20.1,11.83,11.83-20.1,20.1Zm11.83,39.74L185.89,479.7,206,459.59l11.83,11.83ZM220,469.3l-11.83-11.83,20.1-20.1,11.83,11.83ZM242.17,475l-11.83-11.83,20.1-20.1,11.83,11.83Zm22.23,5.68-11.83-11.83,20.1-20.1,11.83,11.83Zm22.22,5.68-11.83-11.83,20.11-20.1,11.83,11.83ZM329,471.92,308.85,492,297,480.19l20.1-20.1ZM329,444l-20.1,20.11L297,452.29l20.1-20.11Zm0-27.9-20.1,20.1L297,424.38l20.1-20.1Zm0-27.91-20.1,20.1L297,396.47l20.1-20.1Zm-20.1-7.8L297,368.57l20.1-20.11L329,360.29Z"/></svg>