<svg xmlns="http://www.w3.org/2000/svg" viewBox="0 0 497 497"><defs><style>.a{fill:#f1f2f2;}.b{fill:none;stroke:#696a6d;stroke-miterlimit:10;stroke-width:4px;}</style></defs><path class="a" d="M496.5,160H356.92A19.92,19.92,0,0,1,337,140.08V.5H160V140.08A19.92,19.92,0,0,1,140.08,160H.5V337H140.08A19.92,19.92,0,0,1,160,356.92V496.5H337V356.92A19.92,19.92,0,0,1,356.92,337H496.5Z"/><path class="b" d="M496.5,160H356.92A19.92,19.92,0,0,1,337,140.08V.5"/><path class="b" d="M337,496.5V356.92A19.92,19.92,0,0,1,356.92,337H496.5"/><path class="b" d="M.5,337H140.08A19.92,19.92,0,0,1,160,356.92V496.5"/><path class="b" d="M160,.5V140.08A19.92,19.92,0,0,1,140.08,160H.5"/></svg>