<svg xmlns="http://www.w3.org/2000/svg" viewBox="0 0 497 497">
    <defs>
        <style>
            .a,.b,.c{fill:none;stroke-miterlimit:10;}.a{stroke:#ed1c24;}.b{stroke:#2e3192;}.c{stroke:#00a651;}</style>
    </defs>
    <path class="a" d="M496.5,195.15H349.9c-46.1,0-84.7-2.63-84.7-40.19V1.42" />
    <path class="a" d="M496.5,217.57H313.57c-57.52,0-105.7-22.42-105.7-68.87V1.42" />
    <path class="b" d="M496.5,194.59H349.9c-37.12,0-57-16.16-57-40.16V1.42" />
    <path class="c" d="M496.5,174.26H343.57c-15.14,0-21-7.25-21-12.49V1.42" />
    <path class="a" d="M265.2,0V161.76c0,83.35,27,139.31,27,201.52V496.5" />
    <path class="a" d="M207.87,0V161.76c0,83.35,57.33,139.31,57.33,201.52V496.5" />
    <line class="b" x1="292.85" x2="292.85" y2="496.5" />
    <line class="c" x1="322.6" y1="0.25" x2="322.6" y2="496.75" />
    <path class="a" d="M.5,301.07H93.09c97,0,172.11-98.7,172.11-152.33V1.42" />
    <path class="a" d="M.5,278.61H73c76,0,134.83-91.3,134.83-140.91V1.42" />
    <path class="b" d="M.5,301.11H92.78c91.61,0,200.07-109.76,200.07-152V1.42" />
    <path class="c" d="M0,321.11H58c85.7,0,264.6-136.81,264.6-171.2V1.42" />
</svg>