<svg xmlns="http://www.w3.org/2000/svg" viewBox="0 0 497 497"><defs><style>.a{fill:#e6e7e8;}.b{fill:#414042;}</style></defs><path class="a" d="M17.58,317.14a4,4,0,1,1-4,4A4,4,0,0,1,17.58,317.14Zm21.2-18.6a4,4,0,1,0,4-4A4,4,0,0,0,38.78,298.54ZM30.87,290A2.15,2.15,0,1,0,33,287.83,2.15,2.15,0,0,0,30.87,290Zm-1.1,29.41a2,2,0,1,0,2.05-2.05A2.05,2.05,0,0,0,29.77,319.38ZM17.49,300.79a4.26,4.26,0,1,0,4.25-4.25A4.25,4.25,0,0,0,17.49,300.79ZM6,283.83a4,4,0,1,0,4-4A4,4,0,0,0,6,283.83Zm19.82-14.69a4,4,0,1,0,4-4A4,4,0,0,0,25.82,269.14Zm-2.53-16.47a2.15,2.15,0,1,0,2.14-2.15A2.14,2.14,0,0,0,23.29,252.67Zm-1.11,29.41A2.05,2.05,0,1,0,24.23,280,2,2,0,0,0,22.18,282.08ZM9.9,263.49a4.26,4.26,0,1,0,4.26-4.25A4.25,4.25,0,0,0,9.9,263.49Zm57.74-9a4,4,0,1,0-4,4A4,4,0,0,0,67.64,254.52ZM45,274.27a4,4,0,1,0-4,4A4,4,0,0,0,45,274.27Zm5.38,11.41a2.15,2.15,0,1,0-2.14,2.15A2.14,2.14,0,0,0,50.35,285.68Zm1.11-29.4a2.05,2.05,0,1,0-2.05,2A2.05,2.05,0,0,0,51.46,256.28Zm12.28,18.58a4.26,4.26,0,1,0-4.26,4.26A4.25,4.25,0,0,0,63.74,274.86Zm11.49,17a4,4,0,1,0-4,4A4,4,0,0,0,75.23,291.82ZM50.57,314.38a4,4,0,1,0-4,4A4,4,0,0,0,50.57,314.38ZM57.94,323a2.15,2.15,0,1,0-2.14,2.14A2.14,2.14,0,0,0,57.94,323Zm1.11-29.41a2,2,0,1,0-2,2.05A2.05,2.05,0,0,0,59.05,293.58Zm12.28,18.59a4.26,4.26,0,1,0-4.26,4.25A4.26,4.26,0,0,0,71.33,312.17Z"/><path class="a" d="M17.58,240.7a4,4,0,1,1-4,4A4,4,0,0,1,17.58,240.7Zm21.2-18.59a4,4,0,1,0,4-4A4,4,0,0,0,38.78,222.11Zm-7.91-8.58A2.15,2.15,0,1,0,33,211.39,2.15,2.15,0,0,0,30.87,213.53Zm-1.1,29.41a2,2,0,1,0,2.05-2.05A2.05,2.05,0,0,0,29.77,242.94ZM17.49,224.35a4.26,4.26,0,1,0,4.25-4.25A4.25,4.25,0,0,0,17.49,224.35ZM6,207.39a4,4,0,1,0,4-4A4,4,0,0,0,6,207.39Zm19.82-14.68a4,4,0,1,0,4-4A4,4,0,0,0,25.82,192.71Zm-2.53-16.48a2.15,2.15,0,1,0,2.14-2.14A2.14,2.14,0,0,0,23.29,176.23Zm-1.11,29.41a2.05,2.05,0,1,0,2.05-2A2.05,2.05,0,0,0,22.18,205.64ZM9.9,187.05a4.26,4.26,0,1,0,4.26-4.25A4.26,4.26,0,0,0,9.9,187.05Zm57.74-9a4,4,0,1,0-4,4A4,4,0,0,0,67.64,178.08ZM45,197.83a4,4,0,1,0-4,4A4,4,0,0,0,45,197.83Zm5.38,11.42a2.15,2.15,0,1,0-2.14,2.14A2.14,2.14,0,0,0,50.35,209.25Zm1.11-29.41a2.05,2.05,0,1,0-2.05,2A2.05,2.05,0,0,0,51.46,179.84Zm12.28,18.58a4.26,4.26,0,1,0-4.26,4.26A4.26,4.26,0,0,0,63.74,198.42Zm11.49,17a4,4,0,1,0-4,4A4,4,0,0,0,75.23,215.39ZM50.57,237.94a4,4,0,1,0-4,4A4,4,0,0,0,50.57,237.94Zm7.37,8.61a2.15,2.15,0,1,0-2.14,2.14A2.14,2.14,0,0,0,57.94,246.55Zm1.11-29.41a2,2,0,1,0-2,2.05A2.05,2.05,0,0,0,59.05,217.14Zm12.28,18.59A4.26,4.26,0,1,0,67.07,240,4.26,4.26,0,0,0,71.33,235.73Z"/><path class="a" d="M90.88,317.14a4,4,0,1,1-4,4A4,4,0,0,1,90.88,317.14Zm21.2-18.6a4,4,0,1,0,4-4A4,4,0,0,0,112.08,298.54ZM104.17,290a2.15,2.15,0,1,0,2.15-2.14A2.15,2.15,0,0,0,104.17,290Zm-1.1,29.41a2,2,0,1,0,2.05-2.05A2.05,2.05,0,0,0,103.07,319.38ZM90.79,300.79A4.26,4.26,0,1,0,95,296.54,4.25,4.25,0,0,0,90.79,300.79Zm-11.49-17a4,4,0,1,0,4-4A4,4,0,0,0,79.3,283.83Zm19.82-14.69a4,4,0,1,0,4-4A4,4,0,0,0,99.12,269.14Zm-2.53-16.47a2.15,2.15,0,1,0,2.14-2.15A2.14,2.14,0,0,0,96.59,252.67Zm-1.11,29.41a2,2,0,1,0,2-2.05A2,2,0,0,0,95.48,282.08ZM83.2,263.49a4.26,4.26,0,1,0,4.26-4.25A4.25,4.25,0,0,0,83.2,263.49Zm57.74-9a4,4,0,1,0-4,4A4,4,0,0,0,140.94,254.52Zm-22.67,19.75a4,4,0,1,0-4,4A4,4,0,0,0,118.27,274.27Zm5.38,11.41a2.14,2.14,0,1,0-2.14,2.15A2.14,2.14,0,0,0,123.65,285.68Zm1.11-29.4a2,2,0,1,0-2.05,2A2.05,2.05,0,0,0,124.76,256.28ZM137,274.86a4.26,4.26,0,1,0-4.25,4.26A4.25,4.25,0,0,0,137,274.86Zm11.49,17a4,4,0,1,0-4,4A4,4,0,0,0,148.53,291.82Zm-24.66,22.56a4,4,0,1,0-4,4A4,4,0,0,0,123.87,314.38Zm7.37,8.61a2.15,2.15,0,1,0-2.14,2.14A2.14,2.14,0,0,0,131.24,323Zm1.11-29.41a2,2,0,1,0-2,2.05A2.05,2.05,0,0,0,132.35,293.58Zm12.28,18.59a4.26,4.26,0,1,0-4.26,4.25A4.26,4.26,0,0,0,144.63,312.17Z"/><path class="a" d="M90.88,240.7a4,4,0,1,1-4,4A4,4,0,0,1,90.88,240.7Zm21.2-18.59a4,4,0,1,0,4-4A4,4,0,0,0,112.08,222.11Zm-7.91-8.58a2.15,2.15,0,1,0,2.15-2.14A2.15,2.15,0,0,0,104.17,213.53Zm-1.1,29.41a2,2,0,1,0,2.05-2.05A2.05,2.05,0,0,0,103.07,242.94ZM90.79,224.35A4.26,4.26,0,1,0,95,220.1,4.25,4.25,0,0,0,90.79,224.35Zm-11.49-17a4,4,0,1,0,4-4A4,4,0,0,0,79.3,207.39Zm19.82-14.68a4,4,0,1,0,4-4A4,4,0,0,0,99.12,192.71Zm-2.53-16.48a2.15,2.15,0,1,0,2.14-2.14A2.14,2.14,0,0,0,96.59,176.23Zm-1.11,29.41a2,2,0,1,0,2-2A2.05,2.05,0,0,0,95.48,205.64ZM83.2,187.05a4.26,4.26,0,1,0,4.26-4.25A4.26,4.26,0,0,0,83.2,187.05Zm57.74-9a4,4,0,1,0-4,4A4,4,0,0,0,140.94,178.08Zm-22.67,19.75a4,4,0,1,0-4,4A4,4,0,0,0,118.27,197.83Zm5.38,11.42a2.14,2.14,0,1,0-2.14,2.14A2.14,2.14,0,0,0,123.65,209.25Zm1.11-29.41a2,2,0,1,0-2.05,2A2.05,2.05,0,0,0,124.76,179.84ZM137,198.42a4.26,4.26,0,1,0-4.25,4.26A4.26,4.26,0,0,0,137,198.42Zm11.49,17a4,4,0,1,0-4,4A4,4,0,0,0,148.53,215.39Zm-24.66,22.55a4,4,0,1,0-4,4A4,4,0,0,0,123.87,237.94Zm7.37,8.61a2.15,2.15,0,1,0-2.14,2.14A2.14,2.14,0,0,0,131.24,246.55Zm1.11-29.41a2,2,0,1,0-2,2.05A2.05,2.05,0,0,0,132.35,217.14Zm12.28,18.59a4.26,4.26,0,1,0-4.26,4.25A4.26,4.26,0,0,0,144.63,235.73Z"/><path class="b" d="M25.49,238.93l1.44-1.44-1.37-1.37-1.44,1.44a14.53,14.53,0,0,0-20.5,20.51l-1.44,1.44,1.36,1.37L5,259.44a14.53,14.53,0,0,0,20.51-20.51ZM1.93,248.5a12.6,12.6,0,0,1,20.82-9.57L5,256.7A12.58,12.58,0,0,1,1.93,248.5Zm12.62,12.62a12.58,12.58,0,0,1-8.2-3.05L24.12,240.3a12.6,12.6,0,0,1-9.57,20.82Z"/></svg>