<svg xmlns="http://www.w3.org/2000/svg" viewBox="0 0 497 497"><defs><style>.a{fill:#e6e7e8;}.b{fill:#414042;}</style></defs><path class="a" d="M479.42,179.86a4,4,0,1,1,4-4A4,4,0,0,1,479.42,179.86Zm-21.2,18.6a4,4,0,1,0-4,4A4,4,0,0,0,458.22,198.46Zm7.91,8.57a2.15,2.15,0,1,0-2.15,2.14A2.15,2.15,0,0,0,466.13,207Zm1.1-29.41a2,2,0,1,0-2.05,2A2.05,2.05,0,0,0,467.23,177.62Zm12.28,18.59a4.26,4.26,0,1,0-4.25,4.25A4.25,4.25,0,0,0,479.51,196.21Zm11.49,17a4,4,0,1,0-4,4A4,4,0,0,0,491,213.17Zm-19.82,14.69a4,4,0,1,0-4,4A4,4,0,0,0,471.18,227.86Zm2.53,16.47a2.15,2.15,0,1,0-2.14,2.15A2.14,2.14,0,0,0,473.71,244.33Zm1.11-29.41a2.05,2.05,0,1,0-2.05,2.05A2,2,0,0,0,474.82,214.92Zm12.28,18.59a4.26,4.26,0,1,0-4.26,4.25A4.25,4.25,0,0,0,487.1,233.51Zm-57.74,9a4,4,0,1,0,4-4A4,4,0,0,0,429.36,242.48ZM452,222.73a4,4,0,1,0,4-4A4,4,0,0,0,452,222.73Zm-5.38-11.41a2.15,2.15,0,1,0,2.14-2.15A2.14,2.14,0,0,0,446.65,211.32Zm-1.11,29.4a2.05,2.05,0,1,0,2-2A2.05,2.05,0,0,0,445.54,240.72Zm-12.28-18.58a4.26,4.26,0,1,0,4.26-4.26A4.25,4.25,0,0,0,433.26,222.14Zm-11.49-17a4,4,0,1,0,4-4A4,4,0,0,0,421.77,205.18Zm24.66-22.56a4,4,0,1,0,4-4A4,4,0,0,0,446.43,182.62ZM439.06,174a2.15,2.15,0,1,0,2.14-2.14A2.14,2.14,0,0,0,439.06,174ZM438,203.42a2.05,2.05,0,1,0,2.05-2A2.05,2.05,0,0,0,438,203.42Zm-12.28-18.59a4.26,4.26,0,1,0,4.26-4.25A4.26,4.26,0,0,0,425.67,184.83Z"/><path class="a" d="M479.42,256.3a4,4,0,1,1,4-4A4,4,0,0,1,479.42,256.3Zm-21.2,18.59a4,4,0,1,0-4,4A4,4,0,0,0,458.22,274.89Zm7.91,8.58a2.15,2.15,0,1,0-2.15,2.14A2.15,2.15,0,0,0,466.13,283.47Zm1.1-29.41a2,2,0,1,0-2.05,2.05A2.05,2.05,0,0,0,467.23,254.06Zm12.28,18.59a4.26,4.26,0,1,0-4.25,4.25A4.25,4.25,0,0,0,479.51,272.65Zm11.49,17a4,4,0,1,0-4,4A4,4,0,0,0,491,289.61Zm-19.82,14.68a4,4,0,1,0-4,4A4,4,0,0,0,471.18,304.29Zm2.53,16.48a2.15,2.15,0,1,0-2.14,2.14A2.14,2.14,0,0,0,473.71,320.77Zm1.11-29.41a2.05,2.05,0,1,0-2.05,2.05A2.05,2.05,0,0,0,474.82,291.36ZM487.1,310a4.26,4.26,0,1,0-4.26,4.25A4.26,4.26,0,0,0,487.1,310Zm-57.74,9a4,4,0,1,0,4-4A4,4,0,0,0,429.36,318.92ZM452,299.17a4,4,0,1,0,4-4A4,4,0,0,0,452,299.17Zm-5.38-11.42a2.15,2.15,0,1,0,2.14-2.14A2.14,2.14,0,0,0,446.65,287.75Zm-1.11,29.41a2.05,2.05,0,1,0,2-2.05A2.05,2.05,0,0,0,445.54,317.16Zm-12.28-18.58a4.26,4.26,0,1,0,4.26-4.26A4.26,4.26,0,0,0,433.26,298.58Zm-11.49-17a4,4,0,1,0,4-4A4,4,0,0,0,421.77,281.61Zm24.66-22.55a4,4,0,1,0,4-4A4,4,0,0,0,446.43,259.06Zm-7.37-8.61a2.15,2.15,0,1,0,2.14-2.14A2.14,2.14,0,0,0,439.06,250.45ZM438,279.86a2.05,2.05,0,1,0,2.05-2.05A2.05,2.05,0,0,0,438,279.86Zm-12.28-18.59a4.26,4.26,0,1,0,4.26-4.25A4.26,4.26,0,0,0,425.67,261.27Z"/><path class="a" d="M406.12,179.86a4,4,0,1,1,4-4A4,4,0,0,1,406.12,179.86Zm-21.2,18.6a4,4,0,1,0-4,4A4,4,0,0,0,384.92,198.46Zm7.91,8.57a2.15,2.15,0,1,0-2.15,2.14A2.15,2.15,0,0,0,392.83,207Zm1.1-29.41a2,2,0,1,0-2.05,2A2.05,2.05,0,0,0,393.93,177.62Zm12.28,18.59a4.26,4.26,0,1,0-4.25,4.25A4.25,4.25,0,0,0,406.21,196.21Zm11.49,17a4,4,0,1,0-4,4A4,4,0,0,0,417.7,213.17Zm-19.82,14.69a4,4,0,1,0-4,4A4,4,0,0,0,397.88,227.86Zm2.53,16.47a2.15,2.15,0,1,0-2.14,2.15A2.14,2.14,0,0,0,400.41,244.33Zm1.11-29.41a2,2,0,1,0-2,2.05A2,2,0,0,0,401.52,214.92Zm12.28,18.59a4.26,4.26,0,1,0-4.26,4.25A4.25,4.25,0,0,0,413.8,233.51Zm-57.74,9a4,4,0,1,0,4-4A4,4,0,0,0,356.06,242.48Zm22.67-19.75a4,4,0,1,0,4-4A4,4,0,0,0,378.73,222.73Zm-5.38-11.41a2.14,2.14,0,1,0,2.14-2.15A2.14,2.14,0,0,0,373.35,211.32Zm-1.11,29.4a2,2,0,1,0,2.05-2A2.05,2.05,0,0,0,372.24,240.72ZM360,222.14a4.26,4.26,0,1,0,4.25-4.26A4.25,4.25,0,0,0,360,222.14Zm-11.49-17a4,4,0,1,0,4-4A4,4,0,0,0,348.47,205.18Zm24.66-22.56a4,4,0,1,0,4-4A4,4,0,0,0,373.13,182.62ZM365.76,174a2.15,2.15,0,1,0,2.14-2.14A2.14,2.14,0,0,0,365.76,174Zm-1.11,29.41a2.05,2.05,0,1,0,2.05-2A2.05,2.05,0,0,0,364.65,203.42Zm-12.28-18.59a4.26,4.26,0,1,0,4.26-4.25A4.26,4.26,0,0,0,352.37,184.83Z"/><path class="a" d="M406.12,256.3a4,4,0,1,1,4-4A4,4,0,0,1,406.12,256.3Zm-21.2,18.59a4,4,0,1,0-4,4A4,4,0,0,0,384.92,274.89Zm7.91,8.58a2.15,2.15,0,1,0-2.15,2.14A2.15,2.15,0,0,0,392.83,283.47Zm1.1-29.41a2,2,0,1,0-2.05,2.05A2.05,2.05,0,0,0,393.93,254.06Zm12.28,18.59A4.26,4.26,0,1,0,402,276.9,4.25,4.25,0,0,0,406.21,272.65Zm11.49,17a4,4,0,1,0-4,4A4,4,0,0,0,417.7,289.61Zm-19.82,14.68a4,4,0,1,0-4,4A4,4,0,0,0,397.88,304.29Zm2.53,16.48a2.15,2.15,0,1,0-2.14,2.14A2.14,2.14,0,0,0,400.41,320.77Zm1.11-29.41a2,2,0,1,0-2,2.05A2.05,2.05,0,0,0,401.52,291.36ZM413.8,310a4.26,4.26,0,1,0-4.26,4.25A4.26,4.26,0,0,0,413.8,310Zm-57.74,9a4,4,0,1,0,4-4A4,4,0,0,0,356.06,318.92Zm22.67-19.75a4,4,0,1,0,4-4A4,4,0,0,0,378.73,299.17Zm-5.38-11.42a2.14,2.14,0,1,0,2.14-2.14A2.14,2.14,0,0,0,373.35,287.75Zm-1.11,29.41a2,2,0,1,0,2.05-2.05A2.05,2.05,0,0,0,372.24,317.16ZM360,298.58a4.26,4.26,0,1,0,4.25-4.26A4.26,4.26,0,0,0,360,298.58Zm-11.49-17a4,4,0,1,0,4-4A4,4,0,0,0,348.47,281.61Zm24.66-22.55a4,4,0,1,0,4-4A4,4,0,0,0,373.13,259.06Zm-7.37-8.61a2.15,2.15,0,1,0,2.14-2.14A2.14,2.14,0,0,0,365.76,250.45Zm-1.11,29.41a2.05,2.05,0,1,0,2.05-2.05A2.05,2.05,0,0,0,364.65,279.86Zm-12.28-18.59a4.26,4.26,0,1,0,4.26-4.25A4.26,4.26,0,0,0,352.37,261.27Z"/><path class="b" d="M493.38,238.93l1.44-1.44-1.36-1.37L492,237.56a14.53,14.53,0,0,0-20.51,20.51l-1.44,1.44,1.37,1.37,1.44-1.44a14.53,14.53,0,0,0,20.5-20.51Zm-23.55,9.57a12.6,12.6,0,0,1,20.82-9.57L472.88,256.7A12.53,12.53,0,0,1,469.83,248.5Zm12.62,12.62a12.56,12.56,0,0,1-8.2-3.05L492,240.3a12.6,12.6,0,0,1-9.57,20.82Z"/></svg>