<svg xmlns="http://www.w3.org/2000/svg" viewBox="0 0 497 497"><defs><style>.a{fill:#e6e7e8;}.b{fill:#414042;}</style></defs><path class="a" d="M317.14,479.42a4,4,0,1,1,4,4A4,4,0,0,1,317.14,479.42Zm-18.6-21.2a4,4,0,1,0-4-4A4,4,0,0,0,298.54,458.22ZM290,466.13a2.15,2.15,0,1,0-2.14-2.15A2.15,2.15,0,0,0,290,466.13Zm29.41,1.1a2,2,0,1,0-2.05-2.05A2.05,2.05,0,0,0,319.38,467.23Zm-18.59,12.28a4.26,4.26,0,1,0-4.25-4.25A4.25,4.25,0,0,0,300.79,479.51Zm-17,11.49a4,4,0,1,0-4-4A4,4,0,0,0,283.83,491Zm-14.69-19.82a4,4,0,1,0-4-4A4,4,0,0,0,269.14,471.18Zm-16.47,2.53a2.15,2.15,0,1,0-2.15-2.14A2.14,2.14,0,0,0,252.67,473.71Zm29.41,1.11a2.05,2.05,0,1,0-2.05-2.05A2,2,0,0,0,282.08,474.82ZM263.49,487.1a4.26,4.26,0,1,0-4.25-4.26A4.25,4.25,0,0,0,263.49,487.1Zm-9-57.74a4,4,0,1,0,4,4A4,4,0,0,0,254.52,429.36ZM274.27,452a4,4,0,1,0,4,4A4,4,0,0,0,274.27,452Zm11.41-5.38a2.15,2.15,0,1,0,2.15,2.14A2.14,2.14,0,0,0,285.68,446.65Zm-29.4-1.11a2.05,2.05,0,1,0,2,2A2.05,2.05,0,0,0,256.28,445.54Zm18.58-12.28a4.26,4.26,0,1,0,4.26,4.26A4.25,4.25,0,0,0,274.86,433.26Zm17-11.49a4,4,0,1,0,4,4A4,4,0,0,0,291.82,421.77Zm22.56,24.66a4,4,0,1,0,4,4A4,4,0,0,0,314.38,446.43Zm8.61-7.37a2.15,2.15,0,1,0,2.14,2.14A2.14,2.14,0,0,0,323,439.06ZM293.58,438a2.05,2.05,0,1,0,2.05,2.05A2.05,2.05,0,0,0,293.58,438Zm18.59-12.28a4.26,4.26,0,1,0,4.25,4.26A4.26,4.26,0,0,0,312.17,425.67Z"/><path class="a" d="M240.7,479.42a4,4,0,1,1,4,4A4,4,0,0,1,240.7,479.42Zm-18.59-21.2a4,4,0,1,0-4-4A4,4,0,0,0,222.11,458.22Zm-8.58,7.91a2.15,2.15,0,1,0-2.14-2.15A2.15,2.15,0,0,0,213.53,466.13Zm29.41,1.1a2,2,0,1,0-2.05-2.05A2.05,2.05,0,0,0,242.94,467.23Zm-18.59,12.28a4.26,4.26,0,1,0-4.25-4.25A4.25,4.25,0,0,0,224.35,479.51Zm-17,11.49a4,4,0,1,0-4-4A4,4,0,0,0,207.39,491Zm-14.68-19.82a4,4,0,1,0-4-4A4,4,0,0,0,192.71,471.18Zm-16.48,2.53a2.15,2.15,0,1,0-2.14-2.14A2.14,2.14,0,0,0,176.23,473.71Zm29.41,1.11a2.05,2.05,0,1,0-2-2.05A2.05,2.05,0,0,0,205.64,474.82ZM187.05,487.1a4.26,4.26,0,1,0-4.25-4.26A4.26,4.26,0,0,0,187.05,487.1Zm-9-57.74a4,4,0,1,0,4,4A4,4,0,0,0,178.08,429.36ZM197.83,452a4,4,0,1,0,4,4A4,4,0,0,0,197.83,452Zm11.42-5.38a2.15,2.15,0,1,0,2.14,2.14A2.14,2.14,0,0,0,209.25,446.65Zm-29.41-1.11a2.05,2.05,0,1,0,2,2A2.05,2.05,0,0,0,179.84,445.54Zm18.58-12.28a4.26,4.26,0,1,0,4.26,4.26A4.26,4.26,0,0,0,198.42,433.26Zm17-11.49a4,4,0,1,0,4,4A4,4,0,0,0,215.39,421.77Zm22.55,24.66a4,4,0,1,0,4,4A4,4,0,0,0,237.94,446.43Zm8.61-7.37a2.15,2.15,0,1,0,2.14,2.14A2.14,2.14,0,0,0,246.55,439.06ZM217.14,438a2.05,2.05,0,1,0,2.05,2.05A2.05,2.05,0,0,0,217.14,438Zm18.59-12.28a4.26,4.26,0,1,0,4.25,4.26A4.26,4.26,0,0,0,235.73,425.67Z"/><path class="a" d="M317.14,406.12a4,4,0,1,1,4,4A4,4,0,0,1,317.14,406.12Zm-18.6-21.2a4,4,0,1,0-4-4A4,4,0,0,0,298.54,384.92ZM290,392.83a2.15,2.15,0,1,0-2.14-2.15A2.15,2.15,0,0,0,290,392.83Zm29.41,1.1a2,2,0,1,0-2.05-2.05A2.05,2.05,0,0,0,319.38,393.93Zm-18.59,12.28a4.26,4.26,0,1,0-4.25-4.25A4.25,4.25,0,0,0,300.79,406.21Zm-17,11.49a4,4,0,1,0-4-4A4,4,0,0,0,283.83,417.7Zm-14.69-19.82a4,4,0,1,0-4-4A4,4,0,0,0,269.14,397.88Zm-16.47,2.53a2.15,2.15,0,1,0-2.15-2.14A2.14,2.14,0,0,0,252.67,400.41Zm29.41,1.11a2,2,0,1,0-2.05-2A2,2,0,0,0,282.08,401.52ZM263.49,413.8a4.26,4.26,0,1,0-4.25-4.26A4.25,4.25,0,0,0,263.49,413.8Zm-9-57.74a4,4,0,1,0,4,4A4,4,0,0,0,254.52,356.06Zm19.75,22.67a4,4,0,1,0,4,4A4,4,0,0,0,274.27,378.73Zm11.41-5.38a2.14,2.14,0,1,0,2.15,2.14A2.14,2.14,0,0,0,285.68,373.35Zm-29.4-1.11a2,2,0,1,0,2,2.05A2.05,2.05,0,0,0,256.28,372.24ZM274.86,360a4.26,4.26,0,1,0,4.26,4.25A4.25,4.25,0,0,0,274.86,360Zm17-11.49a4,4,0,1,0,4,4A4,4,0,0,0,291.82,348.47Zm22.56,24.66a4,4,0,1,0,4,4A4,4,0,0,0,314.38,373.13Zm8.61-7.37a2.15,2.15,0,1,0,2.14,2.14A2.14,2.14,0,0,0,323,365.76Zm-29.41-1.11a2.05,2.05,0,1,0,2.05,2.05A2.05,2.05,0,0,0,293.58,364.65Zm18.59-12.28a4.26,4.26,0,1,0,4.25,4.26A4.26,4.26,0,0,0,312.17,352.37Z"/><path class="a" d="M240.7,406.12a4,4,0,1,1,4,4A4,4,0,0,1,240.7,406.12Zm-18.59-21.2a4,4,0,1,0-4-4A4,4,0,0,0,222.11,384.92Zm-8.58,7.91a2.15,2.15,0,1,0-2.14-2.15A2.15,2.15,0,0,0,213.53,392.83Zm29.41,1.1a2,2,0,1,0-2.05-2.05A2.05,2.05,0,0,0,242.94,393.93Zm-18.59,12.28A4.26,4.26,0,1,0,220.1,402,4.25,4.25,0,0,0,224.35,406.21Zm-17,11.49a4,4,0,1,0-4-4A4,4,0,0,0,207.39,417.7Zm-14.68-19.82a4,4,0,1,0-4-4A4,4,0,0,0,192.71,397.88Zm-16.48,2.53a2.15,2.15,0,1,0-2.14-2.14A2.14,2.14,0,0,0,176.23,400.41Zm29.41,1.11a2,2,0,1,0-2-2A2.05,2.05,0,0,0,205.64,401.52ZM187.05,413.8a4.26,4.26,0,1,0-4.25-4.26A4.26,4.26,0,0,0,187.05,413.8Zm-9-57.74a4,4,0,1,0,4,4A4,4,0,0,0,178.08,356.06Zm19.75,22.67a4,4,0,1,0,4,4A4,4,0,0,0,197.83,378.73Zm11.42-5.38a2.14,2.14,0,1,0,2.14,2.14A2.14,2.14,0,0,0,209.25,373.35Zm-29.41-1.11a2,2,0,1,0,2,2.05A2.05,2.05,0,0,0,179.84,372.24ZM198.42,360a4.26,4.26,0,1,0,4.26,4.25A4.26,4.26,0,0,0,198.42,360Zm17-11.49a4,4,0,1,0,4,4A4,4,0,0,0,215.39,348.47Zm22.55,24.66a4,4,0,1,0,4,4A4,4,0,0,0,237.94,373.13Zm8.61-7.37a2.15,2.15,0,1,0,2.14,2.14A2.14,2.14,0,0,0,246.55,365.76Zm-29.41-1.11a2.05,2.05,0,1,0,2.05,2.05A2.05,2.05,0,0,0,217.14,364.65Zm18.59-12.28a4.26,4.26,0,1,0,4.25,4.26A4.26,4.26,0,0,0,235.73,352.37Z"/><path class="b" d="M259.44,472.88l1.44-1.44-1.37-1.37-1.44,1.44A14.53,14.53,0,0,0,237.56,492l-1.44,1.44,1.37,1.36,1.44-1.44a14.53,14.53,0,0,0,20.51-20.5Zm-23.56,9.57a12.6,12.6,0,0,1,20.82-9.57l-17.77,17.77A12.58,12.58,0,0,1,235.88,482.45Zm12.62,12.62a12.58,12.58,0,0,1-8.2-3.05l17.77-17.77a12.6,12.6,0,0,1-9.57,20.82Z"/></svg>