<svg xmlns="http://www.w3.org/2000/svg" viewBox="0 0 497 497"><defs><style>.a{fill:#e6e7e8;}.b{fill:#414042;}</style></defs><path class="a" d="M179.86,17.58a4,4,0,1,1-4-4A4,4,0,0,1,179.86,17.58Zm18.6,21.2a4,4,0,1,0,4,4A4,4,0,0,0,198.46,38.78ZM207,30.87A2.15,2.15,0,1,0,209.17,33,2.15,2.15,0,0,0,207,30.87Zm-29.41-1.1a2,2,0,1,0,2,2.05A2.05,2.05,0,0,0,177.62,29.77Zm18.59-12.28a4.26,4.26,0,1,0,4.25,4.25A4.25,4.25,0,0,0,196.21,17.49ZM213.17,6a4,4,0,1,0,4,4A4,4,0,0,0,213.17,6Zm14.69,19.82a4,4,0,1,0,4,4A4,4,0,0,0,227.86,25.82Zm16.47-2.53a2.15,2.15,0,1,0,2.15,2.14A2.14,2.14,0,0,0,244.33,23.29Zm-29.41-1.11A2.05,2.05,0,1,0,217,24.23,2,2,0,0,0,214.92,22.18ZM233.51,9.9a4.26,4.26,0,1,0,4.25,4.26A4.25,4.25,0,0,0,233.51,9.9Zm9,57.74a4,4,0,1,0-4-4A4,4,0,0,0,242.48,67.64ZM222.73,45a4,4,0,1,0-4-4A4,4,0,0,0,222.73,45Zm-11.41,5.38a2.15,2.15,0,1,0-2.15-2.14A2.14,2.14,0,0,0,211.32,50.35Zm29.4,1.11a2.05,2.05,0,1,0-2-2.05A2.05,2.05,0,0,0,240.72,51.46ZM222.14,63.74a4.26,4.26,0,1,0-4.26-4.26A4.25,4.25,0,0,0,222.14,63.74Zm-17,11.49a4,4,0,1,0-4-4A4,4,0,0,0,205.18,75.23ZM182.62,50.57a4,4,0,1,0-4-4A4,4,0,0,0,182.62,50.57ZM174,57.94a2.15,2.15,0,1,0-2.14-2.14A2.14,2.14,0,0,0,174,57.94Zm29.41,1.11a2,2,0,1,0-2-2A2.05,2.05,0,0,0,203.42,59.05ZM184.83,71.33a4.26,4.26,0,1,0-4.25-4.26A4.26,4.26,0,0,0,184.83,71.33Z"/><path class="a" d="M256.3,17.58a4,4,0,1,1-4-4A4,4,0,0,1,256.3,17.58Zm18.59,21.2a4,4,0,1,0,4,4A4,4,0,0,0,274.89,38.78Zm8.58-7.91A2.15,2.15,0,1,0,285.61,33,2.15,2.15,0,0,0,283.47,30.87Zm-29.41-1.1a2,2,0,1,0,2.05,2.05A2.05,2.05,0,0,0,254.06,29.77Zm18.59-12.28a4.26,4.26,0,1,0,4.25,4.25A4.25,4.25,0,0,0,272.65,17.49ZM289.61,6a4,4,0,1,0,4,4A4,4,0,0,0,289.61,6Zm14.68,19.82a4,4,0,1,0,4,4A4,4,0,0,0,304.29,25.82Zm16.48-2.53a2.15,2.15,0,1,0,2.14,2.14A2.14,2.14,0,0,0,320.77,23.29Zm-29.41-1.11a2.05,2.05,0,1,0,2.05,2.05A2.05,2.05,0,0,0,291.36,22.18ZM310,9.9a4.26,4.26,0,1,0,4.25,4.26A4.26,4.26,0,0,0,310,9.9Zm9,57.74a4,4,0,1,0-4-4A4,4,0,0,0,318.92,67.64ZM299.17,45a4,4,0,1,0-4-4A4,4,0,0,0,299.17,45Zm-11.42,5.38a2.15,2.15,0,1,0-2.14-2.14A2.14,2.14,0,0,0,287.75,50.35Zm29.41,1.11a2.05,2.05,0,1,0-2.05-2.05A2.05,2.05,0,0,0,317.16,51.46ZM298.58,63.74a4.26,4.26,0,1,0-4.26-4.26A4.26,4.26,0,0,0,298.58,63.74Zm-17,11.49a4,4,0,1,0-4-4A4,4,0,0,0,281.61,75.23ZM259.06,50.57a4,4,0,1,0-4-4A4,4,0,0,0,259.06,50.57Zm-8.61,7.37a2.15,2.15,0,1,0-2.14-2.14A2.14,2.14,0,0,0,250.45,57.94Zm29.41,1.11a2,2,0,1,0-2.05-2A2.05,2.05,0,0,0,279.86,59.05ZM261.27,71.33A4.26,4.26,0,1,0,257,67.07,4.26,4.26,0,0,0,261.27,71.33Z"/><path class="a" d="M179.86,90.88a4,4,0,1,1-4-4A4,4,0,0,1,179.86,90.88Zm18.6,21.2a4,4,0,1,0,4,4A4,4,0,0,0,198.46,112.08Zm8.57-7.91a2.15,2.15,0,1,0,2.14,2.15A2.15,2.15,0,0,0,207,104.17Zm-29.41-1.1a2,2,0,1,0,2,2.05A2.05,2.05,0,0,0,177.62,103.07Zm18.59-12.28A4.26,4.26,0,1,0,200.46,95,4.25,4.25,0,0,0,196.21,90.79Zm17-11.49a4,4,0,1,0,4,4A4,4,0,0,0,213.17,79.3Zm14.69,19.82a4,4,0,1,0,4,4A4,4,0,0,0,227.86,99.12Zm16.47-2.53a2.15,2.15,0,1,0,2.15,2.14A2.14,2.14,0,0,0,244.33,96.59Zm-29.41-1.11a2,2,0,1,0,2.05,2A2,2,0,0,0,214.92,95.48ZM233.51,83.2a4.26,4.26,0,1,0,4.25,4.26A4.25,4.25,0,0,0,233.51,83.2Zm9,57.74a4,4,0,1,0-4-4A4,4,0,0,0,242.48,140.94Zm-19.75-22.67a4,4,0,1,0-4-4A4,4,0,0,0,222.73,118.27Zm-11.41,5.38a2.14,2.14,0,1,0-2.15-2.14A2.14,2.14,0,0,0,211.32,123.65Zm29.4,1.11a2,2,0,1,0-2-2.05A2.05,2.05,0,0,0,240.72,124.76ZM222.14,137a4.26,4.26,0,1,0-4.26-4.25A4.25,4.25,0,0,0,222.14,137Zm-17,11.49a4,4,0,1,0-4-4A4,4,0,0,0,205.18,148.53Zm-22.56-24.66a4,4,0,1,0-4-4A4,4,0,0,0,182.62,123.87ZM174,131.24a2.15,2.15,0,1,0-2.14-2.14A2.14,2.14,0,0,0,174,131.24Zm29.41,1.11a2,2,0,1,0-2-2A2.05,2.05,0,0,0,203.42,132.35Zm-18.59,12.28a4.26,4.26,0,1,0-4.25-4.26A4.26,4.26,0,0,0,184.83,144.63Z"/><path class="a" d="M256.3,90.88a4,4,0,1,1-4-4A4,4,0,0,1,256.3,90.88Zm18.59,21.2a4,4,0,1,0,4,4A4,4,0,0,0,274.89,112.08Zm8.58-7.91a2.15,2.15,0,1,0,2.14,2.15A2.15,2.15,0,0,0,283.47,104.17Zm-29.41-1.1a2,2,0,1,0,2.05,2.05A2.05,2.05,0,0,0,254.06,103.07Zm18.59-12.28A4.26,4.26,0,1,0,276.9,95,4.25,4.25,0,0,0,272.65,90.79Zm17-11.49a4,4,0,1,0,4,4A4,4,0,0,0,289.61,79.3Zm14.68,19.82a4,4,0,1,0,4,4A4,4,0,0,0,304.29,99.12Zm16.48-2.53a2.15,2.15,0,1,0,2.14,2.14A2.14,2.14,0,0,0,320.77,96.59Zm-29.41-1.11a2,2,0,1,0,2.05,2A2.05,2.05,0,0,0,291.36,95.48ZM310,83.2a4.26,4.26,0,1,0,4.25,4.26A4.26,4.26,0,0,0,310,83.2Zm9,57.74a4,4,0,1,0-4-4A4,4,0,0,0,318.92,140.94Zm-19.75-22.67a4,4,0,1,0-4-4A4,4,0,0,0,299.17,118.27Zm-11.42,5.38a2.14,2.14,0,1,0-2.14-2.14A2.14,2.14,0,0,0,287.75,123.65Zm29.41,1.11a2,2,0,1,0-2.05-2.05A2.05,2.05,0,0,0,317.16,124.76ZM298.58,137a4.26,4.26,0,1,0-4.26-4.25A4.26,4.26,0,0,0,298.58,137Zm-17,11.49a4,4,0,1,0-4-4A4,4,0,0,0,281.61,148.53Zm-22.55-24.66a4,4,0,1,0-4-4A4,4,0,0,0,259.06,123.87Zm-8.61,7.37a2.15,2.15,0,1,0-2.14-2.14A2.14,2.14,0,0,0,250.45,131.24Zm29.41,1.11a2,2,0,1,0-2.05-2A2.05,2.05,0,0,0,279.86,132.35Zm-18.59,12.28a4.26,4.26,0,1,0-4.25-4.26A4.26,4.26,0,0,0,261.27,144.63Z"/><path class="b" d="M259.44,5l1.44-1.44-1.37-1.36-1.44,1.44a14.53,14.53,0,0,0-20.51,20.5l-1.44,1.44,1.37,1.37,1.44-1.44A14.53,14.53,0,0,0,259.44,5Zm-23.56,9.57A12.6,12.6,0,0,1,256.7,5L238.93,22.75A12.56,12.56,0,0,1,235.88,14.55ZM248.5,27.17a12.53,12.53,0,0,1-8.2-3.05L258.07,6.35a12.6,12.6,0,0,1-9.57,20.82Z"/></svg>