<svg xmlns="http://www.w3.org/2000/svg" viewBox="0 0 497 497"><defs><style>.cls-1{fill:none;stroke:#696a6d;stroke-miterlimit:10;stroke-width:4px;}.cls-2{fill:#bcbec0;}</style></defs><g id="Layer_2" data-name="Layer 2"><path class="cls-1" d="M496.5,160H356.92A19.92,19.92,0,0,1,337,140.08V.5M496.5,337H356.92A19.92,19.92,0,0,0,337,356.92V496.5m-177,0V356.92A19.92,19.92,0,0,0,140.08,337H.5m0-177H140.08A19.92,19.92,0,0,0,160,140.08V.5"/><path class="cls-2" d="M361,266.24c2.55.1,5.43-.09,8.29.28a1.6,1.6,0,0,0,1.73-.86,37.82,37.82,0,0,1,2.16-3.23c.39-.52,1-1,1.67-.63s.21,1.08,0,1.6c-1,3.21-1,3.23,2.41,3.16,9.62-.2,19.28-.31,28.92-.62,6.87-.23,13.72-.08,20.57.33a14.76,14.76,0,0,1,3.67.74c4.56,1.48,5.81,5.17,6.42,9.38a73.5,73.5,0,0,1-.24,22.16c-.79,5-3.79,8-8.8,8.54-9.06.92-18.15.56-27.24.36-.56,0-1.11-.06-1.67-.06-7.7,0-15.39-.26-23.09-.56-2-.07-2,0-1.37,1.87.2.61.42,1.22.6,1.85.11.39.28.83-.19,1.11a1.11,1.11,0,0,1-1.18-.14,3.69,3.69,0,0,1-1.47-1.81c-1-2.25-2.55-2.88-5-2.68a89.38,89.38,0,0,1-14.17.07,42.38,42.38,0,0,1-7.27-1.08,7.89,7.89,0,0,1-5.52-4.5,34.67,34.67,0,0,1,0-29.62,8,8,0,0,1,5.69-4.5,45.65,45.65,0,0,1,11.17-1.16Zm7.11,4.46c-1.62-.32-3.18.83-4.28,2.86a20.18,20.18,0,0,0-2.23,5.52,36.22,36.22,0,0,0-.61,11.61,22.15,22.15,0,0,0,3,9.46c1.14,1.84,2.58,2.84,4.8,2.6a74.22,74.22,0,0,0,11.75-2.12c.91-.24,1.15-.6.84-1.58a38.34,38.34,0,0,1,0-24.57c.3-.92.16-1.38-.79-1.63a71.62,71.62,0,0,0-12.44-2.15Zm40.74,29.57c.91.08,1.82.2,2.73.22,2.18.05,4.36.05,6.54.08,3.34,0,4.51-.81,5.23-4.1a47.25,47.25,0,0,0,.77-13.84,28,28,0,0,0-1-6.44c-.75-2.43-2-3.37-4.46-3.34-3.06,0-6.12.16-9.17.26-.25,0-.58-.07-.71.44,2.29,1.53,2.94,4,3.22,6.56a58.82,58.82,0,0,1,0,13.46A9.9,9.9,0,0,1,408.85,300.27Zm11.51-30.65c-.42-.49-.91-.39-1.34-.45a116.9,116.9,0,0,0-13.74-.73c-8.91-.15-17.8-.05-26.7,0-1.34,0-2.68.12-4,.2-.39,0-.78.09-.78.59s.31.56.65.63.45.07.68.1c7.76,1.25,15.6,1.36,23.42,1.58a107.84,107.84,0,0,0,18.57-1.1A10.35,10.35,0,0,0,420.36,269.62Zm.23,34.33a7.65,7.65,0,0,0-2.75-.76c-12.89-1.94-25.79-1.21-38.7-.22-1.43.12-2.86.35-4.27.59-.46.07-1.15.06-1.12.78s.7.57,1.17.63h.28c13.21,0,26.43.37,39.63-.31A20.71,20.71,0,0,0,420.59,304Z"/><path class="cls-2" d="M136,230.76c-2.55-.1-5.43.09-8.29-.28a1.6,1.6,0,0,0-1.73.86,37.82,37.82,0,0,1-2.16,3.23c-.39.52-1,1-1.67.63s-.21-1.08,0-1.6c1-3.21,1-3.23-2.41-3.16-9.62.2-19.28.31-28.92.62-6.87.23-13.72.08-20.57-.33a14.76,14.76,0,0,1-3.67-.74c-4.56-1.48-5.81-5.17-6.42-9.38a73.5,73.5,0,0,1,.24-22.16c.79-5,3.79-8,8.8-8.54,9.06-.92,18.15-.56,27.24-.36.56,0,1.11.06,1.67.06,7.7,0,15.39.26,23.09.56,2,.07,2,0,1.37-1.87-.2-.61-.42-1.22-.6-1.85-.11-.39-.28-.83.19-1.11a1.11,1.11,0,0,1,1.18.14,3.69,3.69,0,0,1,1.47,1.81c1,2.25,2.55,2.88,5,2.68a89.38,89.38,0,0,1,14.17-.07,42.38,42.38,0,0,1,7.27,1.08,7.89,7.89,0,0,1,5.52,4.5,34.67,34.67,0,0,1,0,29.62,8,8,0,0,1-5.69,4.5,45.65,45.65,0,0,1-11.17,1.16C138.64,230.77,137.48,230.76,136,230.76Zm-7.11-4.46c1.62.32,3.18-.83,4.28-2.86a20.18,20.18,0,0,0,2.23-5.52,36.22,36.22,0,0,0,.61-11.61,22.15,22.15,0,0,0-3-9.46c-1.14-1.84-2.58-2.84-4.8-2.6a74.22,74.22,0,0,0-11.75,2.12c-.91.24-1.15.6-.84,1.58a38.34,38.34,0,0,1,0,24.57c-.3.92-.16,1.38.79,1.63a71.62,71.62,0,0,0,12.44,2.15ZM88.15,196.73c-.91-.08-1.82-.2-2.73-.22-2.18,0-4.36,0-6.54-.08-3.34,0-4.51.81-5.23,4.1a47.25,47.25,0,0,0-.77,13.84,28,28,0,0,0,1,6.44c.75,2.43,2,3.37,4.46,3.34,3.06,0,6.12-.16,9.17-.26.25,0,.58.07.71-.44-2.29-1.53-2.94-4-3.22-6.56a58.82,58.82,0,0,1,0-13.46A9.9,9.9,0,0,1,88.15,196.73ZM76.64,227.38c.42.49.91.39,1.34.45a116.9,116.9,0,0,0,13.74.73c8.91.15,17.8.05,26.7,0,1.34,0,2.68-.12,4-.2.39,0,.78-.09.78-.59s-.31-.56-.65-.63-.45-.07-.68-.1c-7.76-1.25-15.6-1.36-23.42-1.58a107.84,107.84,0,0,0-18.57,1.1A10.35,10.35,0,0,0,76.64,227.38Zm-.23-34.33a7.65,7.65,0,0,0,2.75.76c12.89,1.94,25.79,1.21,38.7.22,1.43-.12,2.86-.35,4.27-.59.46-.07,1.15-.06,1.12-.78s-.7-.57-1.17-.63h-.28c-13.21,0-26.43-.37-39.63.31A20.71,20.71,0,0,0,76.41,193.05Z"/><path class="cls-2" d="M230.76,361c-.1,2.55.09,5.43-.28,8.29a1.6,1.6,0,0,0,.86,1.73,37.82,37.82,0,0,1,3.23,2.16c.52.39,1,1,.63,1.67s-1.08.21-1.6,0c-3.21-1-3.23-1-3.16,2.41.2,9.62.31,19.28.62,28.92.23,6.87.08,13.72-.33,20.57a14.76,14.76,0,0,1-.74,3.67c-1.48,4.56-5.17,5.81-9.38,6.42a73.5,73.5,0,0,1-22.16-.24c-5-.79-8-3.79-8.54-8.8-.92-9.06-.56-18.15-.36-27.24,0-.56.06-1.11.06-1.67,0-7.7.26-15.39.56-23.09.07-2,0-2-1.87-1.37-.61.2-1.22.42-1.85.6-.39.11-.83.28-1.11-.19a1.11,1.11,0,0,1,.14-1.18,3.69,3.69,0,0,1,1.81-1.47c2.25-1,2.88-2.55,2.68-5a89.38,89.38,0,0,1-.07-14.17,42.38,42.38,0,0,1,1.08-7.27,7.89,7.89,0,0,1,4.5-5.52,34.67,34.67,0,0,1,29.62,0,8,8,0,0,1,4.5,5.69,45.65,45.65,0,0,1,1.16,11.17C230.77,358.36,230.76,359.52,230.76,361Zm-4.46,7.11c.32-1.62-.83-3.18-2.86-4.28a20.18,20.18,0,0,0-5.52-2.23,36.22,36.22,0,0,0-11.61-.61,22.15,22.15,0,0,0-9.46,3c-1.84,1.14-2.84,2.58-2.6,4.8a74.22,74.22,0,0,0,2.12,11.75c.24.91.6,1.15,1.58.84a38.34,38.34,0,0,1,24.57,0c.92.3,1.38.16,1.63-.79a71.62,71.62,0,0,0,2.15-12.44Zm-29.57,40.74c-.08.91-.2,1.82-.22,2.73,0,2.18,0,4.36-.08,6.54,0,3.34.81,4.51,4.1,5.23a47.25,47.25,0,0,0,13.84.77,28,28,0,0,0,6.44-1c2.43-.75,3.37-2,3.34-4.46,0-3.06-.16-6.12-.26-9.17,0-.25.07-.58-.44-.71-1.53,2.29-4,2.94-6.56,3.22a58.82,58.82,0,0,1-13.46,0A9.9,9.9,0,0,1,196.73,408.85Zm30.65,11.51c.49-.42.39-.91.45-1.34a116.9,116.9,0,0,0,.73-13.74c.15-8.91.05-17.8,0-26.7,0-1.34-.12-2.68-.2-4,0-.39-.09-.78-.59-.78s-.56.31-.63.65-.07.45-.1.68c-1.25,7.76-1.36,15.6-1.58,23.42a107.84,107.84,0,0,0,1.1,18.57A10.35,10.35,0,0,0,227.38,420.36Zm-34.33.23a7.65,7.65,0,0,0,.76-2.75c1.94-12.89,1.21-25.79.22-38.7-.12-1.43-.35-2.86-.59-4.27-.07-.46-.06-1.15-.78-1.12s-.57.7-.63,1.17v.28c0,13.21-.37,26.43.31,39.63A20.71,20.71,0,0,0,193.05,420.59Z"/><path class="cls-2" d="M266.24,136c.1-2.55-.09-5.43.28-8.29a1.6,1.6,0,0,0-.86-1.73,37.82,37.82,0,0,1-3.23-2.16c-.52-.39-1-1-.63-1.67s1.08-.21,1.6,0c3.21,1,3.23,1,3.16-2.41-.2-9.62-.31-19.28-.62-28.92-.23-6.87-.08-13.72.33-20.57a14.76,14.76,0,0,1,.74-3.67c1.48-4.56,5.17-5.81,9.38-6.42a73.5,73.5,0,0,1,22.16.24c5,.79,8,3.79,8.54,8.8.92,9.06.56,18.15.36,27.24,0,.56-.06,1.11-.06,1.67,0,7.7-.26,15.39-.56,23.09-.07,2,0,2,1.87,1.37.61-.2,1.22-.42,1.85-.6.39-.11.83-.28,1.11.19a1.11,1.11,0,0,1-.14,1.18,3.69,3.69,0,0,1-1.81,1.47c-2.25,1-2.88,2.55-2.68,5a89.38,89.38,0,0,1,.07,14.17,42.38,42.38,0,0,1-1.08,7.27,7.89,7.89,0,0,1-4.5,5.52,34.67,34.67,0,0,1-29.62,0,8,8,0,0,1-4.5-5.69,45.65,45.65,0,0,1-1.16-11.17C266.23,138.64,266.24,137.48,266.24,136Zm4.46-7.11c-.32,1.62.83,3.18,2.86,4.28a20.18,20.18,0,0,0,5.52,2.23,36.22,36.22,0,0,0,11.61.61,22.15,22.15,0,0,0,9.46-3c1.84-1.14,2.84-2.58,2.6-4.8a74.22,74.22,0,0,0-2.12-11.75c-.24-.91-.6-1.15-1.58-.84a38.34,38.34,0,0,1-24.57,0c-.92-.3-1.38-.16-1.63.79a71.62,71.62,0,0,0-2.15,12.44Zm29.57-40.74c.08-.91.2-1.82.22-2.73.05-2.18.05-4.36.08-6.54,0-3.34-.81-4.51-4.1-5.23a47.25,47.25,0,0,0-13.84-.77,28,28,0,0,0-6.44,1c-2.43.75-3.37,2-3.34,4.46,0,3.06.16,6.12.26,9.17,0,.25-.07.58.44.71,1.53-2.29,4-2.94,6.56-3.22a58.82,58.82,0,0,1,13.46,0A9.9,9.9,0,0,1,300.27,88.15ZM269.62,76.64c-.49.42-.39.91-.45,1.34a116.9,116.9,0,0,0-.73,13.74c-.15,8.91-.05,17.8,0,26.7,0,1.34.12,2.68.2,4,0,.39.09.78.59.78s.56-.31.63-.65.07-.45.1-.68c1.25-7.76,1.36-15.6,1.58-23.42a107.84,107.84,0,0,0-1.1-18.57A10.35,10.35,0,0,0,269.62,76.64ZM304,76.41a7.65,7.65,0,0,0-.76,2.75C301.25,92.05,302,105,303,117.86c.12,1.43.35,2.86.59,4.27.07.46.06,1.15.78,1.12s.57-.7.63-1.17v-.28c0-13.21.37-26.43-.31-39.63A20.71,20.71,0,0,0,304,76.41Z"/></g></svg>