<svg xmlns="http://www.w3.org/2000/svg" viewBox="0 0 497 497"><defs><style>.cls-1{fill:#ed1c24;}.cls-1,.cls-2{opacity:0.54;}.cls-2{fill:#8dc63f;}.cls-3{fill:#4582c3;}</style></defs><g id="Layer_2" data-name="Layer 2"><rect class="cls-1" x="332.79" y="172.49" width="152.03" height="152.03" rx="22.65" transform="translate(817.6 497) rotate(180)"/><rect class="cls-2" x="12.19" y="172.49" width="152.03" height="152.03" rx="22.65" transform="translate(176.4 497) rotate(180)"/><path class="cls-3" d="M230.76,361c-.1,2.55.09,5.43-.28,8.29a1.6,1.6,0,0,0,.86,1.73,37.82,37.82,0,0,1,3.23,2.16c.52.39,1,1,.63,1.67s-1.08.21-1.6,0c-3.21-1-3.23-1-3.16,2.41.2,9.62.31,19.28.62,28.92.23,6.87.08,13.72-.33,20.57a14.76,14.76,0,0,1-.74,3.67c-1.48,4.56-5.17,5.81-9.38,6.42a73.5,73.5,0,0,1-22.16-.24c-5-.79-8-3.79-8.54-8.8-.92-9.06-.56-18.15-.36-27.24,0-.56.06-1.11.06-1.67,0-7.7.26-15.39.56-23.09.07-2,0-2-1.87-1.37-.61.2-1.22.42-1.85.6-.39.11-.83.28-1.11-.19a1.11,1.11,0,0,1,.14-1.18,3.69,3.69,0,0,1,1.81-1.47c2.25-1,2.88-2.55,2.68-5a89.38,89.38,0,0,1-.07-14.17,42.38,42.38,0,0,1,1.08-7.27,7.89,7.89,0,0,1,4.5-5.52,34.67,34.67,0,0,1,29.62,0,8,8,0,0,1,4.5,5.69,45.65,45.65,0,0,1,1.16,11.17C230.77,358.36,230.76,359.52,230.76,361Zm-4.46,7.11c.32-1.62-.83-3.18-2.86-4.28a20.18,20.18,0,0,0-5.52-2.23,36.22,36.22,0,0,0-11.61-.61,22.15,22.15,0,0,0-9.46,3c-1.84,1.14-2.84,2.58-2.6,4.8a74.22,74.22,0,0,0,2.12,11.75c.24.91.6,1.15,1.58.84a38.34,38.34,0,0,1,24.57,0c.92.3,1.38.16,1.63-.79a71.62,71.62,0,0,0,2.15-12.44Zm-29.57,40.74c-.08.91-.2,1.82-.22,2.73,0,2.18,0,4.36-.08,6.54,0,3.34.81,4.51,4.1,5.23a47.25,47.25,0,0,0,13.84.77,28,28,0,0,0,6.44-1c2.43-.75,3.37-2,3.34-4.46,0-3.06-.16-6.12-.26-9.17,0-.25.07-.58-.44-.71-1.53,2.29-4,2.94-6.56,3.22a58.82,58.82,0,0,1-13.46,0A9.9,9.9,0,0,1,196.73,408.85Zm30.65,11.51c.49-.42.39-.91.45-1.34a116.9,116.9,0,0,0,.73-13.74c.15-8.91.05-17.8,0-26.7,0-1.34-.12-2.68-.2-4,0-.39-.09-.78-.59-.78s-.56.31-.63.65-.07.45-.1.68c-1.25,7.76-1.36,15.6-1.58,23.42a107.84,107.84,0,0,0,1.1,18.57A10.35,10.35,0,0,0,227.38,420.36Zm-34.33.23a7.65,7.65,0,0,0,.76-2.75c1.94-12.89,1.21-25.79.22-38.7-.12-1.43-.35-2.86-.59-4.27-.07-.46-.06-1.15-.78-1.12s-.57.7-.63,1.17v.28c0,13.21-.37,26.43.31,39.63A20.71,20.71,0,0,0,193.05,420.59Z"/></g></svg>