<svg xmlns="http://www.w3.org/2000/svg" viewBox="0 0 497 497"><defs><style>.cls-1{fill:#ed1c24;}.cls-1,.cls-2{opacity:0.54;}.cls-2{fill:#8dc63f;}.cls-3{fill:#4582c3;}</style></defs><g id="Layer_2" data-name="Layer 2"><rect class="cls-1" x="172.49" y="12.19" width="152.03" height="152.03" rx="22.65" transform="translate(336.7 -160.3) rotate(90)"/><rect class="cls-2" x="172.49" y="332.79" width="152.03" height="152.03" rx="22.65" transform="translate(657.3 160.3) rotate(90)"/><path class="cls-3" d="M361,266.24c2.55.1,5.43-.09,8.29.28a1.6,1.6,0,0,0,1.73-.86,37.82,37.82,0,0,1,2.16-3.23c.39-.52,1-1,1.67-.63s.21,1.08,0,1.6c-1,3.21-1,3.23,2.41,3.16,9.62-.2,19.28-.31,28.92-.62,6.87-.23,13.72-.08,20.57.33a14.76,14.76,0,0,1,3.67.74c4.56,1.48,5.81,5.17,6.42,9.38a73.5,73.5,0,0,1-.24,22.16c-.79,5-3.79,8-8.8,8.54-9.06.92-18.15.56-27.24.36-.56,0-1.11-.06-1.67-.06-7.7,0-15.39-.26-23.09-.56-2-.07-2,0-1.37,1.87.2.61.42,1.22.6,1.85.11.39.28.83-.19,1.11a1.11,1.11,0,0,1-1.18-.14,3.69,3.69,0,0,1-1.47-1.81c-1-2.25-2.55-2.88-5-2.68a89.38,89.38,0,0,1-14.17.07,42.38,42.38,0,0,1-7.27-1.08,7.89,7.89,0,0,1-5.52-4.5,34.67,34.67,0,0,1,0-29.62,8,8,0,0,1,5.69-4.5,45.65,45.65,0,0,1,11.17-1.16Zm7.11,4.46c-1.62-.32-3.18.83-4.28,2.86a20.18,20.18,0,0,0-2.23,5.52,36.22,36.22,0,0,0-.61,11.61,22.15,22.15,0,0,0,3,9.46c1.14,1.84,2.58,2.84,4.8,2.6a74.22,74.22,0,0,0,11.75-2.12c.91-.24,1.15-.6.84-1.58a38.34,38.34,0,0,1,0-24.57c.3-.92.16-1.38-.79-1.63a71.62,71.62,0,0,0-12.44-2.15Zm40.74,29.57c.91.08,1.82.2,2.73.22,2.18.05,4.36.05,6.54.08,3.34,0,4.51-.81,5.23-4.1a47.25,47.25,0,0,0,.77-13.84,28,28,0,0,0-1-6.44c-.75-2.43-2-3.37-4.46-3.34-3.06,0-6.12.16-9.17.26-.25,0-.58-.07-.71.44,2.29,1.53,2.94,4,3.22,6.56a58.82,58.82,0,0,1,0,13.46A9.9,9.9,0,0,1,408.85,300.27Zm11.51-30.65c-.42-.49-.91-.39-1.34-.45a116.9,116.9,0,0,0-13.74-.73c-8.91-.15-17.8-.05-26.7,0-1.34,0-2.68.12-4,.2-.39,0-.78.09-.78.59s.31.56.65.63.45.07.68.1c7.76,1.25,15.6,1.36,23.42,1.58a107.84,107.84,0,0,0,18.57-1.1A10.35,10.35,0,0,0,420.36,269.62Zm.23,34.33a7.65,7.65,0,0,0-2.75-.76c-12.89-1.94-25.79-1.21-38.7-.22-1.43.12-2.86.35-4.27.59-.46.07-1.15.06-1.12.78s.7.57,1.17.63h.28c13.21,0,26.43.37,39.63-.31A20.71,20.71,0,0,0,420.59,304Z"/></g></svg>