<svg xmlns="http://www.w3.org/2000/svg" xmlns:xlink="http://www.w3.org/1999/xlink" viewBox="0 0 497 497"><defs><style>.cls-1,.cls-3,.cls-6,.cls-7{fill:none;}.cls-2{fill:#f1f2f2;}.cls-3{stroke:#696a6d;stroke-width:4px;}.cls-3,.cls-6,.cls-7{stroke-miterlimit:10;}.cls-4{clip-path:url(#clip-path);}.cls-5{fill:#00a651;}.cls-6{stroke:#231f20;stroke-width:2.15px;}.cls-7{stroke:#58595b;stroke-width:5.46px;}.cls-8{fill:#fff;}.cls-9{clip-path:url(#clip-path-4);}.cls-10{fill:#f15a29;}</style><clipPath id="clip-path"><rect class="cls-1" x="237.74" y="340.1" width="44.23" height="86.81"/></clipPath><clipPath id="clip-path-4"><rect class="cls-1" x="179.08" y="340.1" width="44.23" height="86.81"/></clipPath></defs><g id="Layer_1" data-name="Layer 1"><path id="intersection" class="cls-2" d="M496.5,160H356.92A19.92,19.92,0,0,1,337,140.08V.5H160V140.08A19.92,19.92,0,0,1,140.08,160H.5V337H140.08A19.92,19.92,0,0,1,160,356.92V496.5H337V356.92A19.92,19.92,0,0,1,356.92,337H496.5Z"/></g><g id="Layer_2" data-name="Layer 2"><path id="intersection-2" data-name="intersection" class="cls-3" d="M496.5,160H356.92A19.92,19.92,0,0,1,337,140.08V.5"/><path id="intersection-3" data-name="intersection" class="cls-3" d="M337,496.5V356.92A19.92,19.92,0,0,1,356.92,337H496.5"/><path id="intersection-4" data-name="intersection" class="cls-3" d="M.5,337H140.08A19.92,19.92,0,0,1,160,356.92V496.5"/><path id="intersection-5" data-name="intersection" class="cls-3" d="M160,.5V140.08A19.92,19.92,0,0,1,140.08,160H.5"/></g><g id="Layer_3" data-name="Layer 3"><g class="cls-4"><g class="cls-4"><path class="cls-5" d="M239.87,348.7l9.66,7.65v-5.06h8.07v3.14h4.13v-4.19a4.12,4.12,0,0,0-4.13-4.12h-8.07v-5.3Z"/><path class="cls-6" d="M239.87,348.7l9.66,7.65v-5.06h8.07v3.14h4.13v-4.19a4.12,4.12,0,0,0-4.13-4.12h-8.07v-5.3Z"/></g><g class="cls-4"><path class="cls-7" d="M277.57,375a45.86,45.86,0,0,1-.23,5.51c-.08.52.16.87.75,1.14,1,.45,1.92.93,2.82,1.44.45.26.9.64.55,1.11s-.94.14-1.4,0c-2.79-.68-2.81-.68-2.76,1.59.16,6.41.26,12.82.54,19.22a113.43,113.43,0,0,1-.29,13.67,7.83,7.83,0,0,1-.65,2.43c-1.28,3-4.5,3.86-8.17,4.27a84.34,84.34,0,0,1-19.32-.16c-4.36-.53-7-2.52-7.45-5.85-.81-6-.5-12.06-.32-18.09,0-.37.05-.74.05-1.11,0-5.12.23-10.23.48-15.34.06-1.31,0-1.33-1.63-.91-.53.13-1.07.28-1.61.4-.34.07-.73.19-1-.13s-.07-.53.12-.78a3.23,3.23,0,0,1,1.58-1c2-.63,2.51-1.69,2.34-3.29a44.84,44.84,0,0,1-.06-9.41,21.74,21.74,0,0,1,.95-4.83,5.74,5.74,0,0,1,3.92-3.66,38.86,38.86,0,0,1,25.83,0,5.86,5.86,0,0,1,3.93,3.78,23.21,23.21,0,0,1,1,7.42C277.58,373.28,277.57,374.05,277.57,375Z"/><path class="cls-5" d="M277.57,375a45.86,45.86,0,0,1-.23,5.51c-.08.52.16.87.75,1.14,1,.45,1.92.93,2.82,1.44.45.26.9.64.55,1.11s-.94.14-1.4,0c-2.79-.68-2.81-.68-2.76,1.59.16,6.41.26,12.82.54,19.22a113.43,113.43,0,0,1-.29,13.67,7.83,7.83,0,0,1-.65,2.43c-1.28,3-4.5,3.86-8.17,4.27a84.34,84.34,0,0,1-19.32-.16c-4.36-.53-7-2.52-7.45-5.85-.81-6-.5-12.06-.32-18.09,0-.37.05-.74.05-1.11,0-5.12.23-10.23.48-15.34.06-1.31,0-1.33-1.63-.91-.53.13-1.07.28-1.61.4-.34.07-.73.19-1-.13s-.07-.53.12-.78a3.23,3.23,0,0,1,1.58-1c2-.63,2.51-1.69,2.34-3.29a44.84,44.84,0,0,1-.06-9.41,21.74,21.74,0,0,1,.95-4.83,5.74,5.74,0,0,1,3.92-3.66,38.86,38.86,0,0,1,25.83,0,5.86,5.86,0,0,1,3.93,3.78,23.21,23.21,0,0,1,1,7.42c0,.77,0,1.54,0,2.53"/><path class="cls-8" d="M273.69,379.76c.28-1.08-.72-2.11-2.5-2.84a21.44,21.44,0,0,0-4.82-1.49,41.29,41.29,0,0,0-10.12-.41,23.67,23.67,0,0,0-8.25,2c-1.61.75-2.48,1.71-2.27,3.18a39.58,39.58,0,0,0,1.85,7.81c.21.6.52.77,1.38.55a43.43,43.43,0,0,1,21.43,0c.8.2,1.2.11,1.42-.52a37.86,37.86,0,0,0,1.88-8.26"/><path class="cls-8" d="M247.89,406.83c-.07.6-.17,1.2-.19,1.81,0,1.45,0,2.89-.06,4.34,0,2.21.7,3,3.57,3.48a54.09,54.09,0,0,0,12.07.51,31.94,31.94,0,0,0,5.62-.65c2.12-.5,2.94-1.31,2.91-3,0-2-.15-4.06-.23-6.09,0-.17.06-.39-.39-.48-1.34,1.52-3.46,2-5.72,2.14a67.69,67.69,0,0,1-11.74,0,9.91,9.91,0,0,1-5.84-2.07"/><path class="cls-8" d="M274.62,414.47c.44-.28.35-.6.4-.89a59.42,59.42,0,0,0,.64-9.12c.13-5.91,0-11.83,0-17.74,0-.89-.1-1.78-.17-2.67,0-.26-.08-.52-.52-.52a.52.52,0,0,0-.54.43c-.05.15-.06.3-.1.45-1.09,5.16-1.18,10.36-1.37,15.56a55,55,0,0,0,1,12.33,5.53,5.53,0,0,0,.68,2.17"/><path class="cls-8" d="M244.67,414.63a4.08,4.08,0,0,0,.67-1.83c1.7-8.56,1.06-17.14.19-25.71a25.07,25.07,0,0,0-.51-2.83c-.07-.3-.05-.76-.68-.75s-.5.46-.55.78a1.2,1.2,0,0,0,0,.19c0,8.77-.33,17.55.27,26.32a11.31,11.31,0,0,0,.61,3.83"/></g></g><g class="cls-9"><g class="cls-9"><path class="cls-10" d="M220.3,348.7l-9.66,7.65v-5.06h-8.08v3.14h-4.12v-4.19a4.12,4.12,0,0,1,4.12-4.12h8.08v-5.3Z"/><path class="cls-6" d="M220.3,348.7l-9.66,7.65v-5.06h-8.08v3.14h-4.12v-4.19a4.12,4.12,0,0,1,4.12-4.12h8.08v-5.3Z"/></g><g class="cls-9"><path class="cls-7" d="M182.76,371.76a1.55,1.55,0,0,0,1.62.95c.31,7.36,1.71,12.83,4.26,16.66a14.52,14.52,0,0,0,8.43,6.11v2.85a4.14,4.14,0,0,0,1.57,3.24v20.52a2.56,2.56,0,0,0,5.12,0V401.57a4.13,4.13,0,0,0,1.56-3.24v-2.95a14.51,14.51,0,0,0,8.11-6c2.55-3.84,4-9.34,4.26-16.73a1.56,1.56,0,0,0,1.1-2.92l-1-.42a1.65,1.65,0,0,0-2.88-1,46.27,46.27,0,0,0-11.11-1.94v-6.43a2.56,2.56,0,0,0-5.12,0v6.43a45.43,45.43,0,0,0-11.37,2,1.63,1.63,0,0,0-1.3-.64,1.67,1.67,0,0,0-1.66,1.66v0l-.71.28A1.56,1.56,0,0,0,182.76,371.76Zm15.88-2.26V376a5,5,0,0,1,1.43-.54,1.32,1.32,0,0,1,1.13-1,1.34,1.34,0,0,1,1.15,1.09,5.28,5.28,0,0,1,1.41.64V369.5a42.53,42.53,0,0,1,10.65,1.94,38.52,38.52,0,0,1-2.11,12.9l-1.49-.89s-.38.73-.77,1.33a11.24,11.24,0,0,0-3.27-1.72c-.26,3.16-2.27,5.7-4.84,6.19a3.54,3.54,0,0,0-.73-.07,4.24,4.24,0,0,0-.88.09c-2.65-.4-4.74-3-5-6.21a11.29,11.29,0,0,0-3.45,1.85L191,383.3l-1.51.3a40.29,40.29,0,0,1-1.84-12.05A42.39,42.39,0,0,1,198.64,369.5Zm-1.76,12.76c0-2.6,1.62-4.73,3.7-5,.13-.49.29-.77.46-.77s.33.28.47.77c2.08.28,3.7,2.41,3.7,5,0,2.78-1.87,5-4.17,5S196.88,385,196.88,382.26Z"/><path class="cls-10" d="M182.76,371.76a1.55,1.55,0,0,0,1.62.95c.31,7.36,1.71,12.83,4.26,16.66a14.52,14.52,0,0,0,8.43,6.11v2.85a4.14,4.14,0,0,0,1.57,3.24v20.52a2.56,2.56,0,0,0,5.12,0V401.57a4.13,4.13,0,0,0,1.56-3.24v-2.95a14.51,14.51,0,0,0,8.11-6c2.55-3.84,4-9.34,4.26-16.73a1.56,1.56,0,0,0,1.1-2.92l-1-.42a1.65,1.65,0,0,0-2.88-1,46.27,46.27,0,0,0-11.11-1.94v-6.43a2.56,2.56,0,0,0-5.12,0v6.43a45.43,45.43,0,0,0-11.37,2,1.63,1.63,0,0,0-1.3-.64,1.67,1.67,0,0,0-1.66,1.66v0l-.71.28a1.56,1.56,0,0,0-.84,2m15.88-2.26V376a5,5,0,0,1,1.43-.54,1.32,1.32,0,0,1,1.13-1,1.34,1.34,0,0,1,1.15,1.09,5.28,5.28,0,0,1,1.41.64V369.5a42.53,42.53,0,0,1,10.65,1.94,38.52,38.52,0,0,1-2.11,12.9l-1.49-.89s-.38.73-.77,1.33a11.24,11.24,0,0,0-3.27-1.72c-.26,3.16-2.27,5.7-4.84,6.19a3.54,3.54,0,0,0-.73-.07,4.24,4.24,0,0,0-.88.09c-2.65-.4-4.74-3-5-6.21a11.29,11.29,0,0,0-3.45,1.85L191,383.3l-1.51.3a40.29,40.29,0,0,1-1.84-12.05,42.39,42.39,0,0,1,11-2.05m-1.76,12.76c0-2.6,1.62-4.73,3.7-5,.13-.49.29-.77.46-.77s.33.28.47.77c2.08.28,3.7,2.41,3.7,5,0,2.78-1.87,5-4.17,5s-4.16-2.26-4.16-5"/></g></g></g></svg>