<svg xmlns="http://www.w3.org/2000/svg" xmlns:xlink="http://www.w3.org/1999/xlink" viewBox="0 0 497 497"><defs><style>.cls-1,.cls-3,.cls-6,.cls-7{fill:none;}.cls-2{fill:#f1f2f2;}.cls-3{stroke:#696a6d;stroke-width:4px;}.cls-3,.cls-6,.cls-7{stroke-miterlimit:10;}.cls-4{clip-path:url(#clip-path);}.cls-5{fill:#00a651;}.cls-6{stroke:#231f20;stroke-width:2.15px;}.cls-7{stroke:#58595b;stroke-width:5.46px;}.cls-8{fill:#fff;}.cls-9{clip-path:url(#clip-path-4);}.cls-10{clip-path:url(#clip-path-7);}.cls-11{clip-path:url(#clip-path-10);}</style><clipPath id="clip-path"><rect class="cls-1" x="261.68" y="65.41" width="44.23" height="86.81"/></clipPath><clipPath id="clip-path-4"><rect class="cls-1" x="187.74" y="340.1" width="44.23" height="86.81"/></clipPath><clipPath id="clip-path-7"><rect class="cls-1" x="340.77" y="261.01" width="86.81" height="44.23"/></clipPath><clipPath id="clip-path-10"><rect class="cls-1" x="66.08" y="187.07" width="86.81" height="44.23"/></clipPath></defs><g id="Layer_1" data-name="Layer 1"><path id="intersection" class="cls-2" d="M496.5,160H356.92A19.92,19.92,0,0,1,337,140.08V.5H160V140.08A19.92,19.92,0,0,1,140.08,160H.5V337H140.08A19.92,19.92,0,0,1,160,356.92V496.5H337V356.92A19.92,19.92,0,0,1,356.92,337H496.5Z"/></g><g id="Layer_2" data-name="Layer 2"><path id="intersection-2" data-name="intersection" class="cls-3" d="M496.5,160H356.92A19.92,19.92,0,0,1,337,140.08V.5"/><path id="intersection-3" data-name="intersection" class="cls-3" d="M337,496.5V356.92A19.92,19.92,0,0,1,356.92,337H496.5"/><path id="intersection-4" data-name="intersection" class="cls-3" d="M.5,337H140.08A19.92,19.92,0,0,1,160,356.92V496.5"/><path id="intersection-5" data-name="intersection" class="cls-3" d="M160,.5V140.08A19.92,19.92,0,0,1,140.08,160H.5"/></g><g id="Layer_3" data-name="Layer 3"><g class="cls-4"><g class="cls-4"><path class="cls-5" d="M303.78,143.6,294.12,136V141H286v-3.14h-4.12v4.19a4.13,4.13,0,0,0,4.12,4.12h8.08v5.3Z"/><path class="cls-6" d="M303.78,143.6,294.12,136V141H286v-3.14h-4.12v4.19a4.13,4.13,0,0,0,4.12,4.12h8.08v5.3Z"/></g><g class="cls-4"><path class="cls-7" d="M266.07,117.27a45.87,45.87,0,0,1,.24-5.51c.08-.53-.16-.87-.76-1.15-1-.44-1.91-.92-2.82-1.43-.44-.26-.9-.65-.54-1.11s.94-.14,1.4,0c2.79.68,2.81.68,2.75-1.59-.16-6.41-.26-12.82-.53-19.22a111.33,111.33,0,0,1,.29-13.67,7.94,7.94,0,0,1,.64-2.44c1.29-3,4.51-3.86,8.17-4.26a83.31,83.31,0,0,1,19.33.16c4.36.53,7,2.51,7.45,5.84.8,6,.5,12.07.32,18.1,0,.37-.05.74-.05,1.11,0,5.11-.23,10.23-.48,15.34-.07,1.31,0,1.33,1.62.91.54-.13,1.07-.28,1.62-.4.34-.07.73-.19,1,.13s.07.53-.12.78a3.21,3.21,0,0,1-1.59,1c-1.95.63-2.5,1.69-2.34,3.28a44.27,44.27,0,0,1,.06,9.42,21.27,21.27,0,0,1-.94,4.83,5.82,5.82,0,0,1-3.92,3.66A38.89,38.89,0,0,1,271,131a5.91,5.91,0,0,1-3.93-3.77,23.54,23.54,0,0,1-1-7.43C266.06,119,266.07,118.25,266.07,117.27Z"/><path class="cls-5" d="M266.07,117.27a45.87,45.87,0,0,1,.24-5.51c.08-.53-.16-.87-.76-1.15-1-.44-1.91-.92-2.82-1.43-.44-.26-.9-.65-.54-1.11s.94-.14,1.4,0c2.79.68,2.81.68,2.75-1.59-.16-6.41-.26-12.82-.53-19.22a111.33,111.33,0,0,1,.29-13.67,7.94,7.94,0,0,1,.64-2.44c1.29-3,4.51-3.86,8.17-4.26a83.31,83.31,0,0,1,19.33.16c4.36.53,7,2.51,7.45,5.84.8,6,.5,12.07.32,18.1,0,.37-.05.74-.05,1.11,0,5.11-.23,10.23-.48,15.34-.07,1.31,0,1.33,1.62.91.54-.13,1.07-.28,1.62-.4.34-.07.73-.19,1,.13s.07.53-.12.78a3.21,3.21,0,0,1-1.59,1c-1.95.63-2.5,1.69-2.34,3.28a44.27,44.27,0,0,1,.06,9.42,21.27,21.27,0,0,1-.94,4.83,5.82,5.82,0,0,1-3.92,3.66A38.89,38.89,0,0,1,271,131a5.91,5.91,0,0,1-3.93-3.77,23.54,23.54,0,0,1-1-7.43c0-.77,0-1.54,0-2.52"/><path class="cls-8" d="M270,112.54c-.28,1.08.72,2.12,2.5,2.85a22,22,0,0,0,4.82,1.49,41.27,41.27,0,0,0,10.12.4,23.66,23.66,0,0,0,8.25-2c1.6-.75,2.48-1.71,2.27-3.19a39.65,39.65,0,0,0-1.85-7.8c-.21-.6-.53-.77-1.38-.55a43.43,43.43,0,0,1-21.43,0c-.8-.2-1.21-.11-1.42.52a37.77,37.77,0,0,0-1.88,8.25"/><path class="cls-8" d="M295.76,85.48c.06-.6.17-1.21.18-1.81.05-1.45.05-2.9.07-4.35,0-2.21-.7-3-3.57-3.47a54.7,54.7,0,0,0-12.07-.52,32.92,32.92,0,0,0-5.62.66c-2.12.5-2.94,1.31-2.91,3,0,2,.14,4.06.23,6.09,0,.17-.06.38.39.47,1.33-1.52,3.46-2,5.72-2.14a68.7,68.7,0,0,1,11.74,0,9.93,9.93,0,0,1,5.84,2.07"/><path class="cls-8" d="M269,77.84c-.43.27-.34.6-.39.89a58.11,58.11,0,0,0-.64,9.12c-.13,5.91,0,11.83,0,17.74,0,.89.1,1.78.17,2.67,0,.26.08.52.52.52a.54.54,0,0,0,.54-.43,3.4,3.4,0,0,0,.09-.46c1.1-5.15,1.19-10.35,1.38-15.55a55.07,55.07,0,0,0-1-12.34,5.73,5.73,0,0,0-.69-2.16"/><path class="cls-8" d="M299,77.68a4,4,0,0,0-.66,1.83c-1.7,8.56-1.06,17.13-.19,25.7a25.24,25.24,0,0,0,.51,2.84c.06.3.05.76.68.74s.5-.46.55-.77v-.19c0-8.78.32-17.55-.27-26.33a11,11,0,0,0-.62-3.82"/></g></g><g class="cls-9"><g class="cls-9"><path class="cls-5" d="M189.87,348.7l9.66,7.65v-5.06h8.07v3.14h4.13v-4.19a4.12,4.12,0,0,0-4.13-4.12h-8.07v-5.3Z"/><path class="cls-6" d="M189.87,348.7l9.66,7.65v-5.06h8.07v3.14h4.13v-4.19a4.12,4.12,0,0,0-4.13-4.12h-8.07v-5.3Z"/></g><g class="cls-9"><path class="cls-7" d="M227.57,375a45.86,45.86,0,0,1-.23,5.51c-.08.52.16.87.75,1.14,1,.45,1.92.93,2.82,1.44.45.26.9.64.55,1.11s-.94.14-1.4,0c-2.79-.68-2.81-.68-2.76,1.59.16,6.41.26,12.82.54,19.22a113.43,113.43,0,0,1-.29,13.67,7.83,7.83,0,0,1-.65,2.43c-1.28,3-4.5,3.86-8.17,4.27a84.34,84.34,0,0,1-19.32-.16c-4.36-.53-7-2.52-7.45-5.85-.81-6-.5-12.06-.32-18.09,0-.37.05-.74.05-1.11,0-5.12.23-10.23.48-15.34.06-1.31,0-1.33-1.63-.91-.53.13-1.07.28-1.61.4-.34.07-.73.19-1-.13s-.07-.53.12-.78a3.23,3.23,0,0,1,1.58-1c2-.63,2.51-1.69,2.34-3.29a44.84,44.84,0,0,1-.06-9.41,21.74,21.74,0,0,1,.95-4.83,5.74,5.74,0,0,1,3.92-3.66,38.86,38.86,0,0,1,25.83,0,5.86,5.86,0,0,1,3.93,3.78,23.21,23.21,0,0,1,1,7.42C227.58,373.28,227.57,374.05,227.57,375Z"/><path class="cls-5" d="M227.57,375a45.86,45.86,0,0,1-.23,5.51c-.08.52.16.87.75,1.14,1,.45,1.92.93,2.82,1.44.45.26.9.64.55,1.11s-.94.14-1.4,0c-2.79-.68-2.81-.68-2.76,1.59.16,6.41.26,12.82.54,19.22a113.43,113.43,0,0,1-.29,13.67,7.83,7.83,0,0,1-.65,2.43c-1.28,3-4.5,3.86-8.17,4.27a84.34,84.34,0,0,1-19.32-.16c-4.36-.53-7-2.52-7.45-5.85-.81-6-.5-12.06-.32-18.09,0-.37.05-.74.05-1.11,0-5.12.23-10.23.48-15.34.06-1.31,0-1.33-1.63-.91-.53.13-1.07.28-1.61.4-.34.07-.73.19-1-.13s-.07-.53.12-.78a3.23,3.23,0,0,1,1.58-1c2-.63,2.51-1.69,2.34-3.29a44.84,44.84,0,0,1-.06-9.41,21.74,21.74,0,0,1,.95-4.83,5.74,5.74,0,0,1,3.92-3.66,38.86,38.86,0,0,1,25.83,0,5.86,5.86,0,0,1,3.93,3.78,23.21,23.21,0,0,1,1,7.42c0,.77,0,1.54,0,2.53"/><path class="cls-8" d="M223.69,379.76c.28-1.08-.72-2.11-2.5-2.84a21.44,21.44,0,0,0-4.82-1.49,41.29,41.29,0,0,0-10.12-.41,23.67,23.67,0,0,0-8.25,2c-1.61.75-2.48,1.71-2.27,3.18a39.58,39.58,0,0,0,1.85,7.81c.21.6.52.77,1.38.55a43.43,43.43,0,0,1,21.43,0c.8.2,1.2.11,1.42-.52a37.86,37.86,0,0,0,1.88-8.26"/><path class="cls-8" d="M197.89,406.83c-.07.6-.17,1.2-.19,1.81,0,1.45,0,2.89-.06,4.34,0,2.21.7,3,3.57,3.48a54.09,54.09,0,0,0,12.07.51,31.94,31.94,0,0,0,5.62-.65c2.12-.5,2.94-1.31,2.91-3,0-2-.15-4.06-.23-6.09,0-.17.06-.39-.39-.48-1.34,1.52-3.46,2-5.72,2.14a67.69,67.69,0,0,1-11.74,0,9.91,9.91,0,0,1-5.84-2.07"/><path class="cls-8" d="M224.62,414.47c.44-.28.35-.6.4-.89a59.42,59.42,0,0,0,.64-9.12c.13-5.91,0-11.83,0-17.74,0-.89-.1-1.78-.17-2.67,0-.26-.08-.52-.52-.52a.52.52,0,0,0-.54.43c0,.15-.06.3-.1.45-1.09,5.16-1.18,10.36-1.37,15.56a55,55,0,0,0,1,12.33,5.53,5.53,0,0,0,.68,2.17"/><path class="cls-8" d="M194.67,414.63a4.08,4.08,0,0,0,.67-1.83c1.7-8.56,1.06-17.14.19-25.71a25.07,25.07,0,0,0-.51-2.83c-.07-.3-.05-.76-.68-.75s-.5.46-.55.78a1.2,1.2,0,0,0,0,.19c0,8.77-.33,17.55.27,26.32a11.31,11.31,0,0,0,.61,3.83"/></g></g><g class="cls-10"><g class="cls-10"><path class="cls-5" d="M349.38,303.11l7.64-9.66H352v-8.08h3.14v-4.12h-4.19a4.13,4.13,0,0,0-4.12,4.12h0v8.08h-5.3Z"/><path class="cls-6" d="M349.38,303.11l7.64-9.66H352v-8.08h3.14v-4.12h-4.19a4.13,4.13,0,0,0-4.12,4.12h0v8.08h-5.3Z"/></g><g class="cls-10"><path class="cls-7" d="M375.71,265.4a48,48,0,0,1,5.51.23c.52.09.87-.15,1.14-.75.45-1,.93-1.91,1.44-2.82.26-.44.64-.9,1.11-.54s.14.94,0,1.4c-.68,2.79-.68,2.81,1.59,2.75,6.41-.16,12.82-.26,19.22-.53a111.41,111.41,0,0,1,13.67.29,7.54,7.54,0,0,1,2.43.64c3,1.29,3.86,4.51,4.27,8.17a84.43,84.43,0,0,1-.16,19.33c-.53,4.36-2.52,7-5.85,7.45-6,.8-12.06.5-18.09.32-.37,0-.74,0-1.11,0-5.12,0-10.23-.23-15.34-.48-1.31-.07-1.33,0-.91,1.62.13.54.28,1.07.4,1.62.07.34.19.73-.13,1s-.53.07-.78-.12a3.21,3.21,0,0,1-1-1.59c-.63-1.95-1.69-2.51-3.29-2.34a44.17,44.17,0,0,1-9.41.06,21.17,21.17,0,0,1-4.83-.94,5.8,5.8,0,0,1-3.66-3.92,38.89,38.89,0,0,1,0-25.84,5.9,5.9,0,0,1,3.78-3.93,23.48,23.48,0,0,1,7.42-1C374,265.39,374.72,265.4,375.71,265.4Z"/><path class="cls-5" d="M375.71,265.4a48,48,0,0,1,5.51.23c.52.09.87-.15,1.14-.75.45-1,.93-1.91,1.44-2.82.26-.44.64-.9,1.11-.54s.14.94,0,1.4c-.68,2.79-.68,2.81,1.59,2.75,6.41-.16,12.82-.26,19.22-.53a111.41,111.41,0,0,1,13.67.29,7.54,7.54,0,0,1,2.43.64c3,1.29,3.86,4.51,4.27,8.17a84.43,84.43,0,0,1-.16,19.33c-.53,4.36-2.52,7-5.85,7.45-6,.8-12.06.5-18.09.32-.37,0-.74,0-1.11,0-5.12,0-10.23-.23-15.34-.48-1.31-.07-1.33,0-.91,1.62.13.54.28,1.07.4,1.62.07.34.19.73-.13,1s-.53.07-.78-.12a3.21,3.21,0,0,1-1-1.59c-.63-1.95-1.69-2.51-3.29-2.34a44.17,44.17,0,0,1-9.41.06,21.17,21.17,0,0,1-4.83-.94,5.8,5.8,0,0,1-3.66-3.92,38.89,38.89,0,0,1,0-25.84,5.9,5.9,0,0,1,3.78-3.93,23.48,23.48,0,0,1,7.42-1c.77,0,1.54,0,2.53,0"/><path class="cls-8" d="M380.43,269.29c-1.08-.28-2.11.72-2.84,2.5a21.44,21.44,0,0,0-1.49,4.82,41.76,41.76,0,0,0-.41,10.12,23.67,23.67,0,0,0,2,8.25c.75,1.6,1.71,2.48,3.18,2.27a39.58,39.58,0,0,0,7.81-1.85c.6-.22.77-.53.55-1.38a43.47,43.47,0,0,1,0-21.44c.2-.79.11-1.2-.52-1.41a37.86,37.86,0,0,0-8.26-1.88"/><path class="cls-8" d="M407.5,295.09c.6.06,1.2.17,1.81.18,1.45.05,2.89.05,4.34.07,2.21,0,3-.7,3.48-3.57a54.09,54.09,0,0,0,.51-12.07,31.94,31.94,0,0,0-.65-5.62c-.5-2.12-1.31-2.94-3-2.91-2,0-4.06.14-6.09.23-.17,0-.39-.06-.48.39,1.52,1.33,2,3.46,2.14,5.72a67.69,67.69,0,0,1,0,11.74,9.93,9.93,0,0,1-2.07,5.84"/><path class="cls-8" d="M415.14,268.35c-.28-.43-.6-.34-.89-.39a58.19,58.19,0,0,0-9.12-.64c-5.91-.13-11.83,0-17.74,0-.89,0-1.78.1-2.67.17-.26,0-.52.08-.52.52a.52.52,0,0,0,.43.54,3.58,3.58,0,0,0,.45.09c5.16,1.09,10.36,1.18,15.56,1.38A55,55,0,0,0,413,269a5.72,5.72,0,0,0,2.17-.69"/><path class="cls-8" d="M415.3,298.3a4,4,0,0,0-1.83-.66c-8.56-1.7-17.13-1.06-25.71-.19a25.07,25.07,0,0,0-2.83.51c-.3.06-.76.05-.75.68s.46.5.78.54h.19c8.77,0,17.55.32,26.32-.27a11.09,11.09,0,0,0,3.83-.62"/></g></g><g class="cls-11"><g class="cls-11"><path class="cls-5" d="M144.27,189.2l-7.65,9.66h5.07v8.07h-3.14v4.13h4.19a4.13,4.13,0,0,0,4.12-4.13h0v-8.07h5.3Z"/><path class="cls-6" d="M144.27,189.2l-7.65,9.66h5.07v8.07h-3.14v4.13h4.19a4.13,4.13,0,0,0,4.12-4.13h0v-8.07h5.3Z"/></g><g class="cls-11"><path class="cls-7" d="M117.94,226.9a45.86,45.86,0,0,1-5.51-.23c-.52-.08-.87.16-1.15.75-.44,1-.92,1.92-1.43,2.82-.26.45-.65.9-1.11.55s-.14-.94,0-1.4c.68-2.79.68-2.81-1.59-2.76-6.41.16-12.82.26-19.22.54a113.35,113.35,0,0,1-13.67-.29,8,8,0,0,1-2.44-.65c-3-1.28-3.86-4.5-4.26-8.17a83.23,83.23,0,0,1,.16-19.32c.53-4.36,2.51-7,5.84-7.45,6-.81,12.07-.5,18.1-.32.37,0,.74.05,1.11.05,5.11,0,10.23.23,15.34.48,1.31.06,1.33,0,.91-1.63-.13-.53-.28-1.07-.4-1.61-.07-.34-.19-.73.13-1s.53-.07.78.12a3.23,3.23,0,0,1,1,1.58c.63,2,1.69,2.51,3.28,2.34a44.94,44.94,0,0,1,9.42-.06,21.85,21.85,0,0,1,4.83,1,5.76,5.76,0,0,1,3.66,3.92,38.92,38.92,0,0,1,0,25.83,5.88,5.88,0,0,1-3.78,3.93,23.27,23.27,0,0,1-7.43,1Z"/><path class="cls-5" d="M117.94,226.9a45.86,45.86,0,0,1-5.51-.23c-.52-.08-.87.16-1.15.75-.44,1-.92,1.92-1.43,2.82-.26.45-.65.9-1.11.55s-.14-.94,0-1.4c.68-2.79.68-2.81-1.59-2.76-6.41.16-12.82.26-19.22.54a113.35,113.35,0,0,1-13.67-.29,8,8,0,0,1-2.44-.65c-3-1.28-3.86-4.5-4.26-8.17a83.23,83.23,0,0,1,.16-19.32c.53-4.36,2.51-7,5.84-7.45,6-.81,12.07-.5,18.1-.32.37,0,.74.05,1.11.05,5.11,0,10.23.23,15.34.48,1.31.06,1.33,0,.91-1.63-.13-.53-.28-1.07-.4-1.61-.07-.34-.19-.73.13-1s.53-.07.78.12a3.23,3.23,0,0,1,1,1.58c.63,2,1.69,2.51,3.28,2.34a44.94,44.94,0,0,1,9.42-.06,21.85,21.85,0,0,1,4.83,1,5.76,5.76,0,0,1,3.66,3.92,38.92,38.92,0,0,1,0,25.83,5.88,5.88,0,0,1-3.78,3.93,23.27,23.27,0,0,1-7.43,1h-2.52"/><path class="cls-8" d="M113.21,223c1.08.28,2.12-.72,2.85-2.5a22,22,0,0,0,1.49-4.82,41.28,41.28,0,0,0,.4-10.12,23.44,23.44,0,0,0-2-8.25c-.75-1.61-1.71-2.48-3.19-2.27a39.65,39.65,0,0,0-7.8,1.85c-.6.21-.77.52-.55,1.38a43.43,43.43,0,0,1,0,21.43c-.2.8-.11,1.2.52,1.42a38.35,38.35,0,0,0,8.25,1.88"/><path class="cls-8" d="M86.15,197.22c-.6-.07-1.21-.17-1.81-.19-1.45,0-2.9,0-4.34-.07-2.22,0-3,.71-3.48,3.58A54.7,54.7,0,0,0,76,212.61a32.92,32.92,0,0,0,.66,5.62c.5,2.12,1.31,2.94,3,2.91,2,0,4.06-.15,6.09-.23.17,0,.39.06.47-.39-1.52-1.34-2-3.46-2.14-5.72a68.7,68.7,0,0,1,0-11.74,9.91,9.91,0,0,1,2.07-5.84"/><path class="cls-8" d="M78.51,224c.27.44.6.35.89.4a59.34,59.34,0,0,0,9.12.64c5.91.13,11.83,0,17.74,0,.89,0,1.78-.1,2.67-.17.26,0,.52-.08.52-.52a.54.54,0,0,0-.43-.54c-.15-.05-.3-.06-.46-.1-5.15-1.09-10.35-1.18-15.55-1.37a55.07,55.07,0,0,0-12.34,1,5.53,5.53,0,0,0-2.16.68"/><path class="cls-8" d="M78.35,194a4.08,4.08,0,0,0,1.83.67c8.56,1.69,17.13,1.06,25.7.19a25.24,25.24,0,0,0,2.84-.51c.3-.07.76,0,.74-.68s-.46-.5-.77-.55h-.19c-8.77,0-17.55-.33-26.33.27a11.25,11.25,0,0,0-3.82.61"/></g></g></g></svg>