<svg xmlns="http://www.w3.org/2000/svg" viewBox="0 0 497 497"><defs><style>.cls-1{fill:#f1f2f2;}.cls-2,.cls-4{fill:none;}.cls-2{stroke:#696a6d;stroke-width:4px;}.cls-2,.cls-3,.cls-4,.cls-7{stroke-miterlimit:10;}.cls-3,.cls-5{fill:#f7941d;}.cls-3,.cls-7{stroke:#231f20;}.cls-4{stroke:#58595b;stroke-width:5px;}.cls-6,.cls-7{fill:#fff;}</style></defs><g id="Layer_1" data-name="Layer 1"><path id="intersection" class="cls-1" d="M496.5,160H356.92A19.92,19.92,0,0,1,337,140.08V.5H160V140.08A19.92,19.92,0,0,1,140.08,160H.5V337H140.08A19.92,19.92,0,0,1,160,356.92V496.5H337V356.92A19.92,19.92,0,0,1,356.92,337H496.5Z"/></g><g id="Layer_2" data-name="Layer 2"><path id="intersection-2" data-name="intersection" class="cls-2" d="M496.5,160H356.92A19.92,19.92,0,0,1,337,140.08V.5"/><path id="intersection-3" data-name="intersection" class="cls-2" d="M337,496.5V356.92A19.92,19.92,0,0,1,356.92,337H496.5"/><path id="intersection-4" data-name="intersection" class="cls-2" d="M.5,337H140.08A19.92,19.92,0,0,1,160,356.92V496.5"/><path id="intersection-5" data-name="intersection" class="cls-2" d="M160,.5V140.08A19.92,19.92,0,0,1,140.08,160H.5"/></g><g id="Layer_3" data-name="Layer 3"><polygon class="cls-3" points="193.55 339.88 193.55 343.7 199.18 343.7 199.18 339.88 204.97 339.88 196.37 331.28 187.77 339.88 193.55 339.88"/><path class="cls-4" d="M212.27,362.16a39.84,39.84,0,0,1-.21,4.91c-.07.47.14.77.67,1,.86.4,1.71.82,2.51,1.28.4.23.8.57.49,1s-.84.13-1.25,0c-2.48-.6-2.5-.61-2.45,1.42.14,5.7.23,11.41.48,17.11a102.92,102.92,0,0,1-.26,12.17,7.06,7.06,0,0,1-.58,2.17c-1.14,2.7-4,3.44-7.27,3.8a74.48,74.48,0,0,1-17.21-.14c-3.88-.47-6.24-2.24-6.64-5.21-.71-5.36-.44-10.74-.28-16.11,0-.33,0-.66,0-1,0-4.55.2-9.1.42-13.66.06-1.17,0-1.18-1.44-.81l-1.44.36c-.3.06-.65.17-.87-.12s-.06-.47.11-.69a2.71,2.71,0,0,1,1.4-.87c1.75-.57,2.24-1.51,2.09-2.93a39.78,39.78,0,0,1-.06-8.38,20,20,0,0,1,.84-4.31,5.18,5.18,0,0,1,3.49-3.26,34.66,34.66,0,0,1,23,0,5.24,5.24,0,0,1,3.5,3.36,21,21,0,0,1,.9,6.61C212.28,360.6,212.27,361.29,212.27,362.16Z"/><path class="cls-5" d="M212.27,362.16a39.84,39.84,0,0,1-.21,4.91c-.07.47.14.77.67,1,.86.4,1.71.82,2.51,1.28.4.23.8.57.49,1s-.84.13-1.25,0c-2.48-.6-2.5-.61-2.45,1.42.14,5.7.23,11.41.48,17.11a102.92,102.92,0,0,1-.26,12.17,7.06,7.06,0,0,1-.58,2.17c-1.14,2.7-4,3.44-7.27,3.8a74.48,74.48,0,0,1-17.21-.14c-3.88-.47-6.24-2.24-6.64-5.21-.71-5.36-.44-10.74-.28-16.11,0-.33,0-.66,0-1,0-4.55.2-9.1.42-13.66.06-1.17,0-1.18-1.44-.81l-1.44.36c-.3.06-.65.17-.87-.12s-.06-.47.11-.69a2.71,2.71,0,0,1,1.4-.87c1.75-.57,2.24-1.51,2.09-2.93a39.78,39.78,0,0,1-.06-8.38,20,20,0,0,1,.84-4.31,5.18,5.18,0,0,1,3.49-3.26,34.66,34.66,0,0,1,23,0,5.24,5.24,0,0,1,3.5,3.36,21,21,0,0,1,.9,6.61C212.28,360.6,212.27,361.29,212.27,362.16Z"/><path class="cls-6" d="M208.81,366.37c.25-1-.64-1.88-2.23-2.54a19.46,19.46,0,0,0-4.29-1.32,36.7,36.7,0,0,0-9-.36,21,21,0,0,0-7.35,1.77c-1.42.67-2.2,1.52-2,2.83a35.29,35.29,0,0,0,1.65,6.95c.19.54.47.69,1.23.49a38.76,38.76,0,0,1,19.08,0c.72.18,1.07.1,1.27-.46A34,34,0,0,0,208.81,366.37Z"/><path class="cls-6" d="M185.84,390.47c-.06.53-.15,1.07-.17,1.61,0,1.29,0,2.58-.06,3.87,0,2,.63,2.67,3.18,3.1a48.88,48.88,0,0,0,10.75.45,28.69,28.69,0,0,0,5-.58c1.89-.45,2.62-1.16,2.6-2.64,0-1.81-.13-3.62-.21-5.43,0-.15,0-.34-.34-.42-1.19,1.35-3.09,1.74-5.1,1.9a59.79,59.79,0,0,1-10.45,0A8.87,8.87,0,0,1,185.84,390.47Z"/><path class="cls-6" d="M209.64,397.27c.39-.24.31-.53.35-.79a52.72,52.72,0,0,0,.58-8.12c.11-5.27,0-10.53,0-15.8,0-.79-.09-1.58-.15-2.38,0-.23-.07-.46-.46-.46a.49.49,0,0,0-.49.38c0,.14,0,.28-.08.41a80.65,80.65,0,0,0-1.22,13.85,48.83,48.83,0,0,0,.85,11A5,5,0,0,0,209.64,397.27Z"/><path class="cls-6" d="M183,397.41a3.56,3.56,0,0,0,.6-1.63c1.51-7.62.94-15.25.16-22.88a20,20,0,0,0-.45-2.53c-.06-.27,0-.68-.6-.66s-.45.41-.49.69a1,1,0,0,0,0,.17c0,7.81-.29,15.63.23,23.44A10.21,10.21,0,0,0,183,397.41Z"/><polygon class="cls-3" points="304.38 159.36 304.38 155.54 298.75 155.54 298.75 159.36 292.96 159.36 301.56 167.96 310.16 159.36 304.38 159.36"/><path class="cls-4" d="M285.66,137.07a41.83,41.83,0,0,1,.21-4.9c.08-.47-.14-.77-.67-1-.86-.4-1.7-.82-2.51-1.28-.4-.23-.8-.57-.49-1s.84-.12,1.25,0c2.49.6,2.5.6,2.45-1.42-.14-5.71-.23-11.41-.47-17.11a98.82,98.82,0,0,1,.26-12.17,7,7,0,0,1,.57-2.17c1.15-2.7,4-3.44,7.27-3.8a74.48,74.48,0,0,1,17.21.14c3.89.47,6.24,2.24,6.64,5.2.71,5.37.44,10.75.28,16.12,0,.33,0,.66-.05,1,0,4.55-.2,9.1-.42,13.65-.06,1.17,0,1.19,1.45.82.47-.12.95-.25,1.43-.36.31-.06.66-.17.88.11s.06.48-.11.7a2.85,2.85,0,0,1-1.41.87c-1.75.56-2.24,1.51-2.08,2.93a39.78,39.78,0,0,1,0,8.38,19.36,19.36,0,0,1-.84,4.3,5.16,5.16,0,0,1-3.49,3.26,34.66,34.66,0,0,1-23,0,5.25,5.25,0,0,1-3.5-3.37,21,21,0,0,1-.89-6.61C285.66,138.64,285.66,138,285.66,137.07Z"/><path class="cls-5" d="M285.66,137.07a41.83,41.83,0,0,1,.21-4.9c.08-.47-.14-.77-.67-1-.86-.4-1.7-.82-2.51-1.28-.4-.23-.8-.57-.49-1s.84-.12,1.25,0c2.49.6,2.5.6,2.45-1.42-.14-5.71-.23-11.41-.47-17.11a98.82,98.82,0,0,1,.26-12.17,7,7,0,0,1,.57-2.17c1.15-2.7,4-3.44,7.27-3.8a74.48,74.48,0,0,1,17.21.14c3.89.47,6.24,2.24,6.64,5.2.71,5.37.44,10.75.28,16.12,0,.33,0,.66-.05,1,0,4.55-.2,9.1-.42,13.65-.06,1.17,0,1.19,1.45.82.47-.12.95-.25,1.43-.36.31-.06.66-.17.88.11s.06.48-.11.7a2.85,2.85,0,0,1-1.41.87c-1.75.56-2.24,1.51-2.08,2.93a39.78,39.78,0,0,1,0,8.38,19.36,19.36,0,0,1-.84,4.3,5.16,5.16,0,0,1-3.49,3.26,34.66,34.66,0,0,1-23,0,5.25,5.25,0,0,1-3.5-3.37,21,21,0,0,1-.89-6.61C285.66,138.64,285.66,138,285.66,137.07Z"/><path class="cls-6" d="M289.13,132.87c-.25,1,.63,1.88,2.22,2.53a19.11,19.11,0,0,0,4.29,1.33,36.72,36.72,0,0,0,9,.36,21,21,0,0,0,7.35-1.77c1.43-.67,2.21-1.52,2-2.84a35.63,35.63,0,0,0-1.65-6.95c-.19-.53-.47-.68-1.23-.49a38.52,38.52,0,0,1-19.08,0c-.71-.17-1.07-.09-1.27.47A33.83,33.83,0,0,0,289.13,132.87Z"/><path class="cls-6" d="M312.1,108.77c0-.54.14-1.07.16-1.61,0-1.29,0-2.58.06-3.87,0-2-.63-2.67-3.18-3.1a48.86,48.86,0,0,0-10.75-.45,27.86,27.86,0,0,0-5,.58c-1.89.44-2.62,1.16-2.59,2.64,0,1.81.13,3.62.2,5.43,0,.15-.05.34.35.42,1.19-1.36,3.08-1.74,5.09-1.91a59.79,59.79,0,0,1,10.45,0A8.77,8.77,0,0,1,312.1,108.77Z"/><path class="cls-6" d="M288.29,102c-.39.25-.3.54-.35.8a51.4,51.4,0,0,0-.57,8.12c-.12,5.26,0,10.53,0,15.79,0,.8.09,1.59.15,2.39,0,.22.08.46.46.45a.48.48,0,0,0,.49-.38c0-.13.05-.27.08-.4a80.74,80.74,0,0,0,1.22-13.85,49,49,0,0,0-.85-11A5,5,0,0,0,288.29,102Z"/><path class="cls-6" d="M315,101.82a3.46,3.46,0,0,0-.59,1.63c-1.51,7.63-.95,15.26-.17,22.89a22,22,0,0,0,.45,2.53c.06.27.05.67.61.66s.44-.41.48-.69a1,1,0,0,0,0-.17c0-7.81.29-15.63-.24-23.44A10.05,10.05,0,0,0,315,101.82Z"/><rect class="cls-7" x="99.84" y="389.93" width="35.09" height="35.09" transform="translate(322.51 36.34) rotate(45)"/><rect class="cls-5" x="105.34" y="395.43" width="24.09" height="24.09" transform="translate(322.51 36.34) rotate(45)"/><rect class="cls-7" x="370.15" y="69.63" width="35.09" height="35.09" transform="translate(175.19 -248.61) rotate(45)"/><rect class="cls-5" x="375.65" y="75.13" width="24.09" height="24.09" transform="translate(175.19 -248.61) rotate(45)"/></g></svg>