<svg xmlns="http://www.w3.org/2000/svg" viewBox="0 0 120 120"><defs><style>.a,.c{fill:#fff;}.b{fill:#c90106;}.c{stroke:red;stroke-miterlimit:10;stroke-width:2px;}</style></defs><rect class="a" x="17.69" y="78.07" width="3.57" height="13.62"/><path d="M20.76,78.57V91.2H18.19V78.57h2.57m1-1H17.19V92.2h4.57V77.57Z"/><rect class="a" x="7.64" y="90.87" width="23.68" height="3.57"/><path d="M30.82,91.37v2.57H8.14V91.37H30.82m1-1H7.14v4.57H31.82V90.37Z"/><polygon points="28.41 94.61 24.85 90.7 27.52 90.7 31.09 94.61 28.41 94.61"/><polygon points="22.69 94.61 19.12 90.7 21.8 90.7 25.37 94.61 22.69 94.61"/><polygon points="16.97 94.61 13.4 90.7 16.07 90.7 19.64 94.61 16.97 94.61"/><polygon points="11.24 94.61 7.67 90.7 10.35 90.7 13.92 94.61 11.24 94.61"/><rect class="a" x="13.12" y="44.25" width="12.71" height="40.13"/><path d="M25.33,44.76V83.89H13.62V44.76H25.33m1-1H12.62V84.89H26.33V43.76Z"/><polygon class="b" points="25.35 56.62 13.6 60.95 13.6 57.7 25.35 53.37 25.35 56.62"/><polygon class="b" points="25.35 63.57 13.6 67.9 13.6 64.65 25.35 60.32 25.35 63.57"/><polygon class="b" points="25.35 70.52 13.6 74.86 13.6 71.6 25.35 67.27 25.35 70.52"/><polygon class="c" points="19.48 25.06 6.83 46.95 32.12 46.95 19.48 25.06"/><rect class="a" x="99.04" y="78.07" width="3.57" height="13.62"/><path d="M102.11,78.57V91.2H99.54V78.57h2.57m1-1H98.54V92.2h4.57V77.57Z"/><rect class="a" x="88.99" y="90.87" width="23.68" height="3.57"/><path d="M112.17,91.37v2.57H89.49V91.37h22.68m1-1H88.49v4.57h24.68V90.37Z"/><polygon points="109.76 94.61 106.2 90.7 108.87 90.7 112.44 94.61 109.76 94.61"/><polygon points="104.04 94.61 100.47 90.7 103.15 90.7 106.72 94.61 104.04 94.61"/><polygon points="98.31 94.61 94.75 90.7 97.42 90.7 100.99 94.61 98.31 94.61"/><polygon points="92.59 94.61 89.02 90.7 91.7 90.7 95.27 94.61 92.59 94.61"/><polygon class="a" points="94.47 84.39 94.47 53.58 107.18 48.89 107.18 84.39 94.47 84.39"/><path d="M106.68,49.61V83.89H95v-30l11.71-4.32m1-1.44L94,53.23V84.89h13.71V48.17Z"/><rect class="a" x="59.74" y="78.07" width="3.57" height="13.62"/><path d="M62.81,78.57V91.2H60.24V78.57h2.57m1-1H59.24V92.2h4.57V77.57Z"/><rect class="a" x="49.68" y="90.87" width="23.68" height="3.57"/><path d="M72.86,91.37v2.57H50.18V91.37H72.86m1-1H49.18v4.57H73.86V90.37Z"/><polygon points="70.46 94.61 66.89 90.7 69.57 90.7 73.14 94.61 70.46 94.61"/><polygon points="64.74 94.61 61.17 90.7 63.84 90.7 67.41 94.61 64.74 94.61"/><polygon points="59.01 94.61 55.44 90.7 58.12 90.7 61.69 94.61 59.01 94.61"/><polygon points="53.29 94.61 49.72 90.7 52.4 90.7 55.96 94.61 53.29 94.61"/><polygon class="a" points="55.17 84.39 55.17 53.58 67.88 48.89 67.88 84.39 55.17 84.39"/><path d="M67.38,49.61V83.89H55.67v-30l11.71-4.32m1-1.44L54.67,53.23V84.89H68.38V48.17Z"/><polygon class="b" points="67.4 63.57 55.65 67.9 55.65 64.65 67.4 60.32 67.4 63.57"/><polygon class="b" points="67.4 70.52 55.65 74.86 55.65 71.6 67.4 67.27 67.4 70.52"/><polygon class="b" points="106.7 63.57 94.95 67.9 94.95 64.65 106.7 60.32 106.7 63.57"/></svg>