<svg xmlns="http://www.w3.org/2000/svg" viewBox="0 0 120 120"><defs><style>.a{fill:#c90106;}</style></defs><path class="a" d="M60,107.55H9.24a5,5,0,0,1-2.52-.32c-1.25-.66-1.2-2.72-.69-3.94a56.27,56.27,0,0,1,3.8-6.83c1.31-2.23,2.55-4.49,3.84-6.72q4.74-8.17,9.48-16.35c2.56-4.42,5.09-8.85,7.63-13.27q3.26-5.69,6.5-11.36c2.28-3.94,4.58-7.86,6.85-11.81,2.75-4.76,5.44-9.55,8.24-14.29,1.69-2.85,3.21-5.8,5.08-8.54,1.47-2.16,3.41-2.24,5.08-.24a21.49,21.49,0,0,1,2,3.12Q69.73,26.05,75,35.11c3.15,5.48,6.27,11,9.43,16.48,3,5.16,6,10.31,9,15.47,2.05,3.57,4.05,7.17,6.11,10.74,2.38,4.12,4.81,8.22,7.2,12.34,1.84,3.19,3.63,6.42,5.49,9.6a13.63,13.63,0,0,1,2.1,4.56c.29,1.67-.48,3.28-2.64,3.27-17.2,0-34.4,0-51.6,0Zm.2-1.15h44.22c2,0,4,0,6,0s2.76-1.29,2.09-3.06a28.41,28.41,0,0,0-2-3.81q-5.19-9.09-10.36-18.18c-2.94-5.15-5.92-10.29-8.86-15.44-1.87-3.29-3.78-6.55-5.6-9.87-1.73-3.15-3.64-6.2-5.42-9.32-1.88-3.28-3.7-6.6-5.57-9.88-3-5.23-6-10.45-9-15.67-1-1.81-2.06-3.63-3.12-5.43a6.57,6.57,0,0,0-1.41-1.57,1.48,1.48,0,0,0-2.08-.06,9.18,9.18,0,0,0-2.42,3.21c-2.5,4.66-5.26,9.17-7.83,13.78-3,5.41-6.2,10.76-9.28,16.14Q35.58,54.12,31.66,61q-3.8,6.65-7.59,13.29C22,77.91,19.88,81.52,17.8,85.15c-1.79,3.11-3.56,6.24-5.34,9.36-1.63,2.86-3.28,5.7-4.85,8.58a2.07,2.07,0,0,0,1.2,3.11,9.38,9.38,0,0,0,2.47.2Z"/><path class="a" d="M60,104.4H11.14c-1.91,0-2,0-1-1.69,2-3.61,4.15-7.18,6.21-10.77,1.35-2.35,2.65-4.72,4-7.07L31.12,66c2.75-4.8,5.48-9.61,8.23-14.41q3.36-5.89,6.72-11.77C49.44,34,52.78,28,56.23,22.19a54.32,54.32,0,0,1,3.11-5.32c.64-.85,1-.82,1.6.16.75,1.3,1.47,2.63,2.21,3.93q4.26,7.44,8.52,14.87c2.56,4.45,5.21,8.84,7.69,13.33,2.33,4.22,4.83,8.35,7.15,12.58S91.29,70,93.66,74.11c1.81,3.14,3.56,6.32,5.36,9.46,2.58,4.51,5.18,9,7.76,13.5q1.69,3,3.35,6c.6,1.09.41,1.38-.87,1.38Zm0-9.63v0h29.9a19.57,19.57,0,0,0,2.86-.09c.74-.11.88-.41.52-1-.55-1-1-2-1.61-3-2.39-4.16-4.8-8.3-7.19-12.45-1.16-2-2.29-4.07-3.45-6.1-1.69-2.93-3.4-5.85-5.07-8.78-2.1-3.68-4.16-7.39-6.26-11.07C66.8,47.31,64,42.39,61.11,37.46c-.24-.42-.42-1.05-.91-1.07s-.73.67-1,1.09c-2.68,4.6-5.27,9.24-8,13.79-1.86,3.07-3.59,6.22-5.44,9.3-1.5,2.49-2.92,5.05-4.35,7.59-1.77,3.13-3.61,6.22-5.42,9.32l-4.92,8.45q-2.2,3.82-4.4,7.67c-.41.73-.27.94.57,1.09a15.89,15.89,0,0,0,2.67.08Z"/><path d="M81.74,93.9c-2.52,0-5-.07-7.56,0a6.26,6.26,0,0,1-4-1.07,3,3,0,0,0-3.7,0,3.76,3.76,0,0,1-4.7-.18,2.77,2.77,0,0,0-3.48-.16,5.81,5.81,0,0,1-2.26,1,3.85,3.85,0,0,1-3-.92,2.22,2.22,0,0,0-3.09,0,6.56,6.56,0,0,1-4.6,1.37c-5.42-.09-10.83,0-16.25,0-1.36,0-1.51-.25-.82-1.43,3.22-5.52,6.46-11,9.66-16.56A1.71,1.71,0,0,1,39.64,75c2.5,0,5,0,7.48,0,.81,0,1.08.28,1.08,1.08,0,3.44,0,6.89,0,10.33,0,.3-.11.66.19.85s.64-.07.91-.24a3.56,3.56,0,0,1,4.58.13,2.69,2.69,0,0,0,3.48,0,4.47,4.47,0,0,1,2-.84,4.18,4.18,0,0,1,3.19.87,2.46,2.46,0,0,0,3.21.15,4.25,4.25,0,0,1,4.62-.21c.93.48,1.18.32,1.18-.78,0-3.29,0-6.59,0-9.88,0-1.4.06-1.45,1.46-1.46,2.4,0,4.8,0,7.2,0a1.7,1.7,0,0,1,1.66,1c2.49,4.37,5.06,8.71,7.6,13.06.74,1.27,1.5,2.54,2.23,3.82.4.7.17,1-.78,1ZM71.59,90.56c0-.3,0-.66-.27-.84-.47-.3-1-.49-1.46-.78a2.67,2.67,0,0,0-3.24.1A3.92,3.92,0,0,1,61.81,89c-1.5-1.12-2-1.19-3.55-.16-1.9,1.24-3.69,1.36-5.46-.22a1.75,1.75,0,0,0-2.15-.2,18.9,18.9,0,0,0-2,1.25,1,1,0,0,0-.28,1.4c.36.46.69-.07,1-.28a3.46,3.46,0,0,1,4.49.07c1.43,1.08,2,1.09,3.46.07a4.12,4.12,0,0,1,5.28.07c1.27.92,1.9,1,3.28.11a4.27,4.27,0,0,1,2.23-.77,5.17,5.17,0,0,1,2.61.72C71.15,91.29,71.62,91.35,71.59,90.56Z"/><path d="M51.83,78.64a.72.72,0,0,1-.55-.29c-.8-.84-1.61-1.68-2.39-2.55-.5-.55-.18-1,.25-1.43,1.28-1.24,2.59-2.45,3.88-3.68,4.17-4,8.36-8,12.51-12,.61-.6,1-.52,1.52,0,.64.71,1.3,1.4,2,2.09A1,1,0,0,1,69,62.46c-3,3-6.09,5.81-9.13,8.73q-3.63,3.47-7.24,7A1.29,1.29,0,0,1,51.83,78.64Z"/></svg>