<svg xmlns="http://www.w3.org/2000/svg" viewBox="0 0 120 120"><path d="M104.74,23.35c-1,.3-1.7-.4-2.48-.68a14.39,14.39,0,0,0-10.06,0,13.2,13.2,0,0,0-4.75,3.5c-2.84,2.76-4.71,6.33-7.75,8.89A7.3,7.3,0,0,0,78.17,37,8.17,8.17,0,0,1,75.73,40a3.65,3.65,0,0,0-1.25,1.64,3.71,3.71,0,0,1-1.22,1.51c-1.32,1-2,2.61-3.12,3.86-2.47,2.81-4.92,5.64-7.16,8.63-1.54,2-3.34,3.87-4.68,6.06a4.94,4.94,0,0,1-1,1.19c-3.14,2.53-5.31,5.91-7.91,8.91-4.24,4.9-8.37,9.88-12.52,14.86-4.33,5.18-8.58,10.43-13,15.57-1.14,1.33-2.41,2.54-3.53,3.9-.53.62-1.41.71-2.11,1.09-2.2,1.23-4.12.36-5.91-1a4.86,4.86,0,0,1-1.51-2.16,2.15,2.15,0,0,1,.5-2.47,71.56,71.56,0,0,0,5.06-5.79c3.43-4.2,7.11-8.18,10.56-12.36,2.39-2.88,4.84-5.7,7.24-8.57C37.46,71,40.75,67.15,44,63.28a31,31,0,0,1,2.63-3.07A40.65,40.65,0,0,0,52,54c3.19-4.33,7.05-8.08,10.36-12.3.91-1.17,1.85-2.3,2.7-3.53a37.18,37.18,0,0,1,3.52-3.93c.11-.13.29-.21.38-.35,2.74-4.08,6.73-7.13,9.44-11.22A22.8,22.8,0,0,1,82,18.38a20.27,20.27,0,0,1,7.2-4.58A34.8,34.8,0,0,1,99.5,12.23a2.56,2.56,0,0,1,1.55.46,21.44,21.44,0,0,0,2.87,1.14,11.88,11.88,0,0,1,5.26,5.09,1,1,0,0,1,0,1A6.15,6.15,0,0,1,104.74,23.35ZM16.51,106c1.12-.34,2.33-.52,3-1.59,1.44-2.16,3.4-3.86,5-5.9,2.74-3.53,5.72-6.86,8.59-10.29Q40.82,79,48.49,69.8c1.71-2,3.42-4.09,5.15-6.13.37-.44.36-.72-.12-1.08-1.07-.78-2.1-1.59-3.13-2.41-.54-.43-.92-.4-1.38.16q-2.94,3.55-6,7.06-6.13,7.13-12.19,14.32c-4,4.78-8.15,9.51-12.14,14.34-1.83,2.21-3.72,4.37-5.58,6.57-.34.39-.75.79-.29,1.36A6.52,6.52,0,0,0,16.51,106Zm81.41-91.8a23.5,23.5,0,0,0-3.68.41A17,17,0,0,0,83.85,19.3a35.5,35.5,0,0,0-3.64,4.19c-2,2.67-4.29,5.16-6.47,7.71-.48.55-.41.94.16,1.37.85.65,1.66,1.36,2.5,2s1.12.63,1.84-.25c2.82-3.45,5.57-7,8.56-10.29,3.61-4,8.4-4.56,13.46-4a.68.68,0,0,1,.38.15c1.13,1.25,3,.23,4.15,1.26.08.06.34,0,.48-.1a4.83,4.83,0,0,0,1.78-1.55.69.69,0,0,0-.07-1C104.59,16.22,102,14.1,97.92,14.22ZM60.68,54.93a.66.66,0,0,0,.58-.32q4.44-5.34,8.92-10.68c.38-.46.35-.74-.12-1.09a30.61,30.61,0,0,1-2.59-2.08c-.75-.71-1.26-.7-1.93.1-2.86,3.43-5.76,6.83-8.66,10.21-.38.44-.34.68.08,1,1.1.84,2.18,1.71,3.27,2.56C60.39,54.75,60.57,54.86,60.68,54.93Z"/></svg>