<svg xmlns="http://www.w3.org/2000/svg" viewBox="0 0 120 120"><defs><style>.a{fill:#d90000;}.b{fill:#2b2928;}</style></defs><path class="a" d="M60,105.68H9.82c-.41,0-.81,0-1.21,0-1.18-.11-1.32-.71-.77-1.65C11,98.59,14.2,93.19,17.33,87.76Q28.09,69.14,38.79,50.5q9.52-16.53,19-33.06c.43-.75.79-1.54,1.2-2.29.61-1.1,1.28-1.13,1.88-.08Q70.94,32.61,81,50.13c4.7,8.18,9.47,16.33,14.18,24.51q7.36,12.8,14.69,25.62c.66,1.14,1.39,2.25,2.08,3.37.3.49.78,1,.43,1.57s-1,.48-1.57.48l-28.35,0H60ZM59.91,95H92.58c.39,0,.85.18,1.12-.2s-.13-.85-.34-1.23q-4.83-8.39-9.65-16.76Q72.58,57.53,61.42,38.24c-.41-.71-.39-2-1.37-2-1.14,0-1.07,1.33-1.49,2.06C53.36,47.18,48.24,56.12,43.08,65q-8.3,14.35-16.61,28.7c-.78,1.34,0,1.31.94,1.31Z"/><path class="b" d="M77.86,85.32c.13,1.93-.23,4.24.14,6.53a.92.92,0,0,1-.41,1.06c-.51.26-.88,0-1.2-.4-.65-.72-1.34-1.43-1.94-2.2-1-1.23-1.81-1.46-2.81,0a25.14,25.14,0,0,1-1.93,2.22c-.34.39-.68.86-1.29.57s-.41-.76-.36-1.22a71.93,71.93,0,0,0,.11-11.74A16.49,16.49,0,0,0,59.7,66.24a12.64,12.64,0,0,1-5.2-5.54c-.55-1.13-1.33-2.15-2-3.26-.52-.95-.3-1.54.91-1.53,2.3,0,4.61,0,6.91,0a3.37,3.37,0,0,1,1.65.45C72.16,62,78,70.28,77.86,82.18,77.85,83.1,77.86,84,77.86,85.32Z"/></svg>