<svg xmlns="http://www.w3.org/2000/svg" viewBox="0 0 120 120"><defs><style>.a{fill:#d90000;}.b{fill:#2b2928;}</style></defs><path class="a" d="M60.11,106q-23.65,0-47.3,0c-1.53,0-3.06-.09-4.58-.16-1.13-.06-1.25-.55-.7-1.49,4.92-8.55,9.8-17.13,14.74-25.68,5.4-9.36,10.87-18.68,16.27-28Q48.86,32.79,59.12,14.9c.22-.39.3-1,.92-.92s.58.51.78.86q8.85,15.35,17.71,30.7l26.93,47c2.22,3.87,4.48,7.73,6.73,11.59.26.44.81.8.51,1.39s-.92.38-1.43.39c-9.47.26-18.93.12-28.4,0-7.59-.07-15.18,0-22.76,0Zm-.19-9.85v0H93.6c.54,0,1.09.07,1.4-.5a1.2,1.2,0,0,0-.2-1.31C91.59,89.6,89,84.46,86.1,79.47q-12.55-21.75-25-43.57c-.28-.49-.56-.9-1.17-.93s-.88.42-1.14.92c-1,1.82-1.9,3.64-2.93,5.42-6.52,11.37-13,22.75-19.63,34.06-3.67,6.3-7,12.77-11,18.87-.3.46-.57.93-.21,1.46s1,.48,1.61.48Z"/><path class="b" d="M42.43,85.34c0-5.7.33-11.27,3-16.48a30.16,30.16,0,0,1,13-12.75c1-.56,2.19-.26,3.29-.29a36.86,36.86,0,0,0,4.93,0c1.06-.16,1.54.23.94,1.28-1.12,2-2.29,4-3.45,5.94a5.52,5.52,0,0,1-2.28,1.89c-7,3.94-10.5,9.87-10.31,17.93.07,3.11-.29,6.22,0,9.33,0,.35.15.75-.25.94s-.75-.22-1-.51c-.72-.85-1.45-1.7-2.14-2.57-.83-1.06-1.62-1-2.45,0-.63.77-1.28,1.53-2,2.26-.3.33-.62.82-1.17.53s-.25-.71-.25-1.11Z"/></svg>