<svg xmlns="http://www.w3.org/2000/svg" viewBox="0 0 120 120"><defs><style>.a{fill:#c90106;}.b{fill:#2b2928;}</style></defs><path class="a" d="M9.83,60.14a41,41,0,0,1,4-19.57c2.59-5.68,5.63-11.15,10.28-15.46A70.07,70.07,0,0,1,30.22,20a57.91,57.91,0,0,1,6.56-4.26A55,55,0,0,1,52,10.47c8.26-1.72,16.26-.72,24.21,1.43a41.54,41.54,0,0,1,10.14,4.5,45.31,45.31,0,0,1,5.93,3.86,37.92,37.92,0,0,1,8.1,8.71c1.17,1.82,2.47,3.55,3.63,5.39a42.24,42.24,0,0,1,5.5,15.06,57.53,57.53,0,0,1,.34,16.41,46.48,46.48,0,0,1-3.93,14.84,51.54,51.54,0,0,1-8.72,13.15,57.16,57.16,0,0,1-11,9.16,43.85,43.85,0,0,1-17.35,6.59c-8.19,1.27-16.41,1.32-24.49-1.49a56.81,56.81,0,0,1-19.4-12,42.75,42.75,0,0,1-8.65-11.5,64,64,0,0,1-4.56-10.75A35.31,35.31,0,0,1,9.83,60.14Zm49.55,39c1.78.11,3.84-.29,5.92-.31,4-.06,7.57-1.82,11.14-3.26a32.52,32.52,0,0,0,9.23-6.11,39.84,39.84,0,0,0,8.26-9.66,30.61,30.61,0,0,0,4.28-11.44c.35-2.8,1.41-5.5,1.39-8.34a55.1,55.1,0,0,0-1.79-12.3,10,10,0,0,0-.73-2.85c-2.41-4.13-4.58-8.38-7.89-12A38.86,38.86,0,0,0,68.86,21.31a33.68,33.68,0,0,0-16.6.07c-2.52.69-5.27.89-7.49,2.28-3,1.86-6.29,3.23-9,5.64a48.88,48.88,0,0,0-10.2,12.2c-.75,1.31-1.4,2.71-2,4.11-1.06,2.39-1.24,5-2.24,7.36a18.4,18.4,0,0,0-.6,11.37c.59,2.67,1.25,5.35,2.08,8,1.28,4.09,3.59,7.55,5.69,11.15.95,1.64,2.59,2.83,3.86,4.26,2.89,3.24,6.55,5.42,10.21,7.5C47.59,98.13,53.25,99.11,59.38,99.09Z"/><path class="b" d="M85.05,66.56c-3.61,0-7.21-.3-10.82-.27-13.46.11-26.92.13-40.37.19-1.48,0-3,0-4.45.11a5.38,5.38,0,0,1-5.57-4.51c-.16-1,1.87-4.26,3-4.65,1.72-.57,3.42-1.27,5.34-.62a7.76,7.76,0,0,0,2.5,0q21-.2,42-.37c3,0,6,.12,9,.11a12.48,12.48,0,0,1,3.66,0c1.88.52,3.8,3.81,3.08,5.6-1.72,4.27-2,4.44-6.6,4.39C85.65,66.55,85.35,66.56,85.05,66.56Z"/><path class="b" d="M79.28,77.67c0,1.78,0,3.56,0,5.34,0,.79.35,1.76-.9,2-1.59.34-2.83-.08-3.27-1.25s-.8-2.55-1.24-3.81c-.17-.48-.31-1.26-1-1.15s-.53,1-.51,1.5c0,1.14.17,2.27.24,3.4,0,.75-.09,1.45-1,1.48a1.22,1.22,0,0,1-1.4-1.36c.08-4-.11-7.9-.33-11.85a1.32,1.32,0,0,1,1.3-1.49c1.17-.17,2.24,0,2.67,1.26.38,1.12.63,2.29,1,3.42.18.57.21,1.52,1,1.36s.54-1.06.54-1.65c0-.89-.14-1.78-.24-2.66a1.61,1.61,0,0,1,1.58-2c1.31-.12,1.5.79,1.48,1.85,0,1.88,0,3.76,0,5.64Z"/><path class="b" d="M69.1,48.25c0-2.81,0-5.63,0-8.45,0-.89-.15-1.71,1.06-1.88,1.77-.26,2.8.13,3,1.38a21.8,21.8,0,0,0,1,4c.17.49.35,1,1,.94s.68-.74.65-1.28c-.08-1.18-.13-2.37-.28-3.55s.61-1.61,1.58-1.67,1.18.72,1.19,1.61c0,3.66.09,7.32.16,11,0,.9.19,1.83-1.07,2.08-1.66.33-2.64,0-3.06-1.26s-.75-2.46-1.11-3.69c-.17-.61-.2-1.5-1-1.44s-.59,1-.58,1.56c0,1.24.17,2.47.23,3.71,0,.71-.18,1.3-1,1.34a1.19,1.19,0,0,1-1.34-1.26c-.06-1,0-2.08,0-3.12Z"/><path class="b" d="M31.7,45.15c0-1.83.07-3.66,0-5.49-.06-1.16.28-1.66,1.48-1.57s2.18,0,3.26.09c2,.1,3,1,3.06,2.92.11,2.92.11,5.84.13,8.76a2.36,2.36,0,0,1-1.31,2,4.19,4.19,0,0,1-2.22.75c-4.52-.12-4.36.83-4.28-3.93,0-1.19,0-2.37,0-3.56Zm4.9.13h-.07c0-1.18,0-2.36,0-3.54,0-.6-.25-1.24-1-1.2a1.12,1.12,0,0,0-1.09,1.33,33.38,33.38,0,0,1,0,6.63,1.07,1.07,0,0,0,1.07,1.31c.83,0,1.08-.57,1.1-1.28C36.62,47.45,36.6,46.37,36.6,45.28Z"/><path class="b" d="M40.2,78.05c0,1.23,0,2.47,0,3.7,0,2.38-1.09,3.62-3.42,3.68-1,0-2,0-2.95,0s-1.45-.35-1.46-1.28Q32.3,78.12,32.26,72c0-.63.28-1.09,1-1.08,1.58,0,3.16.06,4.73.2A2.12,2.12,0,0,1,40,73.46c0,1.53,0,3.06,0,4.59Zm-3.05.29h-.1c0-1.17,0-2.35,0-3.53,0-.61-.25-1.25-1-1.27s-1,.64-1,1.22c0,2.35.13,4.71.25,7.06a1,1,0,0,0,.9,1c.71,0,.93-.54,1-1.09C37.19,80.6,37.15,79.47,37.15,78.34Z"/><path class="b" d="M59.46,51.07c.79-2.34.9-5.12,1.47-7.83a18.78,18.78,0,0,0,.52-3.65c0-1.22.6-1.77,1.86-1.73,2.53.09,2.52,0,3,2.5A50.46,50.46,0,0,1,67.56,49a7.65,7.65,0,0,0,.4,1.72c.26.9.05,1.62-.9,1.86a1.43,1.43,0,0,1-1.84-1.06,2.05,2.05,0,0,1-.09-.43c-.11-.71-.23-1.42-1.17-1.42A1.26,1.26,0,0,0,62.61,51c-.13,1.13-.94,1.42-1.86,1.58S59.44,52.29,59.46,51.07Z"/><path class="b" d="M64.15,70.57c2.1,0,2.16,0,2.53,2.17.59,3.45,1.15,6.92,1.71,10.38.12.78.32,1.72-.69,2s-1.65-.37-2-1.33c-.21-.61-.47-1.27-1.27-1.26s-1.17.67-1.37,1.35a1.65,1.65,0,0,1-1.88,1.31c-1,0-1.27-.5-1.08-1.48a109.38,109.38,0,0,0,1.6-11C61.92,70.78,62,70.57,64.15,70.57Z"/><path class="b" d="M58.68,77.15c0,2,0,3.58,0,5.16a3.27,3.27,0,0,1-3.35,3.52c-2.74,0-4.22-1.34-4.12-3.73a88.62,88.62,0,0,0-.05-9.78c-.08-1,.28-1.37,1.17-1.44s1.74.16,1.75,1.41c0,2.82.08,5.64.14,8.45,0,.55,0,1.09.07,1.63a.85.85,0,0,0,.74.82A.88.88,0,0,0,56,82.4a5.92,5.92,0,0,0,.09-1.33c0-2.91-.06-5.83-.2-8.74-.05-1.07.41-1.44,1.34-1.49s1.46.38,1.5,1.39A47.54,47.54,0,0,0,58.68,77.15Z"/><path class="b" d="M41.24,45V40.5a2.61,2.61,0,0,1,.5-1.81c.75-.84,3.59-1.15,5.1-.53a2.86,2.86,0,0,1,1.84,3.05c-.06,2.66,0,5.33,0,8a3,3,0,0,1-1.94,3.17A4.8,4.8,0,0,1,42,51.89a2.09,2.09,0,0,1-.63-1.76c0-1.73,0-3.46,0-5.18Zm2.39.25h0c0,1.18,0,2.36,0,3.55a1.07,1.07,0,0,0,.91,1.16.84.84,0,0,0,1.09-.74,49.68,49.68,0,0,0-.11-7.81,1,1,0,0,0-1.14-.93c-.71.08-.79.67-.8,1.22C43.62,42.83,43.63,44,43.63,45.2Z"/><path class="b" d="M49.5,78.39c0,1.58,0,3.16,0,4.74a2.31,2.31,0,0,1-2.22,2.5,7.38,7.38,0,0,1-2.65,0c-1.25-.27-2.27-1-2.32-2.34-.12-3.25-.15-6.5-.16-9.76,0-1.8.79-2.57,2.62-2.66.54,0,1.09,0,1.63,0,2.08.08,3,1,3,3,0,1.48,0,3,0,4.45Zm-4.79.14c0,1,0,2.38,0,3.71,0,.59.25,1.1,1,1.05a1,1,0,0,0,1-1.12c0-2.47-.07-4.93-.16-7.4,0-.66-.27-1.35-1.11-1.28s-.83.75-.82,1.35C44.57,76,44.65,77.11,44.71,78.53Z"/><path class="b" d="M50.49,44.3c0-1.64,0-3.27,0-4.9,0-.93.32-1.4,1.29-1.36s1.63.22,1.61,1.42c0,2.82,0,5.64,0,8.46a3.85,3.85,0,0,0,0,.59c.11.65.24,1.37,1.08,1.35s1-.73,1-1.4q-.06-4.1-.14-8.17c0-.39-.1-.78-.1-1.18,0-1,.7-1.2,1.52-1.2s1.42.3,1.36,1.18c-.24,3.76.35,7.51-.15,11.27a2.29,2.29,0,0,1-1.59,2.06c-3.06,1.21-5.77-.55-5.81-3.82,0-1.43,0-2.87,0-4.3Z"/><path class="b" d="M80.09,44.93c0-1.78,0-3.56,0-5.33s.36-2,1.92-1.79a15.75,15.75,0,0,0,2.66,0c.75-.05,1.43.11,1.49,1s-.49,1.35-1.38,1.37-1.85,0-1.92,1.29.34,1.93,1.67,1.9c.8,0,1.73,0,1.72,1.1s-.69,1.48-1.68,1.45C83,45.87,83,46.91,83,48.11s.77,1.71,2,1.5c.85-.15,1.5,0,1.59,1s-.48,1.43-1.42,1.47-2.07,0-3.1.08c-1.23,0-1.84-.53-1.83-1.77,0-1.83,0-3.65,0-5.48Z"/><path class="b" d="M80.88,77.31c0-1.88,0-3.76,0-5.64,0-1,.42-1.46,1.4-1.46,1.14,0,2.28,0,3.42,0,.73,0,1.33.16,1.34,1a1.16,1.16,0,0,1-1.41,1.31c-.86-.09-1.56,0-1.9,1-.5,1.48,0,2.27,1.52,2.45l.45,0c.88.07,1.18.62,1.17,1.42s-.57,1.11-1.31,1c-1.41-.13-1.89.63-1.79,1.88s.22,2.26,1.88,1.93c1-.2,1.53.35,1.58,1.29s-.61,1.22-1.48,1.21-2,.08-3,.11A1.49,1.49,0,0,1,81,83.09c0-1.93,0-3.85,0-5.78Z"/></svg>