<svg xmlns="http://www.w3.org/2000/svg" viewBox="0 0 120 120"><defs><style>.a{fill:#ffa300;}</style></defs><rect class="a" x="6.5" y="35" width="107" height="50" rx="3.91"/><path d="M16.77,52.18h3.7a10,10,0,0,1,3.91.64,5,5,0,0,1,2.42,2.39,10.41,10.41,0,0,1,.9,4.72,11.63,11.63,0,0,1-.55,3.74,6.76,6.76,0,0,1-1.44,2.57,4.41,4.41,0,0,1-2,1.26,10.15,10.15,0,0,1-2.81.32H16.77Zm3.44,2.68V65.14h.58a3.14,3.14,0,0,0,1.85-.46,3.07,3.07,0,0,0,1.05-1.6,10.72,10.72,0,0,0,.39-3.3,8.53,8.53,0,0,0-.43-3.07,2.91,2.91,0,0,0-1.08-1.47,3.57,3.57,0,0,0-1.78-.38Z"/><path d="M30,52.18h4.92a13.48,13.48,0,0,1,2.19.13,3.65,3.65,0,0,1,1.55.71,3.84,3.84,0,0,1,1.22,1.58,5.61,5.61,0,0,1,.44,2.25A4.3,4.3,0,0,1,38.08,61L41,67.82H37.21l-2.09-6.19H33.4v6.19H30Zm3.44,2.53V59.1h1.51c1.35,0,2-.75,2-2.26a2.47,2.47,0,0,0-.3-1.28,1.63,1.63,0,0,0-.69-.67,2.9,2.9,0,0,0-1.16-.18Z"/><path d="M42.75,52.18h9.52v2.68H46.19v3.63h4.73v2.69H46.19V65h6.08v2.79H42.75Z"/><path d="M54,52.18h5l2.21,9.66,2.49-9.66h4.89V67.82H65.37V54.72l-3.2,13.1h-2.5l-2.92-13.1v13.1H54Z"/><path d="M71.55,52.18h4.5a11.41,11.41,0,0,1,3.18.34,3.45,3.45,0,0,1,1.9,1.55,5.53,5.53,0,0,1,.77,3,5.83,5.83,0,0,1-.62,2.84,3.69,3.69,0,0,1-1.71,1.63A8.64,8.64,0,0,1,76.2,62H75v5.79H71.55ZM75,54.71v4.64h1.06c.94,0,1.55-.22,1.82-.65a3.22,3.22,0,0,0,.41-1.7A2.83,2.83,0,0,0,78,55.57a1.5,1.5,0,0,0-.73-.71,3.64,3.64,0,0,0-1.18-.15Z"/><path d="M83.55,52.18h9.52v2.68H87v3.63h4.72v2.69H87V65h6.08v2.79H83.55Z"/><path d="M94.75,52.18h3.44V64.89h5v2.93H94.75Z"/></svg>