<svg xmlns="http://www.w3.org/2000/svg" viewBox="0 0 120 120"><defs><style>.a{fill:#0054a7;}.b{fill:#fff;}</style></defs><rect class="a" x="6" y="17.62" width="108" height="84.76" rx="8.89"/><polygon class="b" points="30.78 32.66 26.01 26.51 21.24 32.66 16.47 38.81 23.62 38.81 23.62 94.86 28.4 94.86 28.4 38.81 35.55 38.81 30.78 32.66"/><rect class="b" x="70.25" y="23.09" width="2.73" height="74.51"/><polygon class="b" points="105.31 72.19 93.65 60.53 99.31 54.87 91.58 53.89 83.86 52.92 84.84 60.64 85.82 68.36 90.26 63.91 100.33 73.98 100.33 94.86 105.11 94.86 105.11 72.99 104.52 72.99 105.31 72.19"/><polygon class="b" points="54.7 32.66 49.93 26.51 45.16 32.66 40.4 38.81 47.54 38.81 47.54 94.86 52.33 94.86 52.33 38.81 59.47 38.81 54.7 32.66"/></svg>