<svg xmlns="http://www.w3.org/2000/svg" viewBox="0 0 120 120"><path d="M60.68,117.26a52.72,52.72,0,0,1-27.33-7.32c-7.1-4.1-13.46-9.28-18.11-16.17A69.36,69.36,0,0,1,7.08,77.46a53.44,53.44,0,0,1-3-19.09c.22-8.14,2.55-15.68,6-23A52.65,52.65,0,0,1,20,20.68,57.86,57.86,0,0,1,46.33,4.86a87.89,87.89,0,0,1,9.29-1.78A32,32,0,0,1,65.72,3a59.8,59.8,0,0,1,24.09,8.89,62.28,62.28,0,0,1,18.3,19.25c3.88,6.15,5.85,12.92,7.11,20a55.65,55.65,0,0,1-.57,20.47,47.81,47.81,0,0,1-6.77,17.61c-4.95,7.45-10.56,14.4-18.43,19.14a74.13,74.13,0,0,1-13.69,6.3c-3.55,1.25-7.23,1.54-10.78,2.55C63.64,117.57,62.11,117.26,60.68,117.26Zm0-2.4c2.34.26,4.5-.67,6.74-.94a47.52,47.52,0,0,0,12.94-3.51A48.66,48.66,0,0,0,99,97.08c4.08-4.85,7.9-9.86,10.23-15.86a55.81,55.81,0,0,0,4-20.12c0-5.63-.23-11.28-2-16.78-1.44-4.5-2.77-9-5.53-12.92-.82-1.17-1.3-1.34-2.43-.39-3.6,3-7.12,6.18-10.66,9.28-5.51,4.82-11.25,9.37-16.72,14.23S65,63.9,59.78,68.85c-4.31,4.07-8.89,7.84-13.36,11.74C39.37,86.75,32.33,92.92,25.22,99c-1.06.91-1.09,1.45-.08,2.33a51.41,51.41,0,0,0,19.59,10.89C50,113.8,55.4,114,60.72,114.86ZM6.82,60A40.06,40.06,0,0,0,7.7,70.43c1.37,5.33,2.65,10.64,5.5,15.43,1.21,2,1.23,2.16,3.11.66C19.77,83.75,23.22,81,26.55,78c4.79-4.2,9.9-8,14.5-12.46C44.79,62,49,58.8,53,55.44c8.62-7.24,16.78-15,25.61-22C84,29.12,89.07,24.37,94.35,19.89c1.05-.89.92-1.27-.09-2.1a56.91,56.91,0,0,0-13.34-8A53.24,53.24,0,0,0,65.25,5.62a50.08,50.08,0,0,0-15,.79,51.41,51.41,0,0,0-12.86,4.32,43.88,43.88,0,0,0-9.56,5.7c-3.51,3-7,6-9.79,9.85a82.92,82.92,0,0,0-6.15,10.43A49.92,49.92,0,0,0,9,44.53a62.82,62.82,0,0,0-2.17,9.52A39.87,39.87,0,0,0,6.82,60ZM22,98.08a2.19,2.19,0,0,0,1.32-.59,63.37,63.37,0,0,0,6.41-5.29c4.73-4.11,9.64-8,14.21-12.3,2.78-2.61,5.93-4.83,8.83-7.32,4.42-3.79,8.42-8,12.95-11.72,4.2-3.43,8.12-7.21,12.3-10.68,2.87-2.36,5.59-4.9,8.41-7.31s5.68-4.93,8.61-7.3c2.53-2,4.85-4.37,7.25-6.58,1.25-1.15.46-2-.39-2.93a1.53,1.53,0,0,0-2.54,0,107.84,107.84,0,0,1-8.86,7.54c-2.71,2.12-5.06,4.66-7.76,6.78-2.44,1.91-4.76,4-7.15,5.93-3.51,2.89-6.74,6.11-10.23,9-6.72,5.62-13.21,11.49-19.8,17.27-2.89,2.54-5.7,5.21-8.66,7.63-5.57,4.57-11,9.32-16.53,13.91-.57.47-1.14,1-.61,1.83S20.93,97.83,22,98.08ZM99.14,22.86c-.18-1-1-1.2-1.6-1.69s-.88-.19-1.32.18C90.43,26.16,84.68,31,78.8,35.74c-5.59,4.47-10.6,9.6-16.17,14.11-4.91,4-9.4,8.43-14.39,12.31-4,3.09-7.4,6.84-11.27,10.08-6.66,5.59-13.49,11-19.95,16.83a2.35,2.35,0,0,0,.31,3.77.7.7,0,0,0,1-.17,24.32,24.32,0,0,1,3.26-2.56c6-5,11.92-10.07,17.84-15.15,5.06-4.33,10.15-8.62,15-13.13,3.43-3.16,7.24-5.87,10.61-9.07,6.11-5.81,12.77-11,19-16.6,4.13-3.7,8.48-7.14,12.69-10.75A24,24,0,0,0,99.14,22.86Z"/></svg>