<svg xmlns="http://www.w3.org/2000/svg" viewBox="0 0 120 120"><defs><style>.a{fill:#0054a7;}.b{fill:#c90106;}</style></defs><path class="a" d="M98.46,4.18c-3.82-.86-7.69-.29-11.54-.39-2.13,0-4.26,0-6.39,0-7.92,0-15.84.14-23.75-.09-4.67-.14-9.35-.13-14-.23-4-.08-8.08-.27-12.13-.14-1.71,0-3.44-.13-5.16-.18-1.31,0-1.48.14-1.49,1.42,0,5.3.06,10.6,0,15.91-.13,8.38-.41,16.77-.39,25.16,0,10.41.13,20.83-.09,31.24-.25,12.33,0,24.67-.17,37a5.43,5.43,0,0,1-.05,1c-.24,1.35-.25,1.45,1.16,1.52,2.28.11,4.56.06,6.84.1,3,.06,6-.12,8.94.18,1.92.19,3.82-.24,5.74-.16,6.24.23,12.49.14,18.74.24,3.68.05,7.35-.14,11,0,4.08.15,8.15-.13,12.22.11,2.78.16,5.57,0,8.36,0,.84,0,.86-.51.86-1.08,0-2,0-4.06,0-6.08.19-10.27.11-20.54.29-30.81.1-5.15.14-10.3.24-15.45.16-8.64.11-17.29.13-25.94,0-7.22-.09-14.43.06-21.64.07-3.16-.13-6.32.15-9.47,0-.4,0-.82.46-1V118.22c-10.16,0-20.32.13-30.47,0-12.26-.2-24.51-.1-36.76-.23-2.65,0-5.3-.15-7.95-.2a1.6,1.6,0,0,1-1.74-1.83c.12-4.7.29-9.4.4-14.1,0-1.07-.16-2.13-.15-3.2.12-8.13.07-16.27.26-24.4.25-10.2,0-20.4.2-30.59,0-1.65.37-3.3.35-5,0-2.09-.17-4.19-.17-6.28,0-9.47,0-18.93,0-28.4a2,2,0,0,1,2.34-2.26c9.3.15,18.61.13,27.91.3,7.47.13,15,.09,22.42.17l23.37.2Z"/><path class="a" d="M96.47,19.5c0,4.08.11,8.18,0,12.26-.18,5-.19,10.06-.18,15.09,0,3.13-.16,6.27,0,9.38.23,4.05,0,8.09,0,12.13s-.35,8.24-.28,12.35c0,2.84.14,5.67,0,8.5s.24,5.51-.09,8.26A11.42,11.42,0,0,0,96,99.56c.26,4.33-.16,8.67,0,13a14.8,14.8,0,0,1-.23,2.19c-.07.67-.54.78-1.09.84a59.22,59.22,0,0,1-9.6.16c-3.53-.14-7,0-10.57-.12-2.75-.06-5.5-.08-8.25,0a2,2,0,0,1-2.1-1.24c-.53-1.29-1.21-2.53-1.67-3.84-1-2.79-2.45-5.34-3.38-8.14-.47-1.44-1.12-1.66-2.53-1.16a68.77,68.77,0,0,1-9.9,2.64c-1.49.29-1.77.61-1.23,2,.95,2.47,2,4.88,3.1,7.31.14.34.35.65.47,1,.26.73,0,1.19-.8,1.18-3.42-.06-6.82.23-10.25.12-3-.09-6,0-8.93.08-1.11,0-2.21-.09-3.31-.18-1.43-.12-1.83-.47-1.75-1.94.13-2.54.23-5.07.21-7.61,0-3.39,0-6.78,0-10.16,0-5.41-.17-10.82.08-16.21.22-4.86-.27-9.7-.1-14.55a44.78,44.78,0,0,1,.37-7.13c.21-1.06-.28-2.15-.3-3.26,0-1.54.37-3.08,0-4.61,0-.21-.09-.48.15-.6s.38.14.53.29.56.28.76,0a1.88,1.88,0,0,0,.45-1.73c-.14-.4-.53-.33-.85-.17-.82.39-1.16,0-1-.75.38-2.57-.05-5.14,0-7.71.06-2.08.07-4.17.26-6.23.17-1.88-.14-3.73,0-5.61.22-2.44.08-4.92.07-7.38,0-4.56.32-9.12.22-13.68,0-1.75.63-2.31,2.32-1.92,2.54.59,5.1.24,7.65.28,2.13,0,4.26.2,6.4.18,3.53,0,7.07-.1,10.6,0,7.68.25,15.37.09,23.05.24,3.23.07,6.46.16,9.68.11,3.4-.06,6.82.29,10.22-.11,1.14-.14,1.68.5,1.69,1.9,0,4.16,0,8.33,0,12.49ZM75.16,72.35c.78.19,1.42.36,2.06.49,1.43.28,1.79.06,2.38-1.29.73-1.69,1.46-3.37,2.05-5.11.12-.36.31-.71.76-.67s.56.33.65.67c.32,1.17.64,2.34.94,3.52a1.37,1.37,0,0,1-.33,1.23c-.19.25-.54.51-.26.86s.61.08.91,0,.34-.15.52-.2c.52-.12,1.21-.51,1.48.14s-.58.61-1,.83-.7.37-.65.81.47.56.84.58a17.61,17.61,0,0,1,2.5.41,1.2,1.2,0,0,0,1.38-.67c.24-.46.45-.93.66-1.4,1.77-4.12,3.65-8.19,5.21-12.4.26-.71,0-.92-.53-1.14a16,16,0,0,0-2.29-.33c-1.51-.35-1.59-.28-2.19,1.2-.45,1.12-.9,2.24-1.39,3.35-.93,2.08-2.34,4.06-2,6.54a.5.5,0,0,1-.37.6.59.59,0,0,1-.67-.28,2.59,2.59,0,0,1-.42-1.24,20.59,20.59,0,0,0-.74-3.32c-.52-1.49-.61-3,.8-4.25A1.7,1.7,0,0,0,86,59.53a2.15,2.15,0,0,1,.29-1.79A1,1,0,0,0,86,56.21a5.93,5.93,0,0,0-1.79-.82c-.87-.31-1.2-1.09-.64-1.59s.94-1.33,1.55-1.85.43-.73,0-1.16c-.81-.81-1.55-1.67-2.32-2.51-.29-.32-.55-.72-.19-1.07.79-.75.65-1.67.64-2.59,0-.6,0-1.18-.83-1.31-1.46-.24-2.58,0-2.72.81-.19,1.09-.53,2.25.4,3.25a1.41,1.41,0,0,1,.3,1.72,9.86,9.86,0,0,0-.59,6.78,4,4,0,0,1,0,2.07,14,14,0,0,0-1,4.61,1.22,1.22,0,0,1-.37.9,3.89,3.89,0,0,0-1,3c0,.5,0,1.18-.65,1.21s-.79-.66-.78-1.21a10.84,10.84,0,0,0-.41-3.5,2.24,2.24,0,0,1,.6-2.6,2.28,2.28,0,0,0,.65-2.6c-.36-1-.58-2.13-1-3.15A2,2,0,0,1,76,52.58c.29-.43.67-.89.53-1.42C76,49.31,76.4,47.23,75,45.61a1.44,1.44,0,0,1-.39-1.23c.23-1.14-.15-2.26,0-3.4.08-.91-.33-1.2-1.28-1.09-1.17.13-2,.38-1.88,1.8a1.29,1.29,0,0,1-.13.53,2,2,0,0,0,.38,2.25c.45.46.33,1,.17,1.53a10.71,10.71,0,0,1-3.17,5,1.66,1.66,0,0,0-.7,1.21,11.47,11.47,0,0,0,.85,3.4c.27.73,1,.86,1.73,1a.83.83,0,0,1,.67.78.64.64,0,0,1-.45.68c-1.26.49-1.57,1.69-2.07,2.74-1.33,2.82-2.13,5.87-3.78,8.55-.26.42-.25.78.19,1a5.41,5.41,0,0,0,3.31.57c.89-.07,1.09-1.11,1.37-1.84a13.81,13.81,0,0,0,1.25-3.52.63.63,0,0,1,.42-.6.5.5,0,0,1,.57.23,2.86,2.86,0,0,1-.16,3.58c-.2.21-.52.4-.43.72s.48.23.75.21a1.36,1.36,0,0,1,1.11.4,1.11,1.11,0,0,0,1.2.33,1,1,0,0,1,1.24.45C76.1,71.58,75.58,71.85,75.16,72.35ZM41,78c-.1,1.79.56,3.61.52,5.5a.83.83,0,0,0,.87.94c.63-.08.6-.64.5-1.14-.63-3.47-.48-7-1.07-10.51-.5-3-.51-6.14-.78-9.22-.26-2.87-.19-2.85,2.48-4a9.12,9.12,0,0,0,3.27-2,13.53,13.53,0,0,0,2.69-5A6.11,6.11,0,0,0,50,50.16c-.33-4.21-2-7.65-5.91-9.68a13.48,13.48,0,0,0-3.48-1,10,10,0,0,0-10,4,12.16,12.16,0,0,0-2,5.91c-.09,1.61-.16,3.23.86,4.67.41.58.37,1.21-.5,1.46a1.3,1.3,0,0,0-.84.82c-.84,2-1.69,4-2.52,6A1,1,0,0,0,26,63.64a2.17,2.17,0,0,0,3.61-.93,8.62,8.62,0,0,0,.54-1.21c.24-1.09,1.12-2,.87-3.25-.05-.27-.24-.62.09-.8s.64.11.86.33a8.61,8.61,0,0,0,2.52,1.74,11,11,0,0,0,3.63.87c.56.06,1.34.1,1.46.78a12.17,12.17,0,0,1,.53,3.47A29.37,29.37,0,0,0,40.2,69C40.26,72,41,74.93,41,78ZM79.43,23.12h0c0-1.91,0-3.82,0-5.74-.05-2.66-1.89-4.17-5-4.15a3.88,3.88,0,0,0-3.81,4.12c0,3.12,0,6.25,0,9.38a16.67,16.67,0,0,0,.37,3.6,4.43,4.43,0,0,0,4.1,3c2.56-.33,4.23-1.92,4.31-4.22C79.48,27.1,79.43,25.11,79.43,23.12ZM47.88,102.23c1.89-.44,4.09-.87,6.25-1.46,1-.27,1.09-.93.56-1.9-1.49-2.75-3-5.5-3.4-8.68a4,4,0,0,0-1-2.07,20.31,20.31,0,0,1-3.47-6.23,11.79,11.79,0,0,0-1.22-2.59c-.27-.37-.74-.76-1.06-.2-.53.89-1.15,1.84-.58,3a2.64,2.64,0,0,1,.33,1,2.52,2.52,0,0,0,1.24,2.2c1.26.85,2.26,1.81,1.68,3.54a1.16,1.16,0,0,0,.06.54,13.48,13.48,0,0,1-.14,4.39,1.25,1.25,0,0,1-.79,1.12c-1.05.32-1.25,1-1,2a3.76,3.76,0,0,1,0,1.21,8.38,8.38,0,0,0,1,3.46C46.59,102.05,47.06,102.2,47.88,102.23Zm.32-81.46v0c-.22,0-.44,0-.66,0-.83,0-1.91.19-2.18-.83A5.65,5.65,0,0,1,45.59,16c.18-.37.63-.34,1-.33,1,0,1.91.06,2.87.07s1.25-.52,1.25-1.34c0-.66,0-1.62-.85-1.5-1.81.25-3.6-.38-5.38,0-.75.17-1.67-.43-2.27.42s-.07,1.58-.08,2.37c-.1,5-.15,10-.22,15,0,1.14.34,1.54,1.47,1.56,1.9.05,3.81.07,5.71.11,1,0,1.57-.71,1.6-2,0-1-.51-1.33-1.46-1.27a11.42,11.42,0,0,1-3-.18c-.61-.12-1-.42-1-1.07,0-1-.05-2.06,0-3.09a1.06,1.06,0,0,1,1.42-1.1,9.3,9.3,0,0,0,2.74-.12c1-.06,1.37-.7,1.33-1.67s-.66-1.2-1.5-1.15C48.87,20.79,48.53,20.77,48.2,20.77Zm36.51-7.52c-2.31-.05-2.58.26-2.32,2.4A8.3,8.3,0,0,1,82.47,17c-.3,4.93,0,9.85-.15,14.77A1.21,1.21,0,0,0,83.18,33a1.76,1.76,0,0,0,2.43-1.78c0-1.91,0-3.82,0-5.73,0-.59.08-1.24.82-1.19,1.48.09,2.48-.8,3.53-1.58,2.54-1.87,2.38-6.5-.14-8.42C88.2,13.06,86.35,13.45,84.71,13.25ZM36.58,28.94a10,10,0,0,1-2.47-.22c-.7-.11-1-.6-.8-1.18a8.36,8.36,0,0,0,.18-3.48c-.08-3.38,0-6.76.17-10.13,0-.73-.28-1.12-1-1.12H31.42c-.79,0-1.22.45-1.14,1.17.23,2.07-.13,4.12-.06,6.17.13,3.52-.39,7-.27,10.53.05,1.27.42,1.74,1.66,1.46,1.55-.36,3.15.41,4.68-.25.11-.05.29,0,.42.08.67.24,1.33.35,1.79-.34a2.15,2.15,0,0,0,.32-2.09c-.35-.8-1.11-.55-1.74-.59ZM56.9,26.52c0,1.68,0,3.19,0,4.69,0,1.12.6,1.42,1.52,1.43S60,32.45,60,31.33s.09-2.43.18-3.63c.23-3.09-.07-6.17,0-9.26,0-2.05,0-2.06,2-2.63a1.83,1.83,0,0,0,1-2.1c-.19-.82-.86-.57-1.43-.59-2.09-.08-4.18,0-6.27,0-.87,0-1.44,0-1.5,1.07C54,15.52,54.32,16,55.45,16a1.47,1.47,0,0,1,1.63,1.73C56.81,20.74,57.06,23.72,56.9,26.52Zm1.22,43a1.7,1.7,0,0,0,1.45-.85,18.49,18.49,0,0,0,1.67-3.58c1.38-3.08,2.6-6.24,3.91-9.35.56-1.34.36-1.74-1.05-1.87a3.56,3.56,0,0,1-1.08-.2,1.58,1.58,0,0,0-2.24.93c-.2.39-.38.79-.56,1.19-1.43,3.3-2.72,6.66-4.35,9.87-1.41,2.76-1.06,3.46,2,3.83Zm-3-16.26a1,1,0,0,0-.82-1.09c-.61-.12-1.24-.19-1.85-.27A1.31,1.31,0,0,0,50.88,53c-.75,2.7-2.25,5.08-3.25,7.67-.7,1.82-1.65,3.53-2.5,5.28-.2.39-.35.72.08,1.06a2.79,2.79,0,0,0,4.39-.84c1.81-4,3.54-8.07,5.29-12.1A5.07,5.07,0,0,0,55.12,53.28ZM39,87.27h0c.18,1.6.33,3.21.57,4.81.1.64.4,1.55,1.11,1.45a13.43,13.43,0,0,1,4.25.35c.31.06.75.09.8-.36s-.36-.51-.67-.6c-.71-.19-1.44-.32-2.15-.52-.38-.11-.89-.25-.77-.76s.64-.37,1-.3c.72.15,1.44.32,2.16.46.27.06.55,0,.64-.28s-.16-.53-.45-.62a3.58,3.58,0,0,0-.65-.14,22.31,22.31,0,0,0-3.06-.43c-.47,0-.91-.24-.89-.78s.53-.55.92-.53a8.44,8.44,0,0,1,1.41.22c.61.14,1.21.33,1.81.5.3.08.63.11.73-.27s-.18-.54-.47-.64a5.14,5.14,0,0,0-.86-.21c-1-.2-2-.37-2.92-.58-.38-.09-.89-.17-.81-.71s.58-.41,1-.4a15,15,0,0,1,3.33.71c.39.11.84.36,1-.25s-.23-.79-.69-1a18.2,18.2,0,0,0-5.15-1.13c-.72,0-1.14.2-1.14,1Zm-.23-23.75a2.18,2.18,0,0,0-1.66-2.38c-.84,0-1.25.63-1.57,1.3-.11.23-.17.49-.26.73-.73,2-.72,2,1.39,2.5a1.34,1.34,0,0,0,1.83-1A10.56,10.56,0,0,0,38.78,63.52ZM43.17,95a.75.75,0,0,0-.43,1A6.37,6.37,0,0,1,43,97.85a31,31,0,0,1,.27,3.61.69.69,0,0,0,.92.78c.58-.13.57-.58.44-1a9.19,9.19,0,0,1-.31-1.28c-.16-1.34-.29-2.69-.43-4C43.83,95.46,43.77,95.07,43.17,95Z"/><path class="a" d="M61.14,115.55c-.89.17-1.4-.33-1.8-1.23-1.52-3.38-2.85-6.84-4.5-10.16-.55-1.09-.36-1.35.83-1.71,1.89-.58,1.88-.58,2.7,1.24,1.56,3.47,2.78,7.09,4.43,10.53C63.25,115.17,62.8,115.53,61.14,115.55Z"/><path class="a" d="M56.84,115.53c-1.13.09-1.78-.74-2.25-1.75-.79-1.7-1.54-3.42-2.3-5.13-.51-1.18-1-2.37-1.52-3.54-.37-.8-.24-1.27.64-1.62,1.85-.71,2.14-.64,2.87,1.2q1.81,4.55,3.89,9C58.79,115,58.42,115.58,56.84,115.53Z"/><path class="a" d="M51.73,115.51a1.38,1.38,0,0,1-1.3-.77c-1.54-2.78-2.49-5.82-4-8.62-.31-.59,0-1.06.54-1.36,1.7-.85,2.46-.57,3.19,1.19A36.08,36.08,0,0,0,52.6,111a29.33,29.33,0,0,1,1.32,3.36c.21.48-.05.87-.6,1S52.3,115.45,51.73,115.51Z"/><path class="a" d="M71.7,61.12c.09-.74.22-1.34,1-1.44s.91.52,1,1.12c.26,1.29.54,2.57.81,3.86.09.41.17.85-.32,1s-.68-.19-.87-.5A24,24,0,0,1,71.7,61.12Z"/><path class="a" d="M71.88,52c0,.67-.32,1.07-.94,1s-1.54-.17-1.49-1.11a1.38,1.38,0,0,1,1.34-1.36C71.72,50.47,71.67,51.38,71.88,52Z"/><path class="b" d="M39.53,58.35a8.26,8.26,0,0,1-8.73-8.19c-.11-4.59,4.36-9,8.55-8.93a8.64,8.64,0,0,1,8.47,8.41C48,54.64,43.78,58.61,39.53,58.35Z"/><path class="a" d="M73.72,22.69c0-1.55,0-3.09,0-4.64a2.44,2.44,0,0,1,.2-1.19A1.08,1.08,0,0,1,75,16.21a1,1,0,0,1,.92.68,6.61,6.61,0,0,1,.45,2.37c0,2.65,0,5.3,0,8,0,1.42-.55,2.31-1.39,2.29s-1.25-.93-1.25-2.29,0-3,0-4.53Z"/><path class="a" d="M85.61,18.7A12.65,12.65,0,0,1,85.74,17c.17-.8.91-1.1,1.49-.54,1.5,1.45,2.33,2.78.35,4.52-.38.33-.76.6-1.28.38a1.11,1.11,0,0,1-.64-1.07c0-.51,0-1,0-1.54Z"/></svg>