<svg xmlns="http://www.w3.org/2000/svg" viewBox="0 0 120 120"><defs><style>.a{fill:#c90106;}</style></defs><path class="a" d="M60,103.61H12.3c-.33,0-.66,0-1,0-.54,0-1.17.27-1.51-.33s.38-.91.63-1.35c2-3.56,4-7.16,6.06-10.7,1.44-2.44,2.87-4.89,4.26-7.37,2-3.66,4.26-7.23,6.38-10.86q2.43-4.15,4.81-8.35c2.45-4.32,4.85-8.66,7.34-13s5.14-8.65,7.67-13c2.08-3.6,4.1-7.24,6.13-10.87s4.34-7.21,6.23-11c.41-.83,1-.81,1.49,0,1.78,3.09,3.49,6.21,5.27,9.3,2.51,4.36,5.07,8.69,7.58,13.06s4.91,8.65,7.38,13,4.83,8.34,7.23,12.51c2.51,4.36,5,8.73,7.51,13.09Q100,85.1,104.24,92.4c1.93,3.31,3.85,6.63,5.79,9.94.71,1.22-.13,1.31-1,1.33-2.42,0-4.84,0-7.26,0H60Zm0-10.08v0c9.9,0,19.81,0,29.71,0,.84,0,2,.5,2.45-.36s-.68-1.36-1.1-2L91,91c-2.68-5.29-5.78-10.33-8.74-15.45C78.88,69.72,75.41,64,72.09,58.19c-3.77-6.6-7.42-13.27-11.15-19.89-.41-.74-1.07-1.34-1.67-.15-.92,1.86-2,3.62-3.05,5.41C52.41,50.15,48.75,56.82,45,63.42c-3.13,5.46-6.36,10.87-9.53,16.31Q31.88,85.84,28.36,92c-.24.4-.87.7-.58,1.24s.89.3,1.36.3Z"/><path d="M49.57,84.06c.14,2.52-.32,4.5.13,6.47.11.46.07.9-.46,1.08s-.81-.12-1.13-.47c-.86-.92-1.77-1.8-2.63-2.72-.54-.58-1-.55-1.5,0-.88,1-1.83,1.91-2.74,2.86a.86.86,0,0,1-1,.3.81.81,0,0,1-.4-1c.61-2.95.15-5.92.28-8.88.07-1.65,0-3.31.17-4.94.2-1.88,1.41-3.31,2.6-4.64C47.05,67.51,54,66.53,59,71c.85.76,1.65,1.29,2.79.72a2.3,2.3,0,0,0,1.3-2.6,14.87,14.87,0,0,1,3-11.72c.24-.3.35-.69.56-1,.35-.51.21-1.5,1.09-1.45s1,.86,1.36,1.5a41.17,41.17,0,0,0,2.22,4,6.82,6.82,0,0,1,1.2,4.67c-.22,2.4.13,4.82-.28,7.24-.72,4.21-3.26,6.86-7,8.44a10.31,10.31,0,0,1-11.47-1.94c-.81-.71-1.66-1.74-2.86-1.15S49.36,79.57,49.54,81A21.64,21.64,0,0,1,49.57,84.06Z"/></svg>