<svg xmlns="http://www.w3.org/2000/svg" viewBox="0 0 120 120"><defs><style>.a{fill:#c90106;}</style></defs><path class="a" d="M60,106H9.37c-.35,0-.7,0-1,0-1.14-.06-1.45-.51-.83-1.56,3.3-5.61,6.6-11.22,9.85-16.86Q28,69,38.66,50.51q8.4-14.58,16.81-29.14C56.72,19.2,57.9,17,59.1,14.81c.2-.37.39-.75.85-.78s.77.41,1,.83q9.71,17,19.43,33.88,10.89,19,21.78,38c3.37,5.84,6.82,11.63,10.24,17.45.23.4.58.8.33,1.28s-1,.52-1.55.52l-34.58,0H60Zm0-10.44v0H93.23c.42,0,.85.1,1.08-.36s-.14-.75-.34-1.09L84,76.87Q72.8,57.45,61.59,38c-1.6-2.76-1.62-2.73-3.23.06Q49.15,54.12,39.92,70.15q-6.95,12-14,24c-.21.35-.54.66-.24,1.1s.73.29,1.13.29Z"/><path d="M75.43,86.64a1.45,1.45,0,0,1-.57,1.15c-1.33,1.31-2.66,2.6-3.91,4-.9,1-1.54.87-2.42-.07C66,89,63.44,86.43,60.91,83.79c-.67-.71-1.19-.48-1.76.1-2.51,2.59-5.1,5.1-7.52,7.77-1,1.13-1.71.93-2.53,0a33.62,33.62,0,0,0-3.79-3.85c-.85-.7-.72-1.26,0-2,2.61-2.49,5.12-5.08,7.76-7.54,1-.9.8-1.46,0-2.25-2.52-2.42-5-4.9-7.5-7.3-1-.9-1.2-1.52,0-2.5a39.35,39.35,0,0,0,3.82-3.82c.74-.81,1.27-.73,2,0,2.51,2.59,5.11,5.1,7.59,7.72.94,1,1.44.87,2.34-.09,2.45-2.64,5.05-5.14,7.57-7.73.7-.72,1.23-.63,1.89,0,1.34,1.37,2.73,2.7,4.11,4a1.22,1.22,0,0,1,0,2.06c-2.51,2.41-5,4.9-7.51,7.27-1.06,1-1.36,1.63-.09,2.77,2.63,2.38,5.09,4.94,7.62,7.43A4.84,4.84,0,0,1,75.43,86.64Z"/></svg>