<svg xmlns="http://www.w3.org/2000/svg" viewBox="0 0 120 120"><defs><style>.a{fill:#0054a7;}</style></defs><path class="a" d="M60.06,6.29h49.15c3.08,0,4.6,1.6,4.61,5q0,27.92,0,55.82,0,20.49,0,41c0,3.93-1.79,5.63-5.67,5.62q-31.49-.06-63,0-17.16,0-34.32,0c-3,0-4.73-1.79-4.73-4.59q.06-27.24.08-54.48,0-21.9-.05-43.82c0-3,1.56-4.48,4.73-4.48H60.06Zm-.51,104v0h44.67a5.43,5.43,0,0,0,5.67-5.62q0-25.26,0-50.5,0-19.17,0-38.33a5.51,5.51,0,0,0-5.79-5.71l-2.5,0H15.26a5.29,5.29,0,0,0-5.69,5.71c0,4.5,0,9,0,13.5l-.06,75.16a5.36,5.36,0,0,0,5.69,5.74Q37.39,110.31,59.55,110.29Z"/><path class="a" d="M12.84,60.22q0-22.15,0-44.31c0-1.69.79-2.5,2.39-2.49q24.41,0,48.81.08c13.33,0,26.66-.05,40-.08,1.71,0,2.49.78,2.49,2.58q0,27.9,0,55.81,0,16.16,0,32.31c0,2.26-.68,3-3,3q-43.9,0-87.8,0c-2.16,0-2.88-.7-2.88-2.71V60.22Zm47,16.45c7.33,0,14.66,0,22,0,1.37,0,1.72.53,1.7,1.77,0,2.94,0,5.89,0,8.83,0,2,.75,2.68,2.75,2.68,1.61,0,3.22,0,4.83,0,2.35,0,3.06-.68,3.06-3.08q0-4.25-.05-8.49a2.17,2.17,0,0,1,.6-1.82,54.38,54.38,0,0,0,4-4.47,4.28,4.28,0,0,0,1.09-3.17c-.07-4.66-.06-9.32,0-14a2.42,2.42,0,0,0-1.25-2.35c-3.07-1.75-4.65-4.54-5.78-7.79-1.32-3.83-2.94-7.55-4.4-11.33a2.23,2.23,0,0,0-2-1.68A231.57,231.57,0,0,0,63.1,29.89,203.18,203.18,0,0,0,33.22,31.8a1.74,1.74,0,0,0-1.56,1.27c-1.41,3.68-2.94,7.31-4.25,11-1.24,3.52-2.79,6.73-6.27,8.62A2.29,2.29,0,0,0,20.08,55c.06,3.22.05,6.44.06,9.66,0,6.76,0,6.77,4.76,11.57a2.69,2.69,0,0,1,.87,2.2c-.07,2.94-.07,5.88,0,8.82,0,2,.74,2.66,2.76,2.68,1.66,0,3.33,0,5,0,2.17,0,2.87-.73,2.85-2.91,0-3,0-5.89-.07-8.83,0-1.21.5-1.53,1.6-1.53C45.21,76.67,52.53,76.66,59.86,76.67Z"/><path class="a" d="M59.77,34.44c8,0,15.93,1.17,23.88,1.93,1.18.11,1.59.93,1.94,1.8,1.13,2.84,2.25,5.68,3.3,8.54s1,2.92-2,2.78c-7.43-.34-14.85-.84-22.29-1-11-.22-22,.46-32.93,1.12-1.91.12-2,0-1.26-1.71,1.28-3.13,2.54-6.28,3.72-9.45a2.93,2.93,0,0,1,2.77-2.15C44.5,35.52,52.09,34.48,59.77,34.44Z"/><path class="a" d="M32.46,65c-1.94,0-3.89,0-5.83,0-1.48,0-2.13-.64-2.09-2.11.05-1.72,0-3.44,0-5.16s.44-2.13,2.18-2.11c3.11,0,6.22.1,9.32,0a2.67,2.67,0,0,1,3,2.23c.48,1.77.93,3.55,1.3,5.34.3,1.39-.64,1.76-1.76,1.78-2,0-4.11,0-6.16,0Z"/><path class="a" d="M87.37,64.93c-2,0-4,0-6,0-1.73,0-2.15-.63-1.74-2.33s.85-3.44,1.29-5.16a2.3,2.3,0,0,1,2.56-1.86c3.27,0,6.54,0,9.81,0,1.32,0,2,.57,2,1.85,0,1.94.06,3.88,0,5.82,0,1.24-.83,1.74-2,1.73h-6Z"/></svg>