<svg xmlns="http://www.w3.org/2000/svg" viewBox="0 0 120 120"><defs><style>.a{fill:#c90106;}</style></defs><path class="a" d="M90.75,110.08c-14.87.46-29.76.36-44.63.62-11,.2-22.1.06-33.15.24a31.94,31.94,0,0,1-4.48-.22c-4.13-.5-6-3.66-4.57-7.59,1.82-5,4.8-9.36,7.25-14Q14,83.74,17,78.47c2.07-3.6,4.32-7.1,6.37-10.72C25.27,64.42,27,61,28.78,57.61c3.94-7.38,8.45-14.45,12.13-22,2.62-5.39,5.62-10.57,8.49-15.83,1.65-3,3.1-6.1,5.31-8.77s5.47-2.68,7.58,0a33,33,0,0,1,3.24,4.64c2,3.65,4.42,7.05,6.49,10.65s4,6.92,6,10.38c5.6,9.7,11,19.52,16.85,29.07,4.32,7,7.87,14.52,12.4,21.44a160.21,160.21,0,0,1,8.57,15c1.66,3.25.53,5.74-3,6.72a20.45,20.45,0,0,1-4.93.71C102.18,109.73,96.47,109.92,90.75,110.08Zm4.61-10.54c1,0,2.11,0,3.16,0,2,0,2.56-.82,1.59-2.61-1.34-2.48-2.83-4.88-4.28-7.3-2.12-3.57-4.38-7.07-6.36-10.71A132.14,132.14,0,0,0,81.28,65,40.28,40.28,0,0,1,79,61.39c-2.78-4.91-5.6-9.8-8.27-14.78-1.2-2.24-2.47-4.45-3.82-6.61-2.2-3.52-4-7.28-6.55-10.58-1.22-1.58-1.6-1.49-2.86.12-2.38,3-3.91,6.6-5.59,10C48.39,46.55,44,53,40.52,60c-1,2-2.06,3.93-3.17,5.85-2.35,4-4.64,8.07-7,12.07-2.67,4.45-4.8,9.22-7.5,13.67-1.24,2-2.32,4.17-3.42,6.29-1,1.87-.8,2.19,1.24,2.39,1.05.1,2.1.2,3.15.2,5.27,0,10.54,0,15.81-.17,8.65-.33,17.31-.13,26-.38C75.49,99.69,85.43,99.93,95.36,99.54Z"/><path d="M64.21,73.17c0,5.55,0,11.1,0,16.64,0,3.32-1.65,5.28-4.55,5.48-2.69.18-4.92-1.81-5.13-5-.26-3.93-.28-7.88-.31-11.81a34.38,34.38,0,0,0-.61-6.79c-.32-1.58.14-3.18,0-4.8-.27-4-.26-8.08-.39-12.13a6.17,6.17,0,0,1,2.5-5c2.23-1.87,6-.53,7.1,2.39a16.67,16.67,0,0,1,.78,6.07C63.59,63.19,63.86,68.18,64.21,73.17Z"/></svg>