<svg xmlns="http://www.w3.org/2000/svg" viewBox="0 0 120 120"><defs><style>.a{fill:#c90106;}</style></defs><path class="a" d="M60.07,106.16c-13.41,0-26.82,0-40.22,0-2.7,0-5.45.32-8.11-.55-3-1-4.19-3.11-3.37-6.21.76-2.88,2.47-5.28,3.89-7.83C15.33,86,18.77,80.72,21.8,75.18c1.6-2.92,3.55-5.64,5.23-8.51,5.59-9.58,11.2-19.14,16.65-28.78,3.79-6.71,7.74-13.32,11.7-19.91a14.86,14.86,0,0,1,1.46-2c2.61-3,5.28-3.1,7.59.67,3.72,6.07,7.65,12,10.89,18.39,1.86,3.65,4.29,7,6.34,10.56,2.81,4.88,5.72,9.71,8.29,14.74,2.27,4.42,5,8.62,7.43,12.94,1.68,2.94,3.58,5.75,5.31,8.65,2,3.38,3.69,7,5.46,10.52,1,2,2.37,3.84,3.17,6,1.6,4.29-.25,7.22-4.86,7.57-3.95.29-7.91.18-11.86.18H60.07Zm-.7-10.37v-.24q14.4,0,28.81,0c2.36,0,4.72,0,7.09-.08,2,0,2.54-1.09,1.53-2.83-.25-.44-.63-.82-.85-1.28C92.58,84.07,87.7,77.65,84,70.53c-1.9-3.7-4.13-7.21-6.2-10.8C76.25,57,75,54,73.33,51.32c-4.08-6.54-8-13.16-11.66-19.93C60.39,29,59.89,29,58.34,31.11a8.69,8.69,0,0,0-.69,1c-2.29,4.41-4.89,8.65-7.26,13-2.52,4.64-5.49,9-7.9,13.73-.58,1.14-1.27,2.23-1.92,3.33-2.72,4.53-5.48,9-8.16,13.59-2,3.36-3.58,6.92-5.74,10.18-1.58,2.39-3,4.86-4.52,7.31-1,1.59-.52,2.4,1.32,2.49.31,0,.62,0,.93,0Z"/><path d="M51.31,84.71H42.07a7.08,7.08,0,0,1-1.53-.09,1.22,1.22,0,0,1-1.12-1.41A1.27,1.27,0,0,1,40.89,82c.92.05,1.84.22,2.76.21.69,0,1.63,0,1.56-1a1.52,1.52,0,0,0-1.69-1.6c-.81.08-1.62.29-1.81-.81s-.2-2,1.07-2.37c.88-.29,1-1.07,1-1.88,0-1.43-.1-2.87-.11-4.31,0-1.16.4-2,1.74-2.06,1.19-.08,1.62-.84,1.36-1.93a2.64,2.64,0,0,1,1.07-3A23.1,23.1,0,0,0,51.3,59.9a67.41,67.41,0,0,1,5.17-5,13.57,13.57,0,0,0,1.86-2.62c1.22-1.7,2-2,3.77-1.42A3.83,3.83,0,0,1,65,54.46a6.51,6.51,0,0,0,.82,3.81c.79,1.37-.21,2.6-1.67,3.29-3,1.41-6.32.79-9.33,2a9.44,9.44,0,0,0-3.37,2.56.89.89,0,0,0,.12,1.37c.55.43,1,.07,1.29-.37.15-.2.27-.43.41-.64,1.4-2.06,3-2.07,4.34,0S59.06,68.51,61,67a1.49,1.49,0,0,1,2.08-.09c.36.28.73.57,1.11.83,1.33.91,2,.63,2.12-.93,0-.31,0-.62.06-.92A2.46,2.46,0,0,1,70,63.74a1.1,1.1,0,0,1,.22,2c-1.32,1.06-1.36,1.88.05,2.86a2.54,2.54,0,0,1,.8,2.1c0,.61,0,1.23,0,1.84s.22,1.29,1,1.25,1-.68,1-1.34a5.33,5.33,0,0,0-.45-2.55c-.45-.85-.53-1.66.56-2a1.42,1.42,0,0,1,1.89,1.29,11.82,11.82,0,0,1,.14,2.91A2.82,2.82,0,0,0,76.72,75c1.7,1,1.6,2.85-.11,3.9a5.51,5.51,0,0,0-1.22.92A1.55,1.55,0,0,0,75,81.55c.26.66.87.62,1.44.64s1.23,0,1.84.11a1.28,1.28,0,0,1,1.17,1.06A1.46,1.46,0,0,1,78.73,85a3.43,3.43,0,0,1-2.22.51c-5-.3-9.93.05-14.9-.56-3.39-.41-6.87-.08-10.3-.08Z"/></svg>