<svg xmlns="http://www.w3.org/2000/svg" viewBox="0 0 120 120"><defs><style>.a{fill:#0054a7;}</style></defs><path class="a" d="M60.08,23h50.43c3,0,4.85,1.78,4.86,4.9,0,9.49,0,19,0,28.46q0,17.53,0,35.09c0,3.6-2,5.55-5.57,5.55H11.21c-.68,0-1.36,0-2,0a4.74,4.74,0,0,1-4.6-4.92q0-31.86,0-63.72C4.63,24.49,6.18,23,10,23Q35,23,60.08,23Zm-.14,2.78v0c-15.27,0-30.55,0-45.82,0-3.87,0-6.15,2.13-6.15,6Q8,59.65,8,87.5c0,4.28,2,6.35,6.33,6.35H105.8c3.78,0,5.89-2.15,5.88-5.94,0-1.08,0-2.16,0-3.24q0-26.65,0-53.32a5.34,5.34,0,0,0-5.38-5.58Z"/><path class="a" d="M60,90.82H14.29C11.87,90.82,11,90,11,87.76q0-27.69,0-55.38c0-3,.56-3.52,3.59-3.51q45.33,0,90.65,0c2.78,0,3.48.6,3.47,3.35q0,24.53-.06,49.06c0,2,.06,4.09.09,6.13,0,2.57-.77,3.42-3.29,3.42ZM46.15,54.69v-.1c-7.84,0-15.68,0-23.52,0-1.41,0-1.79.59-1.77,1.83,0,2,.11,4.09,0,6.13-.09,1.59.52,2.1,2.06,2.1,15.57,0,31.13,0,46.69,0,1.83,0,2,.21,1.52,2-1,3.55-1.42,7.24-2.61,10.75a2.07,2.07,0,0,0,.82,2.27,1.79,1.79,0,0,0,2.08.2,12.82,12.82,0,0,0,1.74-1.06q7.5-5.19,15-10.41c3-2.08,6-4.15,8.86-6.33,2.64-2,2.58-2.93-.08-4.9-1.14-.84-2.34-1.61-3.51-2.41Q82.68,47.26,72,39.82c-.79-.54-1.63-1-2.51-.33A2.28,2.28,0,0,0,68.54,42c.88,3.59,1.71,7.18,2.61,10.76.4,1.59.19,1.89-1.49,1.89Z"/></svg>