<svg xmlns="http://www.w3.org/2000/svg" viewBox="0 0 120 120"><defs><style>.a{fill:#d00000;}.b{fill:#2b2928;}</style></defs><path class="a" d="M60.2,109.56q-27.39,0-54.78,0c-.77,0-1.81.35-2.22-.58s.54-1.32.9-2L15.87,86.59,32.41,57.83,56,16.79c1.06-1.85,2.13-3.7,3.18-5.57.22-.39.39-.82.91-.83s.72.39,1,.79Q77.46,39.8,93.93,68.41q10.95,19.07,21.86,38.14c1.67,2.91,1.66,3-1.75,3q-26.91,0-53.84,0Zm-.15-11v0H96.11c.45,0,.91.06,1.18-.39s0-.81-.23-1.21q-2.86-4.87-5.69-9.78Q76.6,61.63,61.8,36.06c-.5-.86-.38-2.43-1.76-2.41s-1.23,1.59-1.72,2.44c-7.87,13.54-15.63,27.15-23.5,40.69-3.88,6.69-7.48,13.54-11.67,20-.24.38-.56.76-.31,1.2.33.59.94.5,1.52.49Z"/><path class="b" d="M65.91,84.21c.24,3.33-.25,6.67.16,10,.05.44.16,1-.36,1.17s-.88-.28-1.22-.65c-1.1-1.21-2.24-2.39-3.3-3.63-.72-.84-1.32-.78-2,0-1.13,1.27-2.3,2.5-3.45,3.75-.3.31-.6.73-1.11.51s-.39-.72-.35-1.16c.47-6.29,0-12.59.24-18.88,0-1.29-.58-1.83-1.83-1.81-2.45,0-4.91,0-7.37,0-1.27,0-2.43.16-2.37-1.72.09-3,0-2.93,2.29-2.87,2.46.07,4.91,0,7.37.08,1.35,0,1.95-.58,1.91-1.94-.06-2,.13-4-.1-6a11.45,11.45,0,0,1,2.14-8.34,50.44,50.44,0,0,0,2.74-4.95c.2-.38.36-.84.88-.88s.72.42.94.8C62.57,50.33,64,53,65.52,55.6A4.4,4.4,0,0,1,66.08,58c-.07,3,0,5.92-.19,8.88-.09,1.66.53,2.29,2.17,2.22,2.52-.1,5,0,7.55-.13s1.52,1.78,1.74,2.93c.26,1.34-.5,1.79-1.75,1.76-2.58-.06-5.17,0-7.75-.11-1.47,0-2,.56-2,2C66,78.42,65.91,81.31,65.91,84.21Z"/></svg>