<svg xmlns="http://www.w3.org/2000/svg" viewBox="0 0 120 120"><defs><style>.a{fill:#c90106;}</style></defs><path class="a" d="M59.89,103.74H12.42c-3.28,0-3.29,0-1.76-2.66L35.24,58.39Q45.65,40.28,56.06,22.18a37.49,37.49,0,0,0,3-5.35.88.88,0,0,1,.87-.66c.51,0,.72.43.95.83,3.76,6.66,7.49,13.34,11.3,20,5,8.61,10,17.17,15,25.76,5.61,9.7,11.18,19.42,16.79,29.12,2,3.4,4,6.78,6,10.16.26.44.54.87.26,1.39s-.73.43-1.18.43H59.89Zm0-10v.13H91.52c.39,0,.81.08,1.06-.3s0-.83-.24-1.21C90,88.73,88,84.89,85.86,81.14Q73.76,60.05,61.5,39.05c-.45-.77-.4-2.16-1.55-2.14s-1.1,1.39-1.55,2.16Q51.13,51.49,44,64q-7.73,13.42-15.4,26.87c-.48.84-1.71,1.6-1.26,2.55.51,1.1,1.82.33,2.74.33C40,93.79,49.93,93.77,59.87,93.77Z"/><path d="M50.15,73.5c2.55,0,5.11.06,7.66,0,1.54,0,2.23.45,2.17,2.1-.11,3,0,6-.1,9,0,1.22.45,1.65,1.45.92a4.12,4.12,0,0,1,5.35-.06A2.68,2.68,0,0,0,70,85.3a3.59,3.59,0,0,1,4.6-.06,3.08,3.08,0,0,0,3.87,0,3.49,3.49,0,0,1,4.32,0,3.36,3.36,0,0,0,2.53.58,1,1,0,0,1,1.33.92c.05.67-.51.93-1,1.12a3.17,3.17,0,0,1-3-.71,3.06,3.06,0,0,0-4,0,3.34,3.34,0,0,1-4.31,0,3,3,0,0,0-4,0c-1.49,1.15-2.94.94-4.45,0s-4.76-.27-5.82,1.14a1.07,1.07,0,0,0-.15,1.38.89.89,0,0,0,1.34,0c1.88-1.53,3.69-1.41,5.62,0a2.33,2.33,0,0,0,2.82-.14,3.91,3.91,0,0,1,5.06-.06,2.72,2.72,0,0,0,3.41,0,3.91,3.91,0,0,1,4.93,0,2.58,2.58,0,0,0,3.37-.09c.62-.49,1.36-.77,1.88,0s-.21,1.24-.84,1.63C85.76,92,84,92.34,82.25,91A2.56,2.56,0,0,0,79,91a4,4,0,0,1-5.08,0,2.7,2.7,0,0,0-3.4.07,3.69,3.69,0,0,1-4.76,0,2.7,2.7,0,0,0-3.4,0,5.3,5.3,0,0,1-3.3.87c-9.1,0-18.2,0-27.3.07-1.16,0-1.5-.58-.91-1.59Q35.42,82.55,40,74.73a2.37,2.37,0,0,1,2.32-1.27c2.61.06,5.22,0,7.83,0Z"/><path d="M54.77,66a2.37,2.37,0,0,0-1.36.55,1.46,1.46,0,0,1-2.08-.28c-.66-.64-.22-1.16.17-1.74,1.31-1.93,1.22-1.63,3.48-1.07s3.34,2.15,5.09,3c2.51,1.27,4.45,3.56,7,4.51,3,1.11,4.64,3.63,7.11,5.22.58.37,1.33.88.72,1.73s-.83,1.88-2.09,1.48a1.72,1.72,0,0,1-1.36-2c.24-1.62-1.08-2.22-2.08-2.88s-1.67-.06-2.34.65a1.46,1.46,0,0,1-2.08.26c-2.14-1.38-4.31-2.72-6.49-4a1.72,1.72,0,0,1-1-2.16A2.87,2.87,0,0,0,54.77,66Z"/><path d="M70.82,77.74c-.46.83-1,1.77-2.19,1.86a2.39,2.39,0,0,1-2.09-2.19,2.1,2.1,0,0,1,2-1.89A2.81,2.81,0,0,1,70.82,77.74Z"/><path d="M56.71,69.33c-.46.71-.8,1.8-2,1.83a2,2,0,0,1-2.13-1.93,1.94,1.94,0,0,1,1.85-2.15A2.65,2.65,0,0,1,56.71,69.33Z"/><path d="M68.54,70.08c-.89-1.17-1.44-2.49-2.79-3.26-.73-.41-1.27-1.08-2.22-.66-.27.12-.61.1-.69-.22-.52-2.06-2.21-2.06-3.93-2.21a2.22,2.22,0,0,1,3-.27c1.56,1,3.16,1.85,4.71,2.83C68,67.15,69,68.28,68.54,70.08Z"/></svg>