<svg xmlns="http://www.w3.org/2000/svg" viewBox="0 0 120 120"><defs><style>.a{fill:#fff;}.b{fill:red;}.c{fill:#c90106;}</style></defs><rect class="a" x="58" y="21" width="4" height="89"/><path d="M61.5,21.5v88h-3v-88h3m1-1h-5v90h5v-90Z"/><rect class="b" x="58.5" y="29.5" width="3" height="9.86"/><rect class="b" x="58.5" y="45.28" width="3" height="9.86"/><rect class="b" x="58.5" y="61.07" width="3" height="9.86"/><rect class="b" x="58.5" y="76.85" width="3" height="9.86"/><rect class="b" x="58.5" y="92.64" width="3" height="9.86"/><polygon class="c" points="73.5 22.5 46.5 22.5 49.2 9.5 70.8 9.5 73.5 22.5"/><path class="a" d="M55.86,15.09H54.33v-.47a.91.91,0,0,0-.06-.42.21.21,0,0,0-.19-.09.26.26,0,0,0-.23.12.76.76,0,0,0-.07.37,1.19,1.19,0,0,0,.08.48,1.34,1.34,0,0,0,.47.39,4.59,4.59,0,0,1,1.38,1.07A2.4,2.4,0,0,1,56,17.88a2.46,2.46,0,0,1-.16,1,1.32,1.32,0,0,1-.61.54,2.54,2.54,0,0,1-1.06.21,2.29,2.29,0,0,1-1.12-.25,1.22,1.22,0,0,1-.62-.63,3.5,3.5,0,0,1-.14-1.1v-.42h1.53V18a1.1,1.1,0,0,0,.06.46.24.24,0,0,0,.23.1.25.25,0,0,0,.24-.13.65.65,0,0,0,.08-.38,1.19,1.19,0,0,0-.15-.73,4.47,4.47,0,0,0-.77-.57,7.26,7.26,0,0,1-.81-.59,1.61,1.61,0,0,1-.33-.51,2.19,2.19,0,0,1-.13-.83,2.35,2.35,0,0,1,.18-1.06,1.3,1.3,0,0,1,.6-.53A2.51,2.51,0,0,1,54,13a2.63,2.63,0,0,1,1.1.21,1.1,1.1,0,0,1,.59.52,2.72,2.72,0,0,1,.15,1.07Z"/><path class="a" d="M59.82,13.18v1.26h-1V19.5H57.2V14.44h-1V13.18Z"/><path class="a" d="M64,16.88a13.5,13.5,0,0,1-.05,1.35,1.49,1.49,0,0,1-.28.72,1.55,1.55,0,0,1-.64.51,2.46,2.46,0,0,1-.94.17,2.42,2.42,0,0,1-.91-.16,1.54,1.54,0,0,1-.65-.5,1.51,1.51,0,0,1-.29-.72,13.54,13.54,0,0,1-.05-1.37V15.8a13.21,13.21,0,0,1,.05-1.35,1.49,1.49,0,0,1,.28-.73,1.53,1.53,0,0,1,.64-.5,2.27,2.27,0,0,1,.93-.18,2.43,2.43,0,0,1,.92.17,1.54,1.54,0,0,1,.65.5,1.51,1.51,0,0,1,.29.72A13.54,13.54,0,0,1,64,15.8ZM62.31,14.8a1.68,1.68,0,0,0-.05-.56.19.19,0,0,0-.2-.13.23.23,0,0,0-.19.1,1.37,1.37,0,0,0-.07.59v2.95a3,3,0,0,0,0,.68.19.19,0,0,0,.21.13.22.22,0,0,0,.22-.15,3.26,3.26,0,0,0,0-.7Z"/><path class="a" d="M64.57,13.18h1.66a4,4,0,0,1,1,.1,1.09,1.09,0,0,1,.54.31,1,1,0,0,1,.25.48,4.65,4.65,0,0,1,.06.88v.55a2.4,2.4,0,0,1-.12.88.87.87,0,0,1-.46.42,2.12,2.12,0,0,1-.87.15h-.44V19.5H64.57Zm1.65,1.08v1.61h.12a.39.39,0,0,0,.31-.11.79.79,0,0,0,.09-.46v-.52a.63.63,0,0,0-.1-.42A.61.61,0,0,0,66.22,14.26Z"/><rect x="53.5" y="109.5" width="13" height="1"/></svg>