<svg xmlns="http://www.w3.org/2000/svg" viewBox="0 0 120 120"><defs><style>.a{fill:#c90106;}</style></defs><path class="a" d="M59.94,106.83q-25.71,0-51.42,0c-.78,0-1.8.37-2.23-.6s.48-1.37.85-2Q14.27,91.87,21.38,79.5,29.68,65.07,38,50.64,48.19,32.91,58.45,15.21c.44-.76.35-2.13,1.58-2.1s1.13,1.36,1.58,2.13Q75.91,40,90.17,64.8q11.1,19.26,22.22,38.51l.17.31c1.87,3.17,1.87,3.2-1.73,3.21Q85.39,106.85,59.94,106.83Zm.2-11v0q15.44,0,30.86,0c1.17,0,2.87.59,3.39-.17.74-1.08-.8-2.11-1.37-3.12-5.55-9.76-11.17-19.48-16.75-29.22Q68.56,49.87,60.88,36.39c-.21-.35-.31-.82-.81-.84s-.68.54-.9.94c-.45.83-.9,1.67-1.37,2.48L36.65,75.66,25.73,94.52c-.21.35-.6.69-.27,1.1s.88.24,1.34.24Z"/><path d="M60,71.18a23.21,23.21,0,0,1,0,3.54c-.38,2.42.75,3.77,2.82,4.67,1,.45,2,1,3,1.57.54.29,1.11.72.76,1.38s-1,.27-1.53,0Q61.08,80,57.14,77.58c-.34-.21-.64-.64-1-.18a.72.72,0,0,0,.09,1c2.9,3.46,2.27,7.51,2,11.52-.07.94-.13,1.88-.16,2.82a1.4,1.4,0,0,1-1.37,1.55c-1,.06-1.2-.72-1.22-1.56a32.88,32.88,0,0,1-.15-5c.42-3.33-1.13-5.75-3.15-8.07-.79-.91-1.27-1-1.92.19-2.43,4.45-4.94,8.86-7.44,13.28-.51.89-1.31,1.6-2.3,1s-.1-1.39.2-2.12c1.62-3.94,3.18-7.89,4.75-11.84a50.17,50.17,0,0,1,2.05-5.28c.95-1.78.09-2.56-1.27-3.33C44,70.31,44,70.29,45.5,68.35a3,3,0,0,0,.22-.28c1.89-3.84,5-5.64,9.26-6,2.43-.19,4.94,1.48,5.09,3.94.06.89,0,1.78,0,2.66v2.48Zm-11.58,0c.56,0,.8-.36,1-.79.66-1.12,1.33-2.23,2-3.34.26-.44.8-.91.25-1.4S50.48,65.45,50,66a40.57,40.57,0,0,0-2.65,3.32A1.25,1.25,0,0,0,48.45,71.17Z"/><path d="M72.72,94.21h-12c-2,0-2.15-.33-1.18-2.14.61-1.14,1.13-2.33,1.75-3.47a5.11,5.11,0,0,1,3.36-2.9c2.23-.52,2.67-2.68,3.64-4.29a20.52,20.52,0,0,1,2.68-3.91,1.69,1.69,0,0,1,2.64-.1A23.15,23.15,0,0,1,76,79.78c3.53,4.26,6.67,8.85,10.43,12.93a1,1,0,0,1,.28,1.12c-.24.53-.72.5-1.21.5-4.24,0-8.49,0-12.73,0Z"/><path d="M64.39,59.78a3.71,3.71,0,0,1-3.19,3.45,4.38,4.38,0,0,1-3.59-3.39,3.39,3.39,0,0,1,6.78-.06Z"/></svg>