<svg xmlns="http://www.w3.org/2000/svg" viewBox="0 0 120 120"><defs><style>.a{fill:#0054a7;}</style></defs><path class="a" d="M110.27,44c0,8.74,0,17.47,0,26.2,0,6.47,0,13-.28,19.42-.18,5.08-.13,10.14-.09,15.21,0,2.77-2.76,6.32-6.46,6.12-8.52-.46-17.06-.2-25.59-.3-8.77-.11-17.55-.13-26.32-.32q-18-.39-35.91-.53A6.35,6.35,0,0,1,9.3,103c.33-5.87.07-11.77.2-17.66.22-9.73.3-19.46.17-29.18C9.49,42.57,10.28,29,10,15.36A6.1,6.1,0,0,1,16.29,9c9,.07,18,.27,27.06.4,4,.06,8.07.07,12.11.13,7.93.12,15.87.13,23.79.43,7.38.29,14.76.31,22.14.42a9.7,9.7,0,0,0,2.09,0c4.11-.9,7.33,2.85,7.23,6.79-.24,9-.08,17.94-.08,26.91ZM92.69,80h.21q0-5.62,0-11.23a5.25,5.25,0,0,1,1-2.93c2-3.08,3.8-6.32,5.94-9.33.78-1.09,1.09-1.71,2.21-.45.63.7,1.37.46,1.46-.52.22-2.43.37-4.87.47-7.31,0-.83-.54-1.27-1.29-.79a39.91,39.91,0,0,1-6.28,3.12c-1,.43-1.18,1.11-.19,1.72s.87,1.26.32,2.1c-.77,1.16-1.45,2.38-2.16,3.58-.23.39-.42.9-1,.72s-.47-.71-.45-1.16c.34-5.51.29-11,.32-16.55,0-1.52.25-1.69,1.58-1,.41.23.82.5,1.21.08s.18-.82-.05-1.24c-1.95-3.48-3.45-7.17-5.13-10.78-.19-.4-.3-.91-.84-.95s-.67.49-.88.88c-1.76,3.4-3.54,6.79-5.27,10.21-.33.66-1.41,1.34-.72,2.05s1.5-.25,2.22-.62c1.11-.58,1.59-.33,1.61.92.08,6.38-.17,12.76-.12,19.15,0,5.48-.35,11-.46,16.44-.11,5.13-.1,10.27-.19,15.4,0,1,.4,1.48,1.38,1.5s2.1,0,3.14.07c1.44.12,2-.49,2-1.9C92.66,87.53,92.69,83.79,92.69,80Zm-65-4.18h-.3V91.11c0,1.61.32,1.93,1.92,1.92l2.84,0c.9,0,1.38-.38,1.38-1.35,0-3.33.07-6.66.1-10q.09-10.69.18-21.38a4.52,4.52,0,0,0-.33-1.59c-1.4-3.95-3.35-7.66-5-11.5-1.39-3.19-2.23-6.61-4-9.64a.69.69,0,0,1,0-.84,1,1,0,0,1,1.23-.21c.65.21,1.45.7,1.86-.14s-.48-1.2-.95-1.66C24,32.09,21,29.92,18.42,27.26c-.68-.7-1.43-.39-1.55.61S16.73,30,16.6,31c-.36,2.66-.27,5.37-.92,8-.14.56-.59,1.19.12,1.6S17,40.47,17.43,40c.95-1.1,1.24-1.05,1.82.3,1.18,2.79,2.15,5.69,3.54,8.38C24.53,52,25.51,55.69,27.37,59a3.7,3.7,0,0,1,.32,1.89Zm35.4,8.4c-.16-3.69,0-7.38.09-11.06.15-9.13.1-18.26.22-27.39,0-1.64,0-3.29,0-4.93,0-.47-.37-1.05.17-1.37s.94.12,1.34.39.93.75,1.45.21.1-1-.15-1.51q-2.46-4.86-4.9-9.74c-.21-.4-.33-.89-.86-.93s-.8.46-1,.92c-.83,1.76-1.69,3.49-2.69,5.16a28.93,28.93,0,0,1-2.7,4.46,1,1,0,0,0-.14,1.25.84.84,0,0,0,1.08.21c.7-.28,1.27-1.26,2.13-.64s-.06,1.58.13,2.37a.75.75,0,0,1,0,.15c-.08,6-.24,12.07-.21,18.1,0,10.28-.12,20.55-.52,30.82-.08,2,.34,2.36,2.33,2.33.75,0,1.5,0,2.25,0,1.7,0,2.24-.45,2.08-2.09C63,88.75,63.14,86.5,63.09,84.26ZM45,62.13c0-8,0-13.58,0-19.17.06-8.62.17-17.25.25-25.87,0-.94-.08-1.89-1.36-1.88s-1.56.86-1.51,1.94c.06,1.24.16,2.49.14,3.73-.14,9.12-.37,18.25-.45,27.37-.17,18-.11,36.1-.61,54.15,0,1.24.56,1.71,1.7,1.74,1.35,0,1.64-.77,1.63-1.94C44.74,88,45.28,73.88,45,62.13ZM78.57,17.71c.31-1,.2-2-1.1-2.05-1.12,0-1.57.62-1.57,1.72q0,15.78-.26,31.56c-.1,5.43.06,10.87-.1,16.31-.38,12.51.07,25-.51,37.54-.06,1.15.57,1.65,1.62,1.69A1.44,1.44,0,0,0,78.29,103c0-.39,0-.8,0-1.19.15-3.69-.17-7.36-.08-11.05.24-9.37.32-18.75.35-28.12C78.61,47.63,78.57,32.67,78.57,17.71Z"/></svg>