<svg xmlns="http://www.w3.org/2000/svg" viewBox="0 0 120 120"><defs><style>.a{fill:#d30000;}.b{fill:#2b2928;}</style></defs><path class="a" d="M7.32,60A52.68,52.68,0,1,1,60,112.59,52.41,52.41,0,0,1,7.32,60Zm93.19.36c.19-22.11-18-40.73-40.16-40.76a40.49,40.49,0,1,0,40.16,40.76Z"/><path class="a" d="M41,67.58c-2.93,0-5.86,0-8.79,0-1.3,0-1.86.47-1.76,1.75.05.64,0,1.29.08,1.93.17,1.51-.46,2.21-2,2.14s-2-.79-1.76-2.19c.34-1.79.13-3.32-1.51-4.51a2.88,2.88,0,0,1-1-2.53,27.58,27.58,0,0,0,0-3.52A4.64,4.64,0,0,1,25.54,57c1.54-1.81,2-4.21,2.89-6.37a3,3,0,0,1,2.66-2.1,68.45,68.45,0,0,1,20.16,0,2.83,2.83,0,0,1,2.47,1.92c1.12,2.76,1.89,5.66,4,8,.83.91.22,2.27.3,3.42.17,2.28.05,4.38-2.11,6-1,.74-.44,2.21-.43,3.35,0,1.82-.51,2.37-2.22,2.26-1.17-.07-1.61-.64-1.61-1.81,0-3.89,0-3.89-4-3.91-2.23,0-4.46,0-6.69,0Zm.13-12.15H51.62c.64,0,1.36.1,1.5-.8.25-1.55-1.94-4.36-3.49-4.54A86.45,86.45,0,0,0,34,49.84c-2.92.16-4.12,1.52-4.85,4-.35,1.16-.05,1.65,1.19,1.64C33.94,55.41,37.51,55.43,41.08,55.43Zm.08,5.85v-.15c-1,0-2.1,0-3.15,0s-1.92.06-1.92,1.4.7,1.63,1.8,1.62h6.48c1.14,0,1.79-.5,1.74-1.67S45.32,61,44.3,61.1ZM26,61.45c0,.47,0,.94,0,1.4,0,.73,0,1.53,1.05,1.48s1-.83,1-1.56,0-1.52,0-2.28-.09-1.83-1.21-1.75-.8,1.1-.84,1.83C25.94,60.86,26,61.16,26,61.45Z"/><path class="b" d="M78.91,67.49c-2.93,0-5.87.06-8.8,0-1.42,0-1.93.56-1.84,1.88,0,.64,0,1.29.1,1.93.16,1.35-.43,2-1.77,2s-2.09-.66-1.83-2.11c.31-1.77.13-3.33-1.49-4.53a2.88,2.88,0,0,1-1-2.54,20.27,20.27,0,0,0,0-2.81,5.68,5.68,0,0,1,1.43-4.49c1.44-1.7,1.9-4,2.69-6.08a3,3,0,0,1,2.69-2.11,66.38,66.38,0,0,1,20.34,0,2.39,2.39,0,0,1,2,1.51c1.25,2.83,2.16,5.77,4.09,8.32,1.33,1.77.14,7.41-1.52,8.92-1.22,1.11-.72,2.5-.7,3.8,0,1.62-.52,2.14-2.07,2-1.08-.06-1.53-.53-1.55-1.66,0-4-.07-4-4.09-4H78.91ZM79,55.57H89.73c.58,0,1.21.12,1.47-.63.38-1.13-1.76-4.7-3-4.87a67,67,0,0,0-18.39,0,1.8,1.8,0,0,0-1.67,1.07c-.36.93-.77,1.84-1.15,2.76-.51,1.27,0,1.7,1.28,1.68C71.87,55.55,75.45,55.57,79,55.57Zm.12,5.57V61H75.63c-1,0-1.71.32-1.74,1.47a1.52,1.52,0,0,0,1.7,1.76c2.34,0,4.68,0,7,0,1.08,0,1.57-.67,1.54-1.72A1.44,1.44,0,0,0,82.47,61C81.36,61,80.25,61.09,79.14,61.14Zm-13.08.66c0-.67,0-1.2,0-1.72,0-.75-.29-1.46-1.2-1.43s-1,.71-1,1.39a9.25,9.25,0,0,0,0,1.58c.13,1-.66,2.78,1.15,2.74C66.66,64.33,65.87,62.65,66.06,61.8Zm26-.31h0c0,.69,0,1.39,0,2.09a1,1,0,0,0,2,0c0-1.33,0-2.67,0-4A1,1,0,0,0,93,58.66c-.63,0-.88.51-.91,1.08S92.07,60.9,92.07,61.49Z"/></svg>