<svg xmlns="http://www.w3.org/2000/svg" viewBox="0 0 120 120"><defs><style>.a{fill:#c90106;}.b{fill:#2b2928;}</style></defs><path class="a" d="M60.06,111.64A51.19,51.19,0,0,1,8.26,60.35c-.11-29.56,23.23-52,51.88-52a51.64,51.64,0,1,1-.08,103.28ZM59.92,20C38.08,19.62,19.48,38,19.49,60.14A40.47,40.47,0,0,0,60.3,100.69c22,0,40-18.39,40-40.66C100.3,38.06,82,19.92,59.92,20Z"/><path class="b" d="M71.07,51.86c0-4.67,0-9.35,0-14,0-1.33.35-1.9,1.8-1.84,4,.18,4,.13,4,4.17,0,8.65,0,17.3,0,26,0,1.54.63,1.82,2,1.48,2-.52,4-1,5.95-1.48.6-.15,1.17-.25,1.61.29s.22,1.21-.17,1.76C82.56,73.29,79,78.43,75.36,83.52c-1.1,1.53-1.69,1.49-2.77,0Q67.28,76,62,68.41c-.4-.56-1-1.14-.47-1.88s1.31-.49,2.07-.29c2,.51,4,1,5.95,1.45,1.36.31,1.55-.5,1.55-1.62,0-4.73,0-9.47,0-14.21Z"/><path class="a" d="M48,70.32c0,4.74,0,9.47,0,14.21,0,1.18-.41,1.75-1.64,1.67-4.29-.25-3.92.81-3.88-3.73.07-8.83,0-17.66,0-26.48,0-1.73-.34-2.05-2-1.53a61.36,61.36,0,0,1-6.13,1.46c-.6.12-1.18.2-1.57-.4s0-1,.31-1.42c3.45-4.93,6.88-9.87,10.36-14.79,1.45-2,1.84-2,3.26,0,3.54,5,7,10,10.57,15.07.3.42.46.83.07,1.26a1.49,1.49,0,0,1-1.62.34c-1.87-.46-3.75-.89-5.61-1.37S48,54.27,48,56.29v14Z"/></svg>