<svg xmlns="http://www.w3.org/2000/svg" viewBox="0 0 120 120"><defs><style>.a{fill:#c90106;}.b{fill:#2b2928;}</style></defs><path class="a" d="M110.64,59.76A50.64,50.64,0,1,1,60.14,9.43,50.42,50.42,0,0,1,110.64,59.76ZM21,60.35A39,39,0,0,0,60.63,99.08C82.41,98.77,99.4,80.2,98.92,59,98.45,38.41,80.7,21,59.84,21.14,38.3,21.29,20.76,39,21,60.35Z"/><path class="b" d="M59.74,51.25c-3.33,0-6.66,0-10,0-1.38,0-2,.53-1.88,1.91.06.79.05,1.58.08,2.37.07,1.94-.21,2.25-2,2.26s-2.26-.35-2.1-2.32.08-3.87-1.83-5.23a2.8,2.8,0,0,1-1-2.75,14.37,14.37,0,0,0-.06-2.7c-.13-2.1,0-3.93,1.69-5.71,1.54-1.62,2.06-4.1,2.75-6.3A3.73,3.73,0,0,1,49,29.87,88.6,88.6,0,0,1,71.94,30a2.11,2.11,0,0,1,1.88,1.45c.66,1.68,1.36,3.34,2,5A8.79,8.79,0,0,0,78,40.22a2.62,2.62,0,0,1,.85,2.13c0,2,0,3.94-.12,5.91a3.46,3.46,0,0,1-1.49,2.57A3.12,3.12,0,0,0,76,54.21a7.88,7.88,0,0,1,0,1.19c0,2.09-1.48,3.1-3.42,2.26-.7-.29-.79-.89-.77-1.53,0-1,.06-2,.07-3.05,0-1.34-.61-1.88-2-1.85-3.38.06-6.77,0-10.15,0Zm13.61-12.1c1.23,0,1.41-.64,1-1.65-.5-1.32-1-2.62-1.48-4a2.59,2.59,0,0,0-2.48-1.91,97.58,97.58,0,0,0-18.09-.37c-3.47.26-5.81,1.19-6.34,4.9a5.44,5.44,0,0,1-.57,1.23c-.55,1.28-.2,1.8,1.2,1.73s2.7-.23,4.06-.3A156,156,0,0,1,73.35,39.15ZM46.5,46.61v-.06c1,0,1.91.05,2.86,0S50.87,46,50.66,45c-.71-3.21-.89-4.33-4.17-3.85a4.87,4.87,0,0,1-1,0c-2.87-.09-3.09.11-3.06,2.95,0,2.19.37,2.53,2.56,2.53Zm26.75,0H74.6c2.51,0,2.78-.26,2.76-2.79,0-.33,0-.67,0-1-.07-1.21-.64-1.86-1.93-1.76-1,.08-1.91.1-2.86.09-2.22,0-3.54,1.35-3.42,3.92.1,2.16,1.88,1.37,3.09,1.53A8.49,8.49,0,0,0,73.25,46.59Z"/><path class="b" d="M63.18,79.24,60,79c-.46,0-.95-.1-1.2.39s.14.83.43,1.17c1.13,1.26,2.24,2.54,3.38,3.78.54.58,1,1.25.36,1.9s-1.21-.13-1.62-.61A68.28,68.28,0,0,0,56,80.2c-.62-.58-1.57-1.14-1.23-2.23s1.34-1.4,2.41-1.53,2.23-.37,3.34-.57,1.2-.87.53-1.53c-1-1-1.92-2-2.83-3.12-.68-.8-1.29-.27-1.85.28l-3.53,3.4c-.5.48-1.12,1.09-1.71.38s.26-1.07.67-1.5q2.65-2.84,5.33-5.66c2.08-2.18,3.56-2.16,5.41.2,1.63,2.09,3.13,4.28,4.72,6.4a2.58,2.58,0,0,1,.44,3A2.69,2.69,0,0,1,65,79.18H63.18Z"/><path class="b" d="M65.25,85.51a6.5,6.5,0,0,1,6.41-6.29,6.61,6.61,0,0,1,6.52,6.42,6.74,6.74,0,0,1-6.52,6.47A6.82,6.82,0,0,1,65.25,85.51Zm11,0a4.53,4.53,0,1,0-9,.15,4.75,4.75,0,0,0,4.68,4.58C74.07,90.27,76.23,87.94,76.23,85.55Z"/><path class="b" d="M48.09,79.21a6.53,6.53,0,0,1,6.44,6.28A6.8,6.8,0,0,1,48,92.12a6.72,6.72,0,0,1-6.37-6.45A6.62,6.62,0,0,1,48.09,79.21Zm4.58,6.36A4.81,4.81,0,0,0,48.1,81a4.66,4.66,0,0,0-4.6,4.65,4.88,4.88,0,0,0,4.56,4.59A4.82,4.82,0,0,0,52.67,85.57Z"/><path class="b" d="M60.42,63.27a2,2,0,0,1-.68,1.58,38.3,38.3,0,0,1-4,2.07.71.71,0,0,1-1-.54c-.1-.57.3-.82.78-.92.68-.13,1.37-.24,1.4-1.15s-.67-1-1.37-1.09-.91-.54-.53-1.07c.74-1,1.65-1.95,3.09-1.61A3.06,3.06,0,0,1,60.42,63.27Z"/></svg>