<svg xmlns="http://www.w3.org/2000/svg" viewBox="0 0 120 120"><path d="M43.67,91.85a10.07,10.07,0,0,0-.27,2.84c0,2-.66,4-.54,6a6.16,6.16,0,0,1-.13,2.49,1,1,0,0,0,.16.91c.87,1.21.33,2.23-.43,3.23s-1.84.73-2.79.54a4.84,4.84,0,0,0-1.82,0,38.1,38.1,0,0,1-6,.09c-1.07,0-1.16-1.07-1.52-1.79s.16-1,.52-1.35a2.62,2.62,0,0,1,2.33-.94,7.61,7.61,0,0,0,.83,0c2.61,0,4.52-1.23,3.47-4.59-.36-1.15-.42-2.4-.68-3.58A37.08,37.08,0,0,1,36,83.08a3.22,3.22,0,0,0-1.89-3.52,6.66,6.66,0,0,1-3.44-4.39,2.65,2.65,0,0,1-.06-1.34c.34-1.71.64-3.43,1-5.13A2,2,0,0,0,31.11,67a3.63,3.63,0,0,1-.5-4.35,5.28,5.28,0,0,0,0-4c-.79-2.54-1-5.2-1.62-7.76-.07-.27-.16-.6,0-.81.81-.86.49-1.81.29-2.76A19.15,19.15,0,0,1,29,43a2.46,2.46,0,0,1,.21-1.12c.75-1.4.68-3,1-4.47.51-2.31.84-4.65,1.38-6.95a3.8,3.8,0,0,1,3-2.67,19.39,19.39,0,0,1,4.07-.93c1.5-.08,2.26-1.37,2.69-2.49.33-.85-.29-1.95-1-2.7a1.73,1.73,0,0,1-.61-1.27,1.64,1.64,0,0,0-.59-1.19c-1.23-1.25-1.25-2.32-.43-3.84a7,7,0,0,1,5.56-3.79,7.07,7.07,0,0,1,6.38,2.71,9.22,9.22,0,0,1,1,1.38A2.09,2.09,0,0,1,51.39,18a11.55,11.55,0,0,0-2.28,4.29,2.88,2.88,0,0,1-.56,1c-.95,1.22-.86,2.13.54,2.91.92.52,1.85,1.2,3.08,1,.58-.1,1.13.35,1.61.68,1.6,1.1,3.49,1.2,5.3,1.39,2.35.24,4.68.77,7.06.83a4.89,4.89,0,0,1,1.2.33c.51.14,1.12.34,1.52,0,.87-.72,1.63-.28,2.53-.09A71.48,71.48,0,0,0,79.45,32a4.12,4.12,0,0,0,2.35-.79c1.22-.66,2.4-1.4,3.61-2.09.47-.28,1-.72,1.5-.18a1.13,1.13,0,0,1,0,1.62.84.84,0,0,0-.12,1c.29.48.28.93-.35,1a1,1,0,0,1-1.23-.85c-.21-1.21-.18-1.2-1.23-.49a26.11,26.11,0,0,1-3.74,1.87A3.11,3.11,0,0,1,78.12,33c-2.44-.7-5-.91-7.42-1.68-.49-.15-.76.12-.75.58a14.16,14.16,0,0,1-.4,3.94c-.17.63.32.83.91.77a82.47,82.47,0,0,0,10.12-1.45c1-.23,2,.42,2.9.71,1.2.37,2.31.77,3.52.07a3,3,0,0,1,1.08-.14c-.28-.55-.46-1.06.07-1.59.29-.28-.05-.56-.24-.8s-.64-.76-.44-1.22.82-.43,1.31-.43c1.58,0,2.3.75,2.29,2.42a3.6,3.6,0,0,1-3,3.7,11.09,11.09,0,0,1-3.47-.56c-1.72-.4-3.4-1.13-5.23-.73a16.85,16.85,0,0,0-2.32.61c-1.66.61-3.43.47-5.13.73a4.22,4.22,0,0,1-3.27-.64,2.37,2.37,0,0,0-2.2-.32,13.58,13.58,0,0,1-2.28.24c-2.77.23-5.56,0-8.33.39a1.35,1.35,0,0,0-1.33,1.14A50.93,50.93,0,0,0,53.57,44a32,32,0,0,1-.81,3.35,1.31,1.31,0,0,0,.31,1.51,2.15,2.15,0,0,1,.51,1.8,20.84,20.84,0,0,0,.68,5.88c.1.37.37.77.12,1.1-.69,1-.27,1.89,0,2.81q1.5,5.49,2.53,11.09a13.89,13.89,0,0,1,0,4.94A5.7,5.7,0,0,1,54.15,80a7.75,7.75,0,0,0-1.54,1.54,1,1,0,0,0-.2,1.16,4.36,4.36,0,0,1,.06,3.16,3.19,3.19,0,0,0-.13.82,48.27,48.27,0,0,1-2.66,13.92c-.6,1.74,0,3,1.87,4a5.52,5.52,0,0,0,3.5.82,1.88,1.88,0,0,1,1.88,1.71c0,.85-.71,1.38-1.76,1.33-1.88-.1-3.78.18-5.63-.34a4.82,4.82,0,0,0-3.1-.08c-1.5.5-2.59-.59-2.53-2.16A7.14,7.14,0,0,1,44.4,103a4.72,4.72,0,0,0,.3-1.64c.22-3-.35-6-.57-9.06C44.12,92.13,44.07,91.92,43.67,91.85Zm12-17.45a61.37,61.37,0,0,0-.8-7c-.3-2.09-1-4-1.42-6.1a5.32,5.32,0,0,0-1-2.82A5.41,5.41,0,0,1,51,55.77c0-.2-.09-.44-.35-.45s-.34.22-.4.41a3.22,3.22,0,0,1-1,1.46c-.69.55-1.44,1.43-2.4,1.05a3.8,3.8,0,0,1-2-2c-.36-.82-.45-1.95-1.53-2s-1.75-.72-2.72-.6a5.7,5.7,0,0,1-2.95-.49c-.73-.32-1.09-.22-1.34.51A69.32,69.32,0,0,0,33.6,63.77c-.55,3-1,6.12-1.52,9.16-.49,2.59.16,4.18,2.46,5.48a4.42,4.42,0,0,1,2.36,2.68,2,2,0,0,0,2.38,1.72c1.38,0,1.83-.53,1.37-1.89a2.35,2.35,0,0,1-.1-1.63A49.42,49.42,0,0,0,43.4,67.74c0-.39,0-.94.62-.9s.75.53.7,1a8.36,8.36,0,0,0,.38,2.77c.23,1.16.52,2.29.65,3.48.19,1.77.38,3.62,1.79,5,.35.34.27.81.23,1.28-.07.64-.2,1.49.47,1.79a4.43,4.43,0,0,0,2.34.38,1.15,1.15,0,0,0,1.1-1,2.83,2.83,0,0,1,1.41-2.1A5.09,5.09,0,0,0,55.68,74.4ZM43.4,44.6c.23-2.71-.52-5.43,0-8.14a1.59,1.59,0,0,0-.19-1.22,10.62,10.62,0,0,1-1.53-3.85c-.12-.5-.31-.79-.84-.35-.72.59-1,.19-1-.53a4.67,4.67,0,0,1,0-2.07c.1-.23.15-.51-.09-.67s-.51.06-.7.25a3.12,3.12,0,0,1-2,.86c-1,.1-1.9.38-2.86.52A1.8,1.8,0,0,0,32.62,31a77.64,77.64,0,0,1-1.82,8.78,15.73,15.73,0,0,0,0,8.84c.1.42.24.92.75.85a19.56,19.56,0,0,0,3.32-.33c.56-.17.72-.51.6-1.12a80.87,80.87,0,0,1-1.92-9.51c0-.48-.24-1.11.44-1.18s.84.47.88,1.07a62.74,62.74,0,0,0,1.7,9.33,1.51,1.51,0,0,0,1.15,1.22c1.07.3,2.12.68,3.19,1a2.05,2.05,0,0,0,2.5-1.88Zm.93.29h0c0,.56,0,1.12,0,1.68s0,1.11,0,1.67a1.75,1.75,0,0,0,2.3,1.93c.82-.14,1.64-.29,2.47-.41a2,2,0,0,0,1-.44c1.38-1.2,1.7-2.91,2.14-4.55a.42.42,0,0,0-.1-.38c-.17-.13-.3,0-.43.15-.55.6-.87,1.49-1.9,1.46s-1.39-.94-2-1.5l-.08-.07c-.54-.36-.57-.82-.51-1.45.14-1.47.4-3-.35-4.4a.82.82,0,0,1,.25-1.11,7.17,7.17,0,0,1,3.56-.7c.23.11.43.27.4.55s-.27.39-.52.44a4.07,4.07,0,0,1-1.55-.13c-.32-.06-.68,0-.79.34s.25.42.46.59c.91.69,1.89.14,2.83.17.38,0,.57-.46.51-.89A2.65,2.65,0,0,1,51.9,37c.34-2.41,0-4.89.7-7.26.13-.45,0-.86-.46-.84a2.82,2.82,0,0,1-2.4-1.24.4.4,0,0,0-.46-.16A.43.43,0,0,0,49,28c0,.21.1.42.1.62,0,1,.18,2-1.28,2.16-.35,0-.48.37-.6.67a14.91,14.91,0,0,1-2.38,4.24,2.28,2.28,0,0,0-.54,1.54C44.35,39.81,44.33,42.35,44.33,44.89ZM51.46,85.1c0-1.34-.16-1.52-1.26-1.44A4.63,4.63,0,0,1,48,83.45c-1.15-.5-1.55.14-1.8,1a27.94,27.94,0,0,0-1,4.68,21.76,21.76,0,0,0,.18,5.18,27.11,27.11,0,0,1,.2,8c-.06.36-.07.72.29.93a1.59,1.59,0,0,0,1.51,0c.49-.25,1.07-.53,1-1.2a6.34,6.34,0,0,1,.44-2.45,67.81,67.81,0,0,0,1.64-6.79C51,90.18,50.67,87.45,51.46,85.1ZM64,36c.63-.05,1.25-.08,1.87-.16,2.71-.37,2.71-.38,2.84-3.1a2.56,2.56,0,0,0,0-.62c0-.26-.23-.5-.49-.46-.79.14-1.5-.28-2.25-.3-3.84-.08-7.57-1-11.36-1.42-1-.1-1.11.24-1.15.94-.13,1.84-.26,3.68-.34,5.52,0,.42-.2,1,.29,1.23A1.13,1.13,0,0,0,54.7,37a1.25,1.25,0,0,1,1-.6C58.5,36.05,61.27,36,64,36Zm-21.55,54a8.83,8.83,0,0,0,0-1.15c-.22-1.54-.12-3.13-.76-4.6-.21-.48-.41-.75-1-.47a5.38,5.38,0,0,1-2.35.34C37,84,37,84,37,85.44c0,.41-.06.83-.05,1.25.11,5.14,1.54,10.09,2.2,15.15.08.59,1.35,1.57,1.88,1.44.94-.22.65-1,.64-1.63a28.65,28.65,0,0,1,.07-3.34C42,95.52,42.68,92.76,42.49,89.91Zm1.23.47A1.67,1.67,0,0,0,44.15,89a13.58,13.58,0,0,1,1.69-6.18,3.73,3.73,0,0,0,.5-2.24,5.54,5.54,0,0,0-.79-2.43c-.9-1.64-.83-3.5-1.17-5.27-.06-.29-.06-.73-.47-.7s-.28.44-.33.69a30.38,30.38,0,0,1-1.49,5.52c-.69,1.71-.16,3.2.45,4.69a9.33,9.33,0,0,1,.71,2.38C43.46,87.1,43.53,88.73,43.72,90.38ZM31.39,64.27c.06.36-.13.91.41.93s.45-.52.51-.88a50.67,50.67,0,0,1,2.84-10.78c.46-1.15-.25-1.93-.51-2.86-.06-.2-.34-.26-.55-.2a6.1,6.1,0,0,1-3,0c-.56-.1-.84.17-.72.7.36,1.56.45,3.18.81,4.73.59,2.53,1.17,5,.33,7.61A5.54,5.54,0,0,0,31.39,64.27ZM48.45,19.89s0-.26-.12-.34c-.27-.19-.44.08-.61.23a1.19,1.19,0,0,1-2-.05,1.7,1.7,0,0,0-.92-.47c-.41-.1-.64,0-.71.5-.15,1-.31,1.1-1.19.52a5,5,0,0,1-.79-.67c-.16-.14-.31-.29-.55-.2a.45.45,0,0,0-.22.54,5.14,5.14,0,0,0,.19,1.12,20,20,0,0,1,.94,3.08,2.31,2.31,0,0,0,2,1.64,1.86,1.86,0,0,0,1.91-1c.45-.7.85-1.43,1.24-2.17A6.15,6.15,0,0,0,48.45,19.89ZM33.93,105.17a6.08,6.08,0,0,0-1.35,0c-.49.11-.93.43-.79,1s.62.61,1.1.52a12.31,12.31,0,0,1,3.32,0,3.54,3.54,0,0,0,1.65,0,2.9,2.9,0,0,1,2,0,1.84,1.84,0,0,0,2.28-1c.31-.8,0-1.5-.77-1.38a2.35,2.35,0,0,1-2-.6,1.09,1.09,0,0,0-1.6,0A5.34,5.34,0,0,1,33.93,105.17Zm10.93.11c0,1.35.75,1.94,2,1.68a3.34,3.34,0,0,1,1.74-.19c2.07.62,4.21.4,6.33.53.28,0,.71.16.74-.3s-.36-.59-.73-.57a7.28,7.28,0,0,1-5.4-2.08,1.36,1.36,0,0,0-1.79-.16,2.35,2.35,0,0,1-1.9.34C45.07,104.27,44.9,104.77,44.86,105.28Zm3.78-53c.34,0,.71,0,.78.48s-.21.58-.54.65a17.64,17.64,0,0,1-1.74.31c-2.29.29-2.42.56-1.18,2.53a2.08,2.08,0,0,0,.27.32c.94,1,1.63,1,2.4-.11.6-.88.86-2,1.41-2.87.73-1.15-.27-1.7-.49-2.51-.07-.28-.53-.36-.83-.23a8.68,8.68,0,0,1-2.75.59c-.38,0-.83.15-.75.67s.54.48.91.47A9.74,9.74,0,0,0,48.64,52.27Zm-2.4-24.6c.24-1-.09-1.15-.78-.9a2.3,2.3,0,0,1-1.53.09c-1-.3-1.27-.05-1.11,1,.09.61.54.94.91,1.34s.89.58,1.33-.06a1.15,1.15,0,0,1,1.65-.33c.41.22.85.45,1.27.14s.18-.83.14-1.26c0-.25,0-.49-.09-.73s-.1-.53-.43-.47-.2.32-.2.52a2.52,2.52,0,0,1,0,.62c-.11.34-.32.67-.72.63S46.21,27.83,46.24,27.67ZM45.1,18.11h0c.94,0,1.88,0,2.83,0,.34,0,.75-.07.74-.54a.73.73,0,0,0-.7-.67,6.67,6.67,0,0,1-1.44-.23c-1.62-.74-3.05,0-4.51.51-.23.08-.49.22-.47.49s.34.43.62.43C43.15,18.12,44.12,18.11,45.1,18.11Zm-5,34.36c.51,0,1.09.18,1.15-.57s-.34-.94-1-1a8.44,8.44,0,0,1-3.14-1c-.44-.22-.94-.55-1.23.11a1,1,0,0,0,.6,1.54A15.77,15.77,0,0,0,40.15,52.47ZM42.7,30.84a16.08,16.08,0,0,0,1.08,3.48c.23.56.54.42.92,0,.92-1.06,1.12-2.45,1.81-3.61a.43.43,0,0,0,0-.58c-.22-.22-.46-.12-.65,0a2.21,2.21,0,0,0-1.06,1.6c0,.41.1,1.14-.46,1.11s-.39-.77-.42-1.21a1.26,1.26,0,0,0-.5-1.09c-.18-.11-.38-.27-.57-.1S42.72,30.77,42.7,30.84ZM39.77,18.15c.45-1.61.93-2,2.42-2.32s1.47-.25.83-1.58c-.08-.15-.12-.33-.2-.48-.27-.52-.63-.59-1.1-.24a6.26,6.26,0,0,0-2.41,3.54A.78.78,0,0,0,39.77,18.15Zm8.94,24.73c0,.89.76,1,1.28,1.35s.74-.12,1-.47c.73-1,.73-2.23,1.35-3.25.18-.31.33-.68-.08-.91s-.74.07-1,.39a3.92,3.92,0,0,0-.55,2.09c0,.43-.1.91-.67.85s-.65-.51-.66-.93a5.39,5.39,0,0,1,.22-1c.05-.26,0-.53-.28-.58s-.29.24-.34.44A8.69,8.69,0,0,1,48.71,42.88ZM50.6,16.55c0-.11-.06-.25-.09-.38a4.18,4.18,0,0,0-2.12-2.45c-.46-.29-1-.91-1.46-.5s-.54,1.36-1,2c-.09.12.14.3.32.34.44.1.91.22,1.24-.23.54-.72,1-.43,1.4.12s.72.94,1.08,1.41c.1.13.22.28.42.19S50.6,16.75,50.6,16.55Zm.65,35.81a3.08,3.08,0,0,0,.23,1.87,8,8,0,0,1,.83,2.46c0,.43.17,1,.71.82s.23-.62.19-1c-.18-1.71-1.12-3.22-1.18-5,0-.31-.15-.68-.55-.61s-.22.45-.23.71S51.25,52.08,51.25,52.36Z"/><path d="M38.31,44.81a2.48,2.48,0,0,1-1.94-1.38,3.56,3.56,0,0,1-.48-2.89,1.9,1.9,0,0,0-.43-1.86c-.78-1,.11-1.68.57-2.39s1-.31,1.57-.11c.88.31,1.83.4,2.73.67,1.11.34,1.23.68,1,1.84a12.28,12.28,0,0,0-.21,3.53C41.15,44.17,40.5,44.83,38.31,44.81ZM38,43c.66.22,1.12.75,1.75.38s.41-1,.42-1.52a5.29,5.29,0,0,1,.12-1.13c.11-.45.38-.92-.31-1.09s-.79.36-.93.85C38.76,41.35,38.87,42.33,38,43Zm2.36-5c-.1-.37-.46-.32-.75-.33a5,5,0,0,1-2.23-.38c-.39-.21-.88-.3-1.08.18s.32.8.71,1,1.07.12,1.54.5C38.79,39.14,40.31,38.33,40.31,38Z"/></svg>