<svg xmlns="http://www.w3.org/2000/svg" viewBox="0 0 120 120"><path d="M112.42,67.69a1.92,1.92,0,0,0-.73,1.6,45.17,45.17,0,0,1-2.44,9.49A47.46,47.46,0,0,1,101.9,92c-2.08,2.68-4.39,5.14-6.68,7.59a27.94,27.94,0,0,1-6,4.48,69.48,69.48,0,0,1-9.39,4.85,65.88,65.88,0,0,1-10.43,3c-2.8.64-5.69.52-8.47,1.2a2.44,2.44,0,0,1-1.2,0c-2.54-.64-5.16-.6-7.73-1a42.06,42.06,0,0,1-9.15-2.51,53.66,53.66,0,0,1-13-6.72A52.33,52.33,0,0,1,17.28,90.42,53,53,0,0,1,10.56,76.6,61.23,61.23,0,0,1,7.9,65.12,48.94,48.94,0,0,1,8,52.91a58.72,58.72,0,0,1,3.58-13.09,44.12,44.12,0,0,1,7.12-12.56c1.64-2,3.45-3.81,5-5.9,1-1.38,2.73-2.2,4-3.42,2.58-2.49,5.81-4,8.86-5.68A26.44,26.44,0,0,1,45,9a14.33,14.33,0,0,0,4-1.25,3.71,3.71,0,0,1,1.3-.36c6.08-.48,12.19-1,18.24,0C75.07,8.58,81.36,10.35,87,14.15a95.87,95.87,0,0,1,9.4,6.78,37.32,37.32,0,0,1,3.88,4.39A58.89,58.89,0,0,1,108,36.89a43,43,0,0,1,3.26,10.16c.34,1.54.07,3.25,1.21,4.58Zm-2.54-7.83a42,42,0,0,0-.45-7.08,54.56,54.56,0,0,0-2.92-11.86,45.47,45.47,0,0,0-6.25-11c-1-1.28-1.39-1.37-2.43-.12-2.43,2.91-5.29,5.4-7.9,8.13-2.22,2.33-4.72,4.43-6.8,6.88-2.42,2.85-5.16,5.37-7.71,8.09-2.31,2.45-5,4.59-7.15,7.14-4.76,5.56-10.1,10.55-15,15.94C49.69,79.86,46,83.63,42.44,87.44S35,94.8,31.43,98.66c-1.36,1.46-1.39,1.35.21,2.59a34.69,34.69,0,0,0,7.42,4.33,48.59,48.59,0,0,0,15,4.31c2.27.21,4.55,0,6.8.12a37.53,37.53,0,0,0,10.33-.89,49.32,49.32,0,0,0,16.06-6.72,45.14,45.14,0,0,0,9.42-7.75c2.57-2.75,4.42-6,6.54-9a35,35,0,0,0,5-11.88A47.93,47.93,0,0,0,109.88,59.86Zm-99.52.07a33.39,33.39,0,0,0,.46,8.71,48.89,48.89,0,0,0,3.26,10.8,45.8,45.8,0,0,0,5,9.3c.88,1.16,1.62,1.14,2.56.16C23.41,87,25.33,85.3,27,83.32c3.23-3.9,7-7.23,10.49-10.89,3.63-3.84,7.37-7.58,11-11.38,2.9-3,5.73-6.09,8.64-9.1s6.11-5.88,8.85-9.08c3.77-4.42,8-8.33,12.09-12.47,3.44-3.53,6.73-7.23,10.5-10.44.68-.57.62-1.17-.15-1.55-1.53-.76-2.76-2-4.34-2.68-2.62-1.17-5.07-2.87-7.79-3.6a69.85,69.85,0,0,0-12.2-2.59,59.44,59.44,0,0,0-14.29.76c-5,.8-9.47,3.24-14.08,5.18a3.2,3.2,0,0,0-1.1.78,10.39,10.39,0,0,1-3.4,2.23,3.65,3.65,0,0,0-1.49,1c-1.32,1.76-3.72,2.45-4.63,4.64-.05.12-.25.17-.37.26a20.19,20.19,0,0,0-4.07,3.81c-3.92,4.67-6.27,10.22-8.19,15.9A42.77,42.77,0,0,0,10.36,59.93Z"/></svg>