<svg xmlns="http://www.w3.org/2000/svg" viewBox="0 0 120 120"><defs><style>.a{fill:#0054a7;}.b{fill:#c90106;}.c{fill:none;stroke:#c90106;stroke-miterlimit:10;}.d{fill:#fff;}</style></defs><path class="a" d="M59.5,14.5a46,46,0,0,0,0,92Z"/><path class="b" d="M59.5,101.49A41.48,41.48,0,0,1,26.43,35.62L59.5,68.69V50.31L35.62,26.43A41.32,41.32,0,0,1,59.5,18.51v-11a52.49,52.49,0,0,0,0,105Z"/><circle class="c" cx="60" cy="60" r="52.5"/><path class="d" d="M34.76,65.25l-1.24.47c-.18-.56-.5-.84-1-.84a.69.69,0,0,0-.52.19.57.57,0,0,0-.19.43.56.56,0,0,0,.22.47,5.25,5.25,0,0,0,1,.45,5.31,5.31,0,0,1,1,.48,1.81,1.81,0,0,1,.61.65,1.9,1.9,0,0,1,.23,1,2,2,0,0,1-.65,1.57,2.48,2.48,0,0,1-1.76.61,2.26,2.26,0,0,1-2.37-1.87l1.31-.38c.16.69.52,1,1.09,1a1,1,0,0,0,.63-.2.67.67,0,0,0,.25-.53.68.68,0,0,0-.17-.45,2.19,2.19,0,0,0-.78-.42,5.68,5.68,0,0,1-1.17-.51,1.78,1.78,0,0,1-.64-.64,2,2,0,0,1-.25-1,2,2,0,0,1,.59-1.5,2.15,2.15,0,0,1,1.57-.59A2.05,2.05,0,0,1,34.76,65.25Z"/><path class="d" d="M35.28,63.76h4.25V65H38.14v5.55h-1.5V65H35.28Z"/><path class="d" d="M44.86,67.17q0,3.52-2.48,3.52a2.12,2.12,0,0,1-1.85-.9,4.53,4.53,0,0,1-.62-2.62c0-2.34.82-3.51,2.47-3.51a2.11,2.11,0,0,1,1.84.88A4.44,4.44,0,0,1,44.86,67.17Zm-1.58,0a4.83,4.83,0,0,0-.22-1.83.73.73,0,0,0-1.36,0,5.19,5.19,0,0,0-.21,1.83A5.27,5.27,0,0,0,41.7,69a.73.73,0,0,0,1.36,0A5,5,0,0,0,43.28,67.17Z"/><path class="d" d="M45.9,63.76h2a5,5,0,0,1,1.38.15,1.5,1.5,0,0,1,.83.68,2.43,2.43,0,0,1,.33,1.31,2.56,2.56,0,0,1-.27,1.24,1.57,1.57,0,0,1-.74.7,3.65,3.65,0,0,1-1.47.22H47.4v2.53H45.9Zm1.5,1.11v2h.47c.41,0,.67-.09.79-.28a1.37,1.37,0,0,0,.18-.74,1.28,1.28,0,0,0-.14-.63.61.61,0,0,0-.32-.3,1.39,1.39,0,0,0-.51-.07Z"/><path class="d" d="M23.88,72.63h1.57l1.05,5.2,1.09-5.2h1.28L27.2,79.49l-1.68,0Z"/><path class="d" d="M29.37,72.63h4.15V73.8H30.87v1.59h2.06v1.17H30.87v1.67h2.65v1.22H29.37Z"/><path class="d" d="M34.25,72.63H36.4a5.92,5.92,0,0,1,1,.06A1.61,1.61,0,0,1,38,73a1.77,1.77,0,0,1,.53.69,2.38,2.38,0,0,1,.19,1,1.88,1.88,0,0,1-1,1.8l1.26,3H37.42l-.92-2.69h-.75v2.69h-1.5Zm1.5,1.11v1.91h.66c.59,0,.88-.33.88-1a1,1,0,0,0-.13-.56.64.64,0,0,0-.3-.29,1.13,1.13,0,0,0-.51-.08Z"/><path class="d" d="M39.83,72.63h2.33a4.71,4.71,0,0,1,1.24.13,1.36,1.36,0,0,1,.7.57,2.09,2.09,0,0,1,.28,1.1,1.39,1.39,0,0,1-1,1.47,1.61,1.61,0,0,1,1.16,1.67,1.92,1.92,0,0,1-.31,1.12,1.48,1.48,0,0,1-.78.61,4.43,4.43,0,0,1-1.31.15H39.83Zm1.44,2.76h.48c.49,0,.79-.09.92-.26a1,1,0,0,0,.18-.6.91.91,0,0,0-.18-.55,1,1,0,0,0-.81-.24h-.59Zm0,2.89H42c.69,0,1-.29,1-.89a.86.86,0,0,0-.26-.7,1.28,1.28,0,0,0-.78-.2h-.73Z"/><path class="d" d="M50.26,76c0,2.35-.83,3.52-2.47,3.52a2.12,2.12,0,0,1-1.86-.9A4.63,4.63,0,0,1,45.31,76c0-2.34.82-3.51,2.47-3.51a2.11,2.11,0,0,1,1.84.88A4.42,4.42,0,0,1,50.26,76Zm-1.58,0a5.22,5.22,0,0,0-.21-1.84.73.73,0,0,0-.69-.45.7.7,0,0,0-.68.46,8,8,0,0,0,0,3.65.73.73,0,0,0,1.36,0A4.85,4.85,0,0,0,48.68,76Z"/><path class="d" d="M51.3,72.63h1.62a4.26,4.26,0,0,1,1.7.29,2.13,2.13,0,0,1,1.06,1A4.51,4.51,0,0,1,56.07,76a5.08,5.08,0,0,1-.24,1.63,2.91,2.91,0,0,1-.63,1.12,1.85,1.85,0,0,1-.88.55,4.22,4.22,0,0,1-1.22.14H51.3Zm1.5,1.17v4.48h.26a1.37,1.37,0,0,0,.81-.2,1.3,1.3,0,0,0,.45-.69A4.78,4.78,0,0,0,54.49,76a3.63,3.63,0,0,0-.19-1.34,1.18,1.18,0,0,0-.47-.64,1.52,1.52,0,0,0-.77-.17Z"/></svg>