<svg xmlns="http://www.w3.org/2000/svg" viewBox="0 0 120 120"><defs><style>.a{fill:#2b2928;}.b{fill:#c90106;}</style></defs><polygon class="a" points="60 36.5 40.98 18.5 79.02 18.5 60 36.5"/><polygon class="a" points="60 83.5 40.98 101.5 79.02 101.5 60 83.5"/><path class="b" d="M7.5,60A52.5,52.5,0,1,0,60,7.5,52.51,52.51,0,0,0,7.5,60Zm11,0A41.5,41.5,0,1,1,60,101.5,41.5,41.5,0,0,1,18.5,60Z"/><path d="M50.63,55a3.58,3.58,0,0,1,1.95,1.45c.43.67.65,2.25.65,4.73a11.57,11.57,0,0,1-.63,4.28,4.47,4.47,0,0,1-2.17,2.31,8.63,8.63,0,0,1-4,.8,8.55,8.55,0,0,1-4.31-.92,4.52,4.52,0,0,1-2.06-2.26,15.35,15.35,0,0,1-.49-4.64V58.9h5.77v3.76a6.06,6.06,0,0,0,.18,1.91.78.78,0,0,0,.79.41.87.87,0,0,0,.89-.52,9.79,9.79,0,0,0,.21-2.69v-1.6a4.89,4.89,0,0,0-.29-1.94,1.53,1.53,0,0,0-.89-.81A9.67,9.67,0,0,0,44,57.2V53.85a11.83,11.83,0,0,0,2.54-.16,1.11,1.11,0,0,0,.7-.69,4.76,4.76,0,0,0,.21-1.65V50.06a3.31,3.31,0,0,0-.25-1.6.84.84,0,0,0-.77-.39.87.87,0,0,0-.83.41,4.47,4.47,0,0,0-.22,1.74v1.9H39.61v-2c0-2.21.51-3.71,1.52-4.48a7.87,7.87,0,0,1,4.81-1.17q4.13,0,5.6,1.62A6.4,6.4,0,0,1,53,50.6a5.49,5.49,0,0,1-.53,2.8A4.65,4.65,0,0,1,50.63,55Z"/><path d="M61,49.13l-.1,1.8a4.74,4.74,0,0,1,1.6-1.61,4.21,4.21,0,0,1,2.11-.53,4.1,4.1,0,0,1,3.65,2.14,5.22,5.22,0,0,1,1.64-1.61,4.34,4.34,0,0,1,4.46.18,3.13,3.13,0,0,1,1.24,1.75,14.81,14.81,0,0,1,.27,3.37V68.09h-5.6V55.73a15.73,15.73,0,0,0-.16-3,.73.73,0,0,0-.77-.57.75.75,0,0,0-.79.57,14.15,14.15,0,0,0-.18,3V68.09h-5.6v-12a20.6,20.6,0,0,0-.14-3.35.68.68,0,0,0-.75-.55.84.84,0,0,0-.65.29,1.12,1.12,0,0,0-.3.71q0,.42,0,1.8V68.09H55.3v-19Z"/></svg>