<svg xmlns="http://www.w3.org/2000/svg" viewBox="0 0 120 120"><path d="M79.2,39.41c.49.1.39.55.47.87a1.27,1.27,0,0,0,1.62,1.06,28.13,28.13,0,0,1,8.69,0c2.26.35,4.14-.93,6.26-.46.67.15,1.53,0,1.35,1-.11.6,0,1.79-1.37,1.22-.68-.28-.79.33-.87.77a14.07,14.07,0,0,1-.13,2.33.59.59,0,0,0,.46.71.61.61,0,0,0,.71-.2,11.68,11.68,0,0,0,.66-1c.54.92,0,1.35-.45,1.8a1.2,1.2,0,0,1-1.67.32c-.33-.2-.69-.63-1.07-.16s0,.8.12,1.18c.77,2.07,3,3.7,4.83,2.59,1.57-1,2,0,3.1.23a6,6,0,0,0,3.62-.71,1,1,0,0,0,.18-1.81A4.53,4.53,0,0,1,104,44.37a1.78,1.78,0,0,0-.68-1.94c-1-.78-.74-1.31.3-1.78a3.72,3.72,0,0,1,1.5-.33,2.3,2.3,0,0,0,.91-.16c.79-.35,1.16-.07,1.51.82,1,2.45.26,4.81-.32,7.16-.25,1-.87,2,.55,2.45,2.07.68,3.55.14,3.91-1.32a14.25,14.25,0,0,0,.35-5.88,37.39,37.39,0,0,0-2-8c-.3-.71-.67-1.6-1.65-1.34s-.63,1.15-.62,1.86.3,1.46-.31,2.06c-.06.06-.34,0-.41-.08-.49-.67-.18-1.41-.07-2.1a2.75,2.75,0,0,0-2.6-3.38.61.61,0,0,0-.72.77c.36,2.39-1.46,3.87-2.47,5.64-.32.57-.53,1.84-1.39,1.63s-.79-1.37-1.09-2.12c-.46-1.12-.69-2.31-2.17-2.57a.68.68,0,0,1-.49-.86.37.37,0,0,1,.45-.33c2.54.9,1.16-.83,1-1.63.71-.25.79.31,1,.6,1,1.45,2.56.91,3.81.68.9-.17.76-1.35.64-2.18s-.61-.77-1.28-.6a9.45,9.45,0,0,1-1.85.09c-2.19.13-2,.07-2.6-2.08A40.9,40.9,0,0,0,95.5,25c-1-2.26-.42-4.33,1.82-5.36a8.06,8.06,0,0,1,6-.23,4.68,4.68,0,0,1,2,1.45c1.49,1.7,1.51,2.41-.2,3.9-1.39,1.22-1.34,3.07-2.2,4.54-.45.75.67,2,1.81,2.37a18.47,18.47,0,0,0,3.29,1,4.17,4.17,0,0,1,3.61,3.79A76,76,0,0,1,113,44c.13,1.58.38,3.16-.34,4.61-.81,1.66-.08,3.44-.62,5.12a24.08,24.08,0,0,1-.84,2.83,3.66,3.66,0,0,0,.2,3.86,3.17,3.17,0,0,1,.1,3.54,4.72,4.72,0,0,0-.18,4.06c1.21,3.57.11,6.78-2.08,9.63a4,4,0,0,0-.83,3.29,23.82,23.82,0,0,1-.72,10.9,12.14,12.14,0,0,0-.4,1.83c-.51,2.92.24,4.06,3.14,4.8.31.08.63.08.93.16.64.19,1.48.28,1.33,1.21s-.9.88-1.61.88c-1.65,0-3.32.41-5-.16a1.61,1.61,0,0,0-1.08,0,2,2,0,0,1-2.64-.61c-.57-.67-1.23-.74-1.7.23a1.23,1.23,0,0,1-1.83.62,2.61,2.61,0,0,0-2.25,0c-1.47.55-3,.14-4.49.12A1.19,1.19,0,0,1,91,100c-.17-.55.18-.86.53-1.2A3.66,3.66,0,0,1,94,97.7c2-.12,2.79-1,2.67-3a44.65,44.65,0,0,0-1.55-7.33,16.26,16.26,0,0,1-.58-6.93A2.29,2.29,0,0,0,93.39,78c-3.89-2.41-4-6-3.23-9.92.84-4.18,1.63-8.37,2.58-12.53.25-1.07.74-2,0-3a.51.51,0,0,1,0-.45c1.77-2.14-.18-4.14-.21-6.22a10.8,10.8,0,0,0-.25-1.06c-.06-.37,0-.79.41-.88s.56.33.69.67,0,1,.66,1.11c.38,0,.41-.39.49-.68a1.21,1.21,0,0,0-.62-1.46c-1.44-.87-2.54-.58-3.69.69a50.75,50.75,0,0,1-4,3.9c-.59.52-1.13.94-.81,1.82.18.47,0,.74-.45,1-2.54,1.73-4.44,4.21-7,6-1.24.85-2.27,2.11-4,.8-.62-.48-1.28.18-1.94.24-.42,0-.93.07-1.09-.39s.38-.66.74-.79.91-.24,1.36-.39c2.09-.71,4-1.57,5.08-3.76.86-1.77,2.06-3.37,3.08-5.06a26.6,26.6,0,0,1,3.44-3.79c.38-.4,1-.77.67-1.44s-.92-.36-1.41-.31c-1.6.16-3.34-.36-4.75,1-.22.21-.8.09-1.2,0-3.56-.38-7.1-1.2-10.71-.24-1,.26-1.91-.06-1.74-1.46.07-.68-.32-1-1-1.24a5.56,5.56,0,0,1-1.28-.55.86.86,0,0,1-.49-1,.82.82,0,0,1,1-.54c1.3.43,2.72,0,4,.56a6.51,6.51,0,0,0,5.46,0C78,36.49,83.11,36.12,88,34.76c2.53-.7,4.78-2.06,7.25-2.87.42-.14,1-.66,1.24-.14.32.7-.55.68-.94.94-3.84,2.51-8.33,3-12.64,4.11-3.35.83-6.7,1.65-10,2.8a6.62,6.62,0,0,1-5.32-.18,3.15,3.15,0,0,0-.85-.36c-.52-.08-1.25-.53-1.47.27s.54.74,1,.9c.23.08.59.24.61.41.23,1.75,1.45,1.28,2.44,1,2.52-.61,5,.12,7.46.29,2.12.14,2.11.29,2.08-1.9C78.93,39.83,78.88,39.55,79.2,39.41ZM90.75,70.55c0,3.51.51,4.68,2.7,6.33A4.75,4.75,0,0,1,95.21,79c.41,1.17,1.25,1,2.17.81a1.38,1.38,0,0,0,1.26-1.65A14.6,14.6,0,0,1,99.3,74c.47-2.05,1.51-4,1.28-6.19,0-.42-.21-1.09.5-1.06s.53.67.56,1.11a14.31,14.31,0,0,0,.35,3.25c.72,2.36,1.79,4.63,2,7.14,0,.62.46.87,1,1,1.55.39,2.37-.53,3.19-1.65,1.78-2.47,3-5,2.5-8.22-.58-4.06-2.47-7.7-3.29-11.67-.09-.41-.24-.85-.74-.89s-.64.41-.86.76c-1.37,2.15-3,2.48-4,.51-1.29-2.55-2.93-4-5.86-3.82a.65.65,0,0,1-.29-.09c-1-.4-1.56-.11-1.78,1-.34,1.68-.77,3.34-1.16,5C91.87,63.89,91.11,67.55,90.75,70.55Zm9.83,12.73a3.8,3.8,0,0,1-.35-.49c-1.12-2.44-1.11-2.39-3.65-1.93-1.17.21-1.43.81-1.3,1.85.21,1.71.46,3.4.77,5.09.45,2.55,1.68,4.92,1.53,7.6-.06,1,1.11,1.63,2.19,1.26.4-.13.83-.7,1,.19.11.55.4.83,1,.75.72-.09.72-.65.74-1.18.08-1.66.15-3.32.22-5,0-.37,0-.82-.3-1-1.79-1-1.32-2.7-1.54-4.23s.44-2.18,1.82-3.07a22.65,22.65,0,0,0-.17,3.64c-.09,3,1.46,5.86,1,9-.16,1,.81,1.21,1.67,1s.82-.85,1-1.44c1.53-4.57,1.49-9.31,1.61-14,0-.68-.39-1.35-.91-1.2-1.33.37-2.81-.46-4.06.7a2.57,2.57,0,0,1,.23-1.91,1.47,1.47,0,0,0,.26-1.33,19.44,19.44,0,0,1-1.74-5.15c0-.31-.22-.64-.59-.6s-.49.37-.52.69a16.1,16.1,0,0,1-.65,3,5.92,5.92,0,0,0,.41,4.83A3.88,3.88,0,0,1,100.58,83.28Zm1.08-60.55c.94-1.09,1.68-1.05,2.32.16.27.52.73.87,1.26.49s.37-1.06-.08-1.46A16.7,16.7,0,0,0,103,20.21c-.6-.41-1.06-.3-1.49.44-.91,1.56-1.76,1.62-2.82.26a1,1,0,0,0-1.71-.18,10.24,10.24,0,0,0-1.29,1.34c-.46.55-.84,1.24-.13,1.77.92.7.93-.29,1.17-.79a.74.74,0,0,1,1-.47.46.46,0,0,1,.25.75c-1,1.41.22,1.3,1,1.36a12.1,12.1,0,0,0,2.33-.05c.69-.07,1.71.22,1.94-.58C103.5,23,102.16,23.35,101.66,22.73Zm-3.33,3.41c-1.43-.49-1.35.18-1,1.13.19.53.27,1.09.42,1.64a2.43,2.43,0,0,0,2.08,2c1.05.14,1.53-.59,2-1.36a6.07,6.07,0,0,0,.94-2.28c.16-.92.83-2.36-1.18-1.22a.63.63,0,0,1-.83-.2.88.88,0,0,0-1.36-.06A1.29,1.29,0,0,1,98.33,26.14Zm11.5,25.29c-1.31,0-1.65.42-1.25,1.69a3.92,3.92,0,0,1,.2,1.83,14.54,14.54,0,0,0,1,7.9c.14.38.33.68.77.6s.53-.46.52-.84a3.82,3.82,0,0,0-.66-2.06,3.68,3.68,0,0,1-.41-3.28c.37-1.3.74-2.6,1.13-3.89S111.07,51.45,109.83,51.43ZM99.36,99.82a1.38,1.38,0,0,0,1.32-.73c.16-.35.12-.93-.19-1C99.2,98,98,96.86,96.66,97.65a5.48,5.48,0,0,1-3.33,1c-.44,0-1,0-1,.66s.55.59,1,.69C95.36,100.53,97.34,99.1,99.36,99.82Zm6.73-44.77c0-1-.57-1.38-1.49-1.06a7.52,7.52,0,0,1-1.92.54c-.51,0-1.1,0-1.19.73a3.2,3.2,0,0,0,1.17,2.58c.34.37.76.72,1.19.38C104.9,57.41,106.06,56.63,106.09,55.05Zm2,44.89c.56-.15,1.26.07,1.23-.74,0-.46-3.11-2-3.57-1.72a2.36,2.36,0,0,1-2.08.26.7.7,0,0,0-.85.21.79.79,0,0,0,.16,1c.34.4.75.94,1.26.8A6.37,6.37,0,0,1,108.06,99.94Zm-.88-56.75c-.26-1-.28-2.31-2-2-.42.08-1.07-.61-1.22.28-.11.67.51.58,1,.64,1,.12,1.08.78.71,1.56-.15.33-.43.59-.58.92-.26.57-.29,1.16.45,1.37a.94.94,0,0,0,1.28-.78C106.92,44.57,107,43.91,107.18,43.19Z"/><path d="M25.73,23.16a34.13,34.13,0,0,0-2.62,7.36,1.23,1.23,0,0,1-1.35,1c-1,0-2-.06-3,0-.5,0-1.14-.79-1.47.09-.23.66-.51,1.55.06,2.1,1.41,1.36.66,3.46,2.08,4.76-.67.31-.85-.06-.92-.3-.53-1.77-2.6-2.92-2-5.17.16-.62-.55-.72-1-.53a10.8,10.8,0,0,0-2.34,1.21c-.54.41-.88.81-1.6.34-.5-.32-.84.13-1.13.53a9.06,9.06,0,0,0-1.25,3.17,36,36,0,0,0-1.44,8,15.84,15.84,0,0,0,.8,4.11c.24,1.07,2.28,1.43,3.79.78,1.2-.51.7-1.43.55-2.38-.37-2.4-1.06-4.67-.47-7.3.45-2,.45-1.74,1.78-.77.69.49,1.81.24,2.67.69s1.1.85.27,1.33a2.27,2.27,0,0,0-1,2.86c.56,1.69-.25,2.77-1.33,3.64-1.4,1.13-1,2.35.78,2.63,1.44.22,3,1.36,4.1-.71.21-.4.59-.2.87.16.7.89,2.67,1,4.32.32,1.27-.56,1.51-1.84,1.67-3,.13-.86-.57-.55-1.08-.34-1.43.57-2.37-.2-2.28-1.86.52-.07.53.41.71.68s.51.55.91.38.4-.44.39-.78c0-.67,0-1.35-.11-2s-.2-1.29-1.19-.85-.85-.63-1.11-1.06-.14-1.18.49-1.2c1.41-.06,2.89-.68,4.2.41a1.15,1.15,0,0,0,1,.29,34.4,34.4,0,0,1,11-.36c1.46.13,1.57-1,2-1.9.4.18.36.45.34.7-.1,2,0,2,2.06,1.81,2.88-.25,5.77-1,8.68-.16.67.18,1.34.28,1.46-.79s1.05-.77,1.73-.86l0,0a4.42,4.42,0,0,0,0,1.09c.27,1.25-.48,1.82-1.45,1.61-4-.89-7.87-.24-11.79.3a1.7,1.7,0,0,1-1.18-.33c-1.69-1.12-3.63-.66-5.46-.74-.78,0-.71.62-.3,1.1a15,15,0,0,0,1.38,1.5,31.94,31.94,0,0,1,5.87,8C44,54.82,45.87,55.73,48,56.45c.75.25,2.14.22,2,1.08-.23,1.06-1.37.29-2.13.17-.3-.05-.72-.12-.9,0-1.66,1.4-2.75,0-4-.76a63,63,0,0,1-5.55-4.78c-1-.81-2.36-1.23-2.24-3.13.07-1-1.6-1.6-2.4-2.47a32,32,0,0,1-3-3.12c-.28-.41-.63-.72-1.18-.5s-.46.68-.4,1.18a10.1,10.1,0,0,1-.7,4.1c-.36,1.23-.78,2.39.17,3.54a.81.81,0,0,1,.14.72c-1.29,2.07.22,3.92.55,5.8.79,4.4,2,8.72,2.38,13.2a5.86,5.86,0,0,1-2.61,5.66A4.13,4.13,0,0,0,26,81.58c.41,3.23-.8,6.37-1.64,9.49a18,18,0,0,0-.59,3.85c-.08,1.84.67,2.69,2.55,2.78a4,4,0,0,1,2.54,1c.41.36.77.74.61,1.33a1.17,1.17,0,0,1-1.21.83,29,29,0,0,1-3.73,0c-1.22-.12-2.38-.65-3.64,0-.54.29-1.07-.21-1.4-.73-.55-.88-1.19-1-1.86-.15a1.87,1.87,0,0,1-2.38.58,3.15,3.15,0,0,0-2.14,0c-1.65.48-3.31-.07-5-.07a.94.94,0,0,1-.92-.91c0-.61.43-.83.88-.92a10.26,10.26,0,0,0,3.65-1.32A2.23,2.23,0,0,0,13,94.81a41.2,41.2,0,0,0-1.4-5.91,7.93,7.93,0,0,1-.15-3.67c.2-1.6-.06-3.22.32-4.82A2.81,2.81,0,0,0,11,77.86c-2.49-3-3.57-6.43-2.17-10.32a4.17,4.17,0,0,0-.35-3.63,3.07,3.07,0,0,1,.13-3.64,3.55,3.55,0,0,0,.2-3.69,9.17,9.17,0,0,1-.93-5.87,1,1,0,0,0-.09-.6c-1.59-3.13-.82-6.33-.3-9.51a47.89,47.89,0,0,1,1.17-5,3.81,3.81,0,0,1,3-2.83c1.26-.29,2.51-.7,3.74-1.11,1.72-.57,2-2,1.31-3.65A11.87,11.87,0,0,0,14,23.59c-.43-.39-.28-1,0-1.46,1.12-2.32,4-3.45,6.82-3.08a5.31,5.31,0,0,1,4.92,4.07c-.76-.78-1.49-1.59-2.28-2.34a1.12,1.12,0,0,0-1.86.16c-1,1.25-2.05,1.25-2.74-.13-.58-1.15-1.19-.94-2-.42-.56.38-1.11.78-1.65,1.19s-.94,1.15-.35,1.72,1.08-.08,1.42-.59c.79-1.17,1.52-1,2.25,0a.78.78,0,0,1-.68.42c-.47.09-1,.21-.94.82s.59.55,1,.57c1.29.08,2.59.16,3.89.14.63,0,1.4-.18.71-1.13-.24-.32-.41-.67,0-.92a.76.76,0,0,1,1.15.44C24.33,24.52,25,24,25.73,23.16ZM19.15,89.93c1.25,1.49,1.08,3.27.94,5-.08.92-.23,1.78.95,1.86a1.51,1.51,0,0,0,1.79-1.68,6.86,6.86,0,0,1,.29-2.3,53.16,53.16,0,0,0,2-9.77c.12-1.31-.14-2-1.62-2.22-2.36-.34-2.34-.44-3.35,1.76-.05.11-.19.18-.32.3a1.87,1.87,0,0,1,.06-2.12c1.92-2.8.31-5.54,0-8.3,0-.31-.22-.6-.61-.57a.55.55,0,0,0-.52.51c-.14,2.63-2.86,4.88-1.14,7.79a.79.79,0,0,1-.13,1A5.9,5.9,0,0,0,13,80.09a1,1,0,0,0-.66,1.39,9.42,9.42,0,0,1,.17,3.88c-.44,3.64.89,7,1.63,10.42.18.85.92,1.1,1.72,1s.91-.72.91-1.4a12.37,12.37,0,0,1,.08-3.11,25.59,25.59,0,0,0,.86-9c1.12.67,1.84,1.27,1.74,2.52s-.17,2.81-.25,4.21c-1-.15-1.56.26-1.55,1.23,0,1.86.1,3.73.17,5.59a.76.76,0,0,0,.77.8.74.74,0,0,0,.86-.7,8.81,8.81,0,0,0,.09-1.7C19.43,93.44,19.28,91.68,19.15,89.93ZM29.81,71.41a108.4,108.4,0,0,0-2.95-15.15c-.55-2.26-.63-2.24-3-1.81a3.36,3.36,0,0,1-1.09.09,2.83,2.83,0,0,0-3.24,2.06,6.55,6.55,0,0,1-.81,1.34c-1.43,2-2.7,2-4.2,0a5.84,5.84,0,0,1-.33-.53c-.19-.33-.44-.63-.86-.57s-.58.41-.64.79c-.57,3.24-2,6.21-3,9.34-1.38,4.59,0,8.38,3.1,11.75a2.38,2.38,0,0,0,2.48.48c.81-.18.92-.87.84-1.62a1.67,1.67,0,0,1,.14-.75c1.15-3,2.35-5.9,2.37-9.14,0-.43.09-.91.66-.86s.44.5.46.87a19.42,19.42,0,0,0,.68,4.09c.61,2.1,1.65,4.19,1.3,6.51-.14.91.42,1.32,1.23,1.5s1.71.44,2.12-.64A4.44,4.44,0,0,1,27,77,5.76,5.76,0,0,0,29.81,71.41ZM20.26,31a8.11,8.11,0,0,0,1-.32c.78-.35,2.2-3.54,2-4.34-.09-.29-.31-.52-.55-.38-1.23.72-2.54-1.19-3.73.14-.06.07-.3,0-.45-.05-.42-.06-.74-.84-1.19-.29s0,1,.16,1.48A9.55,9.55,0,0,0,18.54,30,2.64,2.64,0,0,0,20.26,31ZM10.47,51.44c-1.68,0-2.11.72-1.61,2.18.91,2.68,2.17,5.37.08,8.1a1.66,1.66,0,0,0-.18.9.65.65,0,0,0,.47.72.67.67,0,0,0,.91-.37,37.45,37.45,0,0,0,1.34-4.44c.29-2-.67-3.94.19-5.92C12.09,51.62,11.11,51.48,10.47,51.44Zm2.62,2.16c-.39-.17-.65.07-.79.43s-.33.8,0,1.18.57.14.84,0c.68-.38,1,0,1.11.58a4,4,0,0,0,1.28,1.72c.52.51,1,1.23,1.82.57s1.66-1.47,1.48-2.73a.87.87,0,0,0-.72-.73Zm12.67,46.52c.57-.05.83-.05,1.09-.09.51-.08,1.33.21,1.27-.67-.05-.72-.81-.69-1.37-.71s-1.2.1-1.66-.27c-1.41-1.16-2.9-1-4.48-.48-.47.16-1.13,0-1.06.79a1,1,0,0,0,1.14,1C22.53,99.43,24.28,100,25.76,100.12Zm-10.28-.37a1.83,1.83,0,0,0,1.86-.92c.32-.53.35-1.16-.41-1.1-1.81.16-3.84-.88-5.4.89-.25.28-.88.33-.68.86s.67.41,1.08.42C13.19,99.93,14.4,98.85,15.48,99.75Z"/><path d="M55.74,40.18c.47-1.88-.85-1.36-1.61-1a8.43,8.43,0,0,1-4.84.78,14.22,14.22,0,0,1-1.93-.56C44,38.29,40.57,37.5,37.14,36.68c-4.31-1-8.79-1.66-12.66-4.12-.34-.21-.91-.34-.6-.87s.66-.08,1,.06a49.47,49.47,0,0,0,12.56,4.07c4,.57,7.75,1.94,11.57,3.09a4.14,4.14,0,0,0,2.9,0c1.72-.72,3.58-.55,5.35-1a.93.93,0,0,1,1.25.62c.15.54-.26.87-.68,1.11a3.5,3.5,0,0,1-2.11.41Z"/><path d="M21.27,38.69a10.42,10.42,0,0,0-1.9-3.22c-.24-.3-.55-1-.13-1,1.61.32,2.32-1,3.37-1.66.29.49-.11.64-.23.9a.8.8,0,0,0,0,.88c.23.31.54.22.85.1s.91-.64,1.06.21a.74.74,0,0,1-.78.93c-.52,0-1.11.82-1.59-.17-.26-.54-.8-.48-1.13,0a.71.71,0,0,0,.3,1.17C22.17,37.33,21.81,38,21.27,38.69Z"/><path d="M47.38,53.62a1.26,1.26,0,0,1-1-.79,1.14,1.14,0,0,1,.09-1.29A9.76,9.76,0,0,0,48.56,46a1.17,1.17,0,0,1,.87-1.16.67.67,0,0,1,.83.26c.27.46-.07.79-.33,1.1-1.25,1.54-1.12,3.66-2.25,5.26-.27.38.12.78.23,1.17C48.08,53.22,47.86,53.54,47.38,53.62Z"/><path d="M74.74,52.41a1.51,1.51,0,0,1-.81,1.15.61.61,0,0,1-.72-.12c-.35-.38-.2-.75,0-1.15.11-.21.24-.56.15-.71-1.11-1.66-.93-3.84-2.23-5.4-.27-.33-.57-.65-.33-1.1a.56.56,0,0,1,.68-.24c.49.11,1,.44.94.9-.19,1.78,1,3.14,1.32,4.74C73.88,51.24,74.86,51.47,74.74,52.41Z"/></svg>