<svg xmlns="http://www.w3.org/2000/svg" viewBox="0 0 120 120"><defs><style>.a{fill:#ffa300;}</style></defs><path class="a" d="M92.42,59.61c0,.68-.46,1-.81,1.3Q76.55,76,61.47,91.06a6.34,6.34,0,0,0-.63.64c-.61.82-1.11.86-1.89.07Q43.61,76.35,28.18,61c-1.05-1-1-1.61,0-2.61,6.58-6.49,13.09-13,19.62-19.58,3.58-3.58,7.18-7.14,10.73-10.75.93-.95,1.49-1,2.51,0,6.11,6.18,12.33,12.24,18.49,18.37,4.08,4.07,8.11,8.19,12.16,12.29A10.79,10.79,0,0,1,92.42,59.61Z"/><path d="M59.7,7.43a4.56,4.56,0,0,1,3,1.68L81.47,27.86,109.6,56c.45.45.9.89,1.34,1.35,2.28,2.38,2.28,3.52-.09,5.88Q90.62,83.43,70.36,103.66c-2.4,2.4-4.79,4.8-7.21,7.18s-3.57,2.31-5.9,0Q37.38,91,17.52,71.19c-2.93-2.92-5.88-5.82-8.76-8.79-1.93-2-1.84-3.38.1-5.31L39.24,26.77,56.91,9.15A4.68,4.68,0,0,1,59.7,7.43ZM111.1,60a2,2,0,0,0-.77-1.37q-9.4-9.36-18.79-18.74c-.68-.69-1-.81-1.73,0-3.67,3.88-7.4,7.7-11.12,11.53C77.47,52.59,76.21,53.81,75,55,63.55,66.46,52.21,78,40.55,89.13c-1.6,1.53-1.62,1.54,0,3.13,6,6,12,12,18,18,1,1,1.7,1,2.74,0q13.6-13.71,27.3-27.32Q99.24,72.25,109.9,61.56C110.38,61.09,111,60.67,111.1,60ZM28.54,80.15c.75-.05,1.09-.55,1.49-1,2.64-2.74,5.26-5.51,8-8.19C51.46,57.59,64.72,44,78.46,30.82c2-1.95,2-2,0-4q-8.08-8.1-16.16-16.19c-2.35-2.36-2.37-2.37-4.7,0L23.46,44.78C19,49.2,14.64,53.64,10.14,58c-1.92,1.86-2,1.86-.14,3.77L27.86,79.63A5.87,5.87,0,0,0,28.54,80.15ZM87.93,36.39a1,1,0,0,0-.73-1c-.55-.23-.86.13-1.2.5-2.9,3.16-6,6.12-8.92,9.26C73.47,49,69.6,52.64,65.86,56.4,56,66.31,46.15,76.24,36,85.82c-.57.54-.92,1.08-.27,1.75s1.36.29,1.88-.3c2.58-2.94,5.47-5.58,8.13-8.45,4.22-4.53,8.78-8.74,13.13-13.15,9.37-9.49,18.83-18.87,28.48-28.08A1.73,1.73,0,0,0,87.93,36.39ZM32.65,84a2.14,2.14,0,0,0,1.13-.79c2.5-2.88,5.26-5.5,7.91-8.23,9.08-9.35,18.37-18.5,27.62-27.68,4.62-4.58,9.33-9.07,14-13.6.62-.6,1.15-1.26.34-2s-1.19,0-1.69.49c-2.93,3.07-5.85,6.13-8.84,9.13Q62.44,52.12,51.68,62.83c-4.13,4.1-8.13,8.34-12.47,12.23-2.57,2.3-4.77,5-7.41,7.2a.88.88,0,0,0-.21,1.16A1.13,1.13,0,0,0,32.65,84Z"/></svg>