<svg xmlns="http://www.w3.org/2000/svg" viewBox="0 0 120 120"><defs><style>.a{fill:#0054a7;}.b{fill:#ce0000;}</style></defs><path class="a" d="M18.59,21.41v2.2q0,36.68,0,73.34a1.79,1.79,0,0,0,0,.4c.06.34-.14,1,.39.92s.37-.62.35-1c-.38-5.81-.14-11.63-.15-17.44,0-18.54,0-37.09-.07-55.63a7,7,0,0,1,2.42-5.58c.36-.33.83-.21,1.25-.21H97.83c2.68,0,3.82,1.12,3.82,3.8q0,37.52,0,75c0,3.35-1,4.32-4.26,4.32H23.12c-.57,0-1.14,0-1.7,0a3.17,3.17,0,0,1-3.07-3.26l0-75V21.44Zm1.83,38.47V95.3c0,2.5,1.38,3.9,3.88,3.9H95.14A3.55,3.55,0,0,0,99,95.5q0-35.61,0-71.23a3.45,3.45,0,0,0-3.67-3.72H24.08a3.3,3.3,0,0,0-3.66,3.64Z"/><path class="a" d="M22.3,59.88V24.46c0-1.54.46-2,2-2l59.56,0,11.28,0c1.41,0,1.91.49,1.91,2q0,19.54,0,39.09,0,15.74,0,31.48c0,1.68-.51,2.25-2.14,2.25l-70.32,0c-1.94,0-2.34-.48-2.34-2.41q0-17.52,0-35Zm15-.14h0q0,15,0,29.9c0,1,.39,1.52,1.47,1.49,1.88,0,3.76,0,5.64,0,3.55,0,3.33.49,3.3-3.26,0-6.73,0-13.47-.08-20.2,0-1.15.65-1.09,1.46-1.09,4.85,0,9.71.23,14.55,0C75.73,66,83.82,55.85,81.86,44A18.61,18.61,0,0,0,63.54,28.41c-8.31-.05-16.61,0-24.92-.07-1.23,0-1.3.72-1.3,1.63Z"/><path class="a" d="M56.24,56.21c-2.36,0-4.72,0-7.08,0-1.15,0-1.56-.3-1.54-1.59.11-4.85.07-9.7,0-14.55,0-1,.21-1.36,1.21-1.35,4.24.05,8.47.07,12.71.1.61,0,1.22,0,1.83,0,5.45.21,8.53,3.55,8.41,9.09a8.44,8.44,0,0,1-8.73,8.28c-2.28,0-4.55,0-6.82,0Z"/><rect class="b" x="6.56" y="55.9" width="106.88" height="8.21" transform="translate(-24.85 60) rotate(-45)"/></svg>