<svg xmlns="http://www.w3.org/2000/svg" viewBox="0 0 120 120"><defs><style>.a{fill:#c90106;}.b{fill:#47aa00;}.c{fill:#fef900;}</style></defs><path class="a" d="M60,101.49H13.56c-.47,0-1,.11-1.28-.37s.27-.82.49-1.2c2-3.47,3.86-7,6-10.41,1.89-3,3.59-6.18,5.4-9.27,2.92-5,5.74-10,8.61-15q3.45-6,6.92-12Q45.22,43.63,50.78,34c2.63-4.55,5.24-9.12,8-13.6.38-.64.08-1.95,1.29-1.87,1.05.06,1,1.24,1.37,1.92,3.93,6.67,7.89,13.34,11.71,20.07s7.6,13.15,11.38,19.73c3.38,5.91,6.74,11.83,10.18,17.7,3.63,6.2,7.12,12.48,10.67,18.71.62,1.09,1.3,2.13,1.92,3.21.23.39.71.75.44,1.26s-.81.36-1.28.36c-6.27,0-12.55,0-18.82,0q-13.82,0-27.61,0Zm-.07-9.6v0H89.27c.45,0,1,.13,1.29-.35s-.15-.91-.46-1.21A9.25,9.25,0,0,1,88.77,88q-5.33-9.21-10.63-18.42Q72.56,59.93,67,50.26c-2-3.56-4-7.16-6-10.75-.23-.41-.45-.88-1-.84s-.56.54-.76.9c-2,3.59-4,7.18-6,10.75-1.41,2.48-2.93,4.9-4.37,7.37-2.43,4.19-4.83,8.4-7.24,12.6-2,3.57-4,7.16-6.1,10.71-1.81,3.11-3.67,6.19-5.51,9.28-.24.39-.8.68-.59,1.2s.89.4,1.39.4Z"/><path d="M52.62,70.43c0-3.81-.07-7.64,0-11.45a8.18,8.18,0,0,1,6.2-7.55c3.23-.74,6.85,1.64,8.15,4.94a12.4,12.4,0,0,1,.64,4.77q0,10.44,0,20.87a8.69,8.69,0,0,1-6.57,8c-2.83.58-6.29-1.75-7.63-4.65a9.18,9.18,0,0,1-.82-4.1c.09-3.61,0-7.22,0-10.83Z"/><path class="b" d="M55.56,81.63a4.75,4.75,0,0,0,4.58,4.6,4.84,4.84,0,0,0,4.61-4.29,4.44,4.44,0,0,0-4.47-4.62A4.31,4.31,0,0,0,55.56,81.63Z"/><path class="c" d="M55.56,70.63a4.75,4.75,0,0,0,4.58,4.6,4.84,4.84,0,0,0,4.61-4.29,4.44,4.44,0,0,0-4.47-4.62A4.31,4.31,0,0,0,55.56,70.63Z"/><path class="a" d="M55.56,59.63a4.75,4.75,0,0,0,4.58,4.6,4.84,4.84,0,0,0,4.61-4.29,4.44,4.44,0,0,0-4.47-4.62A4.31,4.31,0,0,0,55.56,59.63Z"/></svg>