<svg xmlns="http://www.w3.org/2000/svg" viewBox="0 0 120 120"><defs><style>.a{fill:#c90106;}</style></defs><path class="a" d="M61,108.18q-23.66,0-47.31,0a39.75,39.75,0,0,1-5.13-.46,4.55,4.55,0,0,1-3.41-6.24A66.79,66.79,0,0,1,10.62,91c3.54-5.58,6.76-11.33,10-17.08,1.22-2.17,2.7-4.18,4-6.34C30.13,58.06,36.17,48.82,41.27,39a113.14,113.14,0,0,1,7-11.64A73,73,0,0,0,53,18.6a24.63,24.63,0,0,1,3.86-5.39,5,5,0,0,1,7.5.09c3.2,3.87,5.45,8.36,7.94,12.67C76.62,33.44,80.78,41,85.08,48.51c2.68,4.66,5.19,9.43,7.89,14.08C96.7,69,100.45,75.43,104,81.94s7.64,12.6,10.57,19.4c1.5,3.48,0,6.35-3.81,6.67-6.09.52-12.2.24-18.3.21-7,0-14,.1-21,.2C68,108.46,64.52,108.07,61,108.18ZM59.89,97.76V97.7c1.89,0,3.78,0,5.66,0,10.71.25,21.42-.08,32.14-.14,2.22,0,2.6-.9,1.44-2.79-1.87-3.08-3.72-6.17-5.52-9.29-3.19-5.51-6.37-11-9.47-16.59-1-1.85-2.39-3.48-3.41-5.32-1.61-2.91-3.06-5.91-4.71-8.79-3.17-5.53-6.36-11-9.7-16.48-1.66-2.69-2.72-5.71-4.67-8.22-.41-.53-.73-1.16-1.5-1.18s-.84.74-1.14,1.24a41.71,41.71,0,0,1-3.79,6,31,31,0,0,0-3.69,6.06c-1.09,2.06-1.74,4.33-3,6.3C43.73,55.89,39.6,63.63,34.89,71c-3.31,5.2-6.11,10.69-9.35,15.93-1.49,2.39-3.2,4.63-4.59,7.1-2,3.54-.84,3.72,2.47,3.72Q41.66,97.74,59.89,97.76Z"/><path d="M71.81,65.2c0,3.91-2.72,5.9-5.62,7.64-4.22,2.54-8.54,4.92-12.8,7.41-1.13.66-.55,1.28.25,1.68,1.74.85,3.51,1.66,5.28,2.46,1.13.52,1.46,1.14.72,2.33-.91,1.45-1.6,3-2.39,4.56-.47.88-1,1.09-2,.59-3.46-1.75-7-3.43-10.45-5.11-4.92-2.35-5.71-6.39-2.05-10.42A10.87,10.87,0,0,1,46,73.83c4.54-2.21,8.48-5.46,13.06-7.61.48-.22.88-.55.83-1.13s-.6-.71-1-.92c-2-1-4.08-2-6.14-3-1.29-.6-1.55-1.36-.77-2.63a44.42,44.42,0,0,0,2.22-4.28,1.39,1.39,0,0,1,2.15-.76c3.66,1.85,7.38,3.6,11,5.54C70.37,60.72,71.78,62.82,71.81,65.2Z"/></svg>