<svg xmlns="http://www.w3.org/2000/svg" viewBox="0 0 120 120"><defs><style>.a{fill:#0054a7;}</style></defs><path class="a" d="M59.49,8.23c29.56.08,51.44,23.29,51.83,50.45a51.76,51.76,0,0,1-52.44,53.08c-26.5-.23-52-23.38-50.11-55.28A51.36,51.36,0,0,1,59.49,8.23ZM43.84,71.5c0,8.29,0,16.58,0,24.87,0,5.51.1,5.51,5.57,5.42,2.42,0,2.67-.35,2.68-2.73,0-5.91,0-11.81.14-17.72a7.24,7.24,0,0,1,6.65-7.08c6.46-.53,12.93.3,19.39.13,1.07,0,1.16.54,1,1.49-.54,2.77-1,5.55-1.39,8.34-.29,2.26,1.11,3.27,3,2.14,2.27-1.33,4.39-2.9,6.54-4.4,4.78-3.33,9.57-6.64,14.3-10,1.82-1.29,1.93-2.69.08-3.93-2.34-1.56-4.12-3.74-6.57-5.19a121.11,121.11,0,0,1-12.57-8.92,3.7,3.7,0,0,0-3.7-.82c-1.33.6-.85,2.09-.76,3.23a32.92,32.92,0,0,0,1.06,7.05c.53,1.7-.13,2.06-1.71,2-5.46-.06-10.93,0-16.39-.07a15.38,15.38,0,0,0-7.52,1.31c-1,.51-1.42.19-1.39-.88.19-7.15.31-14.3.08-21.46-.1-3.27.13-3.34,3.39-2.64,2.32.51,4.62,1.17,7,1.57,1.69.29,2.59-.92,2.1-2.55a6.37,6.37,0,0,0-.91-1.85C61.24,35,58.62,31.22,56,27.43c-2-2.87-4-5.73-6.08-8.59-.9-1.27-1.92-1.3-3-.18a13.23,13.23,0,0,0-1.38,1.78c-2.11,3.17-4.44,6.18-6.48,9.41s-4.57,6.29-6.83,9.45c-.58.81-1.12,1.75-.45,2.78s1.67,1,2.7.77c2.28-.47,4.55-1,6.83-1.42s2.83.06,2.86,2.38C44.27,53,43.72,62.27,43.84,71.5Z"/></svg>