<svg xmlns="http://www.w3.org/2000/svg" viewBox="0 0 120 120"><defs><style>.a{fill:#0054a7;}.b{fill:#ce0000;}</style></defs><circle class="a" cx="60" cy="60" r="40.54"/><path class="b" d="M109.64,61.94c0-.61,0-1.23,0-1.85,0-.16,0-.32,0-.48V59.5c0-.16,0-.32,0-.49A49.35,49.35,0,0,0,83.6,16.18l-.17-.1-.61-.3a48.78,48.78,0,0,0-23-5.47h-.25a49.52,49.52,0,0,0-49.3,49.82c0,.08,0,.16,0,.24v.09c0,.71,0,1.42.08,2.13v.13a49.59,49.59,0,0,0,21.72,38.43l.52.36.91.57c.41.26.82.52,1.24.76l.29.17a49.09,49.09,0,0,0,20.69,6.49l.44,0c.65,0,1.29.09,1.94.12s1.31,0,2,0c.11,0,.23,0,.35,0H61a49.36,49.36,0,0,0,48.5-45.34c0-.33.05-.67.07-1S109.62,62.41,109.64,61.94Zm-55,36.27c-.48-.06-.95-.14-1.42-.22a37.46,37.46,0,0,1-15.5-6.78c-2.48-1.8-2.41-1.71-.22-3.89Q48.79,76.1,60,64.81l15.4,15.36c2.72,2.7,5.43,5.41,8.2,8.06,1,.92.74,1.52-.19,2.22-6.9,5.12-14.49,8-25.94,8-.86,0-1.72-.13-2.57-.23ZM26.14,78.07c-.12-.22-.22-.44-.34-.67-.23-.45-.44-.91-.66-1.38-2.33-5.1-3.6-11-3.62-18.53A41.15,41.15,0,0,1,22.43,51a42,42,0,0,1,6-12.93c1.94-2.87,2-2.8,4.43-.34Q44,48.87,55.21,60q-7.68,7.71-15.38,15.41c-2.7,2.72-5.41,5.43-8.06,8.2-.92,1-1.52.74-2.22-.19A45.52,45.52,0,0,1,27,79.56C26.69,79.07,26.41,78.58,26.14,78.07ZM44.86,24.71A39.57,39.57,0,0,1,54,21.87a30.3,30.3,0,0,1,5.32-.34A38.54,38.54,0,0,1,75.86,25,45.8,45.8,0,0,1,82,28.43c2.87,1.94,2.8,2,.34,4.43Q71.15,44,60,55.2,48.13,43.38,36.24,31.59c-.56-.55-.74-1-.51-1.46A44.13,44.13,0,0,1,44.86,24.71ZM91.21,82.3c-1.8,2.48-1.71,2.41-3.89.22Q76.11,71.21,64.82,60,76.63,48.13,88.41,36.24c.55-.56,1-.74,1.47-.5a38.44,38.44,0,0,1,3.48,5.06l.3.54.55,1,.06.13a37.44,37.44,0,0,1,2.83,7.37A40.91,40.91,0,0,1,98.47,58c0,.43,0,.87,0,1.3a38.6,38.6,0,0,1-3.17,16A40.58,40.58,0,0,1,91.21,82.3Z"/></svg>