<svg xmlns="http://www.w3.org/2000/svg" viewBox="0 0 120 120"><defs><style>.a{fill:#c90106;}</style></defs><path class="a" d="M60.07,104.24q-24.45,0-48.9,0c-.64,0-1.46.27-1.86-.41s.34-1.21.66-1.76Q16.78,90.3,23.6,78.54c5.25-9.11,10.46-18.24,15.71-27.36q9.63-16.71,19.32-33.4c.42-.73.33-2,1.44-2.07s1,1.28,1.47,2q7.4,12.67,14.74,25.38,9.94,17.22,19.84,34.46,6.75,11.7,13.47,23.41c1.87,3.25,1.87,3.3-2,3.3q-23.76,0-47.54,0Zm0-10.09v.06c4.7,0,9.4.09,14.1,0,5.76-.14,11.53-.07,17.29,0,.53,0,1.19.31,1.54-.29s-.22-1-.49-1.5Q80.23,71.13,68,49.91c-2.37-4.11-4.65-8.28-7-12.43-.22-.39-.38-.87-.93-.85s-.69.47-.88.89c-.3.66-.62,1.31-1,1.94q-6,10.47-12.07,20.93L27.59,92.51c-.24.42-.69.81-.34,1.35s.8.29,1.23.29Z"/><path d="M66.66,58.93a43.7,43.7,0,0,1,0,5.37,4.76,4.76,0,0,0,1.8,4.4C70.26,70.4,72,72.25,73.8,74a3.11,3.11,0,0,1,1,2.51c-.06,4.76-.08,9.52,0,14.27,0,1.69-.81,1.81-2.09,1.78s-2.06-.16-2-1.85c.17-4.42.11-8.84.14-13.26a3,3,0,0,0-1.18-2.14c-2.06-2-4.11-4.12-6.18-6.17a3.1,3.1,0,0,1-1-2.39c.05-4.76.16-9.52,0-14.27-.07-2.18,1.27-1.77,2.49-1.89,1.53-.15,1.75.69,1.7,2-.08,2.12,0,4.25,0,6.38Z"/><path d="M57.86,71.61c0,6.44,0,12.87,0,19.31,0,1.57-.93,1.71-2.1,1.63-1-.06-2.19.19-2.13-1.4.36-9.23.08-18.46.14-27.7a110.93,110.93,0,0,0-.16-11.24c-.13-1.38.6-1.65,1.7-1.61s2.52-.39,2.51,1.53q0,4,0,8.06V71.61Z"/></svg>