<svg xmlns="http://www.w3.org/2000/svg" viewBox="0 0 120 120"><defs><style>.a{fill:#fff;}</style></defs><rect x="16.5" y="47.71" width="87" height="24"/><path class="a" d="M39.25,52.94l-1.8,13.64H32.06L30,52.94h3.74c.44,3.76.74,6.94.93,9.54.18-2.63.38-5,.58-7l.25-2.54Z"/><path class="a" d="M48,60.93q0,2.05-.09,2.91a3.3,3.3,0,0,1-.61,1.56,3.19,3.19,0,0,1-1.38,1.09,5.05,5.05,0,0,1-2,.38,5.16,5.16,0,0,1-2-.36,3.25,3.25,0,0,1-1.4-1.07,3.31,3.31,0,0,1-.63-1.56,28.07,28.07,0,0,1-.1-3V58.6a27.8,27.8,0,0,1,.1-2.91,3.21,3.21,0,0,1,2-2.65,4.89,4.89,0,0,1,2-.38,5.12,5.12,0,0,1,2,.36,3.26,3.26,0,0,1,2,2.63,28.07,28.07,0,0,1,.1,3Zm-3.54-4.48a4.23,4.23,0,0,0-.11-1.22.42.42,0,0,0-.43-.26.49.49,0,0,0-.43.21,3.07,3.07,0,0,0-.14,1.27v6.37a6.64,6.64,0,0,0,.09,1.46.43.43,0,0,0,.45.28.44.44,0,0,0,.47-.32,7.22,7.22,0,0,0,.1-1.52Z"/><path class="a" d="M49.28,52.94h5.91v2.73H52.82v2.59H55v2.6H52.82v3h2.61v2.73H49.28Z"/><path class="a" d="M63.36,52.94v2.73h-2.1V66.58H57.71V55.67h-2.1V52.94Z"/><path class="a" d="M64.17,52.94h3.57a8.43,8.43,0,0,1,2.23.23,2.44,2.44,0,0,1,1.17.66,2.24,2.24,0,0,1,.53,1,8.82,8.82,0,0,1,.14,1.89V58a4.92,4.92,0,0,1-.27,1.9,1.83,1.83,0,0,1-1,.92,4.57,4.57,0,0,1-1.88.32h-1v5.49H64.17Zm3.55,2.34v3.47H68a.82.82,0,0,0,.68-.24,1.82,1.82,0,0,0,.19-1V56.4a1.34,1.34,0,0,0-.22-.91A1.39,1.39,0,0,0,67.72,55.28Z"/><path class="a" d="M78.53,52.94l2,13.64H76.94l-.19-2.45H75.48l-.22,2.45H71.6l1.81-13.64Zm-1.88,8.77q-.27-2.31-.54-5.72-.54,3.91-.68,5.72Z"/><path class="a" d="M81.16,52.94h2.66a16.17,16.17,0,0,1,3.47.24,2.65,2.65,0,0,1,1.38.78,2.51,2.51,0,0,1,.59,1.2,17.76,17.76,0,0,1,.12,2.6v4.77A11.48,11.48,0,0,1,89.21,65a1.91,1.91,0,0,1-.61,1,2.6,2.6,0,0,1-1.06.49,9.89,9.89,0,0,1-1.9.13H81.16Zm3.55,2.34v9c.51,0,.83-.1.94-.31a4.4,4.4,0,0,0,.18-1.67V57a7.06,7.06,0,0,0-.06-1.19.57.57,0,0,0-.27-.38A1.76,1.76,0,0,0,84.71,55.28Z"/></svg>