<svg xmlns="http://www.w3.org/2000/svg" viewBox="0 0 120 120"><defs><style>.a{fill:#ffa300;}</style></defs><path d="M3.86,59.73c-.09-1.41.8-2.32,1.67-3.19Q15.61,46.47,25.72,36.42,39.25,22.89,52.77,9.32c1.47-1.47,2.95-2.93,4.51-4.3,1.79-1.56,3.15-1.56,4.9.08,2.42,2.27,4.75,4.64,7.1,7l38.44,38.39c2.3,2.3,4.63,4.58,6.9,6.92,2,2.12,2,3.77,0,5.82Q88.85,89,63.06,114.73c-2,2-3.73,1.89-6-.34Q46.52,103.86,36,93.3,20.86,78.21,5.77,63.13C4.82,62.18,3.76,61.27,3.86,59.73Zm110.15,0a2.37,2.37,0,0,0-.88-1.4L62.39,7.67C60,5.23,60,5.24,57.61,7.62Q45.22,20,32.8,32.44,20.22,45,7.58,57.56c-2.12,2.09-2.94,1.71,0,4.61Q15.27,69.94,23,77.68l35.11,35.05c1.67,1.67,1.76,1.66,3.49,0q4.92-4.86,9.82-9.74Q85.54,88.87,99.61,74.79,106.3,68.1,113,61.4C113.41,60.93,114,60.49,114,59.74Z"/><path class="a" d="M96.73,59.55c0,.78-.53,1.1-.92,1.48L61.69,95.15a7.89,7.89,0,0,0-.7.72c-.7.94-1.26,1-2.15.08Q41.49,78.51,24,61.14c-1.19-1.18-1.1-1.82,0-3C31.51,50.84,38.88,43.42,46.27,36c4-4,8.13-8.07,12.14-12.15,1.06-1.08,1.69-1.12,2.84,0,6.92,7,14,13.85,20.93,20.79C86.8,49.31,91.36,54,95.94,58.61A11.62,11.62,0,0,1,96.73,59.55Z"/></svg>