<svg xmlns="http://www.w3.org/2000/svg" viewBox="0 0 120 120"><defs><style>.a{fill:#0054a7;}.b{fill:#fff;}</style></defs><rect class="a" x="9" y="12.5" width="102" height="95" rx="4.83"/><path class="b" d="M32.19,87.73v13.64H28.65V95.64H27.59v5.73H24V87.73h3.55v4.88h1.06V87.73Z"/><path class="b" d="M41.72,95.72q0,2.06-.09,2.91a3.3,3.3,0,0,1-.61,1.56,3.27,3.27,0,0,1-1.38,1.09,5.05,5.05,0,0,1-2,.38,5.12,5.12,0,0,1-2-.36,3.27,3.27,0,0,1-1.4-1.07,3.31,3.31,0,0,1-.63-1.56,28.19,28.19,0,0,1-.1-3V93.39c0-1.37,0-2.35.09-2.92a3.34,3.34,0,0,1,.61-1.56,3.25,3.25,0,0,1,1.38-1.08,4.89,4.89,0,0,1,2-.38,5.32,5.32,0,0,1,2,.35A3.21,3.21,0,0,1,41,88.88a3.27,3.27,0,0,1,.63,1.56,28.07,28.07,0,0,1,.1,3Zm-3.54-4.48A4.18,4.18,0,0,0,38.07,90a.41.41,0,0,0-.43-.27.5.5,0,0,0-.43.22,3,3,0,0,0-.15,1.27v6.37a6.38,6.38,0,0,0,.1,1.46.43.43,0,0,0,.45.28.43.43,0,0,0,.46-.32,6.39,6.39,0,0,0,.11-1.53Z"/><path class="b" d="M50.56,91.86H47.27v-1a2,2,0,0,0-.13-.9.47.47,0,0,0-.42-.2.55.55,0,0,0-.49.27,1.48,1.48,0,0,0-.16.79,2.32,2.32,0,0,0,.18,1,2.7,2.7,0,0,0,1,.83,10.13,10.13,0,0,1,3,2.31,5.28,5.28,0,0,1,.61,2.9,5,5,0,0,1-.34,2.15,2.62,2.62,0,0,1-1.31,1.16,5.27,5.27,0,0,1-2.28.47,5.07,5.07,0,0,1-2.43-.54,2.68,2.68,0,0,1-1.32-1.37,7,7,0,0,1-.31-2.37v-.89h3.29v1.66a2.17,2.17,0,0,0,.14,1,.55.55,0,0,0,.5.22.56.56,0,0,0,.52-.28,1.51,1.51,0,0,0,.18-.82,2.56,2.56,0,0,0-.33-1.58,10.73,10.73,0,0,0-1.66-1.24,17.36,17.36,0,0,1-1.76-1.27A3.08,3.08,0,0,1,43,93.07,6.33,6.33,0,0,1,43.15,89a2.74,2.74,0,0,1,1.29-1.14,5.24,5.24,0,0,1,2.16-.4,5.62,5.62,0,0,1,2.36.44A2.5,2.5,0,0,1,50.24,89a5.74,5.74,0,0,1,.32,2.3Z"/><path class="b" d="M52,87.73h3.57a8.49,8.49,0,0,1,2.23.23,2.44,2.44,0,0,1,1.17.66,2.2,2.2,0,0,1,.53,1,9.53,9.53,0,0,1,.14,1.89v1.19a4.92,4.92,0,0,1-.27,1.9,1.83,1.83,0,0,1-1,.92,4.74,4.74,0,0,1-1.88.32h-1v5.49H52Zm3.54,2.34v3.47h.26a.81.81,0,0,0,.68-.24,1.75,1.75,0,0,0,.19-1V91.19a1.29,1.29,0,0,0-.22-.91A1.37,1.37,0,0,0,55.51,90.07Z"/><path class="b" d="M64.17,87.73v13.64H60.63V87.73Z"/><path class="b" d="M72.74,87.73v2.73h-2.1v10.91H67.09V90.46H65V87.73Z"/><path class="b" d="M79,87.73l2,13.64H77.39l-.19-2.45H75.94l-.22,2.45H72.06l1.8-13.64ZM77.11,96.5q-.27-2.31-.54-5.73c-.36,2.62-.59,4.52-.68,5.73Z"/><path class="b" d="M88.18,87.73l2,13.64H86.59l-.19-2.45H85.13l-.22,2.45H81.25l1.81-13.64ZM86.3,96.5q-.27-2.31-.54-5.73c-.36,2.62-.59,4.52-.68,5.73Z"/><path class="b" d="M94.36,87.73V98.64h2.16v2.73H90.81V87.73Z"/><path class="b" d="M37.62,18.69h12V42.18H70.41V18.69h12V80.93h-12V53.64H49.63V80.93h-12Z"/></svg>