<svg xmlns="http://www.w3.org/2000/svg" viewBox="0 0 120 120"><defs><style>.a{fill:#2b2928;}</style></defs><path class="a" d="M59.73,7.41a52.59,52.59,0,1,0,52.94,52.25A52.41,52.41,0,0,0,59.73,7.41ZM59,107.34a47,47,0,0,1-24.05-7.25L61.51,73.48a5.7,5.7,0,0,1-.19-2.93,2.34,2.34,0,0,0,0-1,.76.76,0,0,0-.18-.16c-.12-.09-.22-.19-.33-.28L59,71v0a5.76,5.76,0,0,1-1.57,4.47,5.58,5.58,0,0,1-4.27,1.34L32,98.05a47.69,47.69,0,0,1-4.1-3.4L48.61,73.89a5.77,5.77,0,0,1-.47-2.33c0-.13,0-.27,0-.42H46.36l-21,21A46.24,46.24,0,0,1,22,88L38.86,71.14H37.45v0H34a5.32,5.32,0,0,1-1.32,4.22,5.25,5.25,0,0,1-4,1.57h-.55L20,85A47.27,47.27,0,0,1,60.39,12.85,46.14,46.14,0,0,1,85,20L56.63,48.38c.12.24.24.47.34.73.24.59.46,1.17.68,1.77.14.36.27.72.41,1.07L88,22.05a47.83,47.83,0,0,1,4.11,3.4L72.89,44.62c1.73-.16,3.49-.25,5.26-.27L94.55,28A47.55,47.55,0,0,1,98,32L85.36,44.64c1.48.13,3,.3,4.47.52L100,35a46.84,46.84,0,0,1,7.29,25.42A47.35,47.35,0,0,1,59,107.34Z"/><path class="a" d="M57.71,58.38c-2.1-2.3-2.87-5.21-4-8a2.83,2.83,0,0,0-2.47-1.92,68.45,68.45,0,0,0-20.16,0,3,3,0,0,0-2.66,2.1c-.87,2.16-1.35,4.56-2.89,6.37a4.64,4.64,0,0,0-1.28,3.65,27.58,27.58,0,0,1,0,3.52,2.88,2.88,0,0,0,1,2.53c1.64,1.19,1.85,2.72,1.51,4.51-.26,1.4.33,2.12,1.76,2.19s2.16-.63,2-2.14c-.07-.64,0-1.29-.08-1.93-.1-1.28.46-1.78,1.76-1.75,2.93.06,5.86,0,8.79,0v.06c2.23,0,4.46,0,6.69,0,4,0,4,0,4,3.91,0,1.17.44,1.74,1.61,1.81,1.71.11,2.25-.44,2.22-2.26,0-1.14-.59-2.61.43-3.35,2.16-1.57,2.28-3.67,2.11-6C57.93,60.65,58.54,59.29,57.71,58.38ZM27,64.33c-1,0-1-.75-1.05-1.48,0-.46,0-.93,0-1.4,0-.29,0-.59,0-.88,0-.73-.22-1.75.84-1.83s1.2.89,1.21,1.75,0,1.52,0,2.28S27.94,64.29,27,64.33Zm17.37-.17H37.89c-1.1,0-1.81-.4-1.8-1.62S37,61.1,38,61.13s2.1,0,3.15,0v.15l3.14-.18c1-.07,1.76.25,1.81,1.39S45.51,64.17,44.37,64.16Zm8.75-9.52c-.14.9-.86.8-1.5.8H41.08c-3.57,0-7.14,0-10.71,0-1.24,0-1.54-.48-1.19-1.64.73-2.44,1.93-3.8,4.85-4a86.45,86.45,0,0,1,15.6.26C51.18,50.28,53.37,53.09,53.12,54.64Z"/><path class="a" d="M95.53,58.47c-1.93-2.55-2.84-5.49-4.09-8.32a2.39,2.39,0,0,0-2-1.51,66.38,66.38,0,0,0-20.34,0,3,3,0,0,0-2.69,2.11c-.79,2.07-1.25,4.38-2.69,6.08a5.68,5.68,0,0,0-1.43,4.49,20.27,20.27,0,0,1,0,2.81,2.88,2.88,0,0,0,1,2.54c1.62,1.2,1.8,2.76,1.49,4.53-.26,1.45.42,2.09,1.83,2.11s1.93-.63,1.77-2c-.07-.64-.06-1.29-.1-1.93-.09-1.32.42-1.92,1.84-1.88,2.93.08,5.87,0,8.8,0v0H85.6c4,0,4.05,0,4.09,4,0,1.13.47,1.6,1.55,1.66,1.55.1,2.09-.42,2.07-2,0-1.3-.53-2.69.7-3.8C95.67,65.88,96.86,60.24,95.53,58.47ZM65,64.36c-1.81,0-1-1.7-1.15-2.74a9.25,9.25,0,0,1,0-1.58c0-.68.14-1.37,1-1.39s1.15.68,1.2,1.43c0,.52,0,1.05,0,1.72C65.87,62.65,66.66,64.33,65,64.36Zm17.57-.09c-2.34,0-4.68,0-7,0a1.52,1.52,0,0,1-1.7-1.76c0-1.15.72-1.49,1.74-1.47h3.51v.11c1.11,0,2.22-.12,3.33-.16a1.44,1.44,0,0,1,1.68,1.57C84.18,63.6,83.69,64.25,82.61,64.27Zm8.59-9.33c-.26.75-.89.63-1.47.63H79c-3.57,0-7.15,0-10.72,0-1.27,0-1.79-.41-1.28-1.68.38-.92.79-1.83,1.15-2.76a1.8,1.8,0,0,1,1.67-1.07,67,67,0,0,1,18.38,0C89.44,50.24,91.58,53.81,91.2,54.94Zm1.86,9.5a.91.91,0,0,1-.94-.86c-.05-.7,0-1.4,0-2.09h0c0-.59,0-1.17,0-1.75s.28-1,.91-1.08a1,1,0,0,1,1.11.89c.08,1.33.08,2.67,0,4A.91.91,0,0,1,93.06,64.44Z"/></svg>