<svg xmlns="http://www.w3.org/2000/svg" viewBox="0 0 120 120"><defs><style>.a{fill:#ffa300;}</style></defs><rect class="a" x="6.5" y="35" width="107" height="50" rx="3.91"/><path d="M15.57,50.05h4.82a12.63,12.63,0,0,1,3.46.35,3.43,3.43,0,0,1,1.9,1.44,6.43,6.43,0,0,1,.73,3.5A3.78,3.78,0,0,1,26,57.61a3.58,3.58,0,0,1-2,1,3.56,3.56,0,0,1,2.28,1.26,4.9,4.9,0,0,1,.59,2.69v1.72a6.84,6.84,0,0,1-.43,2.8A2.3,2.3,0,0,1,25,68.31a14.21,14.21,0,0,1-3.86.33H15.57Zm4.83,3.18v4.13h.48c.48,0,.78-.12.91-.35a5.65,5.65,0,0,0,.2-2,3.44,3.44,0,0,0-.16-1.23.79.79,0,0,0-.42-.44A4,4,0,0,0,20.4,53.23Zm0,7v5.2a2.09,2.09,0,0,0,1.31-.32A2.3,2.3,0,0,0,22,63.73V62a2.56,2.56,0,0,0-.25-1.45A2.36,2.36,0,0,0,20.4,60.26Z"/><path d="M39.55,50.05V62.47a21.78,21.78,0,0,1-.14,3,4,4,0,0,1-.81,1.76,4.3,4.3,0,0,1-1.79,1.37A6.73,6.73,0,0,1,34.2,69a7.31,7.31,0,0,1-2.94-.55A4.45,4.45,0,0,1,29.35,67a4,4,0,0,1-.75-1.86c-.07-.66-.11-2-.11-4.13v-11h4.83V64a5.38,5.38,0,0,0,.14,1.56.51.51,0,0,0,.53.33.55.55,0,0,0,.59-.37,6.85,6.85,0,0,0,.13-1.76V50.05Z"/><path d="M51.67,55.67H47.18V54.3A2.57,2.57,0,0,0,47,53.07a.61.61,0,0,0-.57-.27.73.73,0,0,0-.66.36,2.07,2.07,0,0,0-.23,1.08,3,3,0,0,0,.26,1.4,3.62,3.62,0,0,0,1.36,1.14,13.76,13.76,0,0,1,4.07,3.14,7.21,7.21,0,0,1,.84,4,7,7,0,0,1-.47,2.93,3.66,3.66,0,0,1-1.79,1.57A7.08,7.08,0,0,1,46.7,69a6.94,6.94,0,0,1-3.31-.73,3.66,3.66,0,0,1-1.8-1.88,9.64,9.64,0,0,1-.42-3.22V62h4.49v2.26a3,3,0,0,0,.19,1.35.73.73,0,0,0,.67.29.79.79,0,0,0,.72-.37,2.17,2.17,0,0,0,.23-1.13A3.57,3.57,0,0,0,47,62.23a14.78,14.78,0,0,0-2.27-1.69,22.79,22.79,0,0,1-2.39-1.73,4.14,4.14,0,0,1-1-1.49A6.75,6.75,0,0,1,41,54.88a6.66,6.66,0,0,1,.55-3.12,3.65,3.65,0,0,1,1.76-1.55,7,7,0,0,1,2.94-.55,7.79,7.79,0,0,1,3.21.6,3.41,3.41,0,0,1,1.76,1.54,8.22,8.22,0,0,1,.43,3.14Z"/><path d="M64.7,50.05V68.64H59.87V60.83H58.42v7.81H53.58V50.05h4.84V56.7h1.45V50.05Z"/><path d="M75,50.05l2.77,18.59h-5l-.25-3.34H70.84l-.29,3.34h-5L68,50.05ZM72.44,62c-.25-2.1-.49-4.71-.74-7.81-.49,3.56-.8,6.17-.93,7.81Z"/><path d="M83.42,50.05V64.92h2.94v3.72H78.59V50.05Z"/><path d="M95.59,50.05v3.72H92.72V68.64H87.88V53.77H85V50.05Z"/><path d="M96.69,50.05h8.06v3.72h-3.22v3.52h3v3.54h-3v4.09h3.54v3.72H96.69Z"/></svg>