<svg xmlns="http://www.w3.org/2000/svg" viewBox="0 0 120 120"><defs><style>.a{fill:#c90106;}.b{fill:#2b2928;}</style></defs><path class="a" d="M7.5,60A52.5,52.5,0,1,0,60,7.5,52.51,52.51,0,0,0,7.5,60Zm11,0A41.5,41.5,0,1,1,60,101.5,41.5,41.5,0,0,1,18.5,60Z"/><polygon class="b" points="80.65 88.5 89.65 69 71.65 69 80.65 88.5"/><path class="b" d="M60.15,29.5A26.53,26.53,0,0,0,33.65,56V85h12V56a14.5,14.5,0,0,1,29,0V75.5h12V56A26.53,26.53,0,0,0,60.15,29.5Z"/><rect class="a" x="50.5" y="13.5" width="13" height="93" transform="translate(59.12 -22.73) rotate(45)"/></svg>