<svg xmlns="http://www.w3.org/2000/svg" viewBox="0 0 120 120"><defs><style>.a{fill:#0054a7;}</style></defs><path class="a" d="M6.36,59.71a53.65,53.65,0,1,1,107.28,1.37A53.65,53.65,0,0,1,6.36,59.71Zm105,.36c.44-27-22.72-50.81-49.62-51.48a51.32,51.32,0,1,0,49.62,51.48Z"/><path class="a" d="M96.59,101.23A67.82,67.82,0,0,0,106.43,89c2.84-4.35,4.59-9.23,6.64-14A50.37,50.37,0,0,1,96.59,101.23Z"/><path class="a" d="M59.76,108.3c-27,.2-47.95-21.82-48.31-47.54A48.24,48.24,0,0,1,60,11.4c27.28,0,48.71,21.72,48.42,49.32A48,48,0,0,1,59.76,108.3ZM83.14,87a4,4,0,0,0,4.28-4.87L80,42.68c-.64-3.4-1.25-6.81-1.94-10.2A4.14,4.14,0,0,0,74.58,29c-1.74-.33-2.75.83-3.59,2.15-.26.4-.49.82-.74,1.23q-4.44,7.45-8.9,14.91c-.45.76-.86,1.06-1.64.28C53.43,41.2,47.1,34.86,40.83,28.48c-.87-.88-1.43-.76-2.21.05Q34.54,32.81,30.39,37c-2.36,2.39-2.4,2.38,0,4.79q8.4,8.45,16.83,16.87c1.55,1.55,1.59,1.58-.34,2.74q-7.83,4.73-15.68,9.37c-1.46.87-2.45,2.09-2.14,3.8a4,4,0,0,0,3.38,3.3c2.69.54,5.4,1,8.1,1.48l31,5.5C75.57,85.57,79.56,86.31,83.14,87Z"/></svg>