<svg xmlns="http://www.w3.org/2000/svg" viewBox="0 0 120 120"><defs><style>.a{fill:#0054a7;}.b{fill:#fff;}</style></defs><rect class="a" x="28.57" y="5" width="62.86" height="110" rx="4.83"/><rect class="b" x="35.5" y="16.55" width="48.99" height="48.99"/><path d="M60,38.67a29.82,29.82,0,0,1-.12,7.84,6.62,6.62,0,0,0,.32,3.73c.4,1,.88,1.22,1.88.73a2.08,2.08,0,0,1,2.86.69c.86,1.18,1.8,2.3,1.85,3.89a3.29,3.29,0,0,1-2.32,3.67,7.18,7.18,0,0,1-5.55-.35,2,2,0,0,1-.9-.8,23.39,23.39,0,0,1-2.68-5.7c-1.43-4.07-1.58-8.3-1.59-12.5a28.42,28.42,0,0,1,.87-8.59,16.14,16.14,0,0,1,3.48-6.49,7.33,7.33,0,0,1,6.43-2.13c.76.1,1.44,1.48,1.28,2.65a17.68,17.68,0,0,1-1.52,5.28,1.77,1.77,0,0,1-2.6.88c-.86-.38-1.56.16-1.65,1.28,0,.47,0,1,0,1.43Z"/></svg>