<svg xmlns="http://www.w3.org/2000/svg" viewBox="0 0 120 120"><defs><style>.a{fill:#0054a7;}</style></defs><path class="a" d="M57.12,6.5a67.79,67.79,0,0,1,13,.57,48.25,48.25,0,0,1,9.27,2.7A31,31,0,0,1,84.61,12c5.59,3.38,11,6.9,15.38,11.91a51.76,51.76,0,0,1,8.4,12.56,56.54,56.54,0,0,1,4.28,13.7A56.13,56.13,0,0,1,105.79,88c-3.15,5.36-7.53,9.66-12.3,13.63a58.21,58.21,0,0,1-14.13,8.17c-8.92,3.94-18.2,4.3-27.63,3.25a38.87,38.87,0,0,1-8.47-2.1,50.32,50.32,0,0,1-7.36-3A52.52,52.52,0,0,1,19.4,94.51a78.79,78.79,0,0,1-6.9-9.85,33.73,33.73,0,0,1-3.42-8.89c-1-4.2-2.39-8.31-2.55-12.71A53,53,0,0,1,7,53.71c.89-6.22,2.2-12.35,5.13-18,2.61-5,5.63-9.76,9.91-13.58a30.6,30.6,0,0,0,2.47-2.62A24.46,24.46,0,0,1,32.18,14c2.43-1.21,4.57-2.91,7.2-3.79C45.13,8.27,50.83,6.2,57.12,6.5ZM16.39,60.13h0q0,4.08,0,8.16c0,2.56,1.07,3.54,3.66,3.31s4.89-.44,7.34-.58c7.19-.4,14.33-1.42,21.51-2,6.66-.53,13.3-1.25,19.95-1.87,1.39-.13,2.07.49,1.82,1.83-.55,2.92-.28,5.94-1.07,8.84a1.71,1.71,0,0,0,.85,2,1.62,1.62,0,0,0,2-.44A6.56,6.56,0,0,1,74.3,78c3.34-1.35,6-3.72,8.94-5.73,3.69-2.55,7.56-4.81,11.24-7.38,2.35-1.64,4.56-3.48,7-4.95.89-.53.91-1.42,0-2-3.33-2.24-6.77-4.3-10.09-6.57-4.38-3-9-5.72-13.47-8.54-2.21-1.38-4.45-2.73-6.69-4.07a1.55,1.55,0,0,0-1.77-.07c-.42.27-.37.7-.29,1.13.47,2.67.91,5.35,1.4,8,.55,3,.29,3.28-2.76,3.09l-.31,0c-6.78-.43-13.56-.69-20.35-.84q-6.1-.13-12.22-.25c-5.39-.08-10.74-.82-16.13-.7-2,0-2.39.41-2.41,2.41C16.37,54.38,16.39,57.26,16.39,60.13Z"/></svg>