<svg xmlns="http://www.w3.org/2000/svg" viewBox="0 0 120 120"><defs><style>.a{fill:#c90106;}</style></defs><path class="a" d="M60,103.84q-24,0-48,0c-.79,0-1.83.39-2.29-.51s.5-1.37.87-2Q15.8,92.21,21,83.13q9.12-15.85,18.24-31.72,9.58-16.63,19.2-33.26c1.56-2.72,1.57-2.75,3.14,0q9.84,17,19.65,34,14,24.36,28,48.73c1.68,2.92,1.69,3-1.7,3-15.88,0-31.75,0-47.63,0Zm.22-10.18h31.3c.42,0,.94.22,1.17-.32s-.25-.81-.46-1.18Q86.07,81.59,79.94,71C73.82,60.38,67.75,49.74,61.62,39.12c-1.53-2.66-1.58-2.62-3.14.08Q50.23,53.54,42,67.87,34.84,80.19,27.7,92.48c-.79,1.36.24,1.18,1,1.18Z"/><path d="M80.3,84.07c.1,2.16-.25,4.33.09,6.49.06.4,0,.82-.41,1s-.75-.11-1-.4c-.83-.88-1.67-1.77-2.5-2.67a1.13,1.13,0,0,0-2,.06c-.72.83-1.52,1.61-2.27,2.43-.34.38-.64.84-1.22.55s-.33-.83-.32-1.32q.09-5.25.12-10.48a2.29,2.29,0,0,0-1.33-2.14c-.91-.48-1.6,0-2.25.54a11.79,11.79,0,0,1-7.94,3.33A11.46,11.46,0,0,1,47.71,70.16a1,1,0,0,0,0-.17c-.89-5.37.58-10.13,3.7-14.49.26-.36.41-.83,1-.78s.62.43.79.78a5.74,5.74,0,0,0,.56,1.2A15.9,15.9,0,0,1,57,69.15a2.42,2.42,0,0,0,1.37,2.63c1.12.57,1.88-.08,2.67-.73,7.72-6.43,16.56-1.6,18.79,4.92C80.7,78.62,80.1,81.38,80.3,84.07Z"/></svg>