<svg xmlns="http://www.w3.org/2000/svg" viewBox="0 0 120 120"><defs><style>.a{fill:#2b2928;}.b{fill:#c90106;}</style></defs><path class="a" d="M61.39,37.74H47.15V25.5L23.46,44.62l10.77,8.7v.58H35l12.2,9.85V53.9H61.39a2.46,2.46,0,0,1,2.46,2.46V95.5H80V56.36A18.64,18.64,0,0,0,61.39,37.74Z"/><path class="b" d="M60,7.5A52.5,52.5,0,1,0,112.5,60,52.51,52.51,0,0,0,60,7.5Zm0,94A41.5,41.5,0,1,1,101.5,60,41.5,41.5,0,0,1,60,101.5Z"/><rect class="b" x="53.5" y="13.5" width="13" height="93" transform="translate(144.85 60) rotate(135)"/></svg>