<svg xmlns="http://www.w3.org/2000/svg" viewBox="0 0 120 120"><defs><style>.a{fill:#0054a7;}</style></defs><path class="a" d="M59.62,109.89c-26.3.54-48.75-21.25-49.18-48.76-.45-28.28,20.69-50.79,49.11-51,26.91-.24,48.73,20.79,50,48C110.78,85.53,87.74,110.8,59.62,109.89ZM98.57,53.3c0-1.3.06-2.61-1.34-3.26s-2.43.13-3.38,1c-1.7,1.58-3.41,3.15-5,4.78-1.48,1.48-1.93,1.48-3-.36q-2.33-3.85-4.62-7.73c-3-4.95-5.91-9.89-8.83-14.85-.91-1.55-1.89-1.86-3.4-.88-1.1.72-2.16,1.5-3.29,2.19-2.23,1.35-2.49,2.49-1,4.76.79,1.21,1.63,2.38,2.37,3.61,3.5,5.87,7,11.76,10.46,17.64,1.25,2.11,1.08,2.83-1.35,3.46-2.2.56-4.26,1.46-6.39,2.2-1.14.39-2.39.86-2.42,2.29s1,2.14,2.16,2.59c7.39,3,14.51,6.59,21.84,9.69,4.45,1.88,4.91,1.62,5.45-3.29C97.61,69.22,97.56,61.22,98.57,53.3Zm-77-1.71c.3,9.23,1.52,18.39,1.77,27.63.05,1.76,1.4,2.29,3.13,1.65,2.58-.94,5.09-2,7.62-3.13,5.4-2.33,10.64-5,16.16-7.08,1.32-.49,2.18-1.35,2-2.81s-1.4-1.75-2.56-2.13c-2.43-.81-4.85-1.64-7.25-2.54-1.14-.43-1.78-1.07-.79-2.4,1.12-1.5,2-3.16,3-4.76,3.73-6.08,7.15-12.36,11.16-18.27.93-1.38.63-2.6-.89-3.22a27,27,0,0,1-4-2.48c-1.84-1.17-2.1-1.25-3.23.63Q40.85,44.11,34.06,55.6c-1,1.74-1.27,1.78-2.71.41-1.94-1.85-3.91-3.66-5.86-5.48a2.58,2.58,0,0,0-3-.53A1.34,1.34,0,0,0,21.54,51.59Z"/></svg>