<svg xmlns="http://www.w3.org/2000/svg" viewBox="0 0 120 120"><defs><style>.a{fill:#c90106;}</style></defs><path class="a" d="M60.11,107.45q-26.26,0-52.55,0c-.69,0-1.57.3-2-.41s.37-1.41.74-2c4.82-8.35,9.68-16.69,14.5-25q8.47-14.72,16.92-29.46,9.59-16.66,19.19-33.32A23.14,23.14,0,0,0,59,13.37c.17-.47.43-.88,1-.87s.79.43,1,.87q8.06,14.1,16.14,28.21Q91.24,66,105.35,90.46c2.9,5,5.65,10.16,8.76,15.07.28.45.7.93.36,1.48s-1,.46-1.63.46q-26.37,0-52.73,0ZM94,96.53c.41.07.89.2,1.16-.2.39-.57-.11-1-.36-1.46q-8-13.78-15.9-27.57-9-15.66-17.94-31.36c-.24-.42-.43-.91-1-.85s-.7.43-.84.84a19.19,19.19,0,0,1-1.81,3.3L25.09,95c-.24.41-.6.82-.26,1.31s.75.27,1.17.27c8.87,0,17.73-.07,26.6-.06,7.26,0,14.51.25,21.76.09C80.9,96.46,87.43,96.59,94,96.53Z"/><path d="M57.59,59.75c0,2.4-.06,4.79,0,7.19a3.71,3.71,0,0,1-1.21,3c-2,2-4,4-6,5.93A4.84,4.84,0,0,0,48.73,80c.18,4.43.11,8.86.11,13.3,0,2-1.52,1.62-2.73,1.62s-1.87-.41-1.76-1.84c.36-5.08.19-10.18.08-15.26A3.49,3.49,0,0,1,45.52,75c2.19-2.13,4.32-4.33,6.51-6.45a3.56,3.56,0,0,0,1.15-2.87c-.14-4.67.12-9.35-.25-14-.12-1.46.7-1.77,1.87-1.7s2.74-.49,2.76,1.56c0,2.76,0,5.51,0,8.27Z"/><path d="M67,58.84a53.27,53.27,0,0,1,0,5.93,4.78,4.78,0,0,0,1.8,4.4c2.11,2,4.08,4.06,6.13,6.07a2.82,2.82,0,0,1,.91,2.23c0,5.22,0,10.43,0,15.65,0,1.85-1.09,1.8-2.38,1.8s-2.19-.17-2.14-1.85c.13-4.68.1-9.36.18-14a3.51,3.51,0,0,0-1.28-2.66C68,74.2,65.76,72,63.54,69.78a3.32,3.32,0,0,1-1-2.58c.06-5,.06-10,.05-14.93,0-2.27,0-2.28,2.65-2.38,1.8-.08,1.88.92,1.84,2.29-.08,2.22,0,4.44,0,6.66Z"/></svg>