<svg xmlns="http://www.w3.org/2000/svg" viewBox="0 0 120 120"><defs><style>.a{fill:#0054a7;}</style></defs><path class="a" d="M111.93,59.5v48.05c0,3.22-1.16,4.44-4.38,4.44H15.43c-1.65,0-3.29,0-4.93,0-1.06,0-1.69-.22-1.93-1.66a49.25,49.25,0,0,1-.49-8.22q0-44.15,0-88.31a14.3,14.3,0,0,1,.25-3,3,3,0,0,1,2.83-2.54C14.76,7.88,18.37,8,22,8q40.67,0,81.31,0c1.85,0,3.67.23,5.54.13,2.6-.15,3.11.66,3.11,3.46Zm-102.42,0h0q0,22.27,0,44.55c0,3.47,1.63,5.17,5.11,5.17q17.34,0,34.68,0H104a4.5,4.5,0,0,0,4.84-4.71q0-28.78,0-57.59,0-16.22,0-32.45a4.64,4.64,0,0,0-4.69-4.72c-6.15,0-12.31.08-18.46.08q-35.79,0-71.59,0a4.33,4.33,0,0,0-4.62,4.52Z"/><path class="a" d="M12,59.48q0-22.36,0-44.73c0-1.93.6-2.56,2.39-2.55q17.84,0,35.65.08H100.5c1.22,0,2.44,0,3.66-.1a1.85,1.85,0,0,1,2.16,2c0,.53,0,1.06,0,1.59,0,11.94-.06,23.88-.06,35.81q0,26.17.07,52.36c0,2.33-.72,2.89-3.08,2.87-9.23-.07-18.46-.07-27.69-.08h-61c-2.1,0-2.58-.53-2.58-2.65V59.48ZM67.36,81.32h0c0-4.35,0-8.7,0-13,0-1.12.3-1.45,1.38-1.14,1.32.38,2.66.69,4,1,4.8,1.15,9.59,2.3,14.39,3.42a4,4,0,0,0,4.55-1.76c1-1.53.19-2.67-.66-3.89Q79,48.7,67,31.45c-1.76-2.52-3.51-5.06-5.39-7.48-1.62-2.08-3.61-2.06-5.38-.1A20,20,0,0,0,54.59,26L27.33,65.73c-.89,1.29-1.53,2.54-.46,4.07a3.62,3.62,0,0,0,4.37,1.73c6-1.44,12-2.89,17.91-4.39,1-.25,1.35,0,1.35,1,0,8.59,0,17.18-.06,25.76,0,2,.14,2.19,2.14,2.2,4.29,0,8.59,0,12.88,0,1.47,0,1.94-.55,1.92-2C67.31,89.91,67.36,85.61,67.36,81.32Z"/></svg>