<svg xmlns="http://www.w3.org/2000/svg" viewBox="0 0 120 120"><defs><style>.a{fill:none;stroke:#c90106;stroke-miterlimit:10;}.b{fill:#0054a7;}.c{fill:#c90106;}.d{fill:#fff;}</style></defs><circle class="a" cx="60" cy="60" r="52.5"/><path class="b" d="M61.5,14.55v91.9a46,46,0,0,0,0-91.9Z"/><path class="c" d="M61.5,7.54v11A41.48,41.48,0,0,1,93.57,84.38L61.5,52.31V70.69L84.38,93.57a41.22,41.22,0,0,1-22.88,7.9v11a52.48,52.48,0,0,0,0-104.92Z"/><path class="d" d="M74.11,37.25l-1.24.47c-.18-.56-.5-.84-1-.84a.68.68,0,0,0-.52.19.58.58,0,0,0-.2.43.57.57,0,0,0,.23.47,5.05,5.05,0,0,0,1,.45,5.44,5.44,0,0,1,1,.48,1.91,1.91,0,0,1,.61.65,2,2,0,0,1,.23,1,2,2,0,0,1-.66,1.57,2.45,2.45,0,0,1-1.76.61,2.28,2.28,0,0,1-2.37-1.87l1.31-.38c.16.69.53,1,1.1,1a1,1,0,0,0,.63-.2.66.66,0,0,0,.24-.53.63.63,0,0,0-.17-.45,2,2,0,0,0-.78-.42,6.23,6.23,0,0,1-1.17-.51,1.84,1.84,0,0,1-.63-.64,1.87,1.87,0,0,1-.25-1,2,2,0,0,1,.59-1.5,2.15,2.15,0,0,1,1.57-.59A2.07,2.07,0,0,1,74.11,37.25Z"/><path class="d" d="M74.63,35.76h4.25V37h-1.4v5.55H76V37H74.63Z"/><path class="d" d="M84.2,39.17c0,2.35-.82,3.52-2.47,3.52a2.09,2.09,0,0,1-1.85-.9,4.52,4.52,0,0,1-.63-2.62c0-2.34.83-3.51,2.48-3.51a2.12,2.12,0,0,1,1.84.88A4.52,4.52,0,0,1,84.2,39.17Zm-1.57,0a5,5,0,0,0-.22-1.83.73.73,0,0,0-1.36,0,4.9,4.9,0,0,0-.22,1.83A5.27,5.27,0,0,0,81,41a.73.73,0,0,0,.69.47.72.72,0,0,0,.68-.45A5.18,5.18,0,0,0,82.63,39.17Z"/><path class="d" d="M85.25,35.76h2a5,5,0,0,1,1.39.15,1.54,1.54,0,0,1,.83.68,2.43,2.43,0,0,1,.33,1.31,2.56,2.56,0,0,1-.27,1.24,1.59,1.59,0,0,1-.75.7,3.57,3.57,0,0,1-1.46.22h-.53v2.53h-1.5Zm1.5,1.11v2h.46c.41,0,.68-.09.79-.28a1.37,1.37,0,0,0,.18-.74,1.18,1.18,0,0,0-.14-.63.58.58,0,0,0-.32-.3,1.39,1.39,0,0,0-.51-.07Z"/><path class="d" d="M63.23,44.63H64.8l1,5.2,1.08-5.2h1.29l-1.67,6.86-1.68,0Z"/><path class="d" d="M68.72,44.63h4.15V45.8H70.22v1.59h2.06v1.17H70.22v1.67h2.65v1.22H68.72Z"/><path class="d" d="M73.6,44.63h2.14a5.76,5.76,0,0,1,1,.06,1.56,1.56,0,0,1,.67.31,1.7,1.7,0,0,1,.54.69,2.55,2.55,0,0,1,.19,1,1.88,1.88,0,0,1-1,1.8l1.25,3H76.76l-.91-2.69H75.1v2.69H73.6Zm1.5,1.11v1.91h.66c.59,0,.88-.33.88-1a1,1,0,0,0-.13-.56.75.75,0,0,0-.3-.29,1.18,1.18,0,0,0-.51-.08Z"/><path class="d" d="M79.18,44.63h2.33a4.68,4.68,0,0,1,1.23.13,1.32,1.32,0,0,1,.7.57,2,2,0,0,1,.28,1.1,1.39,1.39,0,0,1-1,1.47,1.62,1.62,0,0,1,1.16,1.67,1.92,1.92,0,0,1-.32,1.12,1.46,1.46,0,0,1-.77.61,4.48,4.48,0,0,1-1.31.15H79.18Zm1.44,2.76h.48c.48,0,.79-.09.91-.26a1,1,0,0,0,.19-.6A.86.86,0,0,0,82,46c-.12-.16-.39-.24-.8-.24h-.59Zm0,2.89h.73c.69,0,1-.29,1-.89a.86.86,0,0,0-.26-.7,1.28,1.28,0,0,0-.78-.2h-.73Z"/><path class="d" d="M89.61,48q0,3.52-2.48,3.52a2.09,2.09,0,0,1-1.85-.9A4.54,4.54,0,0,1,84.65,48c0-2.34.83-3.51,2.48-3.51a2.12,2.12,0,0,1,1.84.88A4.49,4.49,0,0,1,89.61,48ZM88,48a4.92,4.92,0,0,0-.22-1.84.74.74,0,0,0-1.36,0A4.86,4.86,0,0,0,86.23,48a4.87,4.87,0,0,0,.22,1.82.7.7,0,0,0,.68.48.71.71,0,0,0,.68-.46A5.07,5.07,0,0,0,88,48Z"/><path class="d" d="M90.65,44.63h1.61a4.35,4.35,0,0,1,1.71.29,2.08,2.08,0,0,1,1,1,4.37,4.37,0,0,1,.4,2,5.08,5.08,0,0,1-.24,1.63,2.91,2.91,0,0,1-.63,1.12,1.89,1.89,0,0,1-.88.55,4.34,4.34,0,0,1-1.23.14H90.65Zm1.5,1.17v4.48h.25a1.35,1.35,0,0,0,.81-.2,1.37,1.37,0,0,0,.46-.69A4.78,4.78,0,0,0,93.84,48a3.63,3.63,0,0,0-.19-1.34,1.23,1.23,0,0,0-.47-.64,1.56,1.56,0,0,0-.78-.17Z"/></svg>