<svg xmlns="http://www.w3.org/2000/svg" viewBox="0 0 120 120"><defs><style>.a{fill:#c90106;}</style></defs><path class="a" d="M7.5,60A52.5,52.5,0,1,0,60,7.5,52.51,52.51,0,0,0,7.5,60Zm11,0A41.5,41.5,0,1,1,60,101.5,41.5,41.5,0,0,1,18.5,60Z"/><path d="M49.38,47v3.7H42.23v3.93A4.3,4.3,0,0,1,45.68,53a4.65,4.65,0,0,1,3.61,1.34q1.22,1.33,1.22,5.13v3.3a20.56,20.56,0,0,1-.23,3.61,5.11,5.11,0,0,1-1,2.13A4.9,4.9,0,0,1,47.12,70a9.51,9.51,0,0,1-3.37.52,9.3,9.3,0,0,1-3.92-.78,4.69,4.69,0,0,1-2.42-2.32,11.93,11.93,0,0,1-.71-4.77V61.4h5.77v1.45A21.22,21.22,0,0,0,42.63,66a1,1,0,0,0,1.08,1,.91.91,0,0,0,.69-.28.88.88,0,0,0,.29-.58c0-.21,0-1.12.05-2.73V58.8A4,4,0,0,0,44.47,57a1.08,1.08,0,0,0-1.57-.23,1.12,1.12,0,0,0-.35.52,6.53,6.53,0,0,0-.08,1.3H36.75L37,47Z"/><path d="M55.84,65.56v2.07a8,8,0,0,1-.38,2.67,4,4,0,0,1-1.34,1.78,5.2,5.2,0,0,1-2.15,1V71.39a1.77,1.77,0,0,0,1-1.3H52V65.56Z"/><path d="M69.17,47V62.07h1.64V66H69.17v4.07H63.4V66H56.54V62.07l5-15.11ZM63.4,62.07V52.23l-2.55,9.84Z"/><path d="M83.26,48.6v3h1.56v3H83.26V64.73a5.47,5.47,0,0,0,.19,2.09c.13.14.67.21,1.61.21v3.06H82.73a16.81,16.81,0,0,1-2.82-.16,3,3,0,0,1-1.48-.76,2.5,2.5,0,0,1-.8-1.36,23.19,23.19,0,0,1-.16-3.59V54.59H76.23v-3h1.24v-3Z"/></svg>