<svg xmlns="http://www.w3.org/2000/svg" viewBox="0 0 120 120"><defs><style>.a{fill:#2b2928;}.b{fill:#c90106;}</style></defs><path class="a" d="M58.61,37.74H72.85V25.5L96.54,44.62l-10.77,8.7v.58h-.72l-12.2,9.85V53.9H58.61a2.46,2.46,0,0,0-2.46,2.46V95.5H40V56.36A18.64,18.64,0,0,1,58.61,37.74Z"/><path class="b" d="M7.5,60A52.5,52.5,0,1,0,60,7.5,52.51,52.51,0,0,0,7.5,60Zm11,0A41.5,41.5,0,1,1,60,101.5,41.5,41.5,0,0,1,18.5,60Z"/><rect class="b" x="53.5" y="13.5" width="13" height="93" transform="translate(60 -24.85) rotate(45)"/></svg>