<svg xmlns="http://www.w3.org/2000/svg" viewBox="0 0 120 120"><defs><style>.a{fill:#c90106;}</style></defs><path class="a" d="M60,14h51.23c.46,0,1-.16,1.29.31s0,1-.27,1.45Q100,37.14,87.74,58.5l-23.58,41c-1.11,1.93-2.25,3.85-3.36,5.78-.17.3-.28.68-.7.68s-.65-.42-.86-.78L44.66,79.91Q35.18,63.44,25.71,47q-9-15.63-18-31.23c-.72-1.26-.48-1.69,1-1.69H60Zm-.16,10v0H26.42c-.52,0-1.1-.11-1.42.44s.05,1.1.39,1.58.68,1,1,1.47Q32.6,38.4,38.8,49.24c6.65,11.67,13.65,23.14,19.94,35a1.2,1.2,0,0,0,1.09.76A1.3,1.3,0,0,0,61,84.14c3.17-6.36,7-12.36,10.49-18.52,7.58-13.3,15.3-26.52,23-39.78.68-1.19.35-1.79-1-1.79Z"/></svg>