<svg xmlns="http://www.w3.org/2000/svg" viewBox="0 0 120 120"><defs><style>.a{fill:#0054a7;}.b{fill:#fff;}</style></defs><rect class="a" x="30" y="7.5" width="60" height="105" rx="4.83"/><rect class="b" x="36.62" y="18.53" width="46.76" height="46.76"/><path d="M66.26,60.61c-5.59-.08-11.14-1-16.74-.93-1.06,0-2.12,0-3.18,0-.55,0-1.14-.08-1.14-.81s.55-.91,1.19-.89c1.1,0,2.19.09,3.29,0,1.47,0,2.3-.92,2.17-2.17,0-.28-.05-.6-.37-.71s-.52.16-.68.39a2.85,2.85,0,0,1-2.9,1.33,4.31,4.31,0,0,1-3.54-4.33c0-3.26.63-6.47.91-9.71a49.57,49.57,0,0,1,1.12-5.05c.25-1.25.33-2.53.49-3.79a1.91,1.91,0,0,1,1.5-1.82c1-.27,1.86-1,2.9-1.26.4-.1.45-.49.49-.87.06-.66.13-1.33.23-2,.13-.88.37-1.6,1.55-1.31.59.14.67-.33.67-.81,0-1.69.41-2.21,2.1-2.15,2.59.08,5.16-.11,7.74,0,.92,0,1.51.46,1.54,1.39,0,.71.29,1,1,1.05a1.15,1.15,0,0,1,1.26,1.36c-.23,3.18.09,6.36,0,9.53-.18,4.88-.16,9.76-.06,14.64,0,1.52-.1,3-.14,4.56,0,1.18.22,1.47,1.39,1.47,1.56,0,3.11-.17,4.67,0,.85.08,1.45.4,1.57,1.28S74.6,60.12,74,60.29c-1.83.5-3.73.13-5.6.31C67.68,60.67,67,60.61,66.26,60.61Zm-19.91-9.9c0,.51-.07.9-.09,1.29a8.87,8.87,0,0,0,0,1.26,2.29,2.29,0,0,0,1.94,2c1.08-.06,1.28-1,1.5-1.77a.76.76,0,0,0,0-.21c.11-1.83.29-3.67.3-5.5a67,67,0,0,0-.93-9.79c0-.31,0-.72-.44-.75s-.52.43-.57.77C47.45,42.24,46.28,46.46,46.35,50.71Zm13.7-19c-3,0-3.56-.33-3.37,2.89a1.77,1.77,0,0,1,0,.21c-.13.86.3,1.26,1.12,1.28,1.12,0,2.25.11,3.38.07,1.9-.07,2.05-.28,2-2.21a5.92,5.92,0,0,1,0-.84c.13-.91-.34-1.33-1.17-1.39C61.4,31.67,60.72,31.71,60.05,31.71Zm0-3.41h0c-.7,0-1.41,0-2.11,0-.54,0-1.14.1-1.14.82s.57.82,1.11.86c1.23.08,2.46.13,3.69.17a2.94,2.94,0,0,0,.93-.17.86.86,0,0,0,.65-1,.78.78,0,0,0-.81-.7C61.55,28.28,60.77,28.3,60,28.3Z"/><path class="b" d="M51.77,86.62V88h-4.6V86.85c1.37-2.23,2.17-3.61,2.43-4.14A3.05,3.05,0,0,0,50,81.48a.87.87,0,0,0-.12-.51.42.42,0,0,0-.36-.17.39.39,0,0,0-.35.19,1.51,1.51,0,0,0-.12.74v.79H47.17v-.3a7.72,7.72,0,0,1,.07-1.11,2,2,0,0,1,.36-.8,1.89,1.89,0,0,1,.74-.6,2.75,2.75,0,0,1,1.09-.2,2.64,2.64,0,0,1,1.89.62A2.09,2.09,0,0,1,52,81.69a3.54,3.54,0,0,1-.36,1.52,29.39,29.39,0,0,1-2.11,3.41Z"/><path class="b" d="M57.51,82.51V85.3a6.4,6.4,0,0,1-.11,1.38,1.86,1.86,0,0,1-.43.82,1.78,1.78,0,0,1-.78.54,3.05,3.05,0,0,1-1,.16A3.78,3.78,0,0,1,53.91,88a1.72,1.72,0,0,1-.79-.54,2.53,2.53,0,0,1-.42-.77,5,5,0,0,1-.12-1.29V82.51a5.7,5.7,0,0,1,.2-1.73,1.72,1.72,0,0,1,.79-.92A2.82,2.82,0,0,1,55,79.51a3.07,3.07,0,0,1,1.23.24,2.08,2.08,0,0,1,.81.59,1.86,1.86,0,0,1,.36.78A6.6,6.6,0,0,1,57.51,82.51Zm-2.09-.71a2.74,2.74,0,0,0-.07-.83.28.28,0,0,0-.3-.17.31.31,0,0,0-.31.18,2.75,2.75,0,0,0-.07.82v4.09a2.94,2.94,0,0,0,.07.88.3.3,0,0,0,.3.15.3.3,0,0,0,.31-.18,3,3,0,0,0,.07-.79Z"/><path class="b" d="M63.18,82.51V85.3a6.56,6.56,0,0,1-.1,1.38,2,2,0,0,1-.43.82,1.9,1.9,0,0,1-.78.54,3.05,3.05,0,0,1-1,.16A3.74,3.74,0,0,1,59.59,88a1.72,1.72,0,0,1-.79-.54,2.16,2.16,0,0,1-.42-.77,5,5,0,0,1-.12-1.29V82.51a5.39,5.39,0,0,1,.2-1.73,1.67,1.67,0,0,1,.79-.92,2.78,2.78,0,0,1,1.43-.35,3,3,0,0,1,1.23.24,2.08,2.08,0,0,1,.81.59,2,2,0,0,1,.37.78A7.59,7.59,0,0,1,63.18,82.51Zm-2.09-.71A3.33,3.33,0,0,0,61,81a.28.28,0,0,0-.3-.17.3.3,0,0,0-.31.18,2.75,2.75,0,0,0-.07.82v4.09a2.94,2.94,0,0,0,.07.88q.06.15.3.15a.29.29,0,0,0,.3-.18,2.6,2.6,0,0,0,.07-.79Z"/><path class="b" d="M70.71,79.67V88h-1.9V82.39L68.05,88H66.7l-.8-5.52V88H64V79.67h2.81c.09.51.17,1.1.26,1.78l.31,2.13.5-3.91Z"/></svg>