<svg xmlns="http://www.w3.org/2000/svg" viewBox="0 0 120 120"><defs><style>.a{fill:#0054a7;}</style></defs><path class="a" d="M110.05,59.77a50,50,0,0,1-49.72,50.65C32.73,110.58,11.1,88.56,10,62.2a50.06,50.06,0,1,1,100.05-2.43ZM65.34,73.28h-.18V50.16c0-2.63.24-2.76,2.89-2.19,2.82.6,5.54,1.64,8.46,1.76.91,0,2,.38,2.5-.65A2.72,2.72,0,0,0,78.63,46c-2-2.7-4-5.47-5.92-8.23-3.55-5-7-10.07-10.63-15-1.65-2.27-3-2.28-4.64,0-3,4.22-5.79,8.55-8.69,12.81q-3.36,5-6.79,9.89c-.77,1.11-1.44,2.31-.75,3.59s2,.78,3,.61c3-.51,5.92-1.17,8.84-1.91,1.48-.37,2,.15,1.89,1.52,0,.43-.12.86-.11,1.29q.06,13.68.14,27.38.06,9.33.15,18.68c0,2.23.35,2.54,2.6,2.54,1.54,0,3.08,0,4.63,0,2.82,0,3-.14,3-2.89Z"/></svg>