<svg xmlns="http://www.w3.org/2000/svg" viewBox="0 0 120 120"><defs><style>.a{fill:#c90106;}</style></defs><path class="a" d="M60.06,103.62H11.41c-.53,0-1.2.21-1.51-.39s.28-1,.55-1.46q4.67-8.07,9.32-16.14L31.47,65.3Q41.93,47.14,52.38,29l6.86-12c.54-.94,1-.82,1.56.06Q72.43,37.33,84.07,57.61,93.7,74.34,103.4,91c2.14,3.69,4.3,7.37,6.44,11.06.22.39.5.79.24,1.24s-.77.32-1.21.32H60.06Zm0-9.71v0H91.69c.45,0,.93.09,1.18-.39s0-.82-.3-1.2c-.57-.82-1.11-1.65-1.61-2.52Q83.33,76.55,75.71,63.26,68.3,50.35,60.91,37.41c-.23-.41-.46-.78-1-.75s-.73.44-.92.86c-1.89,4.21-4.52,8-6.78,12-4.59,8.17-9.4,16.23-14.06,24.37-3.52,6.16-6.9,12.41-10.72,18.4-.24.38-.51.77-.24,1.22s.87.38,1.36.38Z"/><path d="M63.5,62.2A54.93,54.93,0,0,0,65.38,75c.53,2.28,1.84,4.38,2.87,6.53.35.71,1,1.53.2,2.06-1.07.71-1.36-.55-1.76-1.17-2.07-3.22-4.33-6.34-5.15-10.2-.09-.44-.32-.87-.86-.87s-.67.5-.8.92a30.35,30.35,0,0,1-2.42,5.47,21.82,21.82,0,0,0-2.13,5,4.84,4.84,0,0,1-.7,1.49.89.89,0,0,1-1.3.35c-.47-.31-.33-.74-.16-1.18,2-5.19,3.15-10.64,4.84-15.93.68-2.14-.4-4.26-.69-6.37-.11-.86-.89-.44-1.4,0-1.4,1.26-2.84,2.48-4.25,3.74-.49.43-1,.83-1.57.23s.09-1.11.53-1.49c2.45-2.1,4.63-4.47,6.89-6.77.15-.15.3-.33.47-.47,1.6-1.33,1.6-1.33,0-2.84a2.32,2.32,0,0,1,.12-3.53,2.44,2.44,0,0,1,3.9.12c1.07,1.19,1.08,2.6-.14,3.47s-1.41,1.23,0,2.3c3.2,2.35,6.1,5.08,5.76,9.64,0,.58,0,1.2-.71,1.29s-1-.47-1.1-1c-.25-1.31-.39-2.64-.65-3.94-.11-.55-.47-1.1-1.13-1S63.49,61.67,63.5,62.2Z"/><path d="M84.7,91.16c-3.23.15-3.21.14-4.48-2.8s-2.5-5.67-3.78-8.49c-.39-.86-.17-1.18.77-1.26,2.42-.21,4.26.22,5.45,2.78a96,96,0,0,0,4.83,8.31c.23.39.46.79.22,1.23s-.75.37-1.19.34Z"/><path d="M34.92,91.21c-3.21-.07-3.23-.08-1.6-2.95s3.27-5.67,4.92-8.5c.5-.86,4.23-1.58,5-1,.45.37.25.78.07,1.2-1.21,2.73-2.41,5.48-3.62,8.21C38.29,91.28,38.28,91.28,34.92,91.21Z"/><path d="M47.34,91.21c-3.25,0-3.23,0-2.22-3,.91-2.72,1.81-5.46,2.65-8.21a1.6,1.6,0,0,1,1.9-1.33c3.11.15,3.09.09,2.58,3.18-.38,2.29-.46,4.61-1,6.89-.57,2.57-.52,2.59-3.12,2.49Z"/><path d="M59.94,91.24c-3.31,0-3.33,0-3.11-3.37.14-2.16.31-4.31.55-6.46.27-2.39,1.84-3.42,4.11-2.77a1.35,1.35,0,0,1,1,1.36c.27,3.31.26,6.64.74,9.94a1,1,0,0,1-1.13,1.3C61.38,91.25,60.66,91.24,59.94,91.24Z"/><path d="M72.18,91.28H70.35c-.52,0-1.13-.06-1.29-.57-.36-1.21-.54-2.47-.86-3.7-.4-1.54.34-2.39,1.6-3.06.74-.4.65-1.11.33-1.75a14,14,0,0,1-.85-1.42c-.22-.66-1.4-1.36-.15-2.06A2,2,0,0,1,72,79.85c.83,2.41,1.62,4.83,2.4,7.26a15.12,15.12,0,0,0,.87,2.5c.6,1.12.19,1.68-1.07,1.65-.67,0-1.33,0-2,0Z"/></svg>