<svg xmlns="http://www.w3.org/2000/svg" viewBox="0 0 120 120"><defs><style>.a{fill:#c90106;}</style></defs><path class="a" d="M60.26,105H7.71c-.69,0-1.58.29-2-.42s.38-1.41.74-2q7.24-12.54,14.5-25Q29.43,62.71,37.86,48q9.6-16.68,19.2-33.33a23.49,23.49,0,0,0,2.07-3.78c.16-.47.43-.88,1-.87s.78.44,1,.87Q69.24,25,77.32,39.08,91.39,63.53,105.5,88c2.9,5,5.65,10.15,8.75,15.06.28.45.7.93.37,1.48s-1.05.47-1.64.47H60.26ZM94.1,94c.42.06.9.19,1.17-.21.39-.57-.11-1-.37-1.45Q86.95,78.6,79,64.81,70,49.14,61.07,33.44c-.24-.42-.44-.91-1-.85s-.69.44-.83.85a18.94,18.94,0,0,1-1.82,3.3Q41.31,64.61,25.23,92.49c-.24.42-.6.82-.25,1.31s.75.27,1.16.27C35,94.05,43.88,94,52.75,94c7.25,0,14.51.26,21.76.1C81,94,87.57,94.09,94.1,94Z"/><path d="M60.26,12a8,8,0,1,1-8,8,8,8,0,0,1,8-8m0-2a10,10,0,1,0,10,10,10,10,0,0,0-10-10Z"/><path d="M104.26,92a8,8,0,1,1-8,8,8,8,0,0,1,8-8m0-2a10,10,0,1,0,10,10,10,10,0,0,0-10-10Z"/><path d="M15.26,92a8,8,0,1,1-8,8,8,8,0,0,1,8-8m0-2a10,10,0,1,0,10,10,10,10,0,0,0-10-10Z"/><path d="M45.26,92a8,8,0,1,1-8,8,8,8,0,0,1,8-8m0-2a10,10,0,1,0,10,10,10,10,0,0,0-10-10Z"/><path d="M75.26,92a8,8,0,1,1-8,8,8,8,0,0,1,8-8m0-2a10,10,0,1,0,10,10,10,10,0,0,0-10-10Z"/><path d="M29.26,65a8,8,0,1,1-8,8,8,8,0,0,1,8-8m0-2a10,10,0,1,0,10,10,10,10,0,0,0-10-10Z"/><path d="M45.25,38h.17a8,8,0,0,1-.16,16h-.17a8,8,0,0,1-7.83-8.16,8,8,0,0,1,8-7.84m0-2a10,10,0,0,0-.2,20h.21a10,10,0,0,0,.2-20Z"/><path d="M78.25,38h.17a8,8,0,0,1-.16,16h-.17a8,8,0,0,1-7.83-8.16,8,8,0,0,1,8-7.84m0-2a10,10,0,0,0-.2,20h.21a10,10,0,0,0,.2-20Z"/><path d="M92.26,65a8,8,0,1,1-8,8,8,8,0,0,1,8-8m0-2a10,10,0,1,0,10,10,10,10,0,0,0-10-10Z"/></svg>