<svg xmlns="http://www.w3.org/2000/svg" viewBox="0 0 120 120"><path d="M103.41,107.22a5.07,5.07,0,0,1-4.25-.79.67.67,0,0,0-.64-.07c-1.28.86-2.74.3-4.08.58-.35.08-.8.08-1,.3-1,1-2.07.71-3.13.23a3.93,3.93,0,0,0-3.9,0,6.71,6.71,0,0,1-2.93.45c-1,.08-2-.18-2.16-1.35a2,2,0,0,1,1.76-2.11,19.9,19.9,0,0,0,2.2-.64c2.14-.72,2.26-.72,2.09-2.92-.27-3.67-1.31-7.21-2-10.81-.4-2.11-1.08-4.19-.68-6.43a3.14,3.14,0,0,0-1.58-2.87c-4.66-3.16-4.48-7.6-3.46-12.28a34.17,34.17,0,0,0,.66-3.88c.15-1.43-.6-2.21-2.07-2.08-1,.08-2,.24-3,.35a1.24,1.24,0,0,0-1.07.89c-.34.86-1,.79-1.49.25-.75-.76-.14-1.52.15-2.25s.77-.47,1.33-.3a6,6,0,0,0,4.34-.56c.4-.19.78-.62,1.23-.47.64.2,1.17.71,1.56-.39s.8-1.88-.45-2.79a39.54,39.54,0,0,1-4-3.7c-.27-.25-.48-.59-.91-.46a.89.89,0,0,0-.59.85c-.15,2.45-1.65,4.37-2.77,6.38-.84,1.49-1.57,3-2.32,4.56-.45.91-.83,1.13-1.58.38-.48-.48-1-.87-1.16.23-.07.45-.09,1-.71,1-.46,0-.69-.4-.89-.76s-.24-1.07.26-1.31c.74-.36,1.14-1.36,2.2-1.12.41.1.63-.25.42-.59-1.12-1.77.12-2.95,1.13-4,.69-.74.85-1.21.08-1.88a1.59,1.59,0,0,1-.51-1.34,24.39,24.39,0,0,1,1.68-6.71c.57-1.76,1.62-3.42,1.62-5.37a8.55,8.55,0,0,1,1.28-3.81c1.16-2.26,2.53-4.41,3.59-6.71,1.4-3,3.88-4.47,7-5.06,1.51-.3,2.24-1.47,3.24-2.33.4-.35.06-.83-.24-1.2a6.24,6.24,0,0,1-1.39-3.2,3.22,3.22,0,0,0-1-1.59c-1.13-1.41-1.15-2.22-.08-3.65.28-.36.57-.71.83-1.08,3.36-4.65,9.9-2.86,12.25,1.66A2.16,2.16,0,0,1,97.92,19a5.31,5.31,0,0,0-1.35,2.9,4,4,0,0,1-1.25,2.22c-.66.68-.43,1.17.21,1.68a10.61,10.61,0,0,0,3.77,1.5,20.55,20.55,0,0,1,3.55,1.34c2,1.05,2.12,3.1,2.38,4.91.43,3,1.06,5.89,1.55,8.84a10,10,0,0,1-.07,2.84q-.92,7.6-1.81,15.21A3.77,3.77,0,0,0,105,62a5.28,5.28,0,0,1-.25,4.35c-.87,1.72-.49,3.4-.09,5.13a17.59,17.59,0,0,1,.72,4.28,4.6,4.6,0,0,1-1.79,3.91c-.44.32-.81.73-1.23,1.07a2.74,2.74,0,0,0-.92,2.71c.17,2.5.54,5-.14,7.55-.74,2.76-.82,5.65-1.4,8.45-.46,2.21.74,3.54,3,3.76.54.05,1.09,0,1.63.11a2.52,2.52,0,0,1,2.11,2.18c-.1,1.28-1.16,1.48-2.13,1.7A4.94,4.94,0,0,1,103.41,107.22Zm-22.66-33c-.48,1.77.8,3.22,2.32,4.55A15.14,15.14,0,0,1,85.78,82a2.84,2.84,0,0,0,3.45.74,1,1,0,0,0,.42-1.18,7.24,7.24,0,0,1,.59-5.24A12.72,12.72,0,0,0,91,73.83c.39-1.37.24-2.8.64-4.15.12-.4.29-.83.81-.76a.66.66,0,0,1,.57.8C92.58,72,94.11,73.89,94.3,76a6.12,6.12,0,0,0,1,2.64,3,3,0,0,1,.69,2c-.1.74-.1,1.4.82,1.57s2.14.9,2.88-.49A6.87,6.87,0,0,1,102,79.31,3.44,3.44,0,0,0,103.69,77a14.71,14.71,0,0,0-.18-4.72c-.89-4.35-2.31-8.55-3.48-12.82-.17-.62.13-1.66-.61-1.78s-1.09.94-1.51,1.54c-1.16,1.66-2,1.79-3.51.41a10.65,10.65,0,0,1-2.52-3.83,1.57,1.57,0,0,0-1.37-1.08c-1.86-.3-3.71-.73-5.57-1.13-.34-.07-.72-.38-1,0s.06.77.33,1.08a23,23,0,0,0,1.53,1.73c1.62,1.5,1.81,3.93,3.57,5.36.63.5.28,1.18-.44,1.48a2.74,2.74,0,0,1-2,0c-1.45-.49-2.24-1.78-3.32-2.72-.23-.2-.33-.62-.72-.48s-.33.41-.38.68A82.67,82.67,0,0,0,80.75,74.2Zm9.9-36.39c.72-2.1-1.18-3.53-1.72-5.4-.14-.49-.58-.51-1-.33-.81.34-1.13-.09-1.37-.8a3.31,3.31,0,0,1-.05-1.87.59.59,0,0,0-.11-.49c-.2-.2-.43,0-.57.14-.68.86-1.72.87-2.65,1.21-1.23.45-2.75.35-3.57,1.71-1.74,2.91-3.32,5.93-4.78,9a5.88,5.88,0,0,0,.2,6.21c.19.26.3.54.69.55.72,0,2.47-1.45,2.37-2.16-.35-2.56,1.81-3.94,2.67-5.92a.74.74,0,0,1,.91-.42.76.76,0,0,1,.54.73,7.35,7.35,0,0,0,.71,2.6c.16.43,0,1.09.78,1.07a1.23,1.23,0,0,0,.54-2.15,8.89,8.89,0,0,1-1-1.23c-.52-.6-.39-1,.16-1.6.93-1,2-.8,3.14-.8,2.41,0,2.92.67,2.34,3-.23.93-.51,1.42-1.36.5-.25-.27-.52-.55-.94-.34a.92.92,0,0,0-.43.93c0,.77,0,1.54.06,2.31,0,.35-.17.81.3.93s.73-.29,1-.64a2.82,2.82,0,0,0,.28-.75c.1-.39.13-.93.7-.77s.48.63.43,1A3.09,3.09,0,0,1,87,46.37c-.92.48-1.54-.08-2.15-.65-.26-.24-.49-.67-.89-.41s-.15.65-.09,1a4.93,4.93,0,0,0,4.52,4.35c1.6.23,2.5-.36,2.46-2C90.7,45.1,91.2,41.53,90.65,37.81Zm1.35,8c0,1,0,2.08,0,3.12,0,.7.22,1.43,1.06,1.53a6.18,6.18,0,0,0,4.19-.78c1.24-.83.9-2-.25-3s-2.86-2.16-2.55-4.3A5,5,0,0,0,94.31,40a1.78,1.78,0,0,1,2-2.48,5.68,5.68,0,0,1,1.06.21c1.14.27,1.76-.12,1.72-1.35A34.46,34.46,0,0,1,99,32.32c.17-1.84.32-3.56-2-4.19-.08,0-.14-.11-.22-.16-.29-.19-.58-.52-1-.23s-.2.67-.13,1c.15.71.31,1.41.47,2.12s0,1.13-.59,1.33-1,.79-1.31,1.43a7.12,7.12,0,0,1-1.38,2.15,2.49,2.49,0,0,0-.81,2.35C92.59,40.71,91.92,43.29,92,45.86Zm13.42-2.11a15.4,15.4,0,0,0-.22-2.41c-.26-2.34-1.08-4.56-1.24-6.93a17.27,17.27,0,0,0-.79-3.42,1.56,1.56,0,0,0-1.75-1.2c-.93.09-1,.84-1,1.62s-.09,1.45-.07,2.17c.07,3.93.79,7.84-.43,11.8-.94,3-.64,3.16,2.5,3.83a4.28,4.28,0,0,1,.78.21c1.06.4,1.58-.12,1.7-1.08A31.12,31.12,0,0,0,105.42,43.75ZM92,90.78c.27-1.84-.56-3.71-1.25-5.63-.45-1.23-1-1.72-2.26-1a4.25,4.25,0,0,1-1.73.24c-.71,0-1,.41-.9,1A36.29,36.29,0,0,0,86.44,89c1,4.29,2.51,8.48,2.62,12.95,0,.86.56,1.06,1.32.81,1.1-.37,1-1.27.89-2.13a11.9,11.9,0,0,1,.34-5.9A8.23,8.23,0,0,0,92,90.78Zm8-5.14c0-1.72,0-1.72-1.81-1.78a4.77,4.77,0,0,1-1.08-.11c-1.3-.4-1.64.32-1.65,1.38a11.44,11.44,0,0,1-.44,4,4.9,4.9,0,0,0,0,2.55c.54,3.24,1.3,6.46,1,9.79-.06.75.36,1,1,.81a1.57,1.57,0,0,0,1.32-1.66A14.18,14.18,0,0,1,98.46,99C98.7,94.58,100.6,90.31,100,85.64ZM85.41,57.86c0-.37-.33-.54-.56-.76a11.77,11.77,0,0,1-3.3-4.55c-.41-1.15-.9-2.26-1.33-3.4-.72-1.91-1.16-2-2.71-.9-.43.32-1,.48-1.39.82s-1.05.92-.36,1.57c1.84,1.74,3.32,3.84,5.46,5.26a6.85,6.85,0,0,1,2.47,2.46c.17.32.39.7.83.45A1.73,1.73,0,0,0,85.41,57.86Zm16.4,1.81-.19,0c.41,1.62.82,3.23,1.26,4.85a.6.6,0,0,0,.37.34c.26.07.4-.15.49-.36a2.48,2.48,0,0,0,0-1.74,9.16,9.16,0,0,1-.25-4.56c.28-1.61.51-3.22.81-4.82.41-2.2.42-2.16-1.68-2.68-1-.25-1.4,0-1.3,1.11C101.53,54.44,101.65,57.05,101.81,59.67ZM91.52,26.46a1.47,1.47,0,0,0,1.43-1c.39-.71.72-1.45,1-2.19.75-1.64.75-1.64-.93-2.08a1.26,1.26,0,0,1-.58-.31.9.9,0,0,0-1.42,0,1.41,1.41,0,0,1-1.94.27c-.6-.35-1-.14-.82.59a18.87,18.87,0,0,0,1.21,3.3A3.26,3.26,0,0,0,91.52,26.46Zm6.84,29a3.78,3.78,0,0,0-.49-1.87c-.21-.34-.57-.64-.89-.39-1,.79-2.14.58-3.25.7-.58.06-1.1.26-.8,1.06A11.27,11.27,0,0,0,95,58.58c.82.92,1.67.89,2.32-.14A6.23,6.23,0,0,0,98.36,55.45Zm-7.3,24c.16,2.38,1.41,4.52,1.63,6.9,0,.2.15.47.42.44s.39-.37.44-.62c.28-1.42.54-2.84.82-4.26a3.47,3.47,0,0,0-.48-2.48,4.65,4.65,0,0,1-1-2.75.64.64,0,0,0-.38-.67c-.4-.14-.52.22-.7.47A4.08,4.08,0,0,0,91.06,79.48ZM83.64,50c-.16-1.07-1.19-1.88-1.22-3.07,0-1.51-1-2.81-1-4.33,0-.38-.24-.73-.73-.49s-1.17,2.57-1,3.16c.66,1.78,2,3.25,2.42,5.14.09.4,0,1.2.78,1C83.45,51.28,83.64,50.66,83.64,50Zm18.83,55.85c.59,0,1,0,1.31,0s1,0,1.06-.56-.62-.68-1.11-.62a6.19,6.19,0,0,1-3.25-.76c-1.12-.48-2.18-1.56-3.38-.15-.06.07-.26,0-.39,0-.46,0-.95-.12-1.08.51a.88.88,0,0,0,.4.94,1,1,0,0,0,1.35-.18,1.41,1.41,0,0,1,2.14-.1A4,4,0,0,0,102.47,105.86ZM94.39,100a20.18,20.18,0,0,0-.49-5c-.09-.3-.22-.66-.62-.56s-.31.41-.32.68A54.15,54.15,0,0,0,93,102c0,.43.13.85.66.85s.67-.44.7-.84C94.42,101.31,94.39,100.64,94.39,100Zm-1-71.38c0-.7-.19-1.09-.8-.93a3.42,3.42,0,0,1-2.12-.18c-.34-.13-.71-.3-1,.05a1,1,0,0,0,0,1.14c.19.31.43.58.64.88.39.52.7,1.42,1.5,1A3.47,3.47,0,0,0,93.39,28.58ZM91.29,19a5.92,5.92,0,0,0,2.64-.25c.3-.14.59-.31.58-.67a.63.63,0,0,0-.63-.6c-1.57-.14-3.15-.47-4.66.29-.25.12-.53.21-.5.55s.27.45.52.56C89.94,19.18,90.67,18.92,91.29,19Zm-2.6,85.49a3.75,3.75,0,0,0-2.37.41c-.62.29-1.87.31-1.63,1,.28.89,1.21,0,1.87-.08,1.45-.13,2.91-1.4,4.35.13a.74.74,0,0,0,1.18-.16c.22-.43-.11-.77-.41-1.06a1.55,1.55,0,0,0-1.51-.38A3.7,3.7,0,0,1,88.69,104.48ZM86.15,18.17c.53,0,.5-.54.7-.85.5-.75.92-1.64,2.09-1.21.33.13.73.41.93-.07.27-.67-.53-1.09-.51-1.74,0-.31-.31-.39-.62-.33-.83.17-3,2.62-3,3.45A.63.63,0,0,0,86.15,18.17Z"/><path d="M28.2,12.06c3.17-.08,6.74,2.72,7.25,5.2a2.42,2.42,0,0,1-.75,2.1,4.79,4.79,0,0,0-1.23,2.47,5,5,0,0,1-1.38,2.62c-.31.31-.57.74-.15,1.05,1.1.82,1.85,2,3.42,2.32a9.31,9.31,0,0,1,7,5.25c1.39,2.69,2.85,5.35,4.15,8.09a3.31,3.31,0,0,1,.31.9c.53,3.53,2.11,6.73,3.13,10.1.46,1.54,1.2,3.53-.48,5.09-.51.46-.19.93.27,1.23a5.31,5.31,0,0,1,1.6,2.32c.08.16.24.39.18.5-1.15,2.16,1,2.14,1.94,2.91.51.44.83.83.49,1.49a1.19,1.19,0,0,1-.91.74c-.52,0-.67-.37-.77-.78-.22-.88-.58-1.14-1.22-.3-.52.69-1,.56-1.31-.16-1.42-3.34-3.3-6.42-5-9.58-.3-.55-.08-1.18-.24-1.74-.23-.79-.64-1.15-1.31-.4a32.33,32.33,0,0,1-4.6,4.23c-1,.77-.2,1.53,0,2.29s.67.87,1.35.53c.48-.24.85.14,1.26.33a5.88,5.88,0,0,0,4.58.54c.91-.32,1.12.33,1.43.85s.59,1.28-.09,1.83-1.14.51-1.44-.25-.86-.92-1.6-1-1.7-.26-2.56-.34a1.66,1.66,0,0,0-1.93,1.95c.36,2.37.86,4.73,1.18,7.11.48,3.46-.29,6.49-3.34,8.62A7.22,7.22,0,0,0,35.83,82a3.13,3.13,0,0,0-.52,2.41c.23,2-.42,3.93-.81,5.88a98.82,98.82,0,0,0-2,11.36,1.63,1.63,0,0,0,1.42,1.94c.92.24,1.82.53,2.74.78,1.13.31,2.18,1.47,1.94,2.29-.35,1.19-1.36,1.34-2.41,1.26a8,8,0,0,1-3.42-.78,3.17,3.17,0,0,0-2.88.21c-1.19.48-2.36,1-3.51-.18-.24-.24-.76-.2-1.16-.27-1.27-.21-2.64.25-3.83-.57-.34-.24-.72,0-1,.23-1.72,1.38-3.66.51-5.49.46a1.56,1.56,0,0,1-1.65-1.65,2.19,2.19,0,0,1,1.84-1.93,19.32,19.32,0,0,1,2.16-.28,3,3,0,0,0,2.78-3.86c-.81-3.31-1-6.72-1.64-10.06a22.35,22.35,0,0,1,.13-6.21,2.15,2.15,0,0,0-.67-2c-.44-.39-.84-.84-1.31-1.18-2-1.42-2.23-3.43-1.89-5.59.26-1.65.66-3.28,1.05-4.91a2.84,2.84,0,0,0-.16-1.84c-.71-1.77-1.34-3.52-.64-5.52a7.13,7.13,0,0,0,0-3.64c-.7-3.64-.91-7.35-1.54-11A23.94,23.94,0,0,1,14,37.91c.46-2.07.72-4.19,1.1-6.28A4.3,4.3,0,0,1,18,28.18a46.65,46.65,0,0,1,4.65-1.5,5.84,5.84,0,0,0,1.68-.87c.76-.52.88-1.1.25-1.8a5.16,5.16,0,0,1-1.34-2.92,3.84,3.84,0,0,0-1.09-2A2.51,2.51,0,0,1,22,15.74,7.87,7.87,0,0,1,28.2,12.06Zm11,62.07a69.06,69.06,0,0,0-1.81-13.19c-.23-1-.63-1.13-1.32-.33a18.43,18.43,0,0,1-1.49,1.57,3.57,3.57,0,0,1-3.45,1.1c-.79-.19-1.36-.88-.69-1.47,1.23-1.06,1.65-2.54,2.47-3.8a41,41,0,0,1,2.64-3.27c.25-.32.59-.67.36-1.09s-.71-.14-1.09-.06c-1.85.38-3.69.81-5.55,1.1a1.2,1.2,0,0,0-1.16.87A9.59,9.59,0,0,1,25,60a1.64,1.64,0,0,1-2.59-.35c-.4-.54-.76-1.13-1.2-1.64s-.92-.62-1.11.25c-1,5-3,9.77-3.76,14.82-.28,1.8-.73,3.79.73,5.3,1.18,1.24,2.59,2.23,3.51,3.74.61,1,1.57.19,2.37.14.53,0,1-.36.93-1-.17-1.19.51-2.07,1-3,1.08-2.21,1.28-4.68,2.11-7a1.94,1.94,0,0,0,0-.54c0-.71-.49-1.86.55-1.91s.92,1.22,1,2a13.37,13.37,0,0,0,1,4.88,9.11,9.11,0,0,1,.74,5.91.93.93,0,0,0,.56,1.11,2.76,2.76,0,0,0,3.36-.82,15.08,15.08,0,0,1,2.61-3.12C38.42,77.45,39.66,75.91,39.19,74.13Zm-10-27.45c0,.86-.05,1.72,0,2.58a1.49,1.49,0,0,0,1.74,1.49c2.94-.15,4.47-1.48,5-4.36.07-.34.28-.75-.15-1s-.6.15-.81.36c-.62.63-1.29,1-2.17.52A2.8,2.8,0,0,1,31.15,44c0-.46,0-1.08.43-1.19.63-.13.55.55.66,1a5,5,0,0,0,.23.78c.16.34.41.64.84.52s.32-.49.33-.8c0-.77,0-1.54,0-2.3,0-.42,0-.85-.49-1s-.64.2-.88.47-.37.6-.74.47-.32-.52-.39-.82S31,40.35,30.93,40a1.47,1.47,0,0,1,1.26-2.07c.8-.12,1.63-.07,2.44-.13a2.42,2.42,0,0,1,2.21,1.32c.52.78-.3,1.32-.73,1.86a5,5,0,0,1-.83.67c-.67.57-.21,1.27-.19,1.91,0,.34.33.34.62.31a1.11,1.11,0,0,0,1.08-1c.18-1,1-1.71.92-2.8a.79.79,0,0,1,.48-.89c.49-.15.76.25,1,.58.74,1.08,1.45,2.18,2.16,3.29.31.5.73,1.07.57,1.63-.43,1.51.54,2.13,1.54,2.8.6.4,1,.35,1.42-.31a5.72,5.72,0,0,0,.31-6.09,86.33,86.33,0,0,0-4.74-8.84,3.44,3.44,0,0,0-1.87-1.42c-1.27-.49-2.67-.51-3.87-1.19-.37-.2-.58-.87-1.09-.58s-.09.74-.07,1.13c.09,1.46-.33,1.89-1.84,1.84-.3,0-.61,0-.69.31-.41,1.52-1.66,2.71-1.75,4.35A86.06,86.06,0,0,0,29.18,46.68ZM20.82,35.24c0,2.67,0,2.74,2.24,2.39a3.76,3.76,0,0,1,.94-.1c1.17.09,2.13,1,1.79,1.9a9.62,9.62,0,0,0-.36,3.48c0,1.25-1.63,3.63-2.85,3.92-.87.21-.95.66-.82,1.38.31,1.78,1.7,2,3.13,2.25,2.59.41,3.11-.07,3-2.63-.1-2.8-.22-5.6-.11-8.4.06-1.55.14-2.94-1.15-4.1a5.87,5.87,0,0,1-1-1.74c-.22-.46-.4-1-.88-1.16-1.27-.41-1.09-1.26-.94-2.27.11-.78.86-1.76.21-2.3s-1.33.64-2.08.84l-.12.05c-.93.23-1.15.83-1.06,1.73A15.6,15.6,0,0,1,20.82,35.24Zm-1.23-2-.15-2.17c0-.58-.2-1.1-.84-1.25a1.47,1.47,0,0,0-1.46.53,3,3,0,0,0-.6,1.63c-.3,1.65-.48,3.33-.93,4.93a23.91,23.91,0,0,0-.54,11.67c.18.82.57,1.11,1.44.95,4.19-.75,4.39-1.08,3.31-5.24a9.9,9.9,0,0,1-.6-3.73C19.53,38.1,19.4,35.65,19.59,33.22ZM33.79,86.5a4.76,4.76,0,0,0,.11-.85c-.14-2.43-2.37-.82-3.36-1.71-.5-.45-.92,0-1.18.63a14.71,14.71,0,0,0-.91,10.8,12,12,0,0,1,.34,2.68c.08,1.2-.35,2.33-.3,3.5a1.34,1.34,0,0,0,1.43,1.34c.9,0,1-.67,1-1.32,0-2.7,1-5.21,1.43-7.83C32.7,91.34,33.8,89.08,33.79,86.5Zm-9.3-.27h0a9.92,9.92,0,0,0,0-1.22c-.08-.58-.14-1.42-.88-1.29-1.21.19-2.54-.31-3.61.61a.33.33,0,0,0-.07.26c.24,1.4-.33,2.79-.12,4.18.61,4,1.52,8,1.77,12.06a1.61,1.61,0,0,0,.88,1.29,1,1,0,0,0,1.15.13.82.82,0,0,0,.2-1,7,7,0,0,1,.07-2.82c.34-3.83,1.89-7.6.65-11.53A2.49,2.49,0,0,1,24.49,86.23ZM44.45,50a1.61,1.61,0,0,0-1-1.16,5.2,5.2,0,0,1-1.6-1c-.81-.89-1.26-.67-1.71.38-1.41,3.25-2.28,6.82-5.35,9.1-.58.43-.18.86.21,1.23s.9.32,1.19-.23a4.45,4.45,0,0,1,1.53-1.69C40.21,55.13,42,52.86,44,50.82,44.17,50.6,44.45,50.42,44.45,50ZM18.36,54.56c.09-1.19.17-2,.23-2.9,0-.42,0-1-.45-1a6.63,6.63,0,0,0-2.59.54c-.61.29-.17,1.06-.08,1.62.56,3.46,1.74,6.89.59,10.46a1.7,1.7,0,0,0,.13,1.32c.23.44.71.5.76,0,.16-1.74,1.31-3.25,1.24-5S18.55,56,18.36,54.56Zm10-28.08a4.14,4.14,0,0,0,.44-.14c1.22-.53,3-3.5,2.86-4.8,0-.25-.18-.57-.34-.48-1.21.65-2.19.17-3.19-.47-.1-.06-.38,0-.5.14a2.83,2.83,0,0,1-1.61.59c-.59.06-.76.5-.54,1C26,23.54,26.6,24.76,27.21,26A1.13,1.13,0,0,0,28.33,26.48ZM21.55,55.05a5.59,5.59,0,0,0,1.14,3.53,1.2,1.2,0,0,0,2.13.09,11.42,11.42,0,0,0,2-3.35c.39-1,0-1.47-1-1.47a4.89,4.89,0,0,1-2.75-.54c-.57-.36-1.06-.11-1.26.53A12,12,0,0,0,21.55,55.05Zm5,31.74a2.64,2.64,0,0,0,1-2.07,6.79,6.79,0,0,1,.7-2.6A5.82,5.82,0,0,0,28,76.46c-.14-.27-.2-.7-.6-.61s-.48.52-.48.88a2.75,2.75,0,0,1-.35,1.83C24.44,81.31,26.16,84.05,26.56,86.79ZM40.42,44.52l-.83-1.79c-.13-.3-.28-.6-.66-.57s-.42.47-.52.81c-.62,2.1-.83,4.34-1.89,6.31a1.49,1.49,0,0,0-.07,1.55c.17.3.3.72.74.67s.43-.43.48-.73a11.33,11.33,0,0,1,1.62-3.68A22.52,22.52,0,0,0,40.42,44.52ZM16.73,104.73a10.45,10.45,0,0,0-1.14-.07.61.61,0,0,0-.61.61.52.52,0,0,0,.54.5c1.34,0,2.74.44,4-.3s2.17-1.42,3.45-.14c.43.42,1.06,0,1.25-.6s-.18-.93-.79-.93a2.14,2.14,0,0,1-1.49-.54c-.47-.42-.82-.42-1.38,0A7.78,7.78,0,0,1,16.73,104.73ZM27,97.8c-.05-1-.09-1.9-.16-2.85,0-.22-.06-.49-.33-.54s-.46.24-.51.49a24.37,24.37,0,0,0-.51,7c0,.46.22,1,.81.89s.58-.54.55-1C26.74,100.5,27.29,99.16,27,97.8Zm.67-70c-.31.05-.85-.34-1.1.26a1.33,1.33,0,0,0,.47,1.46c.31.33.64.64,1,1s.65.42.95.08a5.54,5.54,0,0,0,1.42-2.13c.21-.81-.11-1.26-1-.93A3.65,3.65,0,0,1,27.68,27.75Zm.8-8.75a7.36,7.36,0,0,0,2.17-.11c.29-.12.59-.28.56-.67s-.32-.38-.56-.49c-1.57-.74-3.18-.38-4.78-.23a.55.55,0,0,0-.56.49c0,.38.24.56.54.7A5.68,5.68,0,0,0,28.48,19Zm1.28,85.43a1.5,1.5,0,0,0-1.92.85c-.12.26-.19.56.09.72.68.39,1.21,0,1.7-.43a1.16,1.16,0,0,1,1.22-.35c1.08.34,2.17.62,3.26.9.4.09,1,.53,1.19,0s-.53-.72-.94-.94C32.83,104.31,31.12,104.49,29.76,104.43Zm.85-88.21c1.46-.82,1.91.47,2.57,1.35.21.29.38.71.82.43s.16-.63,0-1a7.63,7.63,0,0,0-2.71-3c-.44-.32-.9-.3-.93.4a3.42,3.42,0,0,1-.3,1C29.93,15.91,30,16.21,30.61,16.22Z"/></svg>