<svg xmlns="http://www.w3.org/2000/svg" viewBox="0 0 120 120"><defs><style>.a{fill:#c90106;}</style></defs><path d="M30.53,77.75a6.54,6.54,0,0,0-1-4.35,4.8,4.8,0,0,1-.12-4.74,8.77,8.77,0,0,0,.45-6.53,5.33,5.33,0,0,1,1.65-5.7,3,3,0,0,1,4-.38c1.67,1.2,2.8,2.8,2.53,4.94s1.13,4.11,1.21,6.27c0,.69.77.65,1.36.59,4.41-.48,8.82-1,13.24-1.41a5.1,5.1,0,0,0,2.5-1.07c1.22-.89,2.67-1.43,4-.62a12.76,12.76,0,0,0,7.39,1.51c3.16-.15,6.17.8,9.29.82,2.25,0,2.26,0,2.32-2.28a6.44,6.44,0,0,1,.57-2.53,3.89,3.89,0,0,0,.28-2.4c-.29-1.58-.35-3.25,1.07-4.19a4.47,4.47,0,0,1,4.83-.22c1.66,1,1.78,2.72,1.69,4.34-.15,2.47-.18,4.78,1,7.13a5.92,5.92,0,0,1,0,5.36,8.57,8.57,0,0,0-.66,5.34,8.83,8.83,0,0,1-.37,4.53c-.66,1.55-2,2.55-3.22,2.39A4.24,4.24,0,0,1,81.18,81c-.05-.87,0-1.74,0-2.61a3,3,0,0,0-.56-2,3.67,3.67,0,0,1-.84-3c.17-1.09-.58-1.46-1.54-1.32-5.06.73-10.31.41-15.16,1.94a14.6,14.6,0,0,1-8.25.2,28,28,0,0,0-6.42-.3,33,33,0,0,1-7.61-.74c-1.6-.36-2,0-2,1.55,0,2.39-.93,4.66-.81,7.1A3.3,3.3,0,0,1,35.79,85c-2.33.89-3.72.23-4.45-2.18A11.87,11.87,0,0,1,30.53,77.75Z"/><path class="a" d="M7.5,60A52.5,52.5,0,1,0,60,7.5,52.51,52.51,0,0,0,7.5,60Zm11,0A41.5,41.5,0,1,1,60,101.5,41.5,41.5,0,0,1,18.5,60Z"/><path d="M55.8,44a4.15,4.15,0,0,1,2,1.53c.45.69.68,2.31.68,4.87a11.67,11.67,0,0,1-.54,4.13,4.37,4.37,0,0,1-2.12,2.18,8.81,8.81,0,0,1-4.21.85,8.59,8.59,0,0,1-4.07-.81,4.87,4.87,0,0,1-2.15-2.16,11,11,0,0,1-.65-4.47A17.69,17.69,0,0,1,45,46.44,3.66,3.66,0,0,1,47,44a3.42,3.42,0,0,1-1.61-1.64,6.68,6.68,0,0,1-.53-2.85A5.73,5.73,0,0,1,46.55,35a7.19,7.19,0,0,1,5-1.49c2.54,0,4.3.52,5.27,1.58a6.43,6.43,0,0,1,1.46,4.53,5.7,5.7,0,0,1-.48,2.7A5,5,0,0,1,55.8,44Zm-3.13,4.65a3.81,3.81,0,0,0-.27-1.77.94.94,0,0,0-.86-.43.88.88,0,0,0-.82.42,4,4,0,0,0-.25,1.78v3a4.14,4.14,0,0,0,.28,1.93,1,1,0,0,0,.88.43.82.82,0,0,0,.82-.44,5.3,5.3,0,0,0,.22-2ZM52.55,39a3.78,3.78,0,0,0-.2-1.55.83.83,0,0,0-.8-.38.79.79,0,0,0-.77.41,4,4,0,0,0-.2,1.52v1.76a3.16,3.16,0,0,0,.23,1.44.81.81,0,0,0,.77.4.78.78,0,0,0,.77-.39,4.06,4.06,0,0,0,.2-1.62Z"/><path d="M71.67,35.6v3h1.56v3H71.67V51.73a5.71,5.71,0,0,0,.19,2.09c.13.14.67.21,1.61.21v3.06H71.14a16.67,16.67,0,0,1-2.81-.16,3.08,3.08,0,0,1-1.49-.76,2.56,2.56,0,0,1-.8-1.36,24.62,24.62,0,0,1-.16-3.59V41.59H64.64v-3h1.24v-3Z"/></svg>