<svg xmlns="http://www.w3.org/2000/svg" viewBox="0 0 120 120"><defs><style>.a{fill:#c90106;}.b{fill:#2b2928;}</style></defs><path class="a" d="M60,104.13q-24.18,0-48.35,0c-.8,0-1.84.41-2.35-.44s.56-1.45.94-2.12q4.5-7.87,9-15.71l14.4-25Q45.39,40.6,57.07,20.32c.72-1.25,1.41-2.53,2.1-3.81.2-.36.4-.7.85-.72s.74.38,1,.79q11.23,19.55,22.48,39.1l26.28,45.62c1.61,2.79,1.64,2.81-1.4,2.81q-24.18,0-48.35,0ZM60,94h31.7c.43,0,.94.16,1.2-.35s-.19-.82-.41-1.19c-.38-.62-.79-1.22-1.16-1.85Q76.1,64.09,60.87,37.55c-.2-.34-.36-.74-.83-.72s-.61.41-.81.76c-2.8,5-5.6,9.92-8.44,14.85q-11.52,20-23.06,39.92c-.25.42-.7.83-.33,1.36s.81.27,1.25.27Z"/><path class="b" d="M71,64.14a5.84,5.84,0,0,0,.49,3.4c.52,1.09-1,4.51-2.42,5.37a3.57,3.57,0,0,0-1.71,2.16c-.32,1.13-1.06,1.38-2.06.89s-1.19-1.06-.47-2,.52-1.75-.79-2.22Q59.1,70,54.27,68.11c-1.55-.61-1.65.55-2,1.46-.51,1.28-1.24,1.55-2.25.84-.77-.55-.69-1.18-.26-1.89a2.06,2.06,0,0,0,.38-2,5.48,5.48,0,0,1,1.33-6,31.72,31.72,0,0,0,4-4,1.78,1.78,0,0,1,1.92-.71A59.59,59.59,0,0,1,69,60,3.38,3.38,0,0,1,71,64.14Zm-1.78-.61a2.17,2.17,0,0,0-1.24-2.21l-2.11-1a34.19,34.19,0,0,0-8.13-2.57,2,2,0,0,0-2.34,1.48c-.32,1,.85,1,1.45,1.2,3.65,1.42,7.33,2.74,11,4.18C69,65.05,69.12,64.41,69.18,63.53Z"/><path class="b" d="M81.86,93c-1.45.43-2.25-.36-2.71-2.22s-1.92-3-3.46-4a50.32,50.32,0,0,0-5.14-2.45,1.22,1.22,0,0,0-1.73.47,5.66,5.66,0,0,1-3.21,2,31.46,31.46,0,0,1-8.8,1,51.23,51.23,0,0,0-9.17.87c-2.92.57-5.78,1.33-8.12,3.35-1.94,1.68-4.32.53-6.46.93a.52.52,0,0,1-.57-.5c0-.6.41-.93.82-1.18A31.58,31.58,0,0,1,40.2,87.9c5.35-1.71,10.87-2,16.42-2a22.77,22.77,0,0,0,7.3-.82,9.48,9.48,0,0,0,1.41-.52c.5-.25,1.08-.55.93-1.23s-.77-.53-1.25-.63c-5.58-1.14-11.25-1.91-16.59-4a11.42,11.42,0,0,1-2.52-1.32c-2-1.49-2.08-2.5-.18-4.07a17.08,17.08,0,0,1,2.33-1.63,1.45,1.45,0,0,1,2.19.43c.43.86-.53,1.06-1.09,1.35-2,1-2.1,2-.15,3.16,3.19,1.88,6.86,2.32,10.38,3.15,1.84.44,3.73.71,5.59,1.07.44.08.91.3,1.18-.24s-.1-.73-.37-1c-.08-.09-.17-.15-.24-.24-.44-.54-1.37-1.22-.77-1.78.76-.7,1.76.14,2,.8,1.69,3.92,5.54,4.26,8.84,5.55s6.41,2.73,8.38,5.83c.5.8,1.42,1.66.76,2.73S83.15,92.85,81.86,93Z"/></svg>