<svg xmlns="http://www.w3.org/2000/svg" viewBox="0 0 120 120"><defs><style>.a{fill:#c90106;}</style></defs><path class="a" d="M59.94,103.87H12.63c-3.53,0-3.55,0-1.8-3.07Q23.66,78.51,36.5,56.23q9.8-17,19.6-34a39,39,0,0,0,3-5.37,1,1,0,0,1,.85-.7c.52,0,.77.34,1,.75,9.76,17.54,20,34.78,30,52.21q9,15.81,18.17,31.58c1.83,3.17,1.84,3.19-1.86,3.2ZM91.5,93.76c.38.08.81.18,1-.22s0-.84-.26-1.22c-2.71-4.65-5.45-9.29-8.13-14Q72.48,58,60.81,37.63c-.59-1-1.11-.89-1.63.09-.6,1.13-1.23,2.23-1.87,3.34L27.63,92.35c-.2.34-.45.67-.26,1.07s.74.38,1.18.38c1.6,0,3.21,0,4.82,0Z"/><path d="M70.11,80.31V89c0,1.66-.25,1.78-2.55,1.77-1.34,0-1.67-.6-1.66-1.86C66,83,66,77.22,66,71.39c0-1.27-.62-1.52-1.72-1.18s-2,.58-3.05.84c-.43.11-.92.17-1.21-.27s-.11-.94.2-1.37c2.25-3.23,4.5-6.45,6.74-9.69.67-1,1.29-1.14,2-.07,2.19,3.14,4.39,6.26,6.59,9.39.36.51.74,1.07.35,1.67s-1.1.37-1.68.23c-.86-.2-1.71-.47-2.56-.73-1.16-.35-1.63,0-1.61,1.28,0,2.94,0,5.88,0,8.82Z"/><path d="M53.84,69.24c0,2.94,0,5.88,0,8.81,0,1.22.53,1.47,1.54,1.22s2-.55,3.06-.81c.48-.12,1-.23,1.35.29s.11.93-.2,1.37c-2.25,3.22-4.51,6.44-6.73,9.69-.75,1.1-1.34,1.11-2.1,0-2.2-3.2-4.44-6.36-6.66-9.54-.34-.48-.61-1-.24-1.52s1-.33,1.51-.19c4.35,1.15,4.41,1.15,4.41-3.33,0-5,.21-10.09-.15-15.13-.07-.88.37-1.22,1.16-1.23.5,0,1,0,1.5,0,1.24-.07,1.64.53,1.62,1.72-.06,2.88,0,5.77,0,8.65Z"/></svg>