<svg xmlns="http://www.w3.org/2000/svg" viewBox="0 0 120 120"><path d="M75.47,42.57c.23,2.07.48,4.14.67,6.22.15,1.69.79,3.32.66,5a19.92,19.92,0,0,1-.33,3.27.65.65,0,0,0,.22.68,1.16,1.16,0,0,1,.25,1.39,13.33,13.33,0,0,0-.47,2.36c-.27,1.36-1.07,2.57-1.2,3.94a8.4,8.4,0,0,0,.37,4,3.27,3.27,0,0,1-.08,3,2.3,2.3,0,0,0-.25,1.54c.24,1.77.51,3.54.71,5.32a10.91,10.91,0,0,1,0,2.06,6.28,6.28,0,0,0,0,1.37,3.33,3.33,0,0,1-.93,2.29,7.82,7.82,0,0,1-2.4,2.32.85.85,0,0,0-.09,1.44,1,1,0,0,1,.31.87c-.18,1.42.17,2.83.07,4.24a3.67,3.67,0,0,1-.13.88,2.52,2.52,0,0,0-.07,1.56,2.2,2.2,0,0,1-.28,1.46,5.26,5.26,0,0,0-.33,1.93,18,18,0,0,1-.48,2.7c-.24,1.35-.74,2.63-.92,4a1.28,1.28,0,0,0,.66,1.33,6.6,6.6,0,0,0,3.56,1,1.47,1.47,0,0,1,1.19.58,1.39,1.39,0,0,1,0,2.18,11.65,11.65,0,0,1-1.24,1.09c-.32.27-.59.24-.75-.18s-.41-.38-.73-.31a6.82,6.82,0,0,1-3.53-.08,3.27,3.27,0,0,0-1.7,0c-1.08.26-1.71-.22-2.33-1.12-1-1.49-.29-2.81.16-4.18a8.39,8.39,0,0,0,.13-3.73c-.15-1.29-.2-2.6-.23-3.9a14.94,14.94,0,0,0-.64-3.92,3.75,3.75,0,0,1,0-1.7,18.3,18.3,0,0,1,1.27-3.85c.36-.92.22-1.91.52-2.84.11-.33-.27-.56-.45-.81-.78-1.12-.91-2.48-1.43-3.7a4.27,4.27,0,0,1-.45-1.65c0-.15,0-.35-.25-.35s-.2.18-.23.31c-.16.62-.33,1.24-.47,1.86-.23,1-.82,1.87-1.08,2.88A4.71,4.71,0,0,0,63.12,89a12.58,12.58,0,0,1,1.54,5.72,68.4,68.4,0,0,1-.62,9.58,8.32,8.32,0,0,0,.65,4.7,2.38,2.38,0,0,1-2,3.33A2.94,2.94,0,0,1,61,112a.59.59,0,0,0-.6,0,4,4,0,0,1-2.29.26c-1,0-2-.06-3,0a1.29,1.29,0,0,1-1.26-.56,1.11,1.11,0,0,1,.19-1.28,2.55,2.55,0,0,1,2.33-1.33,6.34,6.34,0,0,0,1.5-.18,2.27,2.27,0,0,0,1.75-3c-.44-1.67-.92-3.32-1.37-5-.33-1.2-.35-2.49-.61-3.71s-.3-2.32-.46-3.47a12.34,12.34,0,0,1,0-3.69,2.75,2.75,0,0,0-1.9-3.36,5.42,5.42,0,0,1-3-4.61,19.17,19.17,0,0,1,.85-5.42,16.49,16.49,0,0,0,.66-4.32,10.35,10.35,0,0,1,.16-1.23c.19-1.15.28-2.32.42-3.47a16,16,0,0,1,1-4.25A3.57,3.57,0,0,0,55.46,60a2.42,2.42,0,0,1,.35-2.36,1.38,1.38,0,0,0,.12-1.42,54.44,54.44,0,0,1-2.25-7.08,6.76,6.76,0,0,1-.12-1.5A6.19,6.19,0,0,0,52,43.53a42.54,42.54,0,0,1-4.8-5.85,20.66,20.66,0,0,1-2.45-5,9.92,9.92,0,0,1-.24-3.22c0-.68-.06-1.16-.84-1.41a1.17,1.17,0,0,1-.53-1.77,1.82,1.82,0,0,0,.32-1.24,4.28,4.28,0,0,1,.33-1.81,19.4,19.4,0,0,0,.85-5,18.52,18.52,0,0,0,0-3.16,11,11,0,0,0-.93-3.14c-.27-.62-.78-1.44-.17-1.91.81-.61,1-1.81,2.17-2.06.2,0,.26-.24.33-.41A.81.81,0,0,1,47,7.09c.4,0,.54.28.55.65s.14.41.4.21a.71.71,0,0,1,1,0c.45.41,1,.75.79,1.52a2.33,2.33,0,0,0,0,1.43c.13.47.38.68.86.38l.18-.1c.43-.26.91-.5,1.31-.05a1.17,1.17,0,0,1,0,1.48c-.4.61-.84,1.2-1.29,1.79a4.52,4.52,0,0,0-1,4c.53,2.32.72,4.71,1.19,7.05a2.87,2.87,0,0,1-.45,2.7,1.5,1.5,0,0,0-.07,1.4,14.07,14.07,0,0,0,2,4.07,14.8,14.8,0,0,0,1.85,2.65.83.83,0,0,0,1,.28,1.41,1.41,0,0,1,1,0,18.94,18.94,0,0,0,2.6.27.57.57,0,0,0,.57-.17c.41-.46.82-.93,1.19-1.42.24-.32,0-.63-.17-.88a2.8,2.8,0,0,1-.5-1.54,4.11,4.11,0,0,0-1.53-2.6,2.78,2.78,0,0,0-.27-.21c-1.2-.94-1.46-1.76-.86-3.12a4.66,4.66,0,0,1,2.16-2.43c.63-.31,1.3-.57,2-.87a4.2,4.2,0,0,1,2.75-.31,7.81,7.81,0,0,1,3.31,1.05,6.62,6.62,0,0,1,2.51,3.18,1.76,1.76,0,0,1-.58,2.06A3,3,0,0,0,68.17,32a2.34,2.34,0,0,1-1,1.75c-.91.76-.83.81-.28,1.82a2.72,2.72,0,0,0,2.3,1.38A10.91,10.91,0,0,1,74,38.64,4.28,4.28,0,0,1,75.53,42c0,.18,0,.37,0,.55ZM69.89,88.7h.28c1.11,0,1.11,0,1.23-1.1A1.79,1.79,0,0,1,72,86.45l1.72-1.59c1.19-1.08,1.21-2.53,1.17-4,0-.37-.15-.76-.13-1.15,0-1.58-.52-3.06-.68-4.61a19.79,19.79,0,0,0-.81-4.22c-.54-1.59-.38-3.42-1.76-4.7-.1-.09-.13-.25-.2-.36a7.42,7.42,0,0,1-.65-2.1c0-.2-.07-.52-.36-.52s-.2.31-.28.49A8.33,8.33,0,0,1,68.59,66a1.87,1.87,0,0,1-3,.12,6.77,6.77,0,0,1-1.88-2.76c-.06-.22-.14-.51-.37-.55-.82-.16-1.47-.82-2.39-.75a8,8,0,0,1-3.1-.52c-.56-.18-.84-.06-1.07.48s-.22,1.36-.44,2a22.05,22.05,0,0,0-1,5.11c-.23,2.63-.73,5.22-1.06,7.83-.24,1.89-.72,3.74-.87,5.64a2.12,2.12,0,0,0,1,2.17,17.49,17.49,0,0,1,2.59,2A2.61,2.61,0,0,1,58.18,89c0,.38.21.61.63.45a8.13,8.13,0,0,1,2-.4.94.94,0,0,0,1-1.1,2.26,2.26,0,0,0-.19-1,1.5,1.5,0,0,1-.09-1.21c.19-.61.37-1.22.62-1.82a14.88,14.88,0,0,0,1.28-5.22c.05-1,.35-2,.45-3a1.18,1.18,0,0,1,.14-.45c.23-.42.63-.42.85,0a2.37,2.37,0,0,1,.18.59c.38,1.77.58,3.56.93,5.34a8.47,8.47,0,0,0,1.42,3.3c.48.69.48,1.61.94,2.33,0,.07,0,.22,0,.33-.3,1.45-.13,1.67,1.34,1.67Zm-7-41.94a4.3,4.3,0,0,0-.44-1.9,12.66,12.66,0,0,1-1.38-3.21c-.09-.51-.28-.74-.83-.59s-.72-.09-.72-.57c0-.71,0-1.42.07-2.13s-.05-.76-.66-.58a6.12,6.12,0,0,1-1.35.45c-1.64,0-3.22-.16-4.33-1.6-.24-.31-.52-.58-.74-.9-.41-.62-.71-1.3-1.17-1.87a10.68,10.68,0,0,1-1.91-3.79c-.55-1.82-.55-1.82-2.48-1.76h-.2c-.72.06-1,.33-1,1a12,12,0,0,0,1.69,6.43c.61.92,1.26,1.81,1.8,2.75a14.68,14.68,0,0,0,2.26,2.93,10.44,10.44,0,0,1,3.45,7.26,16.13,16.13,0,0,0,.88,4.43c.41,1.31.92,2.6,1.4,3.89a1.21,1.21,0,0,0,.75.76,18,18,0,0,0,2.15.71,3.94,3.94,0,0,0,1.37,0A1.43,1.43,0,0,0,62.7,57a19.08,19.08,0,0,1-.1-2.26C62.83,52.08,62.47,49.41,62.89,46.76Zm.78,7.52c0,.53,0,1,0,1.58,0,1.07-.14,2.17,1.2,2.6.08,0,.14.13.2.19a.75.75,0,0,0,.69.26,13,13,0,0,0,3-.58A2.47,2.47,0,0,0,70,56.08c-.07-.3-.16-.66-.57-.48s-.65,0-.88-.3a9.28,9.28,0,0,1-1.87-5.43,4.43,4.43,0,0,0-.19-1.48,1.56,1.56,0,0,1,1.38-2.2,8.79,8.79,0,0,1,1.85.18c.54.08.8-.15.83-.72a34.35,34.35,0,0,1,.28-5.27,1.25,1.25,0,0,0-.9-1.5,4.62,4.62,0,0,1-1.69-1c-.13-.14-.31-.25-.5-.12s-.1.33-.06.51a6.87,6.87,0,0,1,.09,1.92c0,.4-.15.72-.64.72s-.57.33-.74.63a37.67,37.67,0,0,1-2.16,3.68,1.75,1.75,0,0,0-.36,1.1C64,49,63.61,51.62,63.67,54.28Zm.06,42c-.09-.91-.22-2.65-.46-4.36a3.38,3.38,0,0,0-.8-1.67c-.17-.2-.35-.37-.64-.29a29.24,29.24,0,0,1-3.11.52c-.38.07-.65.23-.62.67a36,36,0,0,0,.39,4.86c.21,1,.38,2,.49,3.06a19.65,19.65,0,0,0,.89,3.65,12,12,0,0,1,.77,3.13,1.56,1.56,0,0,0,1.59,1.76c.64.08.92-.08.84-.75a8.24,8.24,0,0,1,0-3.13,4.29,4.29,0,0,0,.25-1.35C63.2,100.64,63.72,98.91,63.73,96.32Zm8.08-4.4c0-1.49-.5-2.14-1.63-2a3.41,3.41,0,0,1-1.62-.2.68.68,0,0,0-.92.33,6.2,6.2,0,0,0-.49,1.43A8.72,8.72,0,0,0,66.62,96a56.61,56.61,0,0,1,.74,9.1,4.13,4.13,0,0,1-.22,1.63c-.19.46,0,.72.47.79a8.56,8.56,0,0,1,1,0c.76.22,1-.22,1.14-.81.25-1.14.47-2.28.7-3.42.26-1.35.09-2.76.53-4.07a21.46,21.46,0,0,0,.6-3.16C71.85,94.73,71.44,93.28,71.81,91.92ZM48.8,11.3c0-.3,0-.6,0-.89s0-.44-.24-.41-.15.25-.15.4a2.88,2.88,0,0,1,0,.41c-.06.42-.33.67-.72.49s-.58-.28-.92.07-.67-.31-.92-.12.07.75-.39.94-.43.57-.26,1a9.52,9.52,0,0,1,.6,4.91,62,62,0,0,1-1.18,8c-.14.57.1.83.66.87a9,9,0,0,0,1.37,0c1-.09,2,.22,2.94-.17a.63.63,0,0,0,.49-.81c-.23-1.78-.79-3.5-.94-5.3a8.29,8.29,0,0,0-.27-2.38,3.59,3.59,0,0,1,0-2.4,8.88,8.88,0,0,1,1.51-2.51c.12-.18.39-.36.19-.59s-.41,0-.6.12c-.55.3-.9.17-1.12-.42A3.63,3.63,0,0,1,48.8,11.3ZM75.55,54.15a15.49,15.49,0,0,0-.47-4.5A7.55,7.55,0,0,1,74.75,48c0-2.17-.4-4.3-.57-6.45a3,3,0,0,0-.41-1.3c-.33-.6-.92-.53-1.47-.5s-.46.5-.5.85c-.06.62-.09,1.24-.13,1.85-.11,1.62-.42,3.24.22,4.83a1.53,1.53,0,0,1,.06.61c0,1.58-.48,3.12-.5,4.7a20,20,0,0,1-.59,3.25c0,.26-.12.53.21.63a11,11,0,0,0,3,.87c.83,0,1.11-.18,1.36-1A8.18,8.18,0,0,0,75.55,54.15ZM63.46,35.89c1.15,0,1.81-.41,2-1.27a13.21,13.21,0,0,1,.92-2.81c.15-.28.1-.66-.28-.56-.75.19-1.16-.23-1.61-.66a1,1,0,0,0-1.56.19c-.57.88-.75.92-1.59.35-.14-.1-.28-.31-.47-.19s-.12.37-.06.56c.3,1.06.62,2.11.94,3.16S62.38,35.91,63.46,35.89Zm11.58,75c.27,0,.75.21.69-.33s-.43-.46-.81-.41-.73.07-1.09.1a1.53,1.53,0,0,1-1-.3c-.76-.52-1.52-1-2.27-1.55-.3-.21-.63-.33-.88-.09-.67.67-1.44.45-2.2.36-.22,0-.49-.16-.66,0a1.54,1.54,0,0,0-.37,1.53,1.06,1.06,0,0,0,1,.94c1.36,0,2.71-.48,4.07.08.28.12.68,0,1,0A8.74,8.74,0,0,0,75,110.86ZM74.39,71a1.58,1.58,0,0,0,0-1.36A7,7,0,0,1,74,65.44c.38-1.56.85-3.09,1.3-4.63.53-1.81.31-2.2-1.5-2.49l-.21,0c-.61-.07-.81.12-.73.73a8.52,8.52,0,0,1,.17,3,2.26,2.26,0,0,0,.09,1.23,4,4,0,0,1,.16,2.3c-.35,1.37.31,2.52.57,3.75A7.4,7.4,0,0,0,74.39,71Zm-4.57-9.49c0-.18.05-.37-.12-.51s-.25,0-.37.06a6.87,6.87,0,0,1-3.43,1.06c-1.13.13-1.6.93-1,1.87.2.31.42.6.64.89.81,1.08,1.65,1.14,2.67.13A5.42,5.42,0,0,0,69.82,61.47Zm-7.47,49.7h.38c.4,0,.82,0,1-.45a1.75,1.75,0,0,0,.05-1.65.47.47,0,0,0-.64-.23,1.53,1.53,0,0,1-1.13-.08,2.09,2.09,0,0,0-2.4.33,3.85,3.85,0,0,1-2.48,1.06c-.55,0-1.1,0-1.65.09a.46.46,0,0,0-.45.36.23.23,0,0,0,.24.27c.58,0,1.11.3,1.7.15a2.85,2.85,0,0,1,1.56.06,1.75,1.75,0,0,0,1.76-.25.53.53,0,0,1,.75,0A1.51,1.51,0,0,0,62.35,111.17Zm3.06-86.72c-.56,0-.84.12-.56.67a.7.7,0,0,1-.22.92c-.24.22-.19.4.14.48a5.11,5.11,0,0,1,.53.13c.35.13.62.19.64-.34,0-.37.32-.31.58-.25a2.11,2.11,0,0,1,1.75,2.71c0,.15-.1.32.11.41s.26,0,.34-.15a1.71,1.71,0,0,0,.43-1.33A4.92,4.92,0,0,0,65.41,24.45Zm-4,35.75c0-.34-.12-.62-.5-.58-1.44.17-2.59-.58-3.81-1.13-.18-.08-.35-.17-.51,0a1,1,0,0,0-.32,1.11c.13.4.39.82.88.7a1.14,1.14,0,0,1,1.18.28,1.19,1.19,0,0,0,.79.18,6.8,6.8,0,0,1,1.42.17C61.13,61.05,61.43,60.78,61.43,60.2Zm-3.16-32a4.41,4.41,0,0,0,.09.45c.08.24.17.54.46.54s.32-.34.35-.57a3.46,3.46,0,0,1,1-1.81c.51-.59.73-.58,1.31,0a.41.41,0,0,0,.61,0c.24-.19.16-.4,0-.59a1.23,1.23,0,0,1-.37-.85c0-.64-.27-.78-.84-.46a7.39,7.39,0,0,0-2,1.64A2.72,2.72,0,0,0,58.27,28.16ZM61.91,38c.08.62.7,1.19,1.09,1.87a.33.33,0,0,0,.44.07c.18-.1.16-.25.11-.42-.25-1-.15-1.11.87-1a.56.56,0,0,0,.63-.3,1.71,1.71,0,0,0,0-1.4c-.07-.23-.35-.14-.55-.11a5.07,5.07,0,0,1-1.5.15C62.12,36.79,61.94,36.93,61.91,38Zm1.67-10.45A3.1,3.1,0,0,0,62,28c-.23.13-.58.18-.57.52s.37.37.63.43a5.79,5.79,0,0,0,4.27-.19c.13-.07.35,0,.36-.25s-.16-.27-.3-.34A6.13,6.13,0,0,0,63.58,27.58ZM71.9,61.91c.25-.79-.3-1.5-.53-2.28-.08-.27-.27-.56-.59-.47s-.17.42-.16.66c.07,1.78.86,3.4,1.18,5.13,0,.21.1.54.38.48s.19-.41.18-.65a.88.88,0,0,0-.06-.27A10.64,10.64,0,0,1,71.9,61.91Zm-5.4-2-.45,0a.66.66,0,0,0-.83.62c0,.57.42.51.78.5a3.7,3.7,0,0,0,.81-.13c.77-.22,1.54-.47,2.31-.67.27-.07.48-.15.54-.44a.45.45,0,0,0-.18-.49c-.25-.18-.47-.05-.7.07A7.12,7.12,0,0,1,66.5,59.9Zm-.85-19.08c.08-.34,0-.57-.25-.64a.72.72,0,0,0-.89.46c-.14.89-.9,1.56-.84,2.5a1.72,1.72,0,0,1-.2.79c-.09.18-.34.42,0,.59s.45-.15.56-.35c.49-.9,1-1.82,1.42-2.73C65.51,41.21,65.59,41,65.65,40.82Zm4.27,11c0-.56,0-.93-.09-1.29a1.18,1.18,0,0,0-1.14-1c-.49-.07-.06.55-.27.8a.6.6,0,0,0-.09.33c0,.55-.06,1.1-.07,1.65,0,.18,0,.42.26.41s.23-.28.23-.47-.06-.37-.06-.55.07-.43.31-.47.34.19.4.39a2.23,2.23,0,0,1,0,1.09c0,.14,0,.29.15.34a.26.26,0,0,0,.34-.24C69.9,52.44,69.91,52.05,69.92,51.85ZM69.4,48.3c.34,0,.67.09.95-.13s.35-.27.27-.51a.41.41,0,0,0-.51-.26,2.78,2.78,0,0,1-1.34-.16,2.53,2.53,0,0,0-1.16,0,.33.33,0,0,0-.27.28.27.27,0,0,0,.24.3C68.22,47.88,68.73,48.44,69.4,48.3ZM66.69,37.59c0-.44,0-.74,0-1a.29.29,0,0,0-.24-.29.31.31,0,0,0-.35.26,1.57,1.57,0,0,0,0,.61,1.92,1.92,0,0,1-.24,1.63.34.34,0,0,0,.08.54c.21.17.44.37.73.24s.2-.33.18-.53A6.49,6.49,0,0,1,66.69,37.59Zm-6.16.56c0,.43,0,.86,0,1.3a.31.31,0,0,0,.26.35,1.08,1.08,0,0,0,.66-.16.22.22,0,0,0,0-.36c-.68-.71-.42-1.59-.44-2.42,0-.18.13-.48-.15-.51s-.34.27-.36.49C60.51,37.28,60.53,37.71,60.53,38.15Z"/><path d="M58.69,50.46a5.59,5.59,0,0,0,.14,1.26c.07.41,0,.74-.52.78-.15,0-.38,0-.36.21s.28.31.48.28a4,4,0,0,0,1.77-.71c.23-.16.46-.52.74-.18s0,.62-.23.83a4.62,4.62,0,0,1-2.31,1c-1.1.14-2.17-1.06-2.33-2.28s0-2.44-.68-3.58c-.41-.71.54-2,1.38-1.95a24.3,24.3,0,0,0,3.62.27.44.44,0,0,1,.27.07c1,.65.35,1.52.27,2.29-.07.58-.49.73-1,.66h-.07C58.69,49.25,58.67,49.28,58.69,50.46Zm-1.16-3.24a7.48,7.48,0,0,0-.82,0,.47.47,0,0,0-.48.48c0,.29.2.38.43.45a.88.88,0,0,0,1-.16c.25-.23.55-.35.85-.07a1,1,0,0,0,1.51.13c.14-.11.32-.22.24-.44a.34.34,0,0,0-.39-.23C59,47.6,58.31,47.09,57.53,47.22Z"/><path d="M63.46,35.38c-.33-.06-.75-.06-.85-.52s.21-.56.53-.68.32-.28.15-.52-.22-.48.05-.67a.69.69,0,0,1,.84,0c.27.2.22.47,0,.73s-.28.31,0,.46.5.28.31.63A1.09,1.09,0,0,1,63.46,35.38Z"/></svg>