<svg xmlns="http://www.w3.org/2000/svg" viewBox="0 0 120 120"><defs><style>.a{fill:#c90106;}</style></defs><path class="a" d="M60.11,106H9.34c-.29,0-.58,0-.87,0-1.47-.1-1.66-.48-.94-1.71,3.1-5.27,6.2-10.54,9.25-15.84q11-19,21.9-38l19.8-34.37c1.58-2.74,1.58-2.74,3.11-.1Q72,33.89,82.33,51.82q14.74,25.6,29.46,51.23c1.65,2.87,1.66,2.93-1.62,2.94q-25,0-50.06,0ZM60,95.5v0H93.29c.41,0,.85.14,1.11-.28s-.07-.75-.27-1.1L84.07,76.73Q72.82,57.26,61.58,37.8c-.44-.75-.36-2.14-1.52-2.12s-1.06,1.4-1.5,2.15C53.47,46.54,48.45,55.28,43.4,64Q34.69,79.08,26,94.15c-.73,1.25,0,1.35,1,1.35Q43.49,95.48,60,95.5Z"/><path d="M60.24,90.53h-21c-2,0-2.2-.22-2.06-2.24a3.87,3.87,0,0,0,0-1.22c-.45-1.93.19-2.84,2.24-3.2,1.66-.28,2.65-1.8,3.64-3.11a6.58,6.58,0,0,1,4.86-3A6.25,6.25,0,0,1,53.71,80c.3.36.58.72.87,1.09C58,85.55,62.51,85.56,65.87,81c1.6-2.17,3.47-3.53,6.3-3.35a6.31,6.31,0,0,1,4.71,2.64c1.43,1.77,2.8,3.62,5.34,3.92a1.16,1.16,0,0,1,1,1.27c0,1.23,0,2.45,0,3.68s-1,1.35-2,1.35q-10.5,0-21,0Z"/></svg>