<svg xmlns="http://www.w3.org/2000/svg" viewBox="0 0 120 120"><defs><style>.a{fill:#0054a7;}</style></defs><path class="a" d="M60.19,110.51A50.15,50.15,0,0,1,10,59.21c.36-27.79,22.13-49.9,50.11-49.72A50.07,50.07,0,0,1,110,60.66C109.65,88.93,87.69,110.11,60.19,110.51ZM46.8,75.16h-.09c0-6.23,0-12.46,0-18.69,0-3.73,2.92-7.69,6.63-8.26,4.07-.63,8.23-.33,12.36-.14.94,0,1.47.61,1.1,1.66-1.06,3-.86,6.21-1.72,9.23-.27,1-.41,2,.62,2.66s2.09.29,3.05-.41c2.49-1.81,5-3.57,7.52-5.37q7.43-5.31,14.84-10.66c2-1.43,2-2.55,0-4.08-1.64-1.26-3.4-2.37-5.1-3.57-5.46-3.88-10.93-7.75-16.56-11.4a5.65,5.65,0,0,0-2.58-1.33c-1.61-.16-2.37.47-2.11,2.1.5,3.1,1.07,6.18,1.69,9.26.4,1.92.29,2.25-1.64,2.3-3.45.08-6.91,0-10.36.09-6.41.2-11,3.65-14.38,8.74-2.22,3.31-2.84,7.15-2.79,11.11q.23,18.13.39,36.26c0,1.48.58,2.16,2.1,2.09,1.72-.08,3.45-.06,5.18,0,1.32,0,1.87-.61,1.87-1.93C46.79,88.23,46.8,81.69,46.8,75.16Z"/></svg>