<svg xmlns="http://www.w3.org/2000/svg" viewBox="0 0 120 120"><defs><style>.a,.c{fill:#fff;}.a{stroke:gray;stroke-miterlimit:10;}.b{fill:#c90106;}</style></defs><polygon class="a" points="82.37 6 37.63 6 6 37.63 6 82.37 37.63 114 82.37 114 114 82.37 114 37.63 82.37 6"/><polygon class="b" points="79.47 13 40.53 13 13 40.53 13 79.47 40.53 107 79.47 107 107 79.47 107 40.53 79.47 13"/><path class="c" d="M39.34,54H32V51.78a4.36,4.36,0,0,0-.28-2,1,1,0,0,0-.93-.43,1.19,1.19,0,0,0-1.08.58,3.4,3.4,0,0,0-.36,1.76A5,5,0,0,0,29.78,54,5.92,5.92,0,0,0,32,55.82c3.51,2.08,5.71,3.79,6.62,5.12S40,64.43,40,67.4a11.2,11.2,0,0,1-.76,4.76,5.93,5.93,0,0,1-2.92,2.58,11.62,11.62,0,0,1-5.05,1,11.28,11.28,0,0,1-5.4-1.19,5.88,5.88,0,0,1-2.92-3,15.43,15.43,0,0,1-.7-5.26v-2h7.32V68a4.93,4.93,0,0,0,.3,2.18,1.19,1.19,0,0,0,1.1.49A1.3,1.3,0,0,0,32.13,70a3.57,3.57,0,0,0,.38-1.83c0-1.78-.24-3-.73-3.5A23.87,23.87,0,0,0,28.1,62a34.08,34.08,0,0,1-3.89-2.82,6.53,6.53,0,0,1-1.58-2.43,10.69,10.69,0,0,1-.63-4,11,11,0,0,1,.89-5.08,6,6,0,0,1,2.87-2.52,11.54,11.54,0,0,1,4.79-.9,12.47,12.47,0,0,1,5.22,1,5.44,5.44,0,0,1,2.86,2.49,13.17,13.17,0,0,1,.71,5.12Z"/><path class="c" d="M58.32,44.86v6.06H53.64V75.14H45.77V50.92H41.11V44.86Z"/><path class="c" d="M78.1,62.59c0,3-.07,5.2-.21,6.46a7.25,7.25,0,0,1-1.35,3.47,7.16,7.16,0,0,1-3.06,2.41,11.12,11.12,0,0,1-4.48.84A11.39,11.39,0,0,1,64.63,75a7.28,7.28,0,0,1-4.52-5.84,64.29,64.29,0,0,1-.22-6.55V57.41c0-3,.07-5.2.21-6.46a7.35,7.35,0,0,1,1.35-3.47,7.16,7.16,0,0,1,3.06-2.41A11.14,11.14,0,0,1,69,44.23a11.37,11.37,0,0,1,4.36.79,7.28,7.28,0,0,1,4.52,5.84,64.29,64.29,0,0,1,.22,6.55Zm-7.87-10a9.62,9.62,0,0,0-.23-2.7.94.94,0,0,0-1-.59,1.07,1.07,0,0,0-.94.48,6.65,6.65,0,0,0-.33,2.81V66.78A13.35,13.35,0,0,0,68,70a.93.93,0,0,0,1,.62,1,1,0,0,0,1-.71,14.81,14.81,0,0,0,.23-3.39Z"/><path class="c" d="M81,44.86H89a18.39,18.39,0,0,1,4.94.51,5.41,5.41,0,0,1,2.6,1.46,4.91,4.91,0,0,1,1.18,2.3,20.44,20.44,0,0,1,.31,4.2V56a11,11,0,0,1-.6,4.23,4.08,4.08,0,0,1-2.2,2A10.23,10.23,0,0,1,91,63H88.91V75.14H81ZM88.91,50v7.71l.58,0A1.82,1.82,0,0,0,91,57.23,3.89,3.89,0,0,0,91.42,55V52.53a2.87,2.87,0,0,0-.49-2A3.06,3.06,0,0,0,88.91,50Z"/></svg>