<svg xmlns="http://www.w3.org/2000/svg" viewBox="0 0 120 120"><defs><style>.a{fill:#c90106;}</style></defs><path class="a" d="M62.1,5A55.07,55.07,0,1,1,4.9,57.17,55,55,0,0,1,62.1,5Zm-2,98.51a43.52,43.52,0,0,0,.16-87C35,16.29,16.32,36.29,16.38,60.2A43.46,43.46,0,0,0,60.06,103.48Z"/><path d="M71.79,84.55a5.48,5.48,0,0,0-1.13,3.17q-.69,3.66-1.27,7.34c-.25,1.53-1.08,2-2.59,2s-2-.67-2.17-2c-.37-2.45-.82-4.9-1.34-7.32-.17-.82.06-2.34-.92-2.25-.81.07-.44,1.59-.43,2.46,0,2.37.13,4.74.24,7.12.06,1.32-.38,2-1.85,2-1.08,0-1.57-.54-1.55-1.61.11-5.12.15-10.25,0-15.37,0-.38,0-.87.31-1,1.41-.75,3-.38,4.41-.28,1,.07,1.07,1.08,1.19,1.89.41,3,1.37,5.89,1.62,8.92,0,.45,0,1.11.68,1.11s.61-.67.67-1.13C68,86.32,69,83.26,69.5,80.13c.2-1.21.83-1.6,2-1.55,3.81.15,3.85-.81,3.75,3.86-.08,4.15-.06,8.31,0,12.46,0,1.28-.21,2.11-1.71,2.1s-1.84-.9-1.76-2.24c.17-2.75.24-5.5.33-8.25A2.75,2.75,0,0,0,71.79,84.55Z"/><path d="M45,87.79c0-2.48.05-5,0-7.44-.05-1.5.7-1.83,2-1.8s2.28.21,2.11,1.86c-.13,1.28-.2,2.57-.3,3.86,0,.41-.33,1,.21,1.14s.85-.36,1-.79c.66-1.48,1.29-3,1.94-4.45A3.36,3.36,0,0,1,56,78.6c.81.37.5,1,.22,1.49-.91,1.77-1.79,3.56-2.77,5.3a2.55,2.55,0,0,0-.16,2.45c1.06,2.54,2.09,5.08,3.16,7.61.4.94.2,1.43-.87,1.53-2.47.22-3-.08-3.85-2.38C51.16,93,50.58,91.36,50,89.75c-.17-.42-.38-1-1-.87s-.28.77-.21,1.15A42.64,42.64,0,0,1,49,95.2c.09,1.64-.92,1.77-2.2,1.79S44.91,96.5,45,95.07C45.05,92.65,45,90.22,45,87.79Z"/><path d="M44.84,31.68H50.6v29h5.68v5.61h-19V60.7h5.78V40.43a21.5,21.5,0,0,1-5.78,4.3V38A22.43,22.43,0,0,0,44.84,31.68Z"/><path d="M81.86,40.58l-6.12,1.84q-.83-5.49-4.29-5.49a3.73,3.73,0,0,0-3.38,2.23c-.8,1.48-1.23,4.62-1.28,9.39a6.77,6.77,0,0,1,6.29-3.89,8.27,8.27,0,0,1,6.39,2.88,11.36,11.36,0,0,1,2.59,7.88q0,5.61-3,8.51a10.79,10.79,0,0,1-7.79,2.91q-11.4,0-11.39-17.26,0-9.33,3.14-13.73a10.12,10.12,0,0,1,8.7-4.4,9.83,9.83,0,0,1,6.69,2.3A11.59,11.59,0,0,1,81.86,40.58ZM74.74,55.41c0-3.52-1.24-5.27-3.72-5.27s-3.9,1.92-3.9,5.77a6.71,6.71,0,0,0,1,4.1,3.35,3.35,0,0,0,2.76,1.34Q74.75,61.35,74.74,55.41Z"/></svg>