<svg xmlns="http://www.w3.org/2000/svg" viewBox="0 0 120 120"><defs><style>.a{fill:#c90106;}</style></defs><path class="a" d="M60,106.05H9.07c-.62,0-1.34.2-1.79-.41s.08-1,.33-1.41q6.82-11.76,13.64-23.52,8.68-15,17.32-30Q47.3,35.49,56,20.29a64.19,64.19,0,0,0,3.17-5.61c.47-1.06,1.32-1,1.91.06,6.76,11.85,13.48,23.71,20.27,35.54q15.11,26.28,30.3,52.51c1.86,3.21,1.87,3.27-1.93,3.27q-24.85,0-49.71,0ZM80.37,95.46H92.93c.45,0,1,.2,1.25-.32s-.15-.87-.37-1.26q-2.48-4.3-5-8.62Q74.92,61,61,36.72c-.23-.4-.41-.88-1-.82s-.61.48-.81.84c-2.19,4-4.33,8-6.6,11.88Q39.49,71.27,26.34,93.87c-.23.4-.57.79-.26,1.27s.71.31,1.12.31c7.9,0,15.8-.13,23.7-.11C60.72,95.37,70.55,95.5,80.37,95.46Z"/><path d="M44.82,84.53c0-2.56,0-5.12,0-7.68A3,3,0,0,1,46,74.45c2.07-2,4.1-4.13,6.21-6.12a3.44,3.44,0,0,0,1.11-2.79c-.1-4.54-.09-9.07-.22-13.61,0-1.38.59-1.79,1.77-1.7s2.81-.54,2.83,1.56c0,5.24,0,10.47,0,15.71a2.93,2.93,0,0,1-1.13,2.08c-2.07,2-4.09,4.13-6.19,6.15A4.31,4.31,0,0,0,49,79.29c.13,4.3.06,8.61.11,12.91,0,1.77-1.14,1.73-2.37,1.71s-2.09-.25-2-1.88c.14-2.49,0-5,0-7.5Z"/><path d="M66.88,72.19V92.07c0,1.65-.45,1.93-2.73,1.84-1.29,0-1.93-.48-1.72-1.93a26.1,26.1,0,0,0,.12-3.65q0-18.22-.09-36.44c0-2.09,1.41-1.52,2.52-1.65,1.3-.16,1.94.31,1.93,1.73,0,6.74,0,13.48,0,20.22Z"/></svg>