<svg xmlns="http://www.w3.org/2000/svg" viewBox="0 0 120 120"><defs><style>.a{fill:#d10001;}.b{fill:#2b2928;}</style></defs><path class="a" d="M111.71,60.06a51.45,51.45,0,0,1-52,51.61C30.61,111.48,7.89,88.36,8.29,59,8.68,30.71,31.75,8,60.85,8.33A51.59,51.59,0,0,1,111.71,60.06Zm-11.78.31A40,40,0,1,0,59.8,100.25C81.71,100.44,99.88,82.25,99.93,60.37Z"/><path class="b" d="M64.84,60.31l-5.54-.26c-.52,0-1.11-.19-1.38.42s.13,1,.5,1.37c2.4,2.36,4.16,5.27,6.54,7.64a1.8,1.8,0,0,1,.15,2.71c-.54.77-1,.8-1.67.15-3.78-3.83-7.59-7.62-11.34-11.48-1.87-1.93-1.31-4.12,1.28-4.93a62,62,0,0,1,8-1.52c.56-.1,1.26,0,1.4-.76A1.55,1.55,0,0,0,62,52.18a42.15,42.15,0,0,1-5-5.48c-.78-1-1.31-1-2.22-.16-2.62,2.44-5.32,4.79-8,7.19a1.16,1.16,0,0,1-1.82,0,1,1,0,0,1,0-1.64c3.27-3.5,6.5-7.06,9.76-10.57a12.45,12.45,0,0,1,2.06-1.85c2.6-1.77,5-1.46,6.86,1,3.07,4.12,6,8.33,9.08,12.48a4.11,4.11,0,0,1,.39,4.72A4.36,4.36,0,0,1,69,60.22H64.84Z"/><path class="b" d="M69.06,71A10.87,10.87,0,0,1,80.27,60.2a11,11,0,0,1-.39,22A10.9,10.9,0,0,1,69.06,71Zm11-7.56a8.14,8.14,0,0,0-7.79,7.94c0,3.8,3.78,7.47,7.66,7.5a7.94,7.94,0,0,0,7.75-7.73C87.66,67.12,84,63.39,80.08,63.41Z"/><path class="b" d="M28.85,71.1a11,11,0,1,1,21.91.31A11.05,11.05,0,0,1,39.44,82.16,10.92,10.92,0,0,1,28.85,71.1Zm18.6.13a8.15,8.15,0,0,0-7.76-7.83c-3.95,0-7.53,3.66-7.58,7.79a7.81,7.81,0,0,0,7.61,7.68A8.1,8.1,0,0,0,47.45,71.23Z"/><path class="b" d="M52.81,36.9c1.23.15,2-.22,2.07-1.62s-.53-2.1-2-2c-.61,0-1.35.34-1.7-.42s.16-1.22.48-1.76a5,5,0,0,1,5-2.65,4.85,4.85,0,0,1,4,4.05c.27,1.45.13,3.3-1.06,3.77-2.33.91-4.2,2.81-6.78,3.07-1,.09-2,.06-1.91-1.33C51,36.79,51.82,36.66,52.81,36.9Z"/></svg>