<svg xmlns="http://www.w3.org/2000/svg" viewBox="0 0 120 120"><defs><style>.a{fill:#c90106;}</style></defs><path class="a" d="M60,101.18H18.54c-1.56,0-3.12,0-4.69,0-.41,0-.87,0-1.12-.39s.08-.78.28-1.13q6.68-11.49,13.35-23Q33.22,64.79,40,52.93c4.15-7.18,8.32-14.34,12.44-21.53,2.27-4,4.73-7.85,6.79-11.95.49-1,1.15-.74,1.61.13,3.23,6.13,6.86,12,10.31,18q7.06,12.26,14.15,24.51Q93.88,77,102.43,91.79c1.52,2.62,2.86,5.33,4.6,7.81.24.34.48.72.25,1.16s-.67.41-1.1.41q-10.79,0-21.59,0H60Zm.07-9.39v0H89.52c.41,0,.86.14,1.14-.29s0-.75-.21-1.13Q83.19,78,76,65.54c-4.83-8.35-9.61-16.73-14.42-25.09-1.52-2.65-1.53-2.64-3.06,0q-7.27,12.6-14.56,25.19c-4.4,7.64-8.75,15.3-13.16,22.92-1.83,3.16-1.88,3.2,1.78,3.21C41.73,91.82,50.92,91.79,60.1,91.79Z"/><path d="M62.49,80c-.66,3,1.48,5.41,2.29,8.22.17.61,1.28,1.29.25,1.83a2.18,2.18,0,0,1-2.85-.5c-.78-1-1.43-2.17-2.11-3.28-1.76-2.84-3.54-5.66-5.26-8.52A2.7,2.7,0,0,0,52,76.3a23.14,23.14,0,0,1-9.42-1c-.71-.26-1.67-.45-1.55-1.47s1-1.08,1.74-1.32c3.09-1,6.29-.91,9.46-.89a2.46,2.46,0,0,0,2.45-1.26c2.33-3.83,4.74-7.6,7.07-11.43a2.6,2.6,0,0,1,2.65-1.52c.93.09,1.2.52.84,1.36-.43,1-.81,2-1.33,3-1.42,2.67-1.59,5.54-1.51,8.48,0,1.07.44,1.51,1.48,1.54a38.77,38.77,0,0,1,6.54.57,1.54,1.54,0,0,0,1.78-.94c.47-.93,1-1.85,1.44-2.78.25-.5.42-1.21,1.14-1.06s.59.87.57,1.43c0,.88-.39,1.89-.08,2.63a5,5,0,0,1,0,4.44c-.38.78,0,1.94.09,2.92,0,.48.07,1-.47,1.21s-.92-.3-1.17-.78c-.51-1-1-1.93-1.51-2.91a1.53,1.53,0,0,0-1.92-.9,27.39,27.39,0,0,1-5.92.45c-1.51,0-2.14.46-1.92,2A15.77,15.77,0,0,1,62.49,80Z"/></svg>