<svg xmlns="http://www.w3.org/2000/svg" viewBox="0 0 120 120"><defs><style>.a{fill:#c90106;}.b{fill:#2b2928;}</style></defs><path class="a" d="M62.5,116.15h-5c-1.48-.59-3.07-.41-4.61-.6A56.08,56.08,0,0,1,5.09,71.11c-.56-2.86-.63-5.77-1.24-8.61v-5c.59-1.53.42-3.18.61-4.76C7.28,29.33,25.72,9.58,48.89,5.09c2.86-.55,5.78-.6,8.61-1.24h4.68c2.47.32,4.95.58,7.4,1a56,56,0,0,1,45.35,44.21c.56,2.91.65,5.87,1.22,8.77V62.5c-.57,1.54-.42,3.18-.61,4.77-2.83,23.41-21.22,43.12-44.43,47.63C68.25,115.46,65.34,115.53,62.5,116.15Zm-2.34-76H27.89c-1.76,0-1.79,0-1,1.39L59.05,97.27c.94,1.63,1,1.63,1.91,0q16.09-27.86,32.2-55.7c.76-1.32.29-1.41-.89-1.41Q76.22,40.18,60.16,40.16ZM104.61,59a43.12,43.12,0,0,0-1.54-10.4c-.11-.42-.07-1.08-.57-1.16s-.63.6-.85,1Q86.34,74.86,71,101.37c-.2.34-.69.7-.44,1.09s.86.06,1.25,0C91,97.36,104.62,79.7,104.61,59Zm-87-12C9.4,71,25.38,97.58,49.69,102.62ZM60.05,29.18q14.88,0,29.78,0c.46,0,1.16.34,1.37-.3.14-.48-.5-.72-.83-1A44.87,44.87,0,0,0,29.9,27.6c-.42.39-1.33.69-1,1.34s1.13.23,1.72.23Q45.31,29.2,60.05,29.18Z"/><path class="b" d="M71.81,53.32c0,1.82,0,3.64,0,5.46a4.8,4.8,0,0,1-9.59,0q-.08-5.46,0-10.92a4.8,4.8,0,0,1,9.59,0C71.85,49.68,71.81,51.5,71.81,53.32ZM65,53.22c0,1.71,0,3.42,0,5.13,0,1.33.52,2.22,2,2.31,1.22.07,2-.76,2.06-2.19,0-3.47,0-6.94,0-10.42a1.92,1.92,0,0,0-2-2.15c-1.24-.07-2,.75-2,2.19C65,49.8,65,51.51,65,53.22Z"/><path class="b" d="M48.21,57.28c.25-1.47-.52-2.47-2.1-2.92a9.29,9.29,0,0,1-.87-.35c-3.58-1.45-4.89-4.65-3.34-8.19A4.78,4.78,0,0,1,51,47.72c0,.63.09,1.38-.89,1.23-.72-.11-1.89.63-1.94-1a2,2,0,0,0-1.43-2,1.91,1.91,0,0,0-1.9.37c-1.23,1.13-.88,4,.63,4.73.92.46,1.91.8,2.87,1.18a3.65,3.65,0,0,1,2.42,2.83,10.17,10.17,0,0,1-.29,5.68c-.87,2.16-3,3.13-5.53,2.59a4.66,4.66,0,0,1-3.73-4.57c0-.68.17-1.19.94-1s1.73-.62,1.84.69c.13,1.53.82,2.29,2.38,2.22s1.75-1.33,1.82-2.56C48.22,57.9,48.21,57.7,48.21,57.28Z"/><path class="b" d="M74.42,53.29c0-2.91,0-5.81,0-8.72,0-1.12.35-1.46,1.42-1.37s2.07,0,3.11,0a5.17,5.17,0,0,1,2.41.56c2.08,1.09,3,4.24,2.21,7.85a4.25,4.25,0,0,1-4.62,3.73c-1.53,0-1.81.59-1.73,1.91.09,1.55,0,3.12,0,4.67.06,1.08-.3,1.45-1.4,1.43s-1.47-.21-1.44-1.37C74.47,59.1,74.42,56.19,74.42,53.29Zm2.79-4V51c0,1.9.46,2.25,2.3,1.79a1.68,1.68,0,0,0,1.41-1.45,11.27,11.27,0,0,0,0-3.71c-.25-1.39-1-1.8-2.78-1.71-1.47.07-.82,1.14-.93,1.83A8.89,8.89,0,0,0,77.21,49.25Z"/><path class="b" d="M55.2,54.64c0-2.39-.07-4.78,0-7.16.06-1.32-.39-1.77-1.67-1.61-1,.12-1.84.15-1.73-1.36.07-1,.31-1.34,1.33-1.31,2.28.06,4.57.06,6.85,0,1,0,1.37.28,1.34,1.31s-.17,1.41-1.27,1.4C58,45.88,58,46,58,48c0,4.67,0,9.34,0,14,0,1.13-.39,1.38-1.44,1.4S55.16,63,55.18,62C55.25,59.51,55.2,57.08,55.2,54.64Z"/></svg>