<svg xmlns="http://www.w3.org/2000/svg" viewBox="0 0 120 120"><defs><style>.a{fill:#c90106;}</style></defs><path class="a" d="M59.83,116.07A56.07,56.07,0,1,1,116.1,60.43,56.08,56.08,0,0,1,59.83,116.07Zm0-11.66c24.17.45,44.8-19.77,44.7-44.43-.1-23.72-18.27-44.44-44.33-44.52C33.85,15.38,15.91,36,15.49,59.28,15,84.55,35.92,104.68,59.81,104.41Z"/><path d="M85.09,45.44c0,3.24.06,6.48,0,9.72s-.43,6.39-3,8.79l-.12.11c-3.74,3.43-13.08,3.14-16.51-.59-1.94-2.11-2.35-4.84-2.39-7.54C63,49,63,42,63,35a16.08,16.08,0,0,1,.66-4.23,7.79,7.79,0,0,1,6.36-5.94,19.63,19.63,0,0,1,7.86,0,7.94,7.94,0,0,1,6.65,6.66,22.09,22.09,0,0,1,.5,5.07c-.06,3,0,5.93,0,8.9Zm-7.77.11h.17c0-3.19,0-6.38,0-9.57a18,18,0,0,0-.32-3.43,3.13,3.13,0,0,0-4.59-2.18c-1.2.63-1.49,1.84-1.71,3a37.13,37.13,0,0,0-.16,6.75c0,5.66-.29,11.32.16,17C71,59.6,72.1,60.73,74,60.76s3.15-1,3.25-3.68C77.42,53.24,77.32,49.39,77.32,45.55Z"/><path d="M49.05,53.73c0-.71,0-1.43,0-2.14,0-3.09-1.82-4.75-4.93-4.62-2.16.09-2.25,0-2.15-2.14,0-.11,0-.22,0-.33.07-2.79.07-2.79,2.87-3A4,4,0,0,0,49,37.37a27.15,27.15,0,0,0-.14-4.6c-.26-2-1.36-2.82-3.09-2.72s-2.65,1.11-2.68,3.08c0,1.25-.56,1.64-1.71,1.61-1.43,0-2.86,0-4.29,0-1.17,0-1.67-.49-1.62-1.71.21-5.33,2.13-7.57,7.39-8.39a19,19,0,0,1,8.34.46,6.56,6.56,0,0,1,4.89,5.27,24.11,24.11,0,0,1-.19,9.5,5,5,0,0,1-2.24,3.34c-.94.59-1.16,1.09-.11,1.81a6,6,0,0,1,2.65,4.55,38.21,38.21,0,0,1-.13,10.19,7.22,7.22,0,0,1-5.74,6.1,19,19,0,0,1-9.48,0,7.62,7.62,0,0,1-5.56-6.66c-.61-4.48-.61-4.48,3.82-4.48,3.09,0,3.09,0,3.53,3,.26,1.82,1.29,3,2.72,3a3.18,3.18,0,0,0,3.34-2.61,12.27,12.27,0,0,0,.3-2.27c.05-.72,0-1.43,0-2.15Z"/><path d="M58.84,88.23c0-2.53,0-5.06,0-7.58,0-1.27.4-1.77,1.73-1.73,3.75.11,3.72.07,4.44,3.83.46,2.49,1.12,4.93,1.35,7.46.05.53.12,1.27.8,1.23s.66-.79.72-1.31c.36-3.34,1.4-6.55,1.89-9.86a1.48,1.48,0,0,1,1.71-1.37c4,0,4,0,4,3.95,0,4.23,0,8.46,0,12.69,0,1.26-.25,2-1.67,2S72,96.74,72.05,95.4c.18-3.07.27-6.14.36-9.22,0-.5.29-1.31-.41-1.4s-.69.78-.78,1.27c-.61,3.12-1.19,6.25-1.71,9.39-.26,1.57-1,2.25-2.66,2.13a1.86,1.86,0,0,1-2-1.83c-.48-3-1.05-6-1.62-9.07-.11-.56-.1-1.54-.73-1.49-.8.07-.55,1.06-.54,1.65,0,2.86.08,5.71.19,8.57,0,1.24,0,2.2-1.67,2.16s-1.61-.88-1.57-2.08c.07-2.42,0-4.84,0-7.25Z"/><path d="M44.77,88.26c0-2.52.06-5.05,0-7.57-.05-1.56.75-1.83,2-1.84s2.1.45,1.94,1.93c-.13,1.26-.21,2.52-.3,3.77,0,.52-.43,1.25.27,1.45s1-.54,1.25-1.08c.63-1.4,1.23-2.82,1.84-4.23a3.13,3.13,0,0,1,3.87-1.83c.93.31.72,1,.42,1.61-.86,1.72-1.69,3.45-2.68,5.1a3.06,3.06,0,0,0-.15,3.09c1,2.41,2,4.89,3,7.31.52,1.22.13,1.58-1.1,1.57-2.58,0-2.58,0-3.51-2.48-.61-1.65-1.19-3.31-1.84-4.94-.19-.48-.47-1.22-1.06-1.09s-.33.92-.31,1.42c.08,1.81.2,3.61.3,5.42.08,1.46-.79,1.71-2,1.68s-2-.19-2-1.71C44.83,93.32,44.77,90.79,44.77,88.26Z"/></svg>