<svg xmlns="http://www.w3.org/2000/svg" viewBox="0 0 120 120"><defs><style>.a{fill:#2b2928;}.b{fill:#c90106;}</style></defs><path class="a" d="M59.77,68.64h5.79a1.32,1.32,0,0,0,1.29-.71c.18-.32.41-.66.17-1s-.58-.27-.91-.25-.67.1-1,.09-1,0-1-.6.54-.62,1-.61c.85,0,1.71,0,2.56,0s1.49,0,2.23-.07c.42,0,.75.13.77.6s-.32.59-.73.62a2.45,2.45,0,0,0-2,3.59c.44.86.86,1.73,1.28,2.6a1,1,0,0,0,1.35.62,7.57,7.57,0,0,1,8.48,3.39,7.76,7.76,0,0,1-.43,8.8,7.65,7.65,0,0,1-8.47,2.7,7.42,7.42,0,0,1-5.25-5.56c-.2-.85-.6-1.32-1.44-1.15-1.92.38-3.16-.45-4.34-1.91-2.09-2.6-4.37-5.06-6.56-7.57-.32-.36-.72-.76-1.09-.25s-1,1.23-.35,2a3.75,3.75,0,0,0,.81.59,7.94,7.94,0,1,1-3.5-1.2A1.19,1.19,0,0,0,50,72.49q1-2.68,2-5.34a19.6,19.6,0,0,1,.82-2A2.18,2.18,0,0,1,54.83,64c.52,0,1,0,1.55-.06s.87,0,.9.58-.43.8-.9.68c-2-.47-2.86.53-3.42,2.22-.32,1-.23,1.24.79,1.26,2,0,4,0,6,0Zm-5.61,11.8C54.21,78.72,53,77,51.3,75.55c-.66-.55-1.11-.33-1.39.49-.59,1.72-1.23,3.42-1.87,5.13-.15.39-.41.78-.91.58s-.37-.65-.22-1c.61-1.6,1.21-3.2,1.83-4.79.45-1.17.27-1.47-1-1.5A6.58,6.58,0,0,0,41,80.84a6.49,6.49,0,0,0,6.4,6.73C51.17,87.65,54.09,84.85,54.16,80.44Zm15.41,1.29v0c-.89,0-1.78,0-2.67,0s-1,.38-.83,1.13a6.79,6.79,0,0,0,9.53,4,6.65,6.65,0,0,0-4.41-12.37c-.86.16-1,.54-.53,1.47.74,1.5,1.51,3,2.25,4.47.42.84.17,1.26-.78,1.3S70.42,81.73,69.57,81.73ZM59,69.75v0H53.41c-.32,0-.71-.19-.91.18s0,.77.35,1.08q3.74,4,7.21,8.16c.57.7,1,.67,1.43-.11,1.28-2.68,2.56-5.35,3.82-8,.42-.89.18-1.25-.77-1.25Zm4.49,10.78c.95,0,1.24-.21,1.38-1.13a6.64,6.64,0,0,1,2-3.76c1.62-1.57,1.62-1.56.77-3.6-.15-.38-.25-.82-.76-.84s-.62.52-.79.92a72.27,72.27,0,0,1-3.35,7c-.18.33-.44.64-.26,1S63.11,80.51,63.46,80.53Zm5.26,0h0c.59,0,1.19,0,1.78,0,.79,0,1-.4.65-1.08-.53-1.06-1.08-2.11-1.59-3.18-.38-.79-.86-.88-1.45-.25a8.19,8.19,0,0,0-1.91,2.83c-.46,1.29-.26,1.65,1.07,1.67C67.75,80.53,68.24,80.52,68.72,80.52Z"/><path class="b" d="M59.94,103.87H12.63c-3.53,0-3.55,0-1.8-3.07Q23.66,78.51,36.5,56.23q9.8-17,19.6-34a39,39,0,0,0,3-5.37,1,1,0,0,1,.85-.7c.52,0,.77.34,1,.75,9.76,17.54,20,34.78,30,52.21q9,15.81,18.17,31.58c1.83,3.17,1.84,3.19-1.86,3.2ZM91.5,93.76c.38.08.81.18,1-.22s0-.84-.26-1.22c-2.71-4.65-5.45-9.29-8.13-14Q72.48,58,60.81,37.63c-.59-1-1.11-.89-1.63.09-.6,1.13-1.23,2.23-1.87,3.34L27.63,92.35c-.2.34-.45.67-.26,1.07s.74.38,1.18.38c1.6,0,3.21,0,4.82,0Z"/></svg>