<svg xmlns="http://www.w3.org/2000/svg" viewBox="0 0 120 120"><path d="M98.84,54.41a2.27,2.27,0,0,0,.74-2,52.41,52.41,0,0,1-.34-9.38c.12-1.85-1-3.44-2.43-4.72-.34-.31-.86-.45-.94-1-.05-.33,0-.65.46-.59,1.83.23,1.83.23,1.26-1.79.47.59.75,1,1,1.31.43.58.76,1.39,1.71.74s1.45-1.47.81-2.38c-.52-.74-.33-1,0-1.71a21.34,21.34,0,0,0,1.42-3.66c.28-.83.08-1.32-.89-.72a.9.9,0,0,1-1.15-.15,1,1,0,0,0-1.52,0,.82.82,0,0,1-1.25.12c-.29-.23-.65-.52-1-.24a1,1,0,0,0-.07,1.32c.85,1.55.84,3.67,3.31,4.33-2.5.56-2.45.5-3.17-1.67a28.94,28.94,0,0,0-2-4.26c-1.23-2.35-.62-4.85,1.92-5.72,2.25-.77,4.76-1.51,7,.32a10.33,10.33,0,0,1,1.46,1.42c1,1.16,1.09,2.27-.22,3.24-1.51,1.13-1.64,3-2.43,4.51-.46.89.72,2.17,2,2.29a8.06,8.06,0,0,1,2.74.68c.43.2.74.45.36.95-.26.34-.54.66-1,.35-1-.58-1.84-1.3-3.16-.86-.48.16-.41-.73-.64-1.11s-.37-.55-.73-.51-.46.39-.48.7c0,.53,0,1.05,0,1.57s-.51.84,0,1.12.56-.37.86-.55.56-.35.85-.08a.66.66,0,0,1,0,1c-3.22,3.21-3.89,7.18-3.47,11.48.1,1.1.21,2.2.34,3.29.19,1.51.89,2.43,2.6,2.17a5.82,5.82,0,0,1,1.25.06,4.83,4.83,0,0,1-2,.46.78.78,0,0,0-.71,1c.1.52.5.65,1,.59.78-.11,1.55-.28,2.33-.38.48-.06,1.1-1.11,1.43.14.23.83,1.72,1.73-.08,2.53a1.2,1.2,0,0,0-.45.61,2.61,2.61,0,0,1-2.33,1.85c-1.13,0-1.52-1.16-2-2a5.44,5.44,0,0,1-.32-.88,1,1,0,0,0-1.08-.77c-1.52.22-2.88-.37-4.29-.71-.94-.22-1.58.07-1.69,1.09-.59,5.84-2.09,11.56-2.26,17.46a4,4,0,0,0,2,4,3.39,3.39,0,0,1,1.77,1.93c.45,1.57,1.45,1.65,2.81,1.3s1.43-1.13,1.13-2.26a2.67,2.67,0,0,1,.21-1.21c.62-2.65,1.51-5.25,1.31-8,0-.37-.05-.85.41-.9s.53.46.54.81a22,22,0,0,0,1,4.74c.39,1.6,1.18,3,1.57,4.58.19.8.36,1.38,1.28,1.49a1.82,1.82,0,0,0,2.14-.89,5.6,5.6,0,0,1,1.24-1.62,5.51,5.51,0,0,0,2-5.49,72.09,72.09,0,0,0-3.4-13.18c-.2-.49-.46-.91-.17-1.48,1.13-2.32.37-4-2-4.54-.45-.1-.92-.14-1.38-.21.87-.8,2.28-1.16,2.07-2.82-.07-.65-.09-1.14-.88-1.18-1,0-1.35-.93-2-1.39a.67.67,0,0,1-.14-1.09c.41-.38.79-.11,1,.26.43.61.67,1.65,1.73.92.86-.6,1.5-3,1-3.61a1.18,1.18,0,0,0-.35-.24c-.73,1-2.19-.25-2.84,1a.49.49,0,0,1-.68.2c-.48-.24-.8-2.54-.39-2.92a.82.82,0,0,1,.55-.23c.39.06.25.38.23.63-.07.83.4,1.19,1.14,1.1a1.43,1.43,0,0,0,1.48-1.22c.52-1.92.2-3.81.35-5.7,0-.3-.07-.66.59-.83.12,1.61.29,3.19.34,4.77a11.32,11.32,0,0,0,.38,3,4.17,4.17,0,0,1-.06,2.79,14.79,14.79,0,0,0-.57,3.08c-.24,1.4.32,2,1.64,2.31,1.68.34,1.91.09,2.38-1.51a11.75,11.75,0,0,0,.56-5.72c-.77-3.19-.22-6.74-2.33-9.59-.13-.19-.23-.41,0-.55a.63.63,0,0,1,.56-.09,2.16,2.16,0,0,1,1.29,1.68c.62,4.54,2,9,1,13.68-.59,2.75-.79,5.59-1.23,8.38a6.26,6.26,0,0,0,.67,4.7,2.46,2.46,0,0,1-.15,2.68,4.35,4.35,0,0,0-.13,3.62c1.23,3.66,1.31,7.15-2.06,9.88a1.66,1.66,0,0,0-.52,1.57,49.35,49.35,0,0,1-1.36,15.27,1.75,1.75,0,0,0,1.21,2.34,9.4,9.4,0,0,0,2.48.35c1,.09,2.15.63,2.1,1.73s-1,1.52-2.23,1.68c-2,.24-3.91-.73-5.89.08a1.54,1.54,0,0,1-1.92-1c-.15-.34-.25-.72-.73-.7s-.59.38-.66.76a1.41,1.41,0,0,1-1.76,1.18c-1.53-.36-2.88.22-4.31.46a3.83,3.83,0,0,1-2.6-.29c-.48-.27-1.22-.34-1.21-1.08a1.77,1.77,0,0,1,1.22-1.51,10.69,10.69,0,0,1,2.13-.52c1.67-.33,2.25-1.11,2-2.74-.56-3.15-2-6.1-2.22-9.31-.13-1.8-.49-3.6,0-5.45.33-1.21-.6-2.13-1.48-2.75-2.2-1.54-3-3.39-2.68-6.18C91.36,69,92.06,63.84,93,58.76c.34-1.76-.08-3.48.42-5.19.22-.79-.78-1.31-.92-2.11s-.58-1.26-.07-2.11c1.26,1,.59,3.19,2.26,3.73,1.38.44,2.67,1.21,4.16,1.28-.21.66-.34,1.18-1.27.58A9.42,9.42,0,0,0,95,54a.86.86,0,0,0-1.13.59c-.15.55.13.87.65,1.07,1.63.65,3.4.46,5.07.89.49.12.7-.37.69-.84C100.23,54.84,99.69,54.46,98.84,54.41Zm2.56,36a19.8,19.8,0,0,0-.21-3.28,8.72,8.72,0,0,0-1.34-3.62c-.7-.88-1.93.29-3,.15s-1.35.45-1.28,1.35c.09,1.1.25,2.19.33,3.28.25,3.48,1.64,6.7,2.31,10.09.19,1,1.16.92,2,.9.53,0,1-.3.87-.88C100.55,95.76,101.58,93.13,101.4,90.45Zm6.54-4c0-1.16,0-2,0-2.73a1,1,0,0,0-.76-1.06c-1.84-.58-2.88,0-3.46,1.78-.06.2-.12.4-.2.6-1.08,2.74-.77,5.63-.38,8.37.24,1.7,1.09,3.32.8,5.15-.1.65.39.95,1,.88.91-.11,1.29-.73,1.5-1.57C107.46,94,107.47,90,107.94,86.4Zm2,15.91a5.12,5.12,0,0,0,.79,0c.59-.08,1.44.11,1.47-.78s-.79-.79-1.4-.85c-1-.1-2.07.06-2.88-.58a1.72,1.72,0,0,0-2.45-.1c-1.49,1-2.27.43-2.31-1.31,0-1.3-.19-2.6-.33-3.9,0-.37-.21-.77-.64-.78s-.63.41-.61.77c.1,2.37-.88,5,1.89,6.71,1,.65,1.71,1.26,2.85.49a1.25,1.25,0,0,1,1.34.07A3.29,3.29,0,0,0,109.94,102.31ZM99.8,80.45a13.84,13.84,0,0,1,1.63,5.62.48.48,0,0,0,.62.33.76.76,0,0,0,.55-.7,14.25,14.25,0,0,1,1.07-4.4.86.86,0,0,0,0-.61,15.9,15.9,0,0,1-1.48-5,.6.6,0,0,0-.6-.6.5.5,0,0,0-.49.52A11.73,11.73,0,0,1,99.8,80.45Zm0,22.15a1.52,1.52,0,0,0,1.62-1.44c0-.92-.83-.78-1.5-.92a4.57,4.57,0,0,0-3.55.64,3.33,3.33,0,0,1-1.8.49c-.77,0-1.65.13-1.57,1.09s1,.57,1.66.76C96.53,103.77,98,101.86,99.84,102.6Zm8.66-44.73a23.63,23.63,0,0,0,1.56,7.6c.11.3.2.69.58.64s.52-.49.45-.86a2.63,2.63,0,0,0-.4-1.18,3,3,0,0,1-.58-2.34,26.25,26.25,0,0,1,.54-6.25c.21-.86-.28-1.28-1.11-1.33-.49,0-1.08,0-.94.68C108.8,55.85,108.37,56.81,108.5,57.87Zm-2.78-.79c0-.38-.64-.93-1-.6-.92.91-2.7-.37-3.15,1.28-.2.71,1.24,2.48,1.82,2.49S105.76,58.18,105.72,57.08Zm-5.54-29.92c.51,0,1.19,0,1.86,0,.41,0,.85-.15.91-.68a.84.84,0,0,0-.65-.94c-1.09-.33-2.17-.87-3.32-.3-.65.32-1.85.26-1.67,1.28s1.28.76,2.08.69Z"/><path d="M13.09,37.23a4.26,4.26,0,0,1,.33,2.92c-.52,1.52.63,2.69.49,4.12-.06.62.86.64,1.41.7a.85.85,0,0,0,1-.93c0-.33-.22-.86.42-.77a.79.79,0,0,1,.63.95A13,13,0,0,1,17,46.08c-.12.47-.6.62-.8.22-.64-1.27-2-.28-2.81-.94-.41-.31-.68.29-.67.75A6,6,0,0,0,13.91,49c.47.75,1.08.21,1.45-.39s.69-1.22,1.28-.73,0,1.1-.46,1.51a6.15,6.15,0,0,1-1.25.93c-.47.23-1.32,0-1.23.86s-.11,1.93,1,2.44c2.87,1.29,4.9,1,5-2.63,0-1.52.09-3,.25-4.54.34-3.08-1.3-5.52-2.47-8.11a1.44,1.44,0,0,0-.51-.58c-.48-.29-1-.65-.65-1.21.48-.75.82.1,1.24.26,1.21.46.41-.7.73-1,1.58,1.89,1.62,1.89,3.52-.25-.23,1.75-.16,1.81,1.36,1.31.2-.06.41-.22.55,0a.74.74,0,0,1-.24,1,13,13,0,0,0-1.81,1.89c-1.67,2.06-.92,4.41-1.12,6.63-.19,2-.21,4.07-.32,6.11-.08,1.53.75,2.18,2.14,1.56a21.65,21.65,0,0,1,2.2-.84,2.88,2.88,0,0,0,1.87-2.67c.06-.39.09-1,.64-.91s.32.67.29,1.07a1.37,1.37,0,0,1-.14.61c-1.42,2.41-1,4.9-.52,7.47,1.06,5.41,1.6,10.89,2.23,16.36a4.47,4.47,0,0,1-1.85,4.41c-1.63,1.21-2.52,2.38-2.16,4.82.47,3.13-.39,6.35-1.3,9.45-.43,1.45-.81,2.92-1.16,4.4-.27,1.15.5,2,2,2.31a5,5,0,0,1,2.75,1c.8.76.9,1.29-.19,1.91-1.54.88-3.06.52-4.58.12a3.47,3.47,0,0,0-1.69-.21c-1.27.28-2.36.29-2.82-1.36-.23-.81-.88-.6-1.2.09-.61,1.29-1.61,1.36-2.78,1-1.65-.55-3.28.3-5,.09-1.2-.15-2.07-.59-2.13-1.61s1-1.64,2-1.79a10.87,10.87,0,0,0,2.47-.39,1.68,1.68,0,0,0,1.16-2.24A53.17,53.17,0,0,1,11.18,82a2.18,2.18,0,0,0-.72-2c-3.2-2.71-3-6.16-1.87-9.67a4.25,4.25,0,0,0-.11-3.59,3.12,3.12,0,0,1,.17-3.41c.76-1.22.51-2.64.32-4-.55-3.94-1.46-7.87-1.55-11.82a43.54,43.54,0,0,1,1.49-10.7,2.5,2.5,0,0,1,.6-.9c.25-.28.61-.55,1-.27s0,.64-.22.87a3.77,3.77,0,0,0-.94,2.61c-.31,3.1-1.45,6.11-1,9.29a39.77,39.77,0,0,0,.7,4c.2.91,1,.78,1.69.67.89-.16,2-.17,2.11-1.46a5.35,5.35,0,0,0-.09-2.19c-1.42-4,.28-7.88.07-11.82C12.76,37.62,12.87,37.54,13.09,37.23Zm5,63.17c.21,1.76.71,2.21,2.37,2a2.63,2.63,0,0,1,1.66.33c1.12.71,2.34.41,3.52.37.44,0,.85-.2.89-.72s-.35-.84-.84-1c-.65-.17-1.42.08-2-.35-1.78-1.34-3.72-.93-5.67-.66.06-1.73.13-3.46.16-5.19,0-.53,0-1.27-.61-1.31-.76,0-.71.77-.78,1.31-.13,1-.24,2.09-.27,3.14,0,2.22-.56,2.52-2.6,1.39-.49-.27-1-.6-1.43-.16-1,1-2.17.93-3.36,1.06-.6.07-1.45-.08-1.47.79s.86.68,1.44.83c1.91.48,3.85-1,5.78.09.37.21.69-.34,1-.63C16.57,101.16,17.13,100.42,18.13,100.4ZM11.56,57.53a4,4,0,0,1-.35-2.27c.11-.67.1-1.2-.77-1.11-.72.07-1.4.28-1.24,1.24.53,3.17,1.23,6.34-.34,9.45-.18.38-.32,1.07.27,1.23s.75-.54.8-.95c.23-1.77,1.19-3.36,1.24-5.18,0-.46.21-1.06.83-.91s.56.76.32,1.28a11.94,11.94,0,0,0-1.21,2.88c-.41,2.92-1.34,5.71-1.94,8.57-.48,2.26-1,4.71,1,6.68a8.11,8.11,0,0,1,2,2.62c.34.83,1.14.8,1.9.74.56,0,1.07-.18,1.23-.79.88-3.31,2.59-6.4,2.7-9.93,0-.37,0-1,.59-.89.45.06.36.58.33.93a16.36,16.36,0,0,0,.51,4.51c.33,1.63,1.11,3.22.87,4.91-.15,1.08,0,1.73,1.15,2s2.22.52,2.72-1a3.42,3.42,0,0,1,1.57-2.09c2.12-1.1,2.48-2.89,2.31-5.05-.44-5.54-1.58-11-2.27-16.5-.13-1-.69-1.39-1.63-1.18s-1.64.77-2.39.65c-2.07-.3-3,.64-3.65,2.45a1.63,1.63,0,0,1-2.52,1c-1.19-.65-1.4-2.18-2.58-2.85-.09,0-.05-.53.07-.73.51-.88.73-2.28,2.36-1.27a5.33,5.33,0,0,0,1.84.37c.44.07.87.07,1-.46a.84.84,0,0,0-.55-1.14,7.77,7.77,0,0,0-4.91.12C11.88,55.29,12.13,56.6,11.56,57.53Zm12.6,28.2c.12-1.41-.3-2.07-1.56-2.06a6.43,6.43,0,0,1-1.54-.29c-.86-.23-1.3,0-1.65.92a16.33,16.33,0,0,0-1,6.31c0,2.36.6,4.69.37,7-.06.69-.34,1.44.66,1.61s1.83.08,2.11-1.08a17.84,17.84,0,0,1,.72-3C23.67,92.05,23.46,88.67,24.16,85.73Zm-7.3,4.6c.43-2.31-.35-4.43-.91-6.61-.5-1.9-1.9-1-2.94-1.11s-1.1.9-1,1.68c.22,3.39.44,6.79.73,10.17.11,1.19.61,2.32.74,3.53a1.49,1.49,0,0,0,1.64,1.39c1.14-.12.72-1,.72-1.7a6.11,6.11,0,0,1,.33-2.62A9,9,0,0,0,16.86,90.33Zm3-10a13.6,13.6,0,0,1-1.18-4.74.47.47,0,0,0-.59-.38c-.46.08-.5.47-.53.84a12.06,12.06,0,0,1-1.2,4.2,1.51,1.51,0,0,0-.14,1.35,10.77,10.77,0,0,1,.89,4c0,.42.12.89.68.88s.68-.46.68-.89a8.43,8.43,0,0,1,1.12-4.19A4.79,4.79,0,0,0,19.87,80.32ZM18.24,58c0-.53-.09-1-.61-1a7.86,7.86,0,0,1-2.58-.44c-.69-.21-1.13.27-.91,1a7.9,7.9,0,0,0,.75,1.36c.39.68.77,1.58,1.7,1.3S18,58.85,18.24,58Zm4.19-1.49c.89-.11,1.62-.74,2.55-.76.59,0,1-.4.85-1.05s-.73-.7-1.28-.6c-.3.05-.58.28-.88.33-1.06.16-2,1.38-3.22.23-.21-.2-.62,0-.77.36a1.21,1.21,0,0,0,0,1.34.61.61,0,0,0,.83.22A1.9,1.9,0,0,1,22.43,56.46Z"/><path d="M26.83,48c-.3-.45,0-.7.08-1a.81.81,0,0,0-.13-.88.74.74,0,0,0-1,0c-1.38,1.15-2.21-.24-3-.83-1-.77-.61-1.62.69-1.9a3.34,3.34,0,0,1,.62-.1c.52,0,1.4-.58,1.47.15s-.86.37-1.38.39-1,.22-.92.82.53.61,1,.68c1.47.18,2.52-.68,3.5-1.47a5.2,5.2,0,0,1,2.86-1.12,37.9,37.9,0,0,1,6.12,0c1.43.09,2.76.16,3.2-1.61.22.13.38.19.38.23-.28,2.13,0,2.45,2.29,2.14,3.73-.52,7.46-1.1,11.18-1.66a4.77,4.77,0,0,0,2.58-1.25c-.71-.56-1.46-.16-2.13-.28-.39-.07-.94.15-1.09-.38-.35-1.25-1.27-.73-1.7-.36-1.74,1.48-3.67,1-5.56.69a20.27,20.27,0,0,1-3-.82c-.76-.22-1.5-.55-2.28-.08a.74.74,0,0,1-.45.1c-5.35-1.55-11-1.76-16.28-3.63-.61-.21-.92-.65-.67-1.19s.69-.09,1.05,0a59.91,59.91,0,0,0,9.36,2.61c1.4.28,3-1.93,2.57-3.33-.08-.26-.25-.54-.08-.74,1.37-1.6,1-3.84,2.09-5.55A8.12,8.12,0,0,0,39,21.55c-.19-1-.8-2.32,1.2-2.2.4,0,.56-.43.61-.81a5.62,5.62,0,0,1,.12-1.1c.18-.56.2-1.51,1-1.4,1,.13.41,1,.29,1.51-.45,2.07-.3,4.22-1.25,6.25-.49,1.06-.19,2.56,0,3.83.14.94.54,1.8-.09,2.71-.31.44.21.73.35,1.1.55,1.43,1,2.83-.1,4.28-.91,1.22-.65,1.86.75,2.31s2.61.8,3.92,1.19a6.32,6.32,0,0,0,5.16-.38c1.25-.68,2.77-1.53,4,.23.36.5,1.06.38,1.64.3.78-.11,1.58-.08,1.75.85s-.66,1.19-1.34,1.47a31,31,0,0,1-6.39,1.65c-2.79.46-5.62.74-8.43,1.06A2.77,2.77,0,0,1,41,44.31c-3-1.11-6.21-.75-9.34-.85-2.4-.08-3.29.78-3.94,3.2C27.55,47.13,27.51,47.72,26.83,48Z"/><path d="M63,39.41c.29,0,.95.14,1.24-.34,1-1.59,2.36-1.13,3.43-.49,2.9,1.73,5.67.87,8.49,0l.29-.11c2.48-.92,2.49-.93,1.38-3.43a1.69,1.69,0,0,1,0-1.23,22,22,0,0,0,.74-6.4,10.9,10.9,0,0,0-.54-5c-.75-1.75-.65-3.87-.91-5.84a.49.49,0,0,1,.39-.59.57.57,0,0,1,.61.39,5,5,0,0,1,.49,2.13c0,.65.13,1.32,1.12.95s1,.32,1,.92a6.6,6.6,0,0,1-.22,1.39,6.83,6.83,0,0,0,.42,5c1.17,2,1.49,4.34,2.33,6.48.38,1,.18,2.27,1,3.29a1.62,1.62,0,0,0,1.73.75,63.78,63.78,0,0,0,9.51-2.63c.36-.13.82-.61,1.06,0a.85.85,0,0,1-.68,1.18,77.11,77.11,0,0,1-14.12,2.82c-1.14.08-2.47.16-2.34,1.85s1,2.49,2.84,2.29c2-.22,4-.1,6-.15a6.76,6.76,0,0,1,4.54,1.79,2.68,2.68,0,0,0,2.12.82c.3,0,.67,0,.76.4a.91.91,0,0,1-.38.82.59.59,0,0,1-.85,0c-.4-.33-.84-.78-1.38-.44s-.26.91-.07,1.39c.11.27.12.55-.22.62s-.42-.24-.5-.48a2.65,2.65,0,0,1-.19-.76c0-2.39-1-3.17-4.06-3.24s-6.38-.21-9.51.77c-1.64.52-3.34-.18-5-.35a42.85,42.85,0,0,1-10.63-2c-.15-.06-.3-.09-.45-.15-.8-.28-1.8-.56-1.58-1.62S61.93,39.34,63,39.41Zm-.08.88-.11.43a6.56,6.56,0,0,0,2.53,1.08c2.48.39,5,.59,7.44,1.15a21.7,21.7,0,0,0,5.15.51c2.86-.06,0-2.27,1-3.21.27-.23-.32-1.15-1.09-1.2a2.14,2.14,0,0,0-.77.17c-.85.24-1.69.58-2.56.74-2.34.45-4.7,1.25-6.94-.47-.51-.39-1.38-.83-1.62.48-.08.46-.57.33-.93.33Z"/><path d="M20.16,34c2.13-.73,1.92-2.88,2.82-4.34a1.09,1.09,0,0,0,0-1.2c-.37-.49-.75-.09-1.08.14a.81.81,0,0,1-1.14-.06,1.12,1.12,0,0,0-1.77,0,.7.7,0,0,1-.74.12c-.36-.12-.71-.72-1.09-.28s-.1,1.06.17,1.47c.72,1.1.56,2.59,1.59,3.55.24.23.36.54,0,.8s-.64.23-.9-.19c-.62-1-1-.4-1.23.26-.24.81-.5,1-1.43.83-.69-.16-1.48.42-2.1.9s-.85.21-1.17-.23c-.43-.62,0-.84.48-1a8.29,8.29,0,0,1,2.42-.62c1.91-.19,2.52-1.49,1.75-3.19-.69-1.52-1.16-3.12-2.57-4.22A1.34,1.34,0,0,1,14,25a6.16,6.16,0,0,1,6.17-3.23c2.58.22,4.37,1.16,5.34,3.58a1.86,1.86,0,0,1,0,1.66,30.87,30.87,0,0,0-2.81,6.42C22.39,34.68,21.21,34.27,20.16,34Zm-.51-6.74v-.09c.52.06,1,.14,1.57.16s1.09-.12,1.18-.77-.39-.76-.82-1a4.45,4.45,0,0,0-4.08,0,.88.88,0,0,0-.66.95.79.79,0,0,0,.78.66C18.29,27.18,19,27.19,19.65,27.23Z"/><path d="M75.44,27.52a1.34,1.34,0,0,1-.47,1.3,19.13,19.13,0,0,0-5.1,6.78.9.9,0,0,1-1.74,0c-.19-.49.1-.76.49-1,2.32-1.49,3.35-4.07,5.09-6.06a2,2,0,0,0,.28-1c.09-.59-.13-1.48.76-1.44S75.29,27.05,75.44,27.52Z"/><path d="M43.88,27.48c.17-.49-.18-1.34.67-1.36s.76.7.81,1.28a1.79,1.79,0,0,0,.17.92c1.61,2.09,2.64,4.64,4.91,6.2.41.28.79.53.61,1.11a.83.83,0,0,1-.8.65c-.49,0-.68-.29-.88-.73a23.78,23.78,0,0,0-4.83-6.64C44.12,28.48,43.63,28.18,43.88,27.48Z"/></svg>