<svg xmlns="http://www.w3.org/2000/svg" viewBox="0 0 120 120"><defs><style>.a{fill:none;stroke:#000;stroke-miterlimit:10;stroke-width:3px;}</style></defs><rect class="a" x="6.5" y="40.3" width="107" height="38" rx="4.7"/><path d="M28.86,55.85v2.32H21.37v-2c2.22-3.62,3.54-5.87,4-6.73a5.09,5.09,0,0,0,.63-2,1.52,1.52,0,0,0-.19-.83.67.67,0,0,0-.58-.27.64.64,0,0,0-.58.3,2.66,2.66,0,0,0-.19,1.21v1.29H21.37v-.49a10.62,10.62,0,0,1,.12-1.81,3.13,3.13,0,0,1,.58-1.3,2.89,2.89,0,0,1,1.21-1,4.3,4.3,0,0,1,1.77-.33,4.24,4.24,0,0,1,3.07,1,3.38,3.38,0,0,1,1.05,2.55,6,6,0,0,1-.59,2.47,51.17,51.17,0,0,1-3.45,5.55Z"/><path d="M38.21,49.15V53.7A11,11,0,0,1,38.05,56a3.23,3.23,0,0,1-.7,1.33,3.07,3.07,0,0,1-1.29.88,4.88,4.88,0,0,1-1.67.27,6.17,6.17,0,0,1-2-.28,2.79,2.79,0,0,1-1.29-.88A3.7,3.7,0,0,1,30.39,56a7.56,7.56,0,0,1-.21-2.1V49.15a9.08,9.08,0,0,1,.33-2.82,2.75,2.75,0,0,1,1.29-1.5,4.61,4.61,0,0,1,2.34-.56,4.92,4.92,0,0,1,2,.39,3.28,3.28,0,0,1,1.32,1,3.11,3.11,0,0,1,.6,1.27A12.1,12.1,0,0,1,38.21,49.15ZM34.81,48a5,5,0,0,0-.11-1.36.46.46,0,0,0-.49-.27.48.48,0,0,0-.5.29A4.47,4.47,0,0,0,33.59,48v6.66a5.22,5.22,0,0,0,.11,1.43.49.49,0,0,0,.49.24.48.48,0,0,0,.5-.28,4.2,4.2,0,0,0,.12-1.29Z"/><path d="M48,44.53l-2,6.16,2.22,7.48H44.52l-1.44-5.85v5.85H39.54V44.53h3.54v5.3l1.58-5.3Z"/><path d="M59.74,44.53V58.17h-3.1V49L55.4,58.17H53.2l-1.3-9v9h-3.1V44.53h4.59c.14.82.28,1.79.42,2.9l.51,3.47.81-6.37Z"/><path d="M72.12,44.53V58.17H69L67.17,52v6.2h-3V44.53h3l2,6.14V44.53Z"/><path d="M79.68,44.53l2,13.64H78.08l-.19-2.45H76.62l-.21,2.45H72.74l1.81-13.64ZM77.8,53.3q-.27-2.31-.54-5.73c-.37,2.61-.59,4.52-.68,5.73Z"/><path d="M88.87,44.53l2,13.64H87.27l-.19-2.45H85.81l-.21,2.45H81.93l1.81-13.64ZM87,53.3q-.27-2.31-.54-5.73-.54,3.91-.68,5.73Z"/><path d="M91.5,44.53H94a18.94,18.94,0,0,1,3.4.2,2.32,2.32,0,0,1,1.45,1,4.55,4.55,0,0,1,.56,2.54A3.94,3.94,0,0,1,99,50.4a2.07,2.07,0,0,1-1.56.65,2.7,2.7,0,0,1,1.42.7,2.08,2.08,0,0,1,.45.81,12.34,12.34,0,0,1,.09,2v3.6h-3.3V53.64A3.1,3.1,0,0,0,96,52.28c-.11-.17-.42-.26-.9-.26v6.15H91.5Zm3.55,2.34v3a1.53,1.53,0,0,0,.83-.17c.16-.11.24-.46.24-1.06v-.75c0-.43-.07-.72-.23-.85A1.26,1.26,0,0,0,95.05,46.87Z"/><path d="M36.15,60.36v2.73l-2.64,8.18h2.64V74H29.61V72l2.73-8.93H29.93V60.36Z"/><path d="M43.54,60.36l2,13.64H42l-.19-2.45H40.49L40.27,74H36.61l1.81-13.64Zm-1.88,8.77c-.18-1.55-.36-3.45-.54-5.73-.36,2.61-.58,4.52-.68,5.73Z"/><path d="M54.09,60.36V74H51l-1.84-6.2V74h-3V60.36h3l2,6.14V60.36Z"/><path d="M55.52,60.36h2.65a16.35,16.35,0,0,1,3.48.24,2.58,2.58,0,0,1,1.37.77,2.42,2.42,0,0,1,.59,1.2,17.86,17.86,0,0,1,.12,2.6V70a11.44,11.44,0,0,1-.17,2.45,1.88,1.88,0,0,1-.6,1,2.52,2.52,0,0,1-1.07.49A9.72,9.72,0,0,1,60,74H55.52Zm3.54,2.33v9c.51,0,.83-.1.95-.3a4.52,4.52,0,0,0,.17-1.67v-5.3a8.92,8.92,0,0,0,0-1.19.54.54,0,0,0-.27-.38A1.67,1.67,0,0,0,59.06,62.69Z"/><path d="M65.05,60.36H71v2.73H68.6v2.59h2.22v2.59H68.6v3h2.6V74H65.05Z"/><path d="M72.22,60.36h2.51a19.17,19.17,0,0,1,3.4.19,2.35,2.35,0,0,1,1.45,1,4.44,4.44,0,0,1,.56,2.54,4,4,0,0,1-.39,2.14,2.08,2.08,0,0,1-1.56.66,2.63,2.63,0,0,1,1.41.7,2.12,2.12,0,0,1,.45.8,12.59,12.59,0,0,1,.09,2V74H76.85V69.47a3,3,0,0,0-.18-1.36c-.11-.17-.41-.26-.9-.26V74H72.22Zm3.55,2.33v3a1.55,1.55,0,0,0,.84-.17c.16-.11.24-.46.24-1.06v-.75a1.14,1.14,0,0,0-.23-.85A1.3,1.3,0,0,0,75.77,62.69Z"/><path d="M85.06,60.36V74H81.51V60.36Z"/><path d="M90.82,60.36v9.11c0,1.37,0,2.25,0,2.64a2,2,0,0,1-.38,1,1.74,1.74,0,0,1-.93.66,6.42,6.42,0,0,1-1.76.18H85.93V71.62l.46,0a.86.86,0,0,0,.6-.19.65.65,0,0,0,.25-.45,8.08,8.08,0,0,0,0-1V60.36Z"/></svg>