<svg xmlns="http://www.w3.org/2000/svg" viewBox="0 0 120 120"><defs><style>.a{fill:#d10001;}.b{fill:#2b2928;}</style></defs><path class="a" d="M59.72,113A53,53,0,1,1,113.05,60.2,52.85,52.85,0,0,1,59.72,113ZM19.22,60.21A40.75,40.75,0,1,0,60,19.39,40.87,40.87,0,0,0,19.22,60.21Z"/><path class="b" d="M59.94,72.73c-5.55,0-11.1,0-16.65,0-1.46,0-1.88.59-1.83,1.9.06,1.89,0,3.78,0,5.67s-.63,2.52-2.57,2.46c-4.27-.15-4.27-.15-4.27-4.43,0-.47,0-.94,0-1.41.06-1.93.17-3.61-1.92-5a6,6,0,0,1-2.55-6,73,73,0,0,0,.05-8.5c0-.66-.07-1.33.51-1.79,3.51-2.8,4.21-7.13,5.95-10.89a9,9,0,0,0,.74-2c.53-2.72,2.15-3.68,4.9-4,9-.91,18-1.85,27-.84,3.41.38,6.81.82,10.21,1.13,1.46.13,2,1,2.44,2.2,1.17,3,2.41,6,3.53,9.07a11.31,11.31,0,0,0,3,4.54,3.43,3.43,0,0,1,1.12,2.83,81.82,81.82,0,0,0,.07,8.86c.24,2.85-1.35,4.55-3.27,6a2.31,2.31,0,0,0-1.13,2.15c.06,1.94,0,3.89,0,5.84,0,1.61-.81,2.29-2.31,2.2-3.79-.22-4.9,1-4.55-4.52.08-1.3,0-2.6,0-3.9,0-1.14-.48-1.68-1.74-1.66-5.61,0-11.22,0-16.83,0Zm.35-32.05A121.72,121.72,0,0,0,42.67,42a3.43,3.43,0,0,0-3,2.59,46.94,46.94,0,0,1-2.56,7c-.61,1.2,0,1.81,1.44,1.7,3.24-.26,6.47-.59,9.72-.74a213.69,213.69,0,0,1,33.27.78c1.21.13,1.79-.48,1.28-1.58-1.12-2.42-1.84-5-2.73-7.48A3.21,3.21,0,0,0,77.29,42,124.64,124.64,0,0,0,60.29,40.68ZM80.81,65v0c.65,0,1.29,0,1.94,0s1.41,0,2.12,0a2.32,2.32,0,0,0,2.62-2.44c.06-1.23.05-2.47,0-3.71a2.06,2.06,0,0,0-2.35-2.23c-2.24,0-4.47,0-6.71,0a2.73,2.73,0,0,0-3,2.42c-.26,1.09-.45,2.19-.71,3.28-.41,1.67.24,2.59,2,2.66C78.1,65,79.46,65,80.81,65ZM38.94,65h0c1.47,0,3,0,4.43,0,1,0,2-.51,1.94-1.62a14.28,14.28,0,0,0-1.39-5.62,2.22,2.22,0,0,0-2.1-1.09l-7.26,0a1.83,1.83,0,0,0-2,1.94c-.07,1.3-.08,2.6,0,3.89.06,1.7.83,2.44,2.56,2.5C36.34,65,37.64,65,38.94,65Z"/></svg>