<svg xmlns="http://www.w3.org/2000/svg" viewBox="0 0 120 120"><defs><style>.a{fill:#c90106;}.b{fill:#2b2928;}</style></defs><path class="a" d="M59.88,4c6.33-.07,11.8.45,17,2.28,7.76,2.72,15,6.38,20.89,12.39,1.6,1.63,3.27,3.18,4.73,5a7.82,7.82,0,0,1,1.39,2.16,4.1,4.1,0,0,0,1.43,2.13c2.2,1.36,2.93,3.65,3.74,5.84a43.75,43.75,0,0,0,2.25,4.85c2.4,4.66,2.58,9.77,3.48,14.74,1.27,7,.25,13.88-1.48,20.55a54.16,54.16,0,0,1-8.37,18.23A78.72,78.72,0,0,1,94.7,103.51,38.82,38.82,0,0,1,82.81,111c-4.82,2-9.72,3.77-14.9,4.25-5.49.51-11,1.3-16.53.1-3-.66-6.26-.59-9.11-1.92-4.31-2-9-3.28-12.73-6.42-2.85-2.42-6.33-4-8.87-6.77a90.92,90.92,0,0,1-7.37-9.55,49.08,49.08,0,0,1-6.76-15,53.47,53.47,0,0,1-1.9-14.51,69.45,69.45,0,0,1,2.44-18.8,44.91,44.91,0,0,1,6.64-14c1.77-2.5,4.06-4.49,5.71-7a7.9,7.9,0,0,1,2-1.85c2.67-2.06,5.06-4.47,7.9-6.34a29.73,29.73,0,0,1,8.56-4.41c2.21-.6,4.22-1.73,6.41-2.46C49.68,4.5,55.19,4.4,59.88,4Zm0,95.31a28.75,28.75,0,0,0,6.87-.81c3.73-.72,7.49-1.63,10.73-3.66a42,42,0,0,0,11.47-9.76c4.17-5.42,7.84-11,9-18,.32-2,.06-2.4-2-2.38-.34,0-.69,0-1,.06-5.58.35-11.2.74-16.74.59-5.7-.15-11.37.31-17.07.05-6.83-.31-13.66.94-20.52.65-.23,0-.46,0-.69,0-5.18.5-10.36-.06-15.54.05-2.22,0-3,.7-2.45,2.9a32.48,32.48,0,0,0,3.85,9.71c2,3.08,3.66,6.55,6.34,9a46,46,0,0,0,11.53,8C48.82,98.25,54.27,99,59.86,99.32ZM57.8,20.8c-3.06.48-7.83.66-12.49,2.63-3.44,1.46-6.25,3.69-9.12,5.75A36.2,36.2,0,0,0,28,37.59c-3.47,4.84-5,10.33-6.61,15.82-.49,1.63.16,2.28,1.92,2.49a29.13,29.13,0,0,0,4.48-.14Q46.47,55.34,65.2,55c4.84-.07,9.69,0,14.5-.25a110.21,110.21,0,0,1,13.6-.22,16.23,16.23,0,0,0,2.57-.26c1.4-.13,1.86-.9,1.65-2.25a34.94,34.94,0,0,0-5.14-13.3,38.69,38.69,0,0,0-11.9-11.54C74.07,23,67.21,20.63,57.8,20.8Z"/><path class="b" d="M52.67,76.8c4.86-.26,9.68.36,14.52.53a11.45,11.45,0,0,0,1.55,0c1.41-.13,3.24.11,3.72-1.54a4.87,4.87,0,0,0-.89-4.87c-.82-.87-1.37-1.82-.17-2.79a1.88,1.88,0,0,1,3.07.53c1.48,2.26,3.91,3.77,4.92,6.42a3.87,3.87,0,0,1,.08,3c-1.08,3-1.48,5.87.64,8.7,1.19,1.59.16,3.6-1.83,3.93-1.11.19-1.57-.46-1.24-1.43a1.77,1.77,0,0,0-.47-2.16c-.55-.47-.91-1.36-1.81-1.06s-.76,1.2-.84,1.92a3.13,3.13,0,0,1-4,2.2,1.07,1.07,0,0,1-.67-.94.93.93,0,0,1,.78-1c1.26-.31,1.55-1.22,1.56-2.35A8.78,8.78,0,0,1,73,81.26c.36-.59.74-1.29.28-2s-1.39-.43-2.08-.24c-1.94.51-3.44,1.85-5,3-1,.68-.45,2-.51,3.12s.53,2.6-1.13,2.53-.78-1.55-.79-2.49c0-.57,0-1.15,0-1.73a1.5,1.5,0,0,0-.18-.83c-1.26-1.6-3-.52-4.5-.69-1.09-.12-1.6.84-1.48,1.9.24,2.07-.67,3.26-2.48,4.25a4.14,4.14,0,0,1-4.81-.5,3.85,3.85,0,0,1-1.45-4c.3-1.59-.36-2.11-1.83-2.1-1.67,0-3.34,0-5,0-1.39,0-1.94-.85-1.93-2.13,0-2,.65-2.91,2.09-2.92,3.52,0,7,0,10.55,0Z"/><path class="b" d="M74.2,38.75c2.82-.1,5.64.15,8.47-.14,1-.1,2.12,0,2.5,1.09.44,1.28.52,2.69-.67,3.66a2,2,0,0,0-.74,2.42,2.88,2.88,0,0,1-1.28,3.46c-1.36,1-2.84.76-4.24,0a3.09,3.09,0,0,1-1.73-3.14c.13-2.53.15-2.51-2.39-2.55s-5-.12-7.44-.14c-1.87,0-2.26.57-1.63,2.33a3.59,3.59,0,0,1-3,4.33,1.17,1.17,0,0,1-1.19-.82,6.68,6.68,0,0,1-.79-3,2.42,2.42,0,0,0-.48-1.79,1.53,1.53,0,0,0-1.52-.63c-.76.14-.74.79-.73,1.36A8.73,8.73,0,0,1,57.24,48c-.27.85-.83,1.52-1.79,1.18s-.63-1.16-.34-1.87c.58-1.43-.3-4.71-1.46-5.52-.75-.52-5.49.72-5.82,1.56a5.72,5.72,0,0,0-.11,2.57c.05.57.22,1.14.22,1.71,0,.81-.32,1.56-1.26,1.55s-1.23-.74-1.29-1.56a3.12,3.12,0,0,1,0-.68,8.58,8.58,0,0,0-.69-5.66c-.73-1.34-.93-2.94-3-2.6a.71.71,0,0,1-.33-.09c-1-.48-2.24-4.75-1.66-5.79,1-1.81,3.38-2.61,4.93-1.19,2.09,1.91,4.38,1.22,6.64,1.21,2.88,0,5.76-.17,8.64-.28,1.57-.06,2.73-.46,2.33-2.49a1.29,1.29,0,0,1,1.28-1.68A1.48,1.48,0,0,1,65.19,30c-.13,2.19.39,4.36,0,6.56-.29,1.87.12,2.21,2,2.18C69.58,38.73,71.89,38.75,74.2,38.75Zm-18-4.55c-.28.06-1.15-.2-1.32.55s.67.9,1.23,1.15,1.13.54,1.69.81a1.42,1.42,0,0,0,1.84-.43c.37-.42.88-.89.59-1.49s-1.07-.45-1.68-.46S57.21,34.26,56.22,34.2Z"/></svg>