<svg xmlns="http://www.w3.org/2000/svg" viewBox="0 0 120 120"><defs><style>.a{fill:#0054a7;}.b{fill:none;stroke:#0054a7;stroke-miterlimit:10;}.c{fill:#fff;}</style></defs><rect class="a" x="6.5" y="41" width="107" height="38" rx="3.91"/><rect class="b" x="3" y="38" width="114" height="44" rx="6.65"/><path class="c" d="M32.18,53.23V64.14h2.16v2.73H28.63V53.23Z"/><path class="c" d="M35.19,53.23h5.92V56H38.74v2.59H41v2.59H38.74v3h2.6v2.73H35.19Z"/><path class="c" d="M45.91,53.23V64.14h2.16v2.73H42.36V53.23Z"/><path class="c" d="M55.36,53.23l-2.58,8.71v4.93H49.49V61.94L47,53.23h3.26c.5,2.66.79,4.46.86,5.38q.29-2.19,1-5.38Z"/><path class="c" d="M56,53.23h2.65a16.22,16.22,0,0,1,3.48.24,2.72,2.72,0,0,1,1.38.77,2.51,2.51,0,0,1,.59,1.2,20.08,20.08,0,0,1,.11,2.6v4.78A11,11,0,0,1,64,65.28a1.77,1.77,0,0,1-.6,1,2.42,2.42,0,0,1-1.06.49,9.09,9.09,0,0,1-1.91.14H56Zm3.55,2.34v9c.51,0,.82-.1.94-.31a4.4,4.4,0,0,0,.18-1.67v-5.3a7.06,7.06,0,0,0-.06-1.19.57.57,0,0,0-.27-.38A1.79,1.79,0,0,0,59.52,55.57Z"/><path class="c" d="M73.61,61.22a27.8,27.8,0,0,1-.1,2.91,3.19,3.19,0,0,1-.6,1.56,3.27,3.27,0,0,1-1.38,1.09,5.05,5.05,0,0,1-2,.38,5.12,5.12,0,0,1-2-.36,3.27,3.27,0,0,1-1.4-1.07,3.12,3.12,0,0,1-.63-1.56,28.19,28.19,0,0,1-.1-3V58.89c0-1.37,0-2.35.09-2.92a3.34,3.34,0,0,1,.61-1.56,3.25,3.25,0,0,1,1.38-1.08,4.86,4.86,0,0,1,2-.38,5.36,5.36,0,0,1,2,.35,3.29,3.29,0,0,1,2,2.64,28.07,28.07,0,0,1,.1,3Zm-3.55-4.48a4.32,4.32,0,0,0-.1-1.22.43.43,0,0,0-.44-.27.5.5,0,0,0-.42.22A3,3,0,0,0,69,56.74v6.37a5.81,5.81,0,0,0,.1,1.46.41.41,0,0,0,.45.28.43.43,0,0,0,.46-.32,6.61,6.61,0,0,0,.1-1.53Z"/><path class="c" d="M74.93,53.23h2.51a18.86,18.86,0,0,1,3.4.2,2.32,2.32,0,0,1,1.45,1A4.42,4.42,0,0,1,82.85,57a4,4,0,0,1-.39,2.14,2.11,2.11,0,0,1-1.56.65,2.7,2.7,0,0,1,1.41.7,1.85,1.85,0,0,1,.45.81,12.34,12.34,0,0,1,.09,2v3.6H79.56V62.34A3.27,3.27,0,0,0,79.39,61c-.12-.17-.42-.26-.91-.26v6.15H74.93Zm3.55,2.34v3a1.55,1.55,0,0,0,.84-.17c.16-.1.24-.46.24-1.06v-.75a1.15,1.15,0,0,0-.23-.85A1.31,1.31,0,0,0,78.48,55.57Z"/><path class="c" d="M84.23,53.23H87.8a8.49,8.49,0,0,1,2.23.23,2.44,2.44,0,0,1,1.17.66,2.2,2.2,0,0,1,.53,1,9.53,9.53,0,0,1,.14,1.89v1.19a4.92,4.92,0,0,1-.27,1.9,1.83,1.83,0,0,1-1,.92,4.74,4.74,0,0,1-1.88.32h-1v5.49H84.23Zm3.54,2.34V59H88a.81.81,0,0,0,.68-.24,1.75,1.75,0,0,0,.19-1V56.69a1.29,1.29,0,0,0-.22-.91A1.37,1.37,0,0,0,87.77,55.57Z"/></svg>