<svg xmlns="http://www.w3.org/2000/svg" viewBox="0 0 120 120"><defs><style>.a{fill:#0054a7;}.b{fill:#c90106;}</style></defs><path class="a" d="M60,18.25H98.17c2.64,0,3.7,1,3.7,3.68q0,21.87,0,43.75,0,16.09,0,32.19c0,2.57-1.33,3.91-3.88,3.91L22,101.8A3.53,3.53,0,0,1,18.09,98q0-38,0-75.94c0-2.79,1.19-3.83,4-3.81,10.86.05,21.72,0,32.58.05C56.45,18.26,58.23,18.25,60,18.25Zm.06,81v.06c11.34,0,22.68-.11,34,.07a5.05,5.05,0,0,0,5.36-5.17q-.15-34,0-68a5.08,5.08,0,0,0-5-5.1q-34.2.18-68.42,0a4.91,4.91,0,0,0-4.93,4.89q.17,34.33,0,68.68a4.76,4.76,0,0,0,4.59,4.65C37.12,99.14,48.59,99.22,60.06,99.22Z"/><path class="a" d="M23.76,60.16V25.63c0-1.36.46-1.81,1.9-1.81q14.22,0,28.43,0l40.64,0c1.42,0,1.92.53,1.92,2.12q0,15.26,0,30.51t0,30.24c0,2.64,0,5.27,0,7.91,0,1.41-.62,2-2,2h-68c-2.77,0-2.91-.19-2.9-2.94,0-11.17,0-22.33,0-33.5Zm25.29,9.65H49c0-5.76,0-11.51,0-17.26,0-.72.29-.94,1-.77l7.41,1.86c.17,0,.33.11.5.14A1.91,1.91,0,0,0,59.9,53a1.56,1.56,0,0,0-.2-1.92q-4-5.8-8.07-11.61c-1.61-2.3-3.2-4.62-4.89-6.87-1.13-1.52-1.85-1.47-3,0a7.26,7.26,0,0,0-.46.63Q37.08,42.07,30.91,50.9c-.48.68-.83,1.38-.27,2.14a1.93,1.93,0,0,0,2.2.68c2.18-.54,4.37-1,6.56-1.55s2.06-.48,2.05,1.69q0,16.49,0,33c0,.91.29,1.4,1.24,1.4,1.73,0,3.46,0,5.19,0,.83,0,1.23-.39,1.22-1.29C49,81.23,49.05,75.52,49.05,69.81ZM78.83,50h0v-.9c0-5.24,0-10.47,0-15.71,0-1.76-.28-2-2-2-1.17,0-2.33,0-3.5,0-2,0-2.23.22-2.25,2.24,0,3.24,0,6.49,0,9.73,0,7.79,0,15.57,0,23.36,0,.66-.16,1.22-.94,1-1.12-.35-2.29-.35-3.41-.74-1.38-.48-2.86-.62-4.26-1.11a1.91,1.91,0,0,0-2.24.9c-.5.68-.21,1.31.2,1.91,4.12,5.93,8.2,11.88,12.37,17.78,1.92,2.72,2.67,2.64,4.6-.14q6.06-8.73,12.12-17.46c.45-.64.86-1.26.32-2a2.07,2.07,0,0,0-2.46-1c-2.42.84-4.94,1.2-7.41,1.83-1,.24-1.12-.09-1.12-.94C78.84,61.14,78.83,55.56,78.83,50Z"/><path class="b" d="M72.46,50.6c0-5.5,0-11,0-16.49,0-1.12.34-1.6,1.52-1.43a9,9,0,0,0,2.07,0c1.13-.1,1.54.35,1.53,1.49q0,14.73,0,29.46c0,1.21,0,2.43,0,3.64,0,1.62.75,2.18,2.32,1.74,2.5-.69,5.09-1,7.57-1.79.37-.12.79-.22,1.06.18s0,.72-.25,1C85.32,73.05,82,77.4,79,81.91c-.87,1.29-1.8,2.54-2.72,3.8-1.08,1.5-1.38,1.54-2.43.07-3-4.15-5.88-8.34-8.8-12.52-1.12-1.6-2.2-3.21-3.29-4.83-.21-.31-.52-.66-.18-1s.69-.25,1.09-.16c2.48.6,5,1.17,7.44,1.76,1.76.42,2.41-.08,2.41-1.91q0-5.05,0-10.12V50.6Z"/></svg>