<svg xmlns="http://www.w3.org/2000/svg" viewBox="0 0 120 120"><defs><style>.a{fill:#c90106;}</style></defs><path class="a" d="M60.18,106H9.27c-.72,0-1.67.33-2.06-.52s.48-1.23.82-1.81Q13,95.06,18,86.42,24,76,30,65.52c3.1-5.4,6.14-10.84,9.25-16.23C42.54,43.55,46,37.85,49.27,32.11s6.58-11.54,9.85-17.32c.23-.41.4-.87,1-.86s.73.49,1,.89q8.78,15.32,17.57,30.61,8,14,16.11,28,8.53,14.85,17.07,29.69c1.61,2.81,1.63,2.86-1.58,2.86q-25,0-50,0Zm-.12-10.5v0q16.62,0,33.24,0c1.23,0,1.49-.34.86-1.42Q85.82,79.79,77.5,65.42C72.22,56.29,67,47.13,61.69,38c-1.63-2.81-1.67-2.78-3.32.09-5.24,9.15-10.44,18.32-15.75,27.43C37.1,75,31.83,84.61,26.09,93.93c-.24.39-.66.77-.36,1.26s.94.33,1.44.33Z"/><path d="M89.85,94c-12.23.35-24.47,0-36.71.08-7.75.07-15.49,0-23.24-.07-1.26,0-1.54-.57-.91-1.67,4.8-8.26,9.61-16.51,14.36-24.8.67-1.16,1.27-1.23,2.36-.59Q66.63,79.1,87.61,91.2c.85.5,1.79.84,2.67,1.29.48.24,1,.58.79,1.19S90.3,94.06,89.85,94Z"/><path d="M64.24,62.22c0,3.69-2.43,7.45-5,8.47a4.62,4.62,0,0,1-4.88-1,4.93,4.93,0,0,1-2-4.9A10.64,10.64,0,0,1,55.59,59a4.42,4.42,0,0,1,5-1C62.75,58.94,64.16,60.54,64.24,62.22Zm-7,6.31c1.41.13,2.95-.93,3.86-2.82.69-1.43,1.21-2.95.06-4.43a2.7,2.7,0,0,0-4-.52,6.77,6.77,0,0,0-2.53,4.6A3,3,0,0,0,57.27,68.53Z"/><path d="M53.16,54.14a1.93,1.93,0,0,1,2,.81c.43.81-.26,1.39-.65,2a80.79,80.79,0,0,0-4.68,8c-.45.93-1,1.74-2.11,1s-.59-1.51,0-2.36C48.86,61.79,50,59.89,51.14,58a1.21,1.21,0,0,0,.09-1.31C50.14,54.51,50.33,54.22,53.16,54.14Z"/><path d="M70.57,72.38a2.81,2.81,0,0,1,2.56,2.4c0,1.55-1.95,3.82-3.29,3.76a3.38,3.38,0,0,1-2.52-2.74C67.32,74.54,69.38,72.38,70.57,72.38Z"/><path d="M66.39,67c0-1.23,1.91-3.61,3-3.69A3.57,3.57,0,0,1,72.25,66c0,1.21-2.13,3.42-3.31,3.42A2.76,2.76,0,0,1,66.39,67Z"/><path d="M76.82,67.62a1.2,1.2,0,0,1-.84,1c-4,1.87-8,3.76-11.84,5.94-.54.31-1.19.44-1.47-.29s.39-.85.84-1.09q5.92-3,11.85-6.12C76.05,66.76,76.59,66.78,76.82,67.62Z"/></svg>