<svg xmlns="http://www.w3.org/2000/svg" viewBox="0 0 120 120"><defs><style>.a{fill:#c90106;}</style></defs><path class="a" d="M59.93,103.85H11c-.49,0-1,.07-1.35-.43s.1-.94.35-1.36q9.44-16.32,18.89-32.65Q36.64,56,44.35,42.63q6.9-12,13.83-23.87A18.53,18.53,0,0,0,59,17c.18-.43.39-.82.91-.85s.76.34,1,.75L97.86,81.1q5.58,9.72,11.15,19.46c.33.57.78,1.08,1.1,1.66.64,1.13.33,1.68-1,1.67-8.59,0-17.18-.08-25.77-.1q-11.73,0-23.46,0Zm0-10.18v0h4.65l26.78.13c.43,0,.93.13,1.17-.38s-.12-.83-.34-1.21Q89.51,87.57,86.85,83L61.75,39.48c-1.72-3-1.72-3-3.49.05-4.21,7.29-8.39,14.6-12.61,21.89Q36.74,76.81,27.78,92.18c-.22.38-.56.73-.3,1.21s.75.38,1.19.36c.77,0,1.54-.08,2.32-.08Q45.45,93.66,59.92,93.67Z"/><path d="M63,90.66c.71-5.57.91-10.89,1.4-16.19.19-2-.85-3.64-1.48-5.37-.34-.93-1.08-.23-1.5.32-.85,1.09-1.7,2.18-2.54,3.28-.46.6-1,1-1.67.39A1.25,1.25,0,0,1,57,71.18c2.47-2.71,3.73-6.28,6.29-8.94.77-.8,0-.93-.59-1.15-2.39-.86-3.28-3.06-2-4.79s3.22-2,4.76-.74,1.6,3,0,4.64c-.24.24-.58.44-.46.81s.56.28.84.42c3.14,1.47,6.4,2.81,7.91,6.34a21.42,21.42,0,0,0,1.11,2c.33.6.39,1.17-.25,1.6a1.13,1.13,0,0,1-1.74-.3c-.62-1-1.14-2-1.72-3-.3-.53-.67-1.22-1.37-.85s0,1,0,1.47C70.41,71.79,72,74.5,73,77.42a7.39,7.39,0,0,0,3.62,4.12c1.46.8,2.84,1.73,4.27,2.56a1.42,1.42,0,0,1,.61,2.23c-.58.88-1.25.51-2,.09a36.48,36.48,0,0,0-4.62-2.25,8.83,8.83,0,0,1-5.2-4.82c-.25-.53-.49-1.34-1.19-1.2s-.43,1-.54,1.58c-.77,3.69-1.52,7.38-2.31,11.07a1.35,1.35,0,0,1-1.74,1.11A1,1,0,0,1,63,90.66Z"/><path d="M48.28,63.19a3.43,3.43,0,0,1,2.78,2.08A2.07,2.07,0,0,1,50.25,68c-1,.73-.81,1.15.27,1.52a11.58,11.58,0,0,1,6.08,4.88c.37.58.68,1.1,0,1.58a1.12,1.12,0,0,1-1.82-.38c-.38-.61-.74-1.24-1.16-1.82-.22-.3-.51-.65-1-.51s-.35.63-.3,1a44.7,44.7,0,0,0,2.34,8.64,2.17,2.17,0,0,0,1.45,1.28c1,.37,1.94.8,2.93,1.17A1.35,1.35,0,0,1,60,87.26c-.31.95-1.08.89-1.77.54a20.39,20.39,0,0,0-3.31-1.1,4.59,4.59,0,0,1-3-2.66c-.21-.48-.26-1.19-1-1.05-.59.11-.59.7-.73,1.18-.65,2.24-1.32,4.46-2,6.69-.19.61-.43,1.2-1.17,1.23s-1.62-.13-1.25-1.31c1-3.41,1.12-7,2-10.44a8.9,8.9,0,0,0-.25-4.26c-.27-1.12-.85-1.07-1.51-.42S44.52,77.22,43.84,78s-1.2.86-1.86.26-.33-1.25.19-1.73C44.25,74.61,45.5,72,47.56,70c.95-.9-.05-1.14-.64-1.5a2.63,2.63,0,0,1-1.55-2.71,3.51,3.51,0,0,1,2.4-2.55A2.45,2.45,0,0,1,48.28,63.19Z"/></svg>