<svg xmlns="http://www.w3.org/2000/svg" viewBox="0 0 120 120"><defs><style>.a{fill:#c90106;}.b{fill:#2b2928;}</style></defs><path class="a" d="M110,59.91A50,50,0,1,1,60.15,10.1,49.75,49.75,0,0,1,110,59.91Zm-88.63.62C21.77,82,39.45,99.22,60.68,98.76a38.62,38.62,0,0,0-1-77.23C38.32,21.63,21,39.47,21.37,60.53Z"/><path class="b" d="M59.54,47c2.9,0,5.81,0,8.71,0a2,2,0,0,0,1.93-1.07c.27-.48.62-1,.26-1.55S69.56,44,69.07,44a12.63,12.63,0,0,1-1.5.12c-.64,0-1.51,0-1.52-.9s.81-.92,1.49-.91c1.28,0,2.56.07,3.85.07,1.11,0,2.23-.07,3.34-.1.63,0,1.13.19,1.16.9s-.49.88-1.11.94a3.68,3.68,0,0,0-2.94,5.39c.66,1.29,1.3,2.6,1.93,3.9a1.54,1.54,0,0,0,2,.93,11.35,11.35,0,0,1,12.72,5.09,11.64,11.64,0,0,1-.64,13.21,11.5,11.5,0,0,1-12.71,4,11.11,11.11,0,0,1-7.89-8.35c-.3-1.27-.89-2-2.15-1.72-2.89.58-4.76-.68-6.53-2.87-3.14-3.9-6.56-7.59-9.85-11.37-.47-.54-1.08-1.14-1.63-.37s-1.46,1.85-.53,3a6.1,6.1,0,0,0,1.22.87A11.7,11.7,0,1,1,29.5,66c-.32-7,6.22-13,13.06-11.87a1.8,1.8,0,0,0,2.29-1.33c1-2.68,1.94-5.35,2.93-8A25.83,25.83,0,0,1,49,41.83,3.22,3.22,0,0,1,52.13,40c.78,0,1.56-.05,2.34-.09s1.3.06,1.35.87-.66,1.2-1.36,1c-2.93-.72-4.3.79-5.14,3.33C48.84,46.53,49,47,50.51,47c3,0,6,0,9,0ZM51.13,64.71c.07-2.58-1.71-5.19-4.3-7.35-1-.82-1.66-.49-2.08.74-.89,2.58-1.86,5.14-2.82,7.7-.22.6-.6,1.17-1.36.87s-.55-1-.33-1.56c.92-2.4,1.82-4.8,2.75-7.19.68-1.76.4-2.2-1.49-2.25A9.87,9.87,0,0,0,31.35,65.3,9.75,9.75,0,0,0,41,75.42C46.64,75.54,51,71.33,51.13,64.71Zm23.13,1.94v-.06c-1.33,0-2.67,0-4,0s-1.55.57-1.25,1.7c1.58,5.86,9,9,14.32,6A10,10,0,0,0,76.7,55.78c-1.29.24-1.51.81-.81,2.21,1.13,2.24,2.27,4.47,3.39,6.71.63,1.26.26,1.89-1.17,1.94C76.83,66.69,75.55,66.65,74.26,66.65Zm-15.91-18v0H50c-.48,0-1.07-.27-1.36.29s.07,1.14.51,1.61c3.74,4,7.37,8,10.83,12.26.86,1,1.58,1,2.15-.18q2.88-6,5.74-12.06c.63-1.34.27-1.88-1.16-1.88ZM65.1,64.85c1.42,0,1.85-.32,2.07-1.7a9.79,9.79,0,0,1,3-5.64c2.43-2.36,2.43-2.35,1.16-5.42-.24-.56-.39-1.23-1.16-1.25s-.92.78-1.18,1.37a107.54,107.54,0,0,1-5,10.5c-.27.49-.66,1-.38,1.54S64.56,64.82,65.1,64.85Zm7.89,0v0c.89,0,1.78,0,2.67,0,1.19,0,1.48-.59,1-1.62-.79-1.59-1.61-3.17-2.38-4.77-.57-1.18-1.29-1.33-2.18-.38a12.42,12.42,0,0,0-2.87,4.26c-.69,1.93-.38,2.47,1.61,2.5C71.54,64.84,72.26,64.83,73,64.83Z"/></svg>