<svg xmlns="http://www.w3.org/2000/svg" viewBox="0 0 120 120"><defs><style>.a{fill:#0054a7;}</style></defs><path class="a" d="M59.93,10.81A49.19,49.19,0,1,1,10.75,60.53,49.08,49.08,0,0,1,59.93,10.81Zm47.8,48A47.79,47.79,0,0,0,12.16,60.4c.29,26.15,22.18,47.53,48.21,47.17A47.77,47.77,0,0,0,107.73,58.85Z"/><path class="a" d="M60.05,104.68c-25.2,0-45.16-19.77-45-44.94S34.67,14.79,60.4,15A44.44,44.44,0,0,1,105,59.63,44.43,44.43,0,0,1,60.05,104.68ZM59,41.4c-2,0-5.12,0-8.24,0-2.41,0-2.41,0-1.59-2.34.71-2,1.09-2.2,3.15-2.14.92,0,1.84.06,2.75,0,1.89-.12,1.28-1.59,1.36-2.67s-.29-1.76-1.55-1.72a43.84,43.84,0,0,1-4.44,0,4.21,4.21,0,0,0-4.13,2.36,15.7,15.7,0,0,0-1.06,2.53c-1.42,3.93-2.84,7.87-4.2,11.82a1.83,1.83,0,0,1-2.38,1.43,15.3,15.3,0,0,0-16.84,12C20.39,69,22.84,74.12,27.94,77.9s10.56,4,16.09.94a15,15,0,0,0,2.55-24.59c-.54-.47-1.14-.86-1.67-1.33-1-.89-.16-1.72.21-2.47.26-.52.68-.14,1,.2,3.76,4.78,8.09,9,12.06,13.63,3.36,3.88,3.37,3.9,8.55,3.53,1-.07,1.34.3,1.56,1.2a15.2,15.2,0,0,0,29.52.59c3-10.3-6.78-20.92-17.4-18.8a1.61,1.61,0,0,1-2.19-1.16A27.62,27.62,0,0,0,76,45.09c-1.06-1.66-.34-3,.39-4.39s1.82-.77,2.83-.78a3.09,3.09,0,0,0,.61,0c1.32-.32.9-1.41,1-2.26s-.08-1.47-1.1-1.46c-3.93,0-7.86,0-11.79.07-1,0-2,.42-2.09,1.62s.87,1.79,2,1.89a25.87,25.87,0,0,0,3,0c.42,0,.88-.11,1,.43a1,1,0,0,1-.61,1.11,1.74,1.74,0,0,1-.89.18C66.88,41.11,63.47,41.63,59,41.4Z"/><path class="a" d="M36.46,76.48a10.6,10.6,0,0,1-10.7-10.64,10.71,10.71,0,0,1,10.54-11l.92,0c1.71,0,1.79.13,1.2,1.68-1.14,3-2,6.08-3.26,9.06-.5,1.22.31,2.07,1.34,2.56a1.73,1.73,0,0,0,2.43-.93,55.18,55.18,0,0,0,2.41-6.27c.35-.9.64-1.83,1-2.74.52-1.49.67-1.53,1.77-.49a11.17,11.17,0,0,1,2.77,11.94A10.53,10.53,0,0,1,36.46,76.48Z"/><path class="a" d="M78.07,67.9c1.48,0,3,0,4.44,0C85,67.81,86,66.22,84.91,64c-1.23-2.63-2.45-5.27-3.72-7.88-.4-.83-.31-1.2.66-1.31A10.93,10.93,0,0,1,87.7,75.55a11.06,11.06,0,0,1-15.09-6.46c-.28-.88,0-1.25.88-1.25h4.58Z"/><path class="a" d="M48.45,45.91c6.43,0,12.85,0,19.27,0,1.38,0,1.48.14.87,1.43-2.13,4.46-4.28,8.91-6.33,13.41-.58,1.26-.87,1.18-1.72.21-4.08-4.69-8.25-9.31-12.38-14-.27-.3-.73-.51-.52-1S48.16,45.77,48.45,45.91Z"/><path class="a" d="M74.86,52.42a1.35,1.35,0,0,1-.64,1c-3,2.43-5.41,5.25-6.07,9.22a1,1,0,0,1-1.09.87c-.36,0-.76.06-1-.26s.06-.84.26-1.24c2.09-4.07,4-8.23,5.81-12.44.15-.35.11-.89.66-.89s.58.49.75.85C74,50.48,74.42,51.45,74.86,52.42Z"/><path class="a" d="M76.08,63.44h-2.6c-.87,0-1.29-.33-.85-1.22a14.84,14.84,0,0,1,3-4.59c.81-.76,1.28-.87,1.8.24.71,1.52,1.5,3,2.25,4.51.35.71.12,1.06-.67,1.06Z"/></svg>