<svg xmlns="http://www.w3.org/2000/svg" viewBox="0 0 120 120"><defs><style>.a{fill:#2b2928;}.b{fill:#c90106;}</style></defs><polygon class="a" points="36.5 60 18.5 79.02 18.5 40.98 36.5 60"/><polygon class="a" points="83.5 60 101.5 79.02 101.5 40.98 83.5 60"/><path class="b" d="M7.5,60A52.5,52.5,0,1,0,60,7.5,52.51,52.51,0,0,0,7.5,60Zm11,0A41.5,41.5,0,1,1,60,101.5,41.5,41.5,0,0,1,18.5,60Z"/><path d="M52.23,64.15v3.94H39.53v-3.3q5.64-9.23,6.71-11.42A8.63,8.63,0,0,0,47.3,50,2.53,2.53,0,0,0,47,48.54a1.12,1.12,0,0,0-1-.47,1.08,1.08,0,0,0-1,.52,4.24,4.24,0,0,0-.32,2v2.2H39.53V52a17.7,17.7,0,0,1,.2-3.07,5.36,5.36,0,0,1,1-2.2,4.92,4.92,0,0,1,2-1.65,7.47,7.47,0,0,1,3-.55A7.26,7.26,0,0,1,51,46.22a5.79,5.79,0,0,1,1.76,4.33,10.33,10.33,0,0,1-1,4.2,86.24,86.24,0,0,1-5.85,9.4Z"/><path d="M60.17,49.13l-.1,1.8a4.74,4.74,0,0,1,1.6-1.61,4.21,4.21,0,0,1,2.11-.53,4.1,4.1,0,0,1,3.65,2.14,5.22,5.22,0,0,1,1.64-1.61,4.36,4.36,0,0,1,4.47.18,3.16,3.16,0,0,1,1.23,1.75A14.81,14.81,0,0,1,75,54.62V68.09h-5.6V55.73a15.73,15.73,0,0,0-.16-3,.73.73,0,0,0-.77-.57.75.75,0,0,0-.79.57,14.15,14.15,0,0,0-.18,3V68.09h-5.6v-12a22.6,22.6,0,0,0-.13-3.35.68.68,0,0,0-.75-.55.84.84,0,0,0-.66.29,1.12,1.12,0,0,0-.3.71q0,.42,0,1.8V68.09h-5.6v-19Z"/></svg>