<svg xmlns="http://www.w3.org/2000/svg" viewBox="0 0 120 120"><defs><style>.a{fill:#0054a7;}.b{fill:#c90106;}</style></defs><path class="a" d="M52,60.47c-.5,0-1.06-.3-1.49.11s-1.1,1.07-1.7,1.55c-.1.07-.22.15-.19.3s.23.15.36.15h1.66c.15,0,.35-.05.43.13s-.12.28-.23.39a22.48,22.48,0,0,0-1.59,1.65,11.69,11.69,0,0,0-2.54,6.46,14,14,0,0,0,.23,3.29c0,.33.2.53.58.42s.83-.22,1.25-.3.42-.14.34-.53a9.86,9.86,0,0,1-.13-3.34,9.69,9.69,0,0,1,3.7-6.4c.12-.1.24-.26.41-.15s.11.29.08.44a16,16,0,0,0-.06,2.19c0,.11-.05.28.11.31s.19-.07.26-.14c.58-.5,1.15-1,1.72-1.52a1,1,0,0,0,.33-.71c.05-1.25.08-2.49.13-3.74,0-.41-.17-.57-.57-.57Zm5.58,19,0-.16-2.64-.81a.63.63,0,0,0-.52,0l-3.58,1.79c-.33.17-.38.34-.23.68.45,1,1.08,1.88,1.51,2.88A1.76,1.76,0,0,0,53.35,85c.73.18,1.43.43,2.15.65a14.9,14.9,0,0,0-.8-1.75c-.09-.17-.32-.36-.13-.57s.37,0,.55,0A12.89,12.89,0,0,0,58,84a12.34,12.34,0,0,0,4.06-.4,12.75,12.75,0,0,0,5.2-2.75c.23-.2.23-.39,0-.58-.35-.35-.73-.68-1.1-1-.18-.16-.32,0-.46.09a9.81,9.81,0,0,1-5.33,2.39,11.06,11.06,0,0,1-5.1-.51c-.15-.06-.33-.11-.34-.3s.18-.23.32-.3C56,80.2,56.77,79.82,57.53,79.44ZM72.78,68.08l-.14,0-1.22,1.88c0,.08-.11.2-.24.17S71,70,71,69.86c-.12-.47-.21-.94-.37-1.39a12.26,12.26,0,0,0-8-7.79c-.35-.12-.49,0-.58.32s-.23.85-.36,1.28,0,.36.29.44a10,10,0,0,1,4.71,3.1,9.69,9.69,0,0,1,2.16,4.57c0,.19.1.43-.08.56s-.36-.07-.51-.16l-1.83-1.11c-.08-.05-.19-.16-.28-.05s0,.17,0,.25c.16.79.33,1.57.49,2.35a.57.57,0,0,0,.28.38l3.43,2.15c.31.19.55.2.76-.15.65-1.11,1.46-2.1,2.08-3.23a.89.89,0,0,0,.17-.6C73.17,69.87,73,69,72.78,68.08Z"/><path class="b" d="M65.76,106.45H13a13.57,13.57,0,0,1-1.43,0,4.78,4.78,0,0,1-4.14-4.75,5.49,5.49,0,0,1,1-2.54c3.6-6.3,7.26-12.56,10.89-18.84,2-3.52,4.05-7.06,6.07-10.59Q30.45,60.82,35.53,52,41.18,42,46.81,32.1l7-12.23c.8-1.4,1.65-2.76,2.38-4.19,1.63-3.18,6.06-2.57,7.59.16C68.12,23.59,72.59,31.28,77,39c2.3,4,4.57,8.07,6.88,12.09,2.44,4.23,4.93,8.43,7.35,12.66,2.65,4.61,5.23,9.26,7.87,13.88,2.13,3.74,4.36,7.43,6.45,11.2,2.18,3.92,4.58,7.71,6.73,11.65,1.17,2.14-1.05,6-3.58,5.83-2.08-.11-4.17,0-6.25,0C88.41,106.25,74.35,106.53,65.76,106.45Zm-5.89-1.14v0H82.38l25.72,0a2.74,2.74,0,0,0,2.5-1.08,4.33,4.33,0,0,0,.11-4.45q-2.35-3.95-4.65-7.92C104,88.29,102,84.69,99.92,81.11c-2.32-4-4.69-8-7-12-2.48-4.26-4.92-8.55-7.39-12.81-2.06-3.55-4.16-7.07-6.21-10.62q-4.86-8.37-9.67-16.76c-2.35-4.07-4.72-8.13-7.07-12.2a3.32,3.32,0,0,0-3-1.94,3.07,3.07,0,0,0-2.81,1.85c-.72,1.19-1.36,2.44-2.06,3.65-1.56,2.7-3.15,5.39-4.7,8.1-2.14,3.74-4.23,7.5-6.37,11.25Q40.09,45.85,36.49,52q-4.5,7.8-9,15.61-5.13,8.92-10.24,17.87c-2.79,4.87-5.57,9.76-8.38,14.62a3.31,3.31,0,0,0,0,3.47,3.15,3.15,0,0,0,3,1.72Q35.85,105.27,59.87,105.31Zm.09-1H11.82a2.32,2.32,0,0,1-2.1-3.51c2.14-3.84,4.34-7.64,6.52-11.46l6.07-10.59c2.15-3.74,4.31-7.47,6.45-11.21,1.27-2.21,2.51-4.44,3.78-6.66,2.28-4,4.58-7.92,6.86-11.89,1.94-3.38,3.84-6.78,5.78-10.15,2.64-4.59,5.31-9.16,8-13.74,1.55-2.67,3.07-5.36,4.62-8,.82-1.42,2.07-1.69,3.27-.75a1.37,1.37,0,0,1,.38.48l9.74,16.81c1.65,2.86,3.34,5.69,5,8.54Q80.74,50.08,85.32,58c2.35,4,4.79,8,7.05,12.09,2.53,4.57,5.25,9,7.83,13.58s5.21,8.93,7.76,13.43c.77,1.36,1.86,2.58,2.22,4.14.4,1.78-.48,3.07-2.36,3.06-15.95-.06-31.91,0-47.86,0Zm-.29-11v0H91.38c1.39,0,1.41,0,.73-1.29-.13-.23-.2-.5-.34-.73q-3-5.19-6.08-10.38Q80.82,72.55,76,64.23c-2.55-4.37-5.06-8.74-7.6-13.11l-4.06-7-3.72-6.4c-.69-1.17-.87-1.18-1.54-.05-2.11,3.58-4.28,7.14-6.32,10.76-1.87,3.31-4,6.47-5.77,9.81-1.23,2.28-2.62,4.46-3.92,6.69-2.63,4.49-5.23,9-7.86,13.48s-5.36,9.12-8,13.68c-.62,1.06-.54,1.2.66,1.2Z"/></svg>