<svg xmlns="http://www.w3.org/2000/svg" viewBox="0 0 120 120"><defs><style>.a{fill:#fff;}.b{fill:#c90106;}</style></defs><rect class="a" x="27.5" y="52.96" width="21" height="14.07"/><path d="M48,53.46V66.54H28V53.46H48m1-1H27V67.54H49V52.46Z"/><rect class="a" x="71.5" y="52.96" width="21" height="14.07"/><path d="M92,53.46V66.54H72V53.46H92m1-1H71V67.54H93V52.46Z"/><rect class="b" x="5.5" y="52.96" width="21" height="14.07"/><path d="M26,53.46V66.54H6V53.46H26m1-1H5V67.54H27V52.46Z"/><rect class="b" x="49.5" y="52.96" width="21" height="14.07"/><path d="M70,53.46V66.54H50V53.46H70m1-1H49V67.54H71V52.46Z"/><rect class="b" x="93.5" y="52.96" width="21" height="14.07"/><path d="M114,53.46V66.54H94V53.46h20m1-1H93V67.54h22V52.46Z"/></svg>