<svg xmlns="http://www.w3.org/2000/svg" viewBox="0 0 120 120"><defs><style>.a{fill:#c90106;}</style></defs><path class="a" d="M65.76,106.45H13a13.57,13.57,0,0,1-1.43,0,4.78,4.78,0,0,1-4.14-4.75,5.49,5.49,0,0,1,1-2.54c3.6-6.3,7.26-12.56,10.89-18.84,2-3.52,4.05-7.06,6.07-10.59Q30.45,60.82,35.53,52,41.18,42,46.81,32.1l7-12.23c.8-1.4,1.65-2.76,2.38-4.19,1.63-3.18,6.06-2.57,7.59.16C68.12,23.59,72.59,31.28,77,39c2.3,4,4.57,8.07,6.88,12.09,2.44,4.23,4.93,8.43,7.35,12.66,2.65,4.61,5.23,9.26,7.87,13.88,2.13,3.74,4.36,7.43,6.45,11.2,2.18,3.92,4.58,7.71,6.73,11.65,1.17,2.14-1.05,6-3.58,5.83-2.08-.11-4.17,0-6.25,0C88.41,106.25,74.35,106.53,65.76,106.45Zm-5.89-1.14v0H82.38l25.72,0a2.74,2.74,0,0,0,2.5-1.08,4.33,4.33,0,0,0,.11-4.45q-2.35-3.95-4.65-7.92C104,88.29,102,84.69,99.92,81.11c-2.32-4-4.69-8-7-12-2.48-4.26-4.92-8.55-7.39-12.81-2.06-3.55-4.16-7.07-6.21-10.62q-4.86-8.37-9.67-16.76c-2.35-4.07-4.72-8.13-7.07-12.2a3.32,3.32,0,0,0-3-1.94,3.07,3.07,0,0,0-2.81,1.85c-.72,1.19-1.36,2.44-2.06,3.65-1.56,2.7-3.15,5.39-4.7,8.1-2.14,3.74-4.23,7.5-6.37,11.25Q40.09,45.85,36.49,52q-4.5,7.8-9,15.61-5.13,8.92-10.24,17.87c-2.79,4.87-5.57,9.76-8.38,14.62a3.31,3.31,0,0,0,0,3.47,3.15,3.15,0,0,0,3,1.72Q35.85,105.27,59.87,105.31Z"/><path class="a" d="M60,104.31H11.82a2.32,2.32,0,0,1-2.1-3.51c2.14-3.84,4.34-7.64,6.52-11.46l6.07-10.59c2.15-3.74,4.31-7.47,6.45-11.21,1.27-2.21,2.51-4.44,3.78-6.66,2.28-4,4.58-7.92,6.86-11.89,1.94-3.38,3.84-6.78,5.78-10.15,2.64-4.59,5.31-9.16,8-13.74,1.55-2.67,3.07-5.36,4.62-8,.82-1.42,2.07-1.69,3.27-.75a1.37,1.37,0,0,1,.38.48l9.74,16.81c1.65,2.86,3.34,5.69,5,8.54Q80.74,50.08,85.32,58c2.35,4,4.79,8,7.05,12.09,2.53,4.57,5.25,9,7.83,13.58s5.21,8.93,7.76,13.43c.77,1.36,1.86,2.58,2.22,4.14.4,1.78-.48,3.07-2.36,3.06-15.95-.06-31.91,0-47.86,0Zm-.29-11v0H91.38c1.39,0,1.41,0,.73-1.29-.13-.23-.2-.5-.34-.73q-3-5.19-6.08-10.38Q80.82,72.55,76,64.23c-2.55-4.37-5.06-8.74-7.6-13.11l-4.06-7-3.72-6.4c-.69-1.17-.87-1.18-1.54-.05-2.11,3.58-4.28,7.14-6.32,10.76-1.87,3.31-4,6.47-5.77,9.81-1.23,2.28-2.62,4.46-3.92,6.69-2.63,4.49-5.23,9-7.86,13.48s-5.36,9.12-8,13.68c-.62,1.06-.54,1.2.66,1.2Z"/><path d="M74,81.51c0,2.53,0,5.06,0,7.59,0,.71-.28,1-1,.93s-.69-.52-.53-1a7.3,7.3,0,0,0-.44-5.54,1.59,1.59,0,0,0-1.94-1.09,2.7,2.7,0,0,1-2.77-1.57,1.18,1.18,0,0,0-1.14-.67c-2.3,0-4.59,0-6.88.09-1.45,0-2.06.65-2.13,2.16-.09,2-.15,4-.19,6.07,0,.57-.13.91-.78.93-.85,0-.9-.14-.72-1a11.56,11.56,0,0,0-.2-6.49,2.18,2.18,0,0,0-1.16-1.28,4.51,4.51,0,0,1-1.88-1.59c-1.28-1.87-2.87-3.49-4.3-5.23a1,1,0,0,0-1.44-.27c-.52.28-1.06.54-1.6.78a1,1,0,0,1-1.29-.28,1,1,0,0,1-.15-1.3c.63-1.14,1.22-2.3,1.87-3.44.21-.38.32-.69,0-1s-.16-.56.27-.57a5,5,0,0,1,3.1.94,14.77,14.77,0,0,0,3.06,1.39c1.86.76,3.79.61,5.71.61,5.48,0,10.95,0,16.43,0,1.39,0,1.81.42,1.81,1.81,0,2.91,0,5.83,0,8.75a3.54,3.54,0,0,0,.31,2,.68.68,0,0,1-.41,1c-.48.16-.45-.35-.52-.63a18.66,18.66,0,0,1-.28-4.35c0-1.85,0-3.69,0-5.54,0-.32.07-.74-.39-.76s-.5.42-.5.77c0,2.59,0,5.18,0,7.77Z"/></svg>