<svg xmlns="http://www.w3.org/2000/svg" viewBox="0 0 120 120"><defs><style>.a{fill:#fff;}.b{fill:#0054a7;}</style></defs><circle class="a" cx="60" cy="60" r="54.31"/><path class="b" d="M61.24,114.56c-15.83,0-27.83-4.8-38.39-13.57A55.49,55.49,0,0,1,6.69,77.86c-1.25-3.19-1.64-6.64-2.36-10a36.74,36.74,0,0,1-.64-7.67,53.16,53.16,0,0,1,7.64-27.75A55.09,55.09,0,0,1,30.07,13.61a53.26,53.26,0,0,1,28-8.18c6.65-.07,13.29.34,19.67,2.5A58,58,0,0,1,97.84,19.39,53.65,53.65,0,0,1,114.77,46.8a56.21,56.21,0,0,1,1.45,16.71c-.54,11.71-5,21.82-12.33,30.76-8.46,10.32-19.44,16.54-32.41,19.3A45,45,0,0,1,61.24,114.56Zm-1.32-1.09a55.11,55.11,0,0,0,13.36-1.71,54,54,0,0,0,30.25-19,47.92,47.92,0,0,0,8.73-15.87,59.37,59.37,0,0,0,3-17.36,55.35,55.35,0,0,0-1.21-9.67A48.54,48.54,0,0,0,103.69,27.4c-9.07-11.46-21.13-18-35.46-20.32A48.88,48.88,0,0,0,52,7.1a57.41,57.41,0,0,0-21.12,7.63,56.58,56.58,0,0,0-17,16.18,49.47,49.47,0,0,0-6.81,15A56,56,0,0,0,4.85,60.8,51.78,51.78,0,0,0,6.43,71.93,49.88,49.88,0,0,0,15.08,90.8a55.69,55.69,0,0,0,16,14.52C40,110.74,49.68,113,59.92,113.47Z"/><path class="b" d="M59.45,112.22a53.23,53.23,0,0,1-34-12.22A50.22,50.22,0,0,1,7,68.92c-2.79-15.73,1.35-29.74,11.48-42A51.35,51.35,0,0,1,38.66,12a53.49,53.49,0,0,1,28.88-3.8A54.38,54.38,0,0,1,102.69,28a49.86,49.86,0,0,1,10.45,22.6c2.28,11.86.22,23.11-5.5,33.75a52,52,0,0,1-21.49,21.33,56.12,56.12,0,0,1-17.35,5.86C65.82,112.08,62.87,112,59.45,112.22ZM38.13,22.87c-1.58-.09-3.32-.95-4.71.35-1.77,1.65-3.46,3.39-5.37,4.89-.3.23-.7.49-.58.94s.7.48,1.13.49c1.74,0,3.49,0,5.23,0,.48,0,1.13-.17,1.36.41s-.37.88-.71,1.23a70.93,70.93,0,0,0-5,5.22,36.93,36.93,0,0,0-8,20.42,43.86,43.86,0,0,0,.72,10.42c.17,1,.64,1.65,1.85,1.31s2.61-.69,3.94-1c1-.19,1.35-.43,1.09-1.65a30.09,30.09,0,0,1-.4-10.58A30.51,30.51,0,0,1,40.3,35.17c.38-.31.74-.84,1.3-.49s.33.91.25,1.4a49.82,49.82,0,0,0-.2,6.91c0,.36-.16.9.34,1,.24,0,.61-.24.85-.45l5.42-4.82a3.14,3.14,0,0,0,1.05-2.24c.15-3.94.26-7.87.42-11.81.05-1.3-.54-1.83-1.82-1.82C44.65,22.89,41.39,22.87,38.13,22.87Zm17.65,60-.05-.49c-2.79-.86-5.57-1.74-8.37-2.58a2.18,2.18,0,0,0-1.64.15c-3.77,1.9-7.53,3.83-11.31,5.69-1,.51-1.19,1.07-.71,2.13,1.41,3.14,3.41,6,4.77,9.11a5.56,5.56,0,0,0,4.1,3.56c2.3.55,4.54,1.36,6.8,2a42.88,42.88,0,0,0-2.54-5.53c-.26-.54-1-1.16-.39-1.81s1.16,0,1.74.13a41.79,41.79,0,0,0,9,1.89,38.94,38.94,0,0,0,12.84-1.27,40.58,40.58,0,0,0,16.42-8.68c.74-.64.74-1.24.11-1.84-1.12-1.1-2.3-2.15-3.48-3.2-.58-.51-1-.08-1.46.29-4.91,4.08-10.41,6.9-16.84,7.56a35.13,35.13,0,0,1-16.14-1.63c-.47-.17-1-.33-1.08-.94s.58-.74,1-1ZM104,46.92l-.46-.08-3.84,5.92c-.18.28-.36.64-.76.57s-.45-.45-.54-.78c-.38-1.47-.67-3-1.19-4.4C92.79,35.86,84.3,27.71,72,23.51c-1.1-.37-1.56,0-1.83,1-.36,1.35-.74,2.7-1.16,4-.28.9.18,1.16.94,1.41a31.69,31.69,0,0,1,14.87,9.77,31.06,31.06,0,0,1,6.85,14.48c.11.59.29,1.34-.25,1.75s-1.14-.2-1.64-.5C87.8,54.33,85.89,53.14,84,52c-.27-.16-.6-.49-.89-.15-.13.16-.08.53,0,.79.5,2.48,1,5,1.54,7.43a1.81,1.81,0,0,0,.87,1.2L96.34,68c1,.61,1.73.64,2.38-.47,2-3.49,4.63-6.65,6.58-10.21a2.78,2.78,0,0,0,.53-1.91C105.25,52.6,104.62,49.76,104,46.92Z"/></svg>