<svg xmlns="http://www.w3.org/2000/svg" viewBox="0 0 120 120"><defs><style>.a{fill:#fff;}.b{fill:#c90106;}.c{fill:#2b2928;}</style></defs><rect class="a" x="57" y="9.25" width="6" height="97"/><path d="M62.5,9.75v96h-5v-96h5m1-1h-7v98h7v-98Z"/><polygon class="b" points="63 13.74 57 20.39 57 15.4 63 8.75 63 13.74"/><polygon class="b" points="63 24.41 57 31.06 57 26.07 63 19.42 63 24.41"/><polygon class="b" points="63 35.08 57 41.73 57 36.74 63 30.09 63 35.08"/><polygon class="b" points="63 45.75 57 52.4 57 47.41 63 40.76 63 45.75"/><polygon class="b" points="63 56.42 57 63.07 57 58.08 63 51.43 63 56.42"/><polygon class="b" points="63 67.09 57 73.74 57 68.75 63 62.1 63 67.09"/><polygon class="b" points="63 77.76 57 84.41 57 79.42 63 72.77 63 77.76"/><polygon class="b" points="63 88.43 57 95.08 57 90.09 63 83.44 63 88.43"/><polygon class="b" points="63 99.1 57 105.75 57 100.76 63 94.11 63 99.1"/><rect class="a" x="37.5" y="104.75" width="45" height="6"/><path d="M82,105.25v5H38v-5H82m1-1H37v7H83v-7Z"/><polygon points="76.66 110.75 70.01 104.75 75 104.75 81.65 110.75 76.66 110.75"/><polygon points="65.99 110.75 59.34 104.75 64.33 104.75 70.98 110.75 65.99 110.75"/><polygon points="55.32 110.75 48.67 104.75 53.66 104.75 60.31 110.75 55.32 110.75"/><polygon points="44.65 110.75 38 104.75 42.99 104.75 49.64 110.75 44.65 110.75"/><path class="c" d="M38.64,30.17,37,34.43l4.65,1.5L81.36,18.38,83,14.12l-4.65-1.5ZM81.69,14.7l-1.16,3L41.59,34.92l-3.28-1.07,1.16-3L78.41,13.64Z"/><path class="c" d="M41.65,12.62,37,14.12l1.64,4.26L78.35,35.93,83,34.43l-1.64-4.26Zm-.06,1L80.53,30.85l1.16,3-3.28,1.07L39.47,17.7l-1.16-3Z"/><polygon class="a" points="65.66 24.28 80.53 17.7 81.69 14.7 78.41 13.64 60 21.77 41.59 13.64 38.31 14.7 39.47 17.7 54.34 24.28 39.47 30.85 38.31 33.85 41.59 34.92 60 26.78 78.41 34.92 81.69 33.85 80.53 30.85 65.66 24.28"/><polygon class="b" points="39.47 30.85 38.31 33.85 41.59 34.92 45.79 33.06 47.67 27.22 39.47 30.85"/><polygon class="b" points="80.53 17.7 81.69 14.7 78.41 13.64 74.15 15.52 72.27 21.35 80.53 17.7"/><polygon class="b" points="80.53 30.85 81.69 33.85 78.41 34.92 74.21 33.06 72.33 27.22 80.53 30.85"/><polygon class="b" points="39.47 17.7 38.31 14.7 41.59 13.64 45.85 15.52 47.73 21.35 39.47 17.7"/></svg>