<svg xmlns="http://www.w3.org/2000/svg" viewBox="0 0 120 120"><defs><style>.a{fill:#0054a7;}.b{fill:#fff;}.c{fill:#c90106;}</style></defs><rect class="a" x="31.43" y="10" width="57.14" height="100" rx="4.83"/><path class="b" d="M41.18,25.77h-1.6v-.49a1,1,0,0,0-.06-.44.25.25,0,0,0-.21-.09.27.27,0,0,0-.24.13.74.74,0,0,0-.08.38,1.09,1.09,0,0,0,.09.5,1.36,1.36,0,0,0,.49.41A4.86,4.86,0,0,1,41,27.29a2.61,2.61,0,0,1,.3,1.42,2.48,2.48,0,0,1-.16,1,1.3,1.3,0,0,1-.64.57,2.59,2.59,0,0,1-1.11.23,2.46,2.46,0,0,1-1.19-.27,1.29,1.29,0,0,1-.64-.67,3.44,3.44,0,0,1-.15-1.15V28H39v.81a1.1,1.1,0,0,0,.07.47.26.26,0,0,0,.24.11.28.28,0,0,0,.26-.13.87.87,0,0,0,.08-.41,1.2,1.2,0,0,0-.16-.76,5.2,5.2,0,0,0-.8-.61,7.42,7.42,0,0,1-.86-.62,1.31,1.31,0,0,1-.34-.53,2.2,2.2,0,0,1-.14-.87,2.38,2.38,0,0,1,.19-1.11,1.34,1.34,0,0,1,.63-.56,2.55,2.55,0,0,1,1-.2,2.84,2.84,0,0,1,1.15.22,1.25,1.25,0,0,1,.63.55,3,3,0,0,1,.15,1.12Z"/><path class="b" d="M45.35,23.76v1.33h-1v5.32H42.59V25.09h-1V23.76Z"/><path class="b" d="M48.39,23.76l1,6.65H47.61l-.09-1.2H46.9l-.1,1.2H45l.88-6.65ZM47.47,28c-.08-.75-.17-1.68-.26-2.79q-.27,1.92-.33,2.79Z"/><path class="b" d="M53.53,23.76v6.65H52l-.9-3v3H49.67V23.76h1.44l1,3v-3Z"/><path class="b" d="M54.22,23.76h1.29a7.79,7.79,0,0,1,1.7.12,1.33,1.33,0,0,1,.67.38,1.13,1.13,0,0,1,.28.58,8.48,8.48,0,0,1,.06,1.27v2.32a5.93,5.93,0,0,1-.08,1.2.91.91,0,0,1-.3.47,1.34,1.34,0,0,1-.51.24,5.16,5.16,0,0,1-.93.07H54.22ZM56,24.9v4.37c.25,0,.4-.05.46-.15a2.17,2.17,0,0,0,.08-.81V25.72a5.62,5.62,0,0,0,0-.57.28.28,0,0,0-.14-.19A.79.79,0,0,0,56,24.9Z"/><path class="b" d="M58.87,23.76H60.6a4.23,4.23,0,0,1,1.09.11,1.29,1.29,0,0,1,.57.32,1.13,1.13,0,0,1,.26.51,5,5,0,0,1,.07.92v.58a2.63,2.63,0,0,1-.13.93,1,1,0,0,1-.49.45,2.34,2.34,0,0,1-.91.15h-.47v2.68H58.87Zm1.72,1.14v1.69h.13a.39.39,0,0,0,.33-.11.89.89,0,0,0,.09-.49v-.54a.43.43,0,0,0-.55-.55Z"/><path class="b" d="M64.81,23.76v5.32h1v1.33H63.08V23.76Z"/><path class="b" d="M69.48,23.76l1,6.65H68.7l-.09-1.2H68l-.11,1.2H66.1L67,23.76ZM68.56,28c-.09-.75-.17-1.68-.26-2.79Q68,27.16,68,28Z"/><path class="b" d="M74,23.76l1,6.65H73.17l-.09-1.2h-.62l-.1,1.2H70.57l.89-6.65ZM73,28q-.14-1.12-.27-2.79-.26,1.92-.33,2.79Z"/><path class="b" d="M78.25,23.76v1.33h-1v5.32H75.5V25.09h-1V23.76Z"/><path class="b" d="M82.3,25.77H80.7v-.49a1,1,0,0,0-.06-.44.23.23,0,0,0-.21-.09.25.25,0,0,0-.23.13.65.65,0,0,0-.08.38,1.09,1.09,0,0,0,.09.5,1.3,1.3,0,0,0,.48.41,5.09,5.09,0,0,1,1.46,1.12,2.61,2.61,0,0,1,.3,1.42,2.45,2.45,0,0,1-.17,1,1.26,1.26,0,0,1-.64.57,2.59,2.59,0,0,1-1.11.23,2.39,2.39,0,0,1-1.18-.27,1.31,1.31,0,0,1-.65-.67,3.44,3.44,0,0,1-.15-1.15V28h1.61v.81a1.15,1.15,0,0,0,.06.47.26.26,0,0,0,.24.11.27.27,0,0,0,.26-.13.76.76,0,0,0,.09-.41,1.19,1.19,0,0,0-.17-.76,4.31,4.31,0,0,0-.8-.61,7.42,7.42,0,0,1-.86-.62,1.31,1.31,0,0,1-.34-.53,3.06,3.06,0,0,1,0-2,1.34,1.34,0,0,1,.63-.56,2.55,2.55,0,0,1,1.05-.2,2.81,2.81,0,0,1,1.15.22,1.21,1.21,0,0,1,.63.55,3,3,0,0,1,.15,1.12Z"/><path class="b" d="M51.75,90.23H50.1a5.72,5.72,0,0,0,0-.58.25.25,0,0,0-.09-.2.32.32,0,0,0-.24-.09.29.29,0,0,0-.21.08.3.3,0,0,0-.1.2c0,.08,0,.25,0,.5V91.2a.9.9,0,0,1,.37-.4,1.28,1.28,0,0,1,.61-.14,1.44,1.44,0,0,1,.81.25,1.08,1.08,0,0,1,.44.59,3.83,3.83,0,0,1,.09.93V93a8.46,8.46,0,0,1,0,1,1.3,1.3,0,0,1-.29.63,1.5,1.5,0,0,1-.63.45,2.5,2.5,0,0,1-.94.16,2.65,2.65,0,0,1-1.1-.19,1.51,1.51,0,0,1-.66-.53,1.67,1.67,0,0,1-.27-.73c0-.25,0-.74,0-1.48v-.92c0-.79,0-1.31,0-1.58a1.57,1.57,0,0,1,.28-.76,1.53,1.53,0,0,1,.69-.53,2.53,2.53,0,0,1,1-.18,2.56,2.56,0,0,1,1.15.22,1.37,1.37,0,0,1,.64.64A2.4,2.4,0,0,1,51.75,90.23ZM50.1,92.31a1.08,1.08,0,0,0-.08-.49.27.27,0,0,0-.26-.13.27.27,0,0,0-.25.13,1,1,0,0,0-.08.49v1.2a1.36,1.36,0,0,0,.08.57.26.26,0,0,0,.25.14.35.35,0,0,0,.22-.11c.08-.07.12-.25.12-.56Z"/><path class="b" d="M57.33,88.47V89.8h-1v5.31H54.58V89.8h-1V88.47Z"/><path class="b" d="M60.38,88.47l1,6.64H59.6l-.09-1.19h-.62l-.11,1.19H57l.88-6.64Zm-.92,4.27c-.09-.75-.17-1.68-.26-2.79q-.27,1.9-.33,2.79Z"/><path class="b" d="M65.37,88.47l-.61,2.94.92,3.7h-1.6a22.26,22.26,0,0,1-.53-2.42c0,.42-.1.87-.18,1.34l-.16,1.08H61.52l.63-3.7-.63-2.94h1.67c0,.18.1.49.19.91s.13.63.17.9l.37-1.81Z"/><path class="b" d="M67.65,88.47v6.64H65.92V88.47Z"/><path class="b" d="M72,90.48H70.4V90a1,1,0,0,0-.06-.44.24.24,0,0,0-.21-.1.29.29,0,0,0-.24.13.78.78,0,0,0-.08.39,1.24,1.24,0,0,0,.09.5,1.35,1.35,0,0,0,.49.4A5.07,5.07,0,0,1,71.85,92a2.55,2.55,0,0,1,.3,1.41,2.47,2.47,0,0,1-.17,1,1.33,1.33,0,0,1-.64.56,2.45,2.45,0,0,1-1.11.23A2.51,2.51,0,0,1,69.05,95a1.35,1.35,0,0,1-.65-.67,3.44,3.44,0,0,1-.15-1.15v-.44h1.61v.81a1.18,1.18,0,0,0,.06.48.28.28,0,0,0,.24.11.29.29,0,0,0,.26-.14.73.73,0,0,0,.08-.4,1.23,1.23,0,0,0-.16-.77,4.86,4.86,0,0,0-.8-.6,7.42,7.42,0,0,1-.86-.62,1.47,1.47,0,0,1-.34-.53,2.2,2.2,0,0,1-.14-.87,2.45,2.45,0,0,1,.19-1.12,1.32,1.32,0,0,1,.63-.55,2.55,2.55,0,0,1,1-.2,2.68,2.68,0,0,1,1.15.22,1.19,1.19,0,0,1,.63.54A3,3,0,0,1,72,90.22Z"/><path class="c" d="M60,36.47A23.53,23.53,0,1,0,83.53,60,23.54,23.54,0,0,0,60,36.47ZM78.6,60a18.55,18.55,0,0,1-3.55,10.93l-26-26A18.6,18.6,0,0,1,78.6,60ZM41.4,60A18.55,18.55,0,0,1,45,49.07l26,26A18.6,18.6,0,0,1,41.4,60Z"/></svg>