<svg xmlns="http://www.w3.org/2000/svg" viewBox="0 0 120 120"><defs><style>.a{fill:#c90106;}</style></defs><path class="a" d="M60,9.23A50.77,50.77,0,1,1,9.21,59.79,50.82,50.82,0,0,1,60,9.23Zm0,87.94A37.15,37.15,0,1,0,22.88,60,37.17,37.17,0,0,0,60,97.17Z"/><path d="M67.28,47.81q10.16,0,20.32,0c1.64,0,1.72.09,1.71,1.75q0,9.15-.06,18.28c0,.72-.21,1.09-1,1.07-1.36,0-2.72,0-4.09,0A1.13,1.13,0,0,1,83,68.1a5.56,5.56,0,0,0-5.16-3.39c-3-.08-6.06-.1-9.09-.09-2.59,0-4.75.81-5.8,3.45a1.17,1.17,0,0,1-1.22.74q-7.87,0-15.73,0A1,1,0,0,1,45,68a5.93,5.93,0,0,0-5.83-3.48,5.56,5.56,0,0,0-4.82,4.57c-.11.7-.43.94-1.06.95-.92,0-1.84,0-2.76,0-.69,0-1-.26-.93-1a2.8,2.8,0,0,1,.43-1.65,1.36,1.36,0,0,0,.27-1,3.35,3.35,0,0,0,0-.71c-1-4.07.35-7.75,1.69-11.49,1.21-3.35.88-2.78,4-2.81,1.84,0,3.68,0,5.52,0,1.35,0,1.71.29,1.8,1.64.18,2.68.31,5.37.45,8,0,.31,0,.61,0,.92s.1.86.65.88.75-.4.79-.87,0-1,0-1.53c0-3.78,0-7.56,0-11.34,0-1.39.2-1.55,1.61-1.54H67.28ZM36.84,59.22v.05h2.95c.58,0,1-.22,1.05-.86,0-1.25,0-2.51,0-3.77,0-.57-.39-.85-.94-.86l-4.27,0a1.23,1.23,0,0,0-1.26,1c-.36,1.2-.76,2.39-1.17,3.58-.23.64,0,.9.64.9Z"/><path d="M73.86,70a4,4,0,0,1,4.21-4.15,4.13,4.13,0,0,1-.18,8.25A4,4,0,0,1,73.86,70Z"/><path d="M72.12,69.83A4.06,4.06,0,0,1,68,74a3.83,3.83,0,0,1-4-4,4,4,0,0,1,4-4.23A4,4,0,0,1,72.12,69.83Z"/><path d="M35.73,69.7a3.74,3.74,0,0,1,3.94-4c2.4,0,3.95,1.72,4,4.2a4.26,4.26,0,0,1-4.15,4A3.88,3.88,0,0,1,35.73,69.7Z"/></svg>