<svg xmlns="http://www.w3.org/2000/svg" viewBox="0 0 120 120"><defs><style>.a{fill:#0054a7;}.b{fill:#c90106;}</style></defs><path class="a" d="M15.25,81.55V62.66c0-1.74.19-3.48.16-5.23-.24-11.87-.16-23.75-.15-35.62a22.28,22.28,0,0,1,.27-3.26,3.3,3.3,0,0,1,2.78-2.76,14.38,14.38,0,0,1,2.7-.13H58.8l39.78,0c.84,0,1.68,0,2.52.11a3.31,3.31,0,0,1,3.19,3.39c0,1.24,0,2.49,0,3.74q0,16.32,0,32.64,0,22.62,0,45.24a3.67,3.67,0,0,1-3.43,3.94,24.67,24.67,0,0,1-3.64.13q-17.49,0-35,0c-14.27,0-28.55,0-42.82,0-2.7,0-4.27-1.45-4.23-4.22C15.32,94.27,15.25,87.91,15.25,81.55ZM59.94,19.49H23.56c-2.91,0-4.25,1.35-4.26,4.3,0,.62,0,1.25,0,1.87V96.73a3.64,3.64,0,0,0,3.91,4c.75,0,1.5,0,2.25,0q35.53,0,71.08,0a4.15,4.15,0,0,0,4.23-4.25c-.09-10.54,0-21.08,0-31.62q0-20.85,0-41.71a3.73,3.73,0,0,0-3.59-3.68Z"/><path class="a" d="M60,21.55H96.39c1.68,0,2.23.56,2.23,2.24q0,22.31,0,44.61a1.71,1.71,0,0,1-1.15,1.79c-1.94.85-3.85,1.78-5.76,2.69a1.9,1.9,0,0,1-2-.08,21,21,0,0,0-8.75-3c-2-.21-4-.69-6.07-1-.47-.08-1.07-.32-1.38.21a1.55,1.55,0,0,0,.15,1.6,2.94,2.94,0,0,0,1.9,1.4c2,.53,4.16.71,6.18,1.36a1.68,1.68,0,0,1,1.32,1.49c.06.68.24.89,1,.85a2.12,2.12,0,0,1,2.3,2.07,1.09,1.09,0,0,0,.82,1.08c1.63.6,2,1.45,1.35,3a.89.89,0,0,0,.16,1.1,2.36,2.36,0,0,1,.64,1.8,3.71,3.71,0,0,0,1.91,2.54,1.35,1.35,0,0,0,1-.18c1-.48,1.9-.94,2.86-1.41a1.83,1.83,0,0,0,1.08-1.62,2.23,2.23,0,0,1,2-1.46c.39.1.43.42.41.74-.19,2.84.09,5.67-.06,8.51-.07,1.47.06,2.93,0,4.39,0,2-.41,2.37-2.35,2.37H23.51c-1.53,0-2.15-.61-2.15-2.15q0-36.24,0-72.48c0-2,.41-2.47,2.44-2.48ZM24.29,45.31a20,20,0,0,0,3,11.06,20.88,20.88,0,0,0,11.49,9.08,21.1,21.1,0,0,0,10.34.72,20.52,20.52,0,0,0,8.82-3.83.86.86,0,0,1,1.31.1q6,6.06,12.07,12.11c2.32,2.29,1.56,2,4.39.74.5-.23,1.33-.23,1.31-1s-.75-1-1.24-1.42a1.69,1.69,0,0,0-.68-.31,3.1,3.1,0,0,1-2.19-2.09,4.25,4.25,0,0,0-1-1.66c-3.13-3.09-6.23-6.2-9.37-9.28a1.13,1.13,0,0,1-.16-1.71A22.25,22.25,0,0,0,65.05,53,20.41,20.41,0,0,0,66,41.2,21.16,21.16,0,0,0,34.52,27.43C27.84,31.51,24.55,37.55,24.29,45.31ZM88.74,86.1c-.17.07-.31.12-.45.19-.73.34-1.45.7-2.18,1-.94.45-.93.66-.25,1.5.86,1.06,1.85,2,2.8,3,1.48,1.55,3,3,4.58,4.53.34.33.77.56,1.13.09a17.33,17.33,0,0,1,1.9-1.93c.53-.51.45-.92,0-1.42-2.28-2.3-4.61-4.54-7-6.7A4.22,4.22,0,0,0,88.74,86.1ZM74.1,84.3c.22-.08.46-.15.69-.25.94-.41,1.87-.83,2.8-1.27,2.39-1.13,4.78-2.25,7.14-3.43a1.46,1.46,0,0,0,.8-2.08,1.58,1.58,0,0,0-2.33-.58c-1.72,1-3.52,1.73-5.3,2.53-1.45.66-2.89,1.31-4.32,2a1.67,1.67,0,0,0-1,1.9C72.76,83.89,73.37,84.15,74.1,84.3Zm2.67,2.61a1.82,1.82,0,0,0,.88-.24c1.83-.86,3.68-1.69,5.51-2.55,1.4-.67,2.8-1.35,4.19-2.06A1.28,1.28,0,0,0,88,80.25a1.2,1.2,0,0,0-1.62-.64c-.44.15-.9.26-1.32.45-2.23,1-4.45,2.09-6.65,3.17a9.05,9.05,0,0,0-2.56,1.33,1.31,1.31,0,0,0-.31,1.54A1.25,1.25,0,0,0,76.77,86.91Zm5.75-11.25c0-1.28-.86-2-1.86-1.7a25.79,25.79,0,0,0-2.93,1.21c-1.81.83-3.62,1.66-5.4,2.55-1,.5-1.33,1.31-1,2a1.52,1.52,0,0,0,2,.73c2.75-1.23,5.49-2.51,8.22-3.79A1.48,1.48,0,0,0,82.52,75.66ZM80.24,89.17c.21-.07.48-.14.74-.25,2.2-1,4.4-2,6.6-3,.93-.44,1.26-1.2.89-1.95s-1.11-1-2.07-.56c-1.45.64-2.92,1.24-4.33,1.95a11.53,11.53,0,0,0-2.58,1.29A1.46,1.46,0,0,0,79,88.27,1.38,1.38,0,0,0,80.24,89.17Z"/><path class="b" d="M45.47,65.19A19.73,19.73,0,1,1,65.09,45.46,19.74,19.74,0,0,1,45.47,65.19Zm-.11-5.53A14.2,14.2,0,1,0,31.07,45.37,14.16,14.16,0,0,0,45.36,59.66Z"/><path d="M38.74,54.11a2,2,0,0,1-1.75-3,19.26,19.26,0,0,1,3.17-3.4c3.12-3.18,6.29-6.3,9.44-9.43.33-.33.68-.65,1-.95a1.8,1.8,0,0,1,2.46-.11,2,2,0,0,1,.69,2.57A3.75,3.75,0,0,1,53,40.85L40.52,53.25A2.17,2.17,0,0,1,38.74,54.11Z"/></svg>