<svg xmlns="http://www.w3.org/2000/svg" viewBox="0 0 120 120"><defs><style>.a{fill:#fff;}.b{fill:#0054a7;}.c{fill:red;}</style></defs><rect class="a" x="6" y="40.5" width="108" height="39" rx="4.96"/><path d="M109,41a4.46,4.46,0,0,1,4.46,4.46V74.54A4.46,4.46,0,0,1,109,79H11A4.46,4.46,0,0,1,6.5,74.54V45.46A4.46,4.46,0,0,1,11,41H109m0-1H11A5.45,5.45,0,0,0,5.5,45.46V74.54A5.45,5.45,0,0,0,11,80H109a5.45,5.45,0,0,0,5.46-5.46V45.46A5.45,5.45,0,0,0,109,40Z"/><path class="b" d="M57.89,77.57a18,18,0,0,1-12.14-4.29A17.67,17.67,0,0,1,40.64,66a21.06,21.06,0,0,1-.75-3.16,12.52,12.52,0,0,1-.2-2.43,16.81,16.81,0,0,1,2.42-8.78,17.4,17.4,0,0,1,5.93-6,16.82,16.82,0,0,1,8.85-2.59,18.7,18.7,0,0,1,6.22.79,18.4,18.4,0,0,1,6.36,3.63,16.9,16.9,0,0,1,5.35,8.66,17.76,17.76,0,0,1,.46,5.29,16.23,16.23,0,0,1-3.9,9.73,17.55,17.55,0,0,1-10.25,6.1A14.37,14.37,0,0,1,57.89,77.57Zm-.41-.34a17.69,17.69,0,0,0,4.22-.54,17.08,17.08,0,0,0,9.57-6,15.3,15.3,0,0,0,2.76-5,19,19,0,0,0,1-5.49,17.55,17.55,0,0,0-.39-3.06A15.4,15.4,0,0,0,71.32,50,17.37,17.37,0,0,0,60.1,43.58a15.62,15.62,0,0,0-5.15,0A18.32,18.32,0,0,0,48.27,46a17.93,17.93,0,0,0-5.36,5.12,15.41,15.41,0,0,0-2.15,4.74,17.16,17.16,0,0,0-.7,4.71,16.15,16.15,0,0,0,.5,3.52,15.77,15.77,0,0,0,2.73,6,17.62,17.62,0,0,0,5.06,4.59A18.77,18.77,0,0,0,57.48,77.23Z"/><path class="b" d="M57.33,76.83A16.81,16.81,0,0,1,46.58,73a16.13,16.13,0,0,1-2.22-23.12,16.25,16.25,0,0,1,6.39-4.71,17,17,0,0,1,9.13-1.2A17.18,17.18,0,0,1,71,50.21,16,16,0,0,1,72.57,68a16.42,16.42,0,0,1-6.8,6.74,17.48,17.48,0,0,1-5.49,1.86C59.34,76.79,58.41,76.75,57.33,76.83ZM50.58,48.58c-.49,0-1-.3-1.49.11S48,49.76,47.4,50.23c-.1.08-.23.16-.19.3s.22.15.36.16h1.66c.15,0,.35-.06.42.13s-.11.27-.22.38a20.78,20.78,0,0,0-1.59,1.66,11.56,11.56,0,0,0-2.54,6.45,13.52,13.52,0,0,0,.22,3.3c.06.32.21.52.59.41s.83-.22,1.24-.3.43-.14.35-.52a9.71,9.71,0,0,1,3.57-9.74c.12-.1.23-.27.41-.16s.11.29.08.44a14.57,14.57,0,0,0-.06,2.19c0,.11-.05.28.1.32s.2-.08.27-.14l1.72-1.53a1,1,0,0,0,.33-.71c.05-1.24.08-2.49.13-3.73,0-.41-.17-.58-.57-.57Zm5.59,19,0-.15-2.65-.82a.73.73,0,0,0-.52.05c-1.19.6-2.38,1.21-3.57,1.8-.33.16-.38.34-.23.67.45,1,1.08,1.89,1.51,2.88A1.77,1.77,0,0,0,52,73.1c.72.17,1.43.43,2.15.65a13.54,13.54,0,0,0-.8-1.75c-.09-.17-.33-.37-.13-.57s.37,0,.55,0a14,14,0,0,0,2.86.6,12.37,12.37,0,0,0,4.06-.41,12.81,12.81,0,0,0,5.19-2.74c.24-.21.24-.39,0-.59-.36-.34-.73-.67-1.1-1-.18-.17-.32,0-.46.09A9.85,9.85,0,0,1,59,69.81a11.18,11.18,0,0,1-5.1-.52c-.15-.05-.33-.1-.34-.29s.18-.24.32-.31ZM71.42,56.18l-.14,0L70.06,58c-.06.09-.11.2-.24.18s-.14-.14-.17-.25a13.62,13.62,0,0,0-.38-1.39,12.27,12.27,0,0,0-8-7.79c-.35-.12-.49,0-.58.32s-.23.86-.37,1.28.06.37.3.45a10,10,0,0,1,4.7,3.09A9.74,9.74,0,0,1,67.5,58.5c0,.18.09.42-.08.55s-.36-.06-.52-.16c-.61-.36-1.21-.74-1.82-1.11-.08-.05-.19-.15-.28,0s0,.16,0,.25c.16.78.33,1.56.49,2.35a.6.6,0,0,0,.27.37L69,62.86c.31.19.55.2.75-.15.65-1.1,1.47-2.1,2.09-3.22a.91.91,0,0,0,.16-.61C71.81,58,71.61,57.08,71.42,56.18Z"/><polygon class="c" points="29.31 43.25 17.88 43.25 9.31 60.39 17.88 77.53 29.31 77.53 20.74 60.39 29.31 43.25"/><polygon class="c" points="106.31 43.25 94.88 43.25 86.31 60.39 94.88 77.53 106.31 77.53 97.74 60.39 106.31 43.25"/></svg>