<svg xmlns="http://www.w3.org/2000/svg" viewBox="0 0 120 120"><defs><style>.a{fill:#fff;}</style></defs><rect class="a" x="9" y="9" width="102" height="102" rx="6.33"/><path d="M104.67,11A4.33,4.33,0,0,1,109,15.33v89.34a4.33,4.33,0,0,1-4.33,4.33H15.33A4.33,4.33,0,0,1,11,104.67V15.33A4.33,4.33,0,0,1,15.33,11h89.34m0-4H15.33A8.33,8.33,0,0,0,7,15.33v89.34A8.33,8.33,0,0,0,15.33,113h89.34a8.33,8.33,0,0,0,8.33-8.33V15.33A8.33,8.33,0,0,0,104.67,7Z"/><path d="M72,79.52V103H54V79.52A11.54,11.54,0,0,0,42.48,68H19V50H42.48A29.52,29.52,0,0,1,72,79.52Z"/><rect x="84" y="41" width="8" height="32" transform="translate(145 -31) rotate(90)"/></svg>