<svg xmlns="http://www.w3.org/2000/svg" viewBox="0 0 120 120"><defs><style>.a{fill:#c90106;}</style></defs><path class="a" d="M60.49,110.74h-4a39.28,39.28,0,0,1-10.85-1.88,42,42,0,0,1-6.77-2.54,56.86,56.86,0,0,1-6.3-3.57A53,53,0,0,1,19,89.44a54.34,54.34,0,0,1-3.87-6.52,62.15,62.15,0,0,1-2.75-6.68,35.47,35.47,0,0,1-1.42-5,54.22,54.22,0,0,1-1-15.5,41.59,41.59,0,0,1,1.75-9.61,48.85,48.85,0,0,1,2.36-6.6A43.72,43.72,0,0,1,17,34c1.13-1.69,2.17-3.42,3.41-5a53,53,0,0,1,5.68-6.21,40.78,40.78,0,0,1,6.41-5.06c3.28-2.05,6.56-4.1,10.36-5.15,1-.29,2-.82,3.1-1.18a42.14,42.14,0,0,1,8.69-1.7,39.13,39.13,0,0,1,12,.12c3,.52,6,.79,8.87,1.93a61.08,61.08,0,0,1,10.57,5A52.6,52.6,0,0,1,92.15,21a53.41,53.41,0,0,1,10.64,12.33,52.25,52.25,0,0,1,5.38,12,42.93,42.93,0,0,1,2,12.92,57.09,57.09,0,0,1-.18,7.74,46.88,46.88,0,0,1-1.8,8.89c-.72,2-1.35,4.07-2.22,6a51.14,51.14,0,0,1-4.84,8.6,45.86,45.86,0,0,1-5.94,6.89,48.62,48.62,0,0,1-8.42,6.77,59.78,59.78,0,0,1-9.14,4.53A41.54,41.54,0,0,1,60.49,110.74Zm47.69-51a40.17,40.17,0,0,0-.92-9,53.58,53.58,0,0,0-2.78-9.24,64.44,64.44,0,0,0-3.68-7.28,46.62,46.62,0,0,0-8.71-10.39A47.37,47.37,0,0,0,74,13.68c-1.34-.39-2.75-.47-4-1-3.34-1.25-6.84-1.09-10.27-1.09a31.06,31.06,0,0,0-10.15,1.21c-2.33.8-4.79,1.19-7.12,2.15a51.66,51.66,0,0,0-10.36,5.7,41.85,41.85,0,0,0-6.53,5.65,57.07,57.07,0,0,0-7.3,9.88,39.37,39.37,0,0,0-3.48,7.6,50.52,50.52,0,0,0-2.51,11.33,52.89,52.89,0,0,0,1.54,18.29,15.25,15.25,0,0,0,1,3.31c1.17,2.2,1.82,4.63,3.12,6.78,1.18,1.93,2.34,3.87,3.68,5.7A49.48,49.48,0,0,0,30,98.07a44.31,44.31,0,0,0,8.77,5.68,32.19,32.19,0,0,0,7.91,3.06c1.63.31,3.16,1.08,4.77,1.27a60.47,60.47,0,0,0,12.55.56,52.31,52.31,0,0,0,9.47-1.83,17.79,17.79,0,0,0,3.65-1c2.48-1.36,5.13-2.36,7.57-3.84a48.18,48.18,0,0,0,11.07-9.12A50,50,0,0,0,104,80a55.69,55.69,0,0,0,3.36-10.74A44.87,44.87,0,0,0,108.18,59.77Z"/><path class="a" d="M106.3,59.62a38.8,38.8,0,0,1-.66,8.29,50.53,50.53,0,0,1-2.18,8.46,48.45,48.45,0,0,1-8.88,14.81A49.43,49.43,0,0,1,87.08,98a52.75,52.75,0,0,1-9.93,5.53c-2.06.9-4.26,1.27-6.34,2a31.29,31.29,0,0,1-9.9,1.33c-3.51,0-7.08.14-10.49-1.12-1.3-.48-2.72-.47-4-.93a53.52,53.52,0,0,1-10.12-4.65,44.66,44.66,0,0,1-8.42-6.55,45.57,45.57,0,0,1-7.91-10.3c-1.05-1.91-1.85-4-2.77-5.92-1.66-3.51-2.21-7.28-2.9-11a37.45,37.45,0,0,1,0-12.32,47,47,0,0,1,2.24-9.51A47.86,47.86,0,0,1,28.52,26.07,45.52,45.52,0,0,1,43,16.83c2.48-1,5.07-1.45,7.58-2.22,5.33-1.61,10.69-1.12,16-.72a32.3,32.3,0,0,1,6,1.37,43.21,43.21,0,0,1,12.79,5.93,46,46,0,0,1,11.7,11.17,43.73,43.73,0,0,1,4.42,7.4A57.9,57.9,0,0,1,105,49.84C105.9,53.3,105.87,56.76,106.3,59.62ZM94.73,60.89a34.1,34.1,0,0,0-2-12.72A37,37,0,0,0,87,37.89,33,33,0,0,0,79.46,31a34.89,34.89,0,0,0-6-3.21,20.15,20.15,0,0,0-6.9-2,6.49,6.49,0,0,1-1.14-.2c-6.07-1.45-11.94-.3-17.65,1.66a30,30,0,0,0-9.08,5.13A34.37,34.37,0,0,0,28.17,46.18a33.92,33.92,0,0,0-2.33,7.66c-1,6.67-.66,13.16,1.95,19.44a14.08,14.08,0,0,0,.92,2.48,72.79,72.79,0,0,0,4.12,6.37,38.06,38.06,0,0,0,7.75,7.19,54.69,54.69,0,0,0,5.72,3.13c3.19,1.65,6.64,2.18,10.06,2.69,5.26.79,10.4-.18,15.44-1.8.86-.28,1.55-.85,2.38-1.11a21.31,21.31,0,0,0,6.29-3.54A36,36,0,0,0,89,79.82a33.91,33.91,0,0,0,4.47-9.42A24.91,24.91,0,0,0,94.73,60.89Z"/><path d="M66.49,54.36A34.41,34.41,0,0,0,68,64.57a38.39,38.39,0,0,1,1.2,6.22c.17,1.65,1.2,2.89,1.66,4.38.72,2.35,2.12,4.4,2.9,6.74a24.94,24.94,0,0,0,1.64,3.42,2.58,2.58,0,0,1-.55,3.52,1.35,1.35,0,0,1-2.31-.25c-2.83-4.7-6-9.2-8.59-14A15.86,15.86,0,0,1,62.68,71a15,15,0,0,0-1.2-2.86c-.3-.62-.48-.47-.88-.06-1.1,1.14-1.13,2.75-1.88,4-1.19,2.06-1.87,4.35-3,6.45-1,1.82-1.58,3.82-2.51,5.68-.75,1.5-1.39,3.06-2.12,4.58a2.59,2.59,0,0,1-3,1.13,1.83,1.83,0,0,1-.57-2.56c1.13-2.32,1.07-5,2.1-7.27,1.35-3,1.58-6.38,2.84-9.45a21.69,21.69,0,0,0,1.36-5.12A23.8,23.8,0,0,1,55.31,61a12.59,12.59,0,0,0,.29-6.82,33.67,33.67,0,0,1-.7-4c-.07-1.18-.37-1.34-1.32-.62-2.56,2-5.07,4-7.6,6-1.32,1.06-2,1.14-3.1.42-.55-.38-.69-.8-.31-1.35a10.85,10.85,0,0,1,.9-1.21q6-6.27,11.94-12.52a5.74,5.74,0,0,1,2.23-1.62.93.93,0,0,0,.7-.83c0-.44-.39-.51-.69-.66a5.41,5.41,0,0,1-2.68-6,5.68,5.68,0,0,1,4.3-3.9c2-.27,4,1,5.23,3.27a4.79,4.79,0,0,1-1,5.35,3.74,3.74,0,0,1-1.61,1.27c-.62.2-.62.5-.1.85a.85.85,0,0,0,.19.14C65.18,40,66.78,43,69,45.2c1,.95,1.78,2,2.67,3a3.31,3.31,0,0,1,.82,2.11c.1,2.39.18,4.77.27,7.16,0,.84-.11,1.55-1.16,1.66s-1.45-.3-1.85-1.26c-.82-2-.72-4.17-1.33-6.19a9.75,9.75,0,0,0-.54-1.39.82.82,0,0,0-.9-.58c-.51.09-.48.54-.48.92C66.48,51.89,66.49,53.13,66.49,54.36Z"/></svg>