<svg xmlns="http://www.w3.org/2000/svg" viewBox="0 0 120 120"><defs><style>.a{fill:#0054a7;}</style></defs><path class="a" d="M60,7.34a52.68,52.68,0,0,1,52.82,52.85c0,28.66-23.81,52.4-52.62,52.47-29.16.06-53.13-23.54-53.1-52.31A52.86,52.86,0,0,1,60,7.34Zm50.94,52a51.06,51.06,0,0,0-102.12.86C9,87.86,32.12,110.69,60,110.64A50.93,50.93,0,0,0,111,59.35Z"/><path class="a" d="M59.92,107.86c-27-.06-48.55-21.43-48.25-48.5S33.81,11.41,60.78,11.64a48.11,48.11,0,0,1-.86,96.22ZM49.28,33.77c-1.77,0-3.29-.4-4.81,0-3.39.93-4.8,3.52-5.64,6.63C37.41,45.64,36,50.87,34.47,56.05c-.38,1.28-.21,1.94,1.06,2.38s1.77,0,2.16-1.19c1.25-3.72,2.86-7.33,3.85-11.15.1-.39.14-1.05.66-1s.48.76.47,1.21c-.2,5.11.49,10.26-.81,15.33-.6,2.32-.9,4.72-1.31,7.09-1.38,7.91-2.73,15.83-4.14,23.74-.39,2.19,0,2.62,2.2,2.41,1.25-.12,1.61-1,1.9-1.93,2.6-8.57,5.75-17,8-25.64.08-.32.11-.74.48-.78s.63.37.73.75c.25,1,.4,1.93.73,2.86,2.54,7.27,4.81,14.63,7.13,22A9.61,9.61,0,0,0,58.26,94c.76,1.38,2.11.89,3.24.8.76,0,.76-.82.62-1.44-1.06-4.75-1.7-9.58-2.52-14.37C57.67,67.71,55,56.56,55.5,45c0-.37-.18-.84.32-1s.68.28.86.61c2,3.78,4.72,7.09,6.86,10.78.52.91,1,1.64,2.12.85,1-.68,1.69-1.39.63-2.65a13,13,0,0,1-1.36-2.42c-2.15-4.18-4.21-8.41-6.44-12.54-1.82-3.39-4.3-5.85-8.64-4.93A1.77,1.77,0,0,1,49.28,33.77ZM73.7,69.69a21.44,21.44,0,0,1,0,3.76c-1.15,6.33-2.4,12.65-3.62,19-.17.84-.67,1.79.59,2.17a1.67,1.67,0,0,0,2.16-1.24Q75,87.47,77.28,81.58c.16-.43,0-1.09.73-1.11.52,0,.64.51.86.88,2,3.44,4,6.87,6,10.33.59,1,1.29,1,2.18.55a1.41,1.41,0,0,0,.71-2.15c-1.74-3.82-3.38-7.69-5.1-11.53-1.26-2.8-2.56-5.57-1-8.7a1.72,1.72,0,0,0,.06-.65c0-.33.08-.68.42-.83s.72.1,1,.38c1.36,1.41,2.74,2.8,4.06,4.25a1.14,1.14,0,0,0,1.93,0c.66-.69,1.18-1.36.2-2.2-3-2.56-5.5-5.61-8.28-8.37a3.81,3.81,0,0,0-2.73-1.3c-1.43,0-2.89-.38-4.23-.13-2.55.48-3.82-1-5.12-2.68-.23-.3-.46-.61-.67-.93a1.14,1.14,0,0,0-1.81-.35,1.25,1.25,0,0,0-.41,2c1.06,1.51,2.11,3.05,3.16,4.57a3.13,3.13,0,0,0,1.64,1.28c2.78.85,2.78.86,2.84,3.84C73.71,69,73.7,69.36,73.7,69.69ZM49.21,32.41a5.74,5.74,0,0,0,5.69-5.59,5.94,5.94,0,0,0-5.73-5.62,6,6,0,0,0-5.61,5.58A5.75,5.75,0,0,0,49.21,32.41Zm24.72,24a4.74,4.74,0,0,0,4.3,4.18,4.65,4.65,0,0,0,4.13-4.17,4.22,4.22,0,0,0-8.43,0Z"/></svg>