<svg xmlns="http://www.w3.org/2000/svg" viewBox="0 0 120 120"><defs><style>.a{fill:#c90106;}</style></defs><path class="a" d="M108.83,103.67H78.53l-66,0c-3.26,0-3.28-.06-1.68-2.85Q21.17,82.91,31.47,65C37,55.47,42.43,45.88,48,36.32c3.27-5.67,6.61-11.29,9.91-16.94.44-.76.79-1.58,1.17-2.38.17-.37.33-.73.8-.72s.66.35.86.7c5.1,9,10.17,17.93,15.31,26.87,5.33,9.29,10.73,18.53,16.09,27.8q8.37,14.47,16.7,29c.31.53.67,1,1,1.53s.54.75.24,1.21S109.28,103.74,108.83,103.67ZM60,93.92c9.89,0,19.77,0,29.66,0,1,0,2.31.81,2.95-.25s-.67-1.85-1.16-2.71c-5.26-9.21-10.59-18.37-15.87-27.57Q68.13,50.45,60.76,37.49c-.22-.39-.39-.84-.95-.78s-.69.48-.9.88c-3.8,7.23-8.07,14.18-12.13,21.26C40.72,69.44,34.6,80,28.56,90.62c-.55,1-2.07,1.76-1.37,3s2.06.31,3.11.31C40.19,93.94,50.08,93.92,60,93.92Z"/><path d="M65,81.63V90c0,.43.14.94-.4,1.15s-.66-.26-.91-.54c-1-1.07-2-2.1-2.91-3.2-.68-.82-1.23-.77-1.9,0-1,1.11-2,2.2-3,3.29-.27.28-.54.62-1,.37s-.28-.56-.28-.89q0-16,.07-32a4.88,4.88,0,0,1,.73-2.51A61.26,61.26,0,0,0,59,49.24c.18-.41.34-.9.87-.9s.66.51.87.89c1.19,2.13,2.34,4.29,3.6,6.38A5,5,0,0,1,65,58.45c-.07,2.55,0,5.11-.12,7.66,0,1.21.42,1.74,1.64,1.72,2.16,0,4.33,0,6.49-.08,1.1,0,2-.09,2,1.44,0,2.46-.07,2.66-1.82,2.65-2.16,0-4.33,0-6.49,0-1.27-.06-1.82.31-1.78,1.68.08,2.71,0,5.43,0,8.15Z"/></svg>