<svg xmlns="http://www.w3.org/2000/svg" viewBox="0 0 120 120"><defs><style>.a{fill:#c90106;}</style></defs><path class="a" d="M60.14,102H13c-1,0-1.75-.1-1-1.34q5.64-9.73,11.29-19.45,12.69-22,25.34-44l10.65-18.5c.19-.32.31-.71.78-.68s.56.43.75.75q9,15.68,18,31.34c4.7,8.17,9.36,16.36,14.08,24.52,5,8.67,10.08,17.31,15.12,26,.2.34.4.66.21,1s-.57.41-1,.41H60.14ZM60,92.87v0c9.59,0,19.18,0,28.77,0,1,0,2.28.64,2.87-.32s-.68-1.87-1.18-2.73c-4.46-7.87-9-15.7-13.5-23.55-5.36-9.33-10.9-18.56-16-28-.21-.39-.4-.78-.91-.8s-.83.41-1,.86c-1.22,2.63-2.78,5.07-4.22,7.57q-8.3,14.42-16.61,28.81C35,80.14,32,85.76,28.52,91.13c-.26.41-.61.8-.33,1.31s.82.43,1.29.43Z"/><path d="M65.1,73.27v15.9c0,.33,0,.69-.32.83a.76.76,0,0,1-.94-.42c-.71-1.16-1.87-1.91-2.68-3-.66-.87-1.25-.81-1.94,0-.86,1-1.81,2-2.73,3-.25.27-.52.6-1,.43s-.32-.62-.3-1c.31-5.25,0-10.5.16-15.75.05-1.38-.63-1.75-1.88-1.71-2.14.07-4.29,0-6.43,0-1.72.06-1.45-1.07-1.51-2.15s.33-1.66,1.56-1.6c2.08.09,4.18,0,6.27.1,1.41.06,2.07-.42,2-1.93-.1-2.57-.06-5.15-.12-7.72a3.65,3.65,0,0,1,.48-2C57,54.17,58.22,52,59.43,49.88c.21-.36.32-.88.86-.81s.52.5.69.82a14.89,14.89,0,0,0,1.29,2.4c2.56,3.21,3.12,6.87,2.88,10.85C64.94,66.51,65.11,69.89,65.1,73.27Z"/></svg>